<svg id="svg" version="1.1" xmlns="http://www.w3.org/2000/svg" xmlns:xlink="http://www.w3.org/1999/xlink" width="400" height="400" viewBox="0, 0, 400,400"><g id="svgg"><path id="path0" d="M129.600 136.395 C 127.239 137.850,126.751 137.998,124.296 137.999 C 121.121 138.000,118.826 138.920,116.453 141.141 C 114.504 142.966,110.189 146.419,108.600 147.426 C 107.940 147.844,106.770 148.897,106.000 149.765 C 101.812 154.489,101.074 155.131,100.494 154.551 C 100.187 154.244,99.770 154.095,99.568 154.220 C 98.995 154.574,99.135 155.489,99.800 155.745 C 100.956 156.188,100.558 158.008,98.264 162.761 C 96.459 166.502,98.141 176.372,101.441 181.400 C 102.163 182.500,102.863 183.853,102.997 184.407 C 103.158 185.072,103.868 185.751,105.090 186.407 C 106.888 187.372,107.142 187.652,107.859 189.459 C 108.192 190.298,108.276 190.274,111.333 188.486 L 114.466 186.653 119.933 186.500 C 128.288 186.267,130.467 188.614,127.788 194.964 C 127.505 195.635,127.583 195.689,128.433 195.404 C 130.968 194.554,134.782 194.708,137.426 195.766 C 144.046 198.416,157.894 195.812,159.818 191.556 C 160.178 190.761,161.699 189.007,163.199 187.657 C 166.850 184.373,167.751 182.519,167.131 179.567 C 166.534 176.720,166.889 175.448,168.840 173.441 C 173.849 168.288,174.501 166.271,171.497 165.224 C 169.888 164.663,168.800 163.665,168.800 162.750 C 168.800 162.351,168.423 161.301,167.962 160.417 C 167.275 159.100,167.175 158.434,167.409 156.736 C 167.703 154.594,167.659 154.460,164.243 147.205 C 163.912 146.501,163.344 146.139,162.305 145.971 C 160.547 145.685,159.595 144.662,157.963 141.310 C 156.267 137.825,155.164 137.028,152.600 137.438 C 149.696 137.903,145.329 137.706,143.226 137.016 C 135.770 134.568,132.783 134.432,129.600 136.395 M335.484 188.311 C 333.774 189.366,333.800 188.797,333.800 225.880 C 333.800 264.810,333.527 261.638,336.910 262.008 C 341.785 262.542,341.609 263.226,341.715 243.400 C 341.811 225.262,341.496 226.973,345.566 222.514 C 352.860 214.524,361.278 214.961,365.671 223.558 L 366.978 226.115 367.105 242.958 C 367.251 262.211,367.181 261.444,368.817 261.804 C 370.425 262.157,373.920 261.296,374.382 260.434 C 375.297 258.724,375.007 226.425,374.044 222.819 C 372.135 215.668,368.542 212.390,360.417 210.388 C 358.045 209.803,353.240 210.883,350.749 212.560 C 349.573 213.352,348.440 214.000,348.231 214.000 C 348.022 214.000,347.461 214.367,346.983 214.816 C 346.506 215.265,345.474 215.736,344.692 215.863 C 341.986 216.302,341.800 215.374,341.800 201.466 L 341.800 189.531 340.678 188.566 C 339.329 187.405,337.125 187.297,335.484 188.311 M197.942 198.607 C 196.492 199.394,196.000 201.091,196.000 205.298 C 196.000 210.580,195.654 211.006,190.400 212.178 C 188.742 212.548,187.832 214.171,188.472 215.617 C 189.048 216.919,189.203 216.998,192.322 217.587 C 196.205 218.320,195.988 217.194,196.140 237.400 C 196.264 253.860,196.275 253.943,198.712 257.951 C 202.379 263.981,217.623 264.549,217.594 258.656 C 217.583 256.432,217.262 256.267,213.545 256.574 C 204.943 257.283,204.020 255.029,204.007 233.287 C 203.998 217.474,203.946 217.608,210.074 217.590 C 215.575 217.575,217.600 216.770,217.600 214.599 C 217.600 212.600,216.300 212.000,211.972 212.000 C 205.176 212.000,204.000 210.919,204.000 204.673 C 204.000 198.706,201.805 196.508,197.942 198.607 M247.095 210.613 C 244.335 211.162,240.219 212.489,238.372 213.425 C 235.004 215.132,230.398 220.548,229.581 223.762 C 229.352 224.663,228.723 226.806,228.182 228.525 C 225.902 235.776,227.215 246.991,231.147 253.852 C 234.688 260.032,244.883 264.022,254.000 262.795 C 255.870 262.544,258.660 262.249,260.200 262.139 C 266.086 261.722,269.718 258.783,268.370 255.528 C 268.048 254.751,267.685 254.445,267.247 254.582 C 247.977 260.616,235.990 255.935,235.835 242.316 C 235.782 237.646,234.367 238.011,253.017 237.892 C 264.771 237.818,269.230 237.661,269.868 237.299 C 272.220 235.964,270.769 223.064,267.923 220.010 C 267.539 219.597,266.904 218.742,266.512 218.109 C 264.747 215.258,259.293 211.861,254.416 210.576 C 251.824 209.892,250.690 209.898,247.095 210.613 M300.000 211.083 C 295.584 211.853,287.470 217.964,286.162 221.505 C 285.777 222.547,285.339 223.580,285.188 223.800 C 282.267 228.058,282.541 245.516,285.626 251.651 C 288.959 258.280,291.733 260.500,299.086 262.422 C 304.192 263.757,304.964 263.820,306.851 263.049 C 307.593 262.746,309.065 262.374,310.123 262.221 C 314.416 261.602,319.297 258.287,319.799 255.649 C 320.510 251.906,318.756 251.463,314.000 254.185 C 304.654 259.535,295.305 256.394,292.612 247.000 C 292.234 245.680,291.784 244.420,291.613 244.200 C 290.484 242.752,290.438 232.733,291.549 230.223 C 291.996 229.211,292.546 227.389,292.771 226.175 C 293.220 223.746,293.175 223.839,295.282 220.971 C 298.429 216.689,308.758 215.300,312.800 218.615 C 313.130 218.885,314.158 219.488,315.084 219.953 C 321.098 222.977,321.134 216.391,315.123 212.677 C 312.962 211.342,303.960 210.393,300.000 211.083 M254.387 216.984 C 259.758 218.913,262.411 222.304,262.720 227.636 C 262.889 230.565,262.841 230.796,261.850 231.786 L 260.801 232.836 252.700 232.834 C 236.506 232.831,236.612 232.840,236.246 231.477 C 235.566 228.939,236.630 224.218,238.353 222.133 C 238.929 221.436,239.725 220.399,240.122 219.829 C 240.803 218.850,243.788 217.083,246.000 216.349 C 247.447 215.869,252.305 216.237,254.387 216.984 " stroke="none" fill="#d37834" fill-rule="evenodd"></path><path id="path1" d="M27.000 144.174 C 21.982 145.172,14.885 148.307,12.200 150.709 C 3.354 158.625,0.526 172.736,6.138 180.956 C 6.722 181.812,7.200 182.762,7.200 183.069 C 7.200 183.645,14.223 190.800,14.789 190.800 C 16.579 190.800,16.588 190.960,16.800 226.936 L 17.000 260.871 17.944 261.636 C 18.629 262.189,19.520 262.400,21.182 262.400 C 25.346 262.400,24.987 265.415,25.087 229.658 L 25.174 198.600 26.325 197.561 C 27.435 196.559,27.571 196.536,30.186 196.912 C 37.558 197.972,48.566 193.779,53.879 187.886 C 56.113 185.408,57.315 185.629,60.129 189.034 C 60.750 189.785,61.509 190.400,61.815 190.400 C 62.122 190.400,62.966 190.921,63.691 191.558 C 67.276 194.706,78.181 197.262,83.394 196.177 C 84.717 195.902,86.832 195.467,88.093 195.211 C 89.354 194.955,90.492 194.574,90.621 194.365 C 90.751 194.156,91.707 193.554,92.746 193.027 C 98.013 190.358,100.303 186.440,97.764 184.443 C 96.573 183.506,96.765 183.424,91.875 186.941 C 83.032 193.300,70.513 191.839,62.575 183.522 C 58.884 179.654,56.964 175.536,57.973 173.651 C 58.906 171.907,59.465 171.847,75.400 171.776 C 93.797 171.693,96.564 171.138,91.614 168.520 C 89.899 167.613,89.746 167.605,75.133 167.620 C 57.430 167.639,56.635 167.458,58.799 163.910 C 59.238 163.189,59.598 162.321,59.599 161.980 C 59.604 159.888,65.524 153.978,69.749 151.847 C 76.885 148.247,89.821 150.029,96.053 155.469 C 96.898 156.206,98.690 155.777,99.013 154.760 C 99.550 153.069,97.325 150.240,94.600 149.149 C 93.940 148.884,93.130 148.451,92.800 148.186 C 87.846 144.202,71.985 144.080,65.854 147.977 C 65.164 148.416,63.921 149.071,63.091 149.434 C 55.607 152.707,49.707 167.169,52.407 175.623 C 54.072 180.835,53.968 182.574,51.919 183.784 C 51.196 184.211,49.524 185.438,48.202 186.511 C 38.326 194.529,23.575 193.681,14.600 184.579 C 10.386 180.306,6.703 171.803,7.593 168.400 C 9.520 161.028,10.088 159.867,13.491 156.332 C 23.369 146.073,36.093 145.242,47.932 154.082 C 53.667 158.365,56.869 154.617,51.280 150.164 C 44.632 144.867,35.203 142.541,27.000 144.174 M115.140 186.776 C 113.246 187.146,108.108 190.200,107.863 191.102 C 107.759 191.486,107.554 192.334,107.408 192.987 C 107.261 193.640,106.667 195.170,106.088 196.387 C 105.165 198.324,105.005 199.273,104.804 204.000 C 104.501 211.107,104.057 211.745,99.759 211.243 C 98.615 211.110,96.397 212.447,96.338 213.305 C 96.117 216.480,97.077 217.600,100.018 217.600 C 104.970 217.600,104.800 216.788,104.800 240.441 C 104.800 263.775,104.617 263.013,110.041 262.285 C 112.985 261.890,112.800 263.309,112.800 241.131 C 112.800 216.938,112.760 217.084,119.164 217.779 C 124.094 218.315,127.013 216.341,125.665 213.383 C 125.043 212.018,123.707 211.600,119.961 211.600 C 113.941 211.600,112.813 210.396,113.088 204.266 C 113.473 195.687,114.638 194.556,122.728 194.905 L 127.675 195.119 128.237 193.772 C 129.318 191.186,128.482 188.076,126.418 187.010 C 125.162 186.360,118.033 186.213,115.140 186.776 M64.687 210.598 C 63.635 210.887,62.555 211.296,62.287 211.507 C 62.019 211.717,61.314 212.006,60.720 212.147 C 60.127 212.289,58.614 213.304,57.358 214.402 C 54.148 217.212,52.885 217.050,51.082 213.600 C 50.016 211.559,48.104 210.728,46.097 211.433 C 43.971 212.181,43.990 211.935,44.099 237.286 C 44.215 264.164,43.887 262.025,47.931 262.318 C 52.383 262.640,52.470 262.246,52.361 242.116 C 52.276 226.266,52.249 226.429,55.518 223.063 C 62.221 216.164,69.286 215.311,74.105 220.821 C 77.125 224.272,77.281 225.348,77.464 244.000 C 77.657 263.542,77.361 262.400,82.231 262.400 C 85.667 262.400,85.601 262.759,85.595 244.046 C 85.588 223.652,85.101 220.514,81.185 215.642 C 77.862 211.506,70.058 209.121,64.687 210.598 M152.200 210.259 C 146.221 211.505,141.842 213.282,139.906 215.248 C 139.525 215.636,138.975 216.099,138.684 216.277 C 138.394 216.455,137.636 217.320,137.001 218.200 C 136.365 219.080,135.453 220.250,134.973 220.800 C 131.781 224.459,129.880 239.360,131.784 245.800 C 134.228 254.068,136.608 257.467,142.082 260.511 C 149.155 264.444,161.875 264.482,166.983 260.586 C 167.694 260.044,168.475 259.600,168.720 259.600 C 169.344 259.600,173.162 255.682,174.600 253.566 C 181.778 243.000,180.690 224.270,172.433 216.256 C 167.956 211.912,158.180 209.014,152.200 210.259 M160.480 217.559 C 167.211 219.874,170.762 226.271,170.878 236.287 C 170.925 240.297,169.243 248.030,168.026 249.400 C 167.635 249.840,166.974 250.802,166.558 251.538 C 166.141 252.274,165.170 253.220,164.400 253.640 C 163.630 254.060,162.550 254.762,162.000 255.200 C 161.356 255.714,159.851 256.159,157.772 256.451 C 144.986 258.247,137.979 248.639,139.909 231.962 C 141.229 220.553,150.439 214.104,160.480 217.559 " stroke="none" fill="#5175a5" fill-rule="evenodd"></path><path id="path2" d="M0.000 200.000 L 0.000 400.000 200.000 400.000 L 400.000 400.000 400.000 200.000 L 400.000 0.000 200.000 0.000 L 0.000 0.000 0.000 200.000 M136.153 131.558 C 136.839 131.975,138.390 132.443,139.600 132.598 C 140.810 132.752,142.610 133.235,143.600 133.671 C 146.722 135.044,149.284 135.091,151.794 133.821 C 155.253 132.071,158.733 133.913,161.200 138.800 C 162.654 141.680,163.364 142.400,164.753 142.400 C 166.756 142.400,168.569 144.717,168.979 147.800 C 169.125 148.900,169.533 150.428,169.886 151.195 C 170.264 152.017,170.516 153.577,170.499 154.995 C 170.463 158.058,172.027 161.030,174.612 162.809 C 178.640 165.579,178.518 168.837,174.231 172.991 C 171.983 175.169,171.577 176.213,172.095 178.477 C 172.879 181.905,172.298 183.137,167.111 189.048 C 164.838 191.638,164.007 193.456,164.002 195.846 C 163.996 199.154,162.106 199.855,152.200 200.220 C 142.528 200.577,139.801 200.469,137.200 199.627 C 135.487 199.071,133.475 198.897,128.106 198.839 C 123.120 198.785,120.827 198.603,119.819 198.182 C 116.338 196.728,115.600 197.747,115.600 204.011 C 115.600 208.805,115.509 208.718,120.977 209.144 C 126.303 209.560,127.219 210.210,127.515 213.784 C 127.950 219.023,126.191 220.575,120.331 220.123 C 118.115 219.952,116.887 220.032,116.216 220.392 L 115.258 220.904 115.129 240.952 C 114.977 264.520,115.122 263.828,110.200 264.454 C 103.332 265.328,103.603 266.273,103.601 241.510 L 103.600 221.221 102.420 220.610 C 101.771 220.275,100.713 220.000,100.070 220.000 C 96.062 220.000,94.804 218.631,94.801 214.269 C 94.800 210.689,96.035 209.200,99.008 209.200 C 102.789 209.200,103.598 208.011,103.602 202.450 C 103.605 198.732,104.156 195.172,104.985 193.509 L 105.604 192.268 103.311 190.134 C 100.602 187.613,101.004 187.741,100.398 189.205 C 99.807 190.631,96.588 193.437,95.121 193.805 C 94.553 193.948,93.726 194.481,93.283 194.991 C 92.793 195.554,91.797 196.028,90.739 196.201 C 89.783 196.357,88.100 196.870,87.000 197.340 C 83.764 198.723,74.581 198.557,71.840 197.066 C 70.763 196.480,69.285 196.000,68.556 196.000 C 67.752 196.000,66.942 195.690,66.496 195.211 C 66.091 194.776,65.001 194.153,64.074 193.826 C 62.500 193.271,60.442 191.939,58.630 190.305 C 57.248 189.058,54.000 189.368,54.000 190.747 C 54.000 190.927,53.370 191.413,52.600 191.828 C 51.830 192.243,51.200 192.706,51.200 192.858 C 51.200 193.010,50.399 193.440,49.420 193.814 C 48.440 194.188,47.342 194.822,46.978 195.224 C 46.615 195.626,45.758 196.077,45.074 196.228 C 44.391 196.378,43.113 196.875,42.235 197.333 C 40.869 198.045,39.676 198.197,34.019 198.383 L 27.400 198.600 27.200 230.439 C 27.027 257.950,26.918 262.376,26.400 263.001 C 24.383 265.433,18.499 265.395,15.930 262.933 L 14.800 261.850 14.800 228.486 C 14.800 190.697,15.062 193.636,11.431 190.675 C 8.744 188.485,6.671 186.117,6.023 184.500 C 5.737 183.785,5.336 183.200,5.131 183.200 C 4.927 183.200,4.493 182.525,4.167 181.700 C 3.841 180.875,3.295 179.696,2.954 179.081 C 1.268 176.044,1.412 164.240,3.176 160.950 C 3.629 160.104,4.003 159.139,4.007 158.806 C 4.026 157.222,11.061 148.000,12.251 148.000 C 12.553 148.000,12.800 147.822,12.800 147.604 C 12.800 147.113,19.208 144.003,20.245 143.991 C 20.660 143.986,21.810 143.595,22.800 143.122 C 26.000 141.591,40.557 141.643,42.600 143.192 C 42.820 143.359,43.670 143.616,44.488 143.764 C 45.307 143.911,46.503 144.475,47.146 145.016 C 47.789 145.557,48.573 146.000,48.889 146.000 C 49.549 146.000,55.083 150.104,56.044 151.306 C 56.758 152.200,56.655 152.256,59.602 149.382 C 60.619 148.390,62.580 147.226,66.200 145.464 C 68.788 144.204,77.916 142.613,80.856 142.910 C 88.302 143.661,92.724 145.140,97.566 148.498 C 100.381 150.449,100.886 150.400,102.678 148.000 C 103.499 146.900,104.285 146.000,104.424 146.000 C 104.564 146.000,105.051 145.685,105.507 145.300 C 105.964 144.915,107.697 143.520,109.359 142.200 C 111.941 140.150,112.554 139.415,113.563 137.159 C 115.162 133.583,115.933 133.239,122.664 133.104 C 127.381 133.009,127.993 132.909,129.811 131.934 C 132.197 130.654,134.447 130.521,136.153 131.558 M28.472 150.634 C 19.588 152.579,12.402 158.343,10.562 165.000 C 7.839 174.856,15.772 186.784,26.389 188.798 C 27.507 189.010,28.765 189.367,29.184 189.592 C 32.267 191.241,42.949 188.420,46.800 184.940 C 47.350 184.443,48.564 183.378,49.498 182.574 C 51.419 180.919,51.460 180.261,49.942 175.448 C 48.770 171.733,49.861 161.657,51.633 159.820 C 52.213 159.220,52.077 158.963,50.900 158.432 C 49.442 157.773,45.703 155.290,45.534 154.869 C 45.250 154.162,38.460 151.228,35.721 150.629 C 32.364 149.896,31.843 149.896,28.472 150.634 M75.000 152.410 C 70.438 153.657,69.397 154.082,68.011 155.268 C 67.155 156.001,65.745 157.140,64.878 157.800 C 64.011 158.460,63.088 159.583,62.826 160.296 C 62.565 161.008,62.071 161.871,61.730 162.213 C 60.884 163.059,60.325 165.599,60.936 165.821 C 61.659 166.084,93.543 166.283,93.951 166.027 C 94.150 165.902,94.301 164.900,94.286 163.800 C 94.270 162.680,94.560 161.168,94.944 160.365 C 95.915 158.333,95.333 157.000,93.049 156.021 C 92.081 155.606,91.170 155.075,91.026 154.841 C 89.916 153.045,78.829 151.363,75.000 152.410 M60.536 174.622 C 59.252 177.969,64.709 184.381,71.151 187.094 C 77.648 189.829,88.165 188.660,90.609 184.930 C 90.944 184.418,91.420 184.000,91.667 184.000 C 94.584 184.000,96.773 180.269,95.607 177.285 C 95.202 176.248,94.770 175.085,94.648 174.700 C 94.325 173.685,60.925 173.609,60.536 174.622 M341.157 185.578 C 344.036 187.047,344.343 188.525,344.196 200.191 C 344.072 209.943,344.208 211.338,345.351 212.080 C 345.588 212.234,346.056 212.115,346.391 211.816 C 350.644 208.019,360.867 206.776,366.243 209.402 C 376.600 214.460,378.115 219.215,377.713 245.400 C 377.416 264.723,377.529 264.407,370.865 264.470 C 365.269 264.522,365.008 263.721,364.973 246.400 C 364.958 238.573,364.760 231.835,364.498 230.200 C 364.251 228.660,363.959 226.719,363.848 225.887 C 363.219 221.173,358.946 218.943,353.400 220.435 C 351.056 221.066,344.536 227.558,344.228 229.569 C 343.927 231.528,343.841 237.925,343.954 249.865 C 344.082 263.390,343.697 264.400,338.412 264.400 C 332.979 264.400,331.782 263.339,332.128 258.829 C 332.255 257.163,332.170 253.982,331.937 251.760 C 331.643 248.947,331.640 245.972,331.928 241.960 C 332.210 238.033,332.212 235.054,331.935 232.600 C 331.653 230.101,331.660 227.715,331.960 224.800 C 332.372 220.797,332.304 218.669,331.345 205.339 C 331.192 203.209,331.299 202.169,331.762 201.273 C 332.258 200.314,332.366 198.856,332.292 194.103 C 332.192 187.615,332.414 186.674,334.327 185.487 C 335.826 184.557,339.245 184.603,341.157 185.578 M203.003 196.228 C 205.611 197.466,206.371 199.314,206.574 204.909 C 206.706 208.557,207.023 208.771,212.316 208.787 C 218.635 208.807,220.622 210.208,220.580 214.611 C 220.538 218.918,218.769 220.148,212.332 220.342 C 209.352 220.431,207.484 220.657,207.235 220.958 C 206.514 221.826,205.589 237.767,205.990 242.400 C 206.829 252.091,208.169 253.864,214.296 253.389 C 219.310 253.001,221.339 255.135,220.679 260.102 C 219.855 266.315,203.341 267.155,197.760 261.267 C 194.535 257.865,193.800 252.337,193.800 231.475 C 193.800 219.835,194.111 220.851,190.295 220.034 C 183.540 218.587,183.086 210.020,189.712 209.009 C 193.961 208.360,194.195 207.885,194.011 200.274 C 193.926 196.796,199.200 194.423,203.003 196.228 M255.967 208.454 C 260.331 209.207,266.369 212.871,267.430 215.411 C 267.736 216.143,268.304 216.846,268.693 216.973 C 269.613 217.273,271.023 219.477,271.555 221.445 C 274.167 231.113,274.325 236.169,272.085 238.409 C 269.824 240.670,268.971 240.777,254.000 240.685 C 239.441 240.596,238.985 240.648,238.592 242.434 C 237.295 248.343,244.017 254.697,251.400 254.541 C 254.848 254.468,265.554 252.311,266.924 251.413 C 268.048 250.677,268.822 251.201,270.447 253.800 C 272.381 256.893,270.258 261.878,266.600 262.834 C 265.720 263.064,264.100 263.550,263.000 263.913 C 256.014 266.221,240.115 264.698,234.800 261.211 C 230.903 258.654,231.350 259.236,227.875 252.200 C 225.279 246.942,223.746 236.716,224.757 231.400 C 225.422 227.898,226.679 223.708,227.350 222.750 C 227.708 222.240,228.000 221.582,228.000 221.290 C 228.000 219.275,236.011 210.400,237.830 210.400 C 238.165 210.400,238.965 210.128,239.607 209.797 C 242.438 208.333,251.128 207.619,255.967 208.454 M77.331 210.103 C 83.354 212.963,86.500 217.678,87.231 224.940 C 87.995 232.533,87.567 261.182,86.669 262.552 C 85.194 264.801,80.683 265.394,77.512 263.755 C 75.638 262.785,75.601 262.465,75.590 247.126 C 75.577 229.727,75.235 225.109,73.848 223.625 C 73.321 223.061,72.778 222.228,72.641 221.773 C 72.469 221.202,71.618 220.672,69.895 220.064 L 67.398 219.182 64.333 219.966 C 61.070 220.801,58.332 222.949,55.370 227.000 L 54.200 228.600 54.000 245.459 C 53.812 261.332,53.755 262.367,53.036 263.160 C 50.830 265.597,43.426 264.898,42.383 262.155 C 41.773 260.551,41.889 212.838,42.506 211.639 C 44.411 207.931,51.021 208.017,53.240 211.778 C 54.229 213.454,54.523 213.503,56.162 212.267 C 61.689 208.100,71.090 207.139,77.331 210.103 M162.627 208.816 C 169.516 210.025,175.275 214.451,178.352 220.902 C 183.787 232.295,181.825 250.075,174.347 257.200 C 170.680 260.694,168.919 262.037,167.224 262.633 C 166.221 262.986,164.907 263.537,164.305 263.857 C 161.556 265.318,149.961 265.519,146.300 264.169 C 145.365 263.824,143.810 263.286,142.846 262.974 C 140.667 262.268,137.138 259.958,136.007 258.497 C 133.500 255.261,132.800 254.251,132.800 253.877 C 132.800 253.649,132.279 252.369,131.641 251.032 C 130.728 249.114,130.339 247.416,129.802 243.000 C 129.427 239.920,129.055 237.293,128.975 237.161 C 128.894 237.030,128.981 236.040,129.168 234.961 C 129.354 233.883,129.801 231.290,130.161 229.200 C 130.520 227.110,131.247 224.500,131.775 223.400 C 132.303 222.300,132.926 220.950,133.160 220.400 C 134.804 216.535,140.739 211.148,144.000 210.562 C 144.770 210.424,145.850 210.024,146.400 209.674 C 148.309 208.458,157.742 207.960,162.627 208.816 M311.238 208.776 C 315.209 209.194,318.209 210.452,319.892 212.406 C 326.411 219.971,319.396 228.921,312.558 221.765 C 311.247 220.393,307.984 219.851,303.064 220.186 L 298.819 220.476 297.138 222.938 C 296.214 224.292,295.230 225.627,294.953 225.905 C 294.675 226.182,294.338 227.262,294.203 228.305 C 294.069 229.347,293.765 231.453,293.529 232.985 C 292.125 242.082,295.456 250.974,300.945 252.783 C 303.076 253.485,309.410 253.174,311.000 252.290 C 316.327 249.327,318.922 248.595,320.707 249.550 C 323.266 250.920,323.624 256.168,321.389 259.561 L 319.977 261.705 321.089 261.480 C 321.700 261.357,322.474 261.150,322.809 261.020 C 323.713 260.670,325.040 263.028,324.385 263.819 C 323.220 265.222,319.600 264.158,319.600 262.413 C 319.600 261.711,319.447 261.579,318.900 261.812 C 318.515 261.975,317.095 262.428,315.744 262.817 C 314.393 263.207,312.927 263.718,312.486 263.954 C 310.010 265.279,300.310 265.239,295.600 263.885 C 294.390 263.537,292.661 263.061,291.757 262.827 C 282.072 260.321,276.654 236.080,282.766 222.600 C 283.165 221.720,283.800 220.190,284.176 219.200 C 284.984 217.072,290.315 212.056,293.450 210.473 C 297.332 208.513,303.316 207.942,311.238 208.776 M150.213 219.794 C 148.376 220.396,147.219 221.030,146.816 221.654 C 146.481 222.174,146.007 222.780,145.763 223.000 C 144.653 224.001,143.263 226.325,143.011 227.600 C 142.860 228.370,142.376 230.041,141.937 231.314 C 140.174 236.422,141.949 245.845,145.447 249.942 C 152.414 258.104,166.424 254.309,168.379 243.730 C 169.884 235.589,168.409 226.435,165.050 223.076 C 164.315 222.341,163.643 221.558,163.557 221.335 C 162.783 219.333,154.526 218.379,150.213 219.794 M244.118 220.003 C 240.638 221.607,236.649 229.902,239.300 230.023 C 246.561 230.355,258.538 230.354,259.160 230.021 C 260.925 229.077,260.607 227.080,258.098 223.334 C 255.185 218.986,249.345 217.594,244.118 220.003 M357.129 263.326 C 357.233 263.865,356.946 264.000,355.696 264.000 C 353.883 264.000,353.423 263.696,354.065 262.922 C 354.697 262.160,356.962 262.459,357.129 263.326 " stroke="none" fill="#fbfbfa" fill-rule="evenodd"></path><path id="path3" d="M129.811 131.934 C 127.993 132.909,127.381 133.009,122.664 133.104 C 115.933 133.239,115.162 133.583,113.563 137.159 C 112.554 139.415,111.941 140.150,109.359 142.200 C 107.697 143.520,105.964 144.915,105.507 145.300 C 105.051 145.685,104.564 146.000,104.424 146.000 C 104.285 146.000,103.499 146.900,102.678 148.000 C 101.834 149.130,100.865 150.000,100.451 150.000 C 99.808 150.000,99.742 150.257,99.918 152.088 C 100.286 155.920,100.676 155.771,106.000 149.765 C 106.770 148.897,107.940 147.844,108.600 147.426 C 110.189 146.419,114.504 142.966,116.453 141.141 C 118.821 138.925,121.123 138.000,124.272 138.000 C 126.695 138.000,127.219 137.842,129.710 136.362 C 132.069 134.961,132.707 134.753,134.133 134.923 C 136.234 135.172,140.837 136.232,143.226 137.016 C 145.329 137.706,149.696 137.903,152.600 137.438 C 155.164 137.028,156.267 137.825,157.963 141.310 C 159.595 144.662,160.547 145.685,162.305 145.971 C 163.344 146.139,163.912 146.501,164.243 147.205 C 167.659 154.460,167.703 154.594,167.409 156.736 C 167.175 158.434,167.275 159.100,167.962 160.417 C 168.423 161.301,168.800 162.351,168.800 162.750 C 168.800 163.665,169.888 164.663,171.497 165.224 C 174.501 166.271,173.849 168.288,168.840 173.441 C 166.889 175.448,166.534 176.720,167.131 179.567 C 167.751 182.519,166.850 184.373,163.199 187.657 C 161.699 189.007,160.178 190.761,159.818 191.556 C 157.910 195.777,143.989 198.427,137.523 195.800 C 134.636 194.627,130.901 194.465,128.629 195.414 C 127.720 195.794,125.609 196.069,123.080 196.136 C 112.829 196.410,117.187 198.708,128.200 198.835 C 133.470 198.896,135.495 199.074,137.200 199.627 C 139.801 200.469,142.528 200.577,152.200 200.220 C 162.106 199.855,163.996 199.154,164.002 195.846 C 164.007 193.456,164.838 191.638,167.111 189.048 C 172.298 183.137,172.879 181.905,172.095 178.477 C 171.577 176.213,171.983 175.169,174.231 172.991 C 178.518 168.837,178.640 165.579,174.612 162.809 C 172.027 161.030,170.463 158.058,170.499 154.995 C 170.516 153.577,170.264 152.017,169.886 151.195 C 169.533 150.428,169.125 148.900,168.979 147.800 C 168.569 144.717,166.756 142.400,164.753 142.400 C 163.364 142.400,162.654 141.680,161.200 138.800 C 158.733 133.913,155.253 132.071,151.794 133.821 C 149.284 135.091,146.722 135.044,143.600 133.671 C 142.610 133.235,140.810 132.752,139.600 132.598 C 138.390 132.443,136.839 131.975,136.153 131.558 C 134.447 130.521,132.197 130.654,129.811 131.934 M98.200 156.588 C 97.540 157.129,96.583 157.578,96.073 157.586 C 95.361 157.597,95.200 157.769,95.378 158.329 C 95.505 158.731,95.301 159.676,94.925 160.429 C 94.513 161.255,94.260 162.629,94.289 163.883 C 94.329 165.587,94.203 166.009,93.594 166.202 C 92.893 166.424,92.906 166.521,93.825 167.875 C 94.994 169.597,95.042 170.555,94.059 172.484 C 93.338 173.899,93.338 173.943,94.059 174.131 C 94.467 174.238,94.800 174.597,94.800 174.929 C 94.800 175.262,95.150 176.350,95.578 177.348 C 96.161 178.708,96.268 179.466,96.005 180.381 C 95.732 181.334,95.780 181.600,96.228 181.600 C 97.579 181.600,99.958 184.694,100.240 186.817 C 100.390 187.944,100.630 188.675,100.774 188.442 C 100.929 188.191,101.988 188.903,103.365 190.184 L 105.693 192.351 106.744 191.101 C 108.393 189.142,107.761 187.535,104.820 186.209 C 103.758 185.730,103.183 185.172,103.009 184.454 C 102.869 183.874,102.163 182.500,101.441 181.400 C 99.977 179.168,99.115 177.378,98.362 175.000 C 97.710 172.941,97.639 164.057,98.264 162.761 C 99.973 159.220,100.441 157.902,100.328 156.947 C 100.157 155.497,99.638 155.409,98.200 156.588 M334.327 185.487 C 332.414 186.674,332.192 187.615,332.292 194.103 C 332.366 198.856,332.258 200.314,331.762 201.273 C 331.299 202.169,331.192 203.209,331.345 205.339 C 332.304 218.669,332.372 220.797,331.960 224.800 C 331.660 227.715,331.653 230.101,331.935 232.600 C 332.212 235.054,332.210 238.033,331.928 241.960 C 331.640 245.972,331.643 248.947,331.937 251.760 C 332.170 253.982,332.255 257.163,332.128 258.829 C 331.782 263.339,332.979 264.400,338.412 264.400 C 343.697 264.400,344.082 263.390,343.954 249.865 C 343.841 237.925,343.927 231.528,344.228 229.569 C 344.536 227.558,351.056 221.066,353.400 220.435 C 358.946 218.943,363.219 221.173,363.848 225.887 C 363.959 226.719,364.251 228.660,364.498 230.200 C 364.760 231.835,364.958 238.573,364.973 246.400 C 365.008 263.721,365.269 264.522,370.865 264.470 C 377.529 264.407,377.416 264.723,377.713 245.400 C 378.115 219.215,376.600 214.460,366.243 209.402 C 360.867 206.776,350.644 208.019,346.391 211.816 C 346.056 212.115,345.588 212.234,345.351 212.080 C 344.208 211.338,344.072 209.943,344.196 200.191 C 344.343 188.525,344.036 187.047,341.157 185.578 C 339.245 184.603,335.826 184.557,334.327 185.487 M340.678 188.566 L 341.800 189.531 341.800 201.466 C 341.800 215.374,341.986 216.302,344.692 215.863 C 345.474 215.736,346.506 215.265,346.983 214.816 C 347.461 214.367,348.022 214.000,348.231 214.000 C 348.440 214.000,349.573 213.352,350.749 212.560 C 353.240 210.883,358.045 209.803,360.417 210.388 C 368.542 212.390,372.135 215.668,374.044 222.819 C 375.007 226.425,375.297 258.724,374.382 260.434 C 373.920 261.296,370.425 262.157,368.817 261.804 C 367.181 261.444,367.251 262.211,367.105 242.958 L 366.978 226.115 365.671 223.558 C 361.278 214.961,352.860 214.524,345.566 222.514 C 341.496 226.973,341.811 225.262,341.715 243.400 C 341.620 261.130,341.634 260.971,340.094 261.711 C 338.804 262.331,335.088 262.048,334.310 261.270 C 333.747 260.707,333.529 191.956,334.084 190.000 C 334.743 187.677,338.656 186.826,340.678 188.566 M196.887 196.265 C 195.221 197.086,193.975 198.822,194.011 200.274 C 194.195 207.885,193.961 208.360,189.712 209.009 C 183.086 210.020,183.540 218.587,190.295 220.034 C 194.111 220.851,193.800 219.835,193.800 231.475 C 193.800 252.337,194.535 257.865,197.760 261.267 C 203.341 267.155,219.855 266.315,220.679 260.102 C 221.339 255.135,219.310 253.001,214.296 253.389 C 208.169 253.864,206.829 252.091,205.990 242.400 C 205.589 237.767,206.514 221.826,207.235 220.958 C 207.484 220.657,209.352 220.431,212.332 220.342 C 218.769 220.148,220.538 218.918,220.580 214.611 C 220.622 210.208,218.635 208.807,212.316 208.787 C 207.023 208.771,206.706 208.557,206.574 204.909 C 206.443 201.305,205.851 198.541,205.013 197.614 C 203.247 195.663,199.404 195.025,196.887 196.265 M202.161 198.455 C 203.519 199.074,204.000 200.700,204.000 204.673 C 204.000 210.919,205.176 212.000,211.972 212.000 C 216.300 212.000,217.600 212.600,217.600 214.599 C 217.600 216.770,215.575 217.575,210.074 217.590 C 203.946 217.608,203.998 217.474,204.007 233.287 C 204.020 255.029,204.943 257.283,213.545 256.574 C 217.262 256.267,217.583 256.432,217.594 258.656 C 217.623 264.549,202.379 263.981,198.712 257.951 C 196.275 253.943,196.264 253.860,196.140 237.400 C 195.988 217.194,196.205 218.320,192.322 217.587 C 189.203 216.998,189.048 216.919,188.472 215.617 C 187.832 214.171,188.742 212.548,190.400 212.178 C 195.654 211.006,196.000 210.580,196.000 205.298 C 196.000 199.051,198.173 196.638,202.161 198.455 M244.087 208.637 C 242.265 208.943,240.249 209.465,239.607 209.797 C 238.965 210.128,238.165 210.400,237.830 210.400 C 236.011 210.400,228.000 219.275,228.000 221.290 C 228.000 221.582,227.708 222.240,227.350 222.750 C 226.679 223.708,225.422 227.898,224.757 231.400 C 223.746 236.716,225.279 246.942,227.875 252.200 C 231.350 259.236,230.903 258.654,234.800 261.211 C 240.115 264.698,256.014 266.221,263.000 263.913 C 264.100 263.550,265.720 263.064,266.600 262.834 C 270.258 261.878,272.381 256.893,270.447 253.800 C 268.822 251.201,268.048 250.677,266.924 251.413 C 265.554 252.311,254.848 254.468,251.400 254.541 C 244.017 254.697,237.295 248.343,238.592 242.434 C 238.985 240.648,239.441 240.596,254.000 240.685 C 268.971 240.777,269.824 240.670,272.085 238.409 C 274.325 236.169,274.167 231.113,271.555 221.445 C 271.023 219.477,269.613 217.273,268.693 216.973 C 268.304 216.846,267.736 216.143,267.430 215.411 C 265.165 209.988,254.493 206.891,244.087 208.637 M297.600 208.978 C 292.742 210.106,285.551 215.582,284.176 219.200 C 283.800 220.190,283.165 221.720,282.766 222.600 C 276.654 236.080,282.072 260.321,291.757 262.827 C 292.661 263.061,294.390 263.537,295.600 263.885 C 300.310 265.239,310.010 265.279,312.486 263.954 C 312.927 263.718,314.393 263.207,315.744 262.817 C 317.095 262.428,318.515 261.975,318.900 261.812 C 319.469 261.570,319.600 261.720,319.600 262.619 C 319.600 263.632,319.658 263.674,320.300 263.128 C 320.685 262.800,321.585 262.300,322.300 262.017 C 323.015 261.734,323.600 261.326,323.600 261.109 C 323.600 260.892,323.285 260.836,322.900 260.985 C 322.515 261.134,321.700 261.357,321.089 261.480 L 319.977 261.705 321.389 259.561 C 323.624 256.168,323.266 250.920,320.707 249.550 C 318.922 248.595,316.327 249.327,311.000 252.290 C 309.410 253.174,303.076 253.485,300.945 252.783 C 295.456 250.974,292.125 242.082,293.529 232.985 C 293.765 231.453,294.069 229.347,294.203 228.305 C 294.338 227.262,294.675 226.182,294.953 225.905 C 295.230 225.627,296.214 224.292,297.138 222.938 L 298.819 220.476 303.064 220.186 C 307.984 219.851,311.247 220.393,312.558 221.765 C 319.396 228.921,326.411 219.971,319.892 212.406 C 316.932 208.971,305.321 207.185,297.600 208.978 M254.416 210.576 C 259.293 211.861,264.747 215.258,266.512 218.109 C 266.904 218.742,267.539 219.597,267.923 220.010 C 270.769 223.064,272.220 235.964,269.868 237.299 C 269.230 237.661,264.771 237.818,253.017 237.892 C 234.367 238.011,235.782 237.646,235.835 242.316 C 235.888 246.922,238.518 252.605,241.619 254.814 C 246.023 257.949,256.804 257.852,267.247 254.582 C 267.685 254.445,268.048 254.751,268.370 255.528 C 269.718 258.783,266.086 261.722,260.200 262.139 C 258.660 262.249,255.870 262.544,254.000 262.795 C 244.883 264.022,234.688 260.032,231.147 253.852 C 227.215 246.991,225.902 235.776,228.182 228.525 C 228.723 226.806,229.352 224.663,229.581 223.762 C 230.224 221.232,232.677 217.922,236.021 215.073 C 240.114 211.586,249.521 209.286,254.416 210.576 M310.571 211.406 C 316.780 212.489,320.989 216.658,319.216 219.970 C 318.494 221.319,315.266 220.637,312.800 218.615 C 308.758 215.300,298.429 216.689,295.282 220.971 C 293.175 223.839,293.220 223.746,292.771 226.175 C 292.546 227.389,291.996 229.211,291.549 230.223 C 290.438 232.733,290.484 242.752,291.613 244.200 C 291.784 244.420,292.234 245.680,292.612 247.000 C 295.305 256.394,304.654 259.535,314.000 254.185 C 318.756 251.463,320.510 251.906,319.799 255.649 C 319.297 258.287,314.416 261.602,310.123 262.221 C 309.065 262.374,307.593 262.746,306.851 263.049 C 304.964 263.820,304.192 263.757,299.086 262.422 C 291.733 260.500,288.959 258.280,285.626 251.651 C 282.541 245.516,282.267 228.058,285.188 223.800 C 285.339 223.580,285.777 222.547,286.162 221.505 C 287.470 217.964,295.584 211.853,300.000 211.083 C 302.283 210.685,307.320 210.839,310.571 211.406 M246.000 216.349 C 243.788 217.083,240.803 218.850,240.122 219.829 C 239.725 220.399,238.929 221.436,238.353 222.133 C 236.630 224.218,235.566 228.939,236.246 231.477 C 236.612 232.840,236.506 232.831,252.700 232.834 L 260.801 232.836 261.850 231.786 C 264.433 229.204,261.950 221.011,257.858 218.613 C 254.353 216.559,248.649 215.470,246.000 216.349 M254.208 220.034 C 258.810 222.299,261.909 228.550,259.160 230.021 C 258.538 230.354,246.561 230.355,239.300 230.023 C 238.284 229.976,238.755 226.870,240.218 223.963 C 242.718 218.999,248.696 217.320,254.208 220.034 " stroke="none" fill="#f0cd9e" fill-rule="evenodd"></path><path id="path4" d="M25.000 142.393 C 24.340 142.565,23.131 142.996,22.313 143.352 C 21.495 143.709,20.525 144.000,20.157 144.000 C 19.195 144.000,12.800 147.132,12.800 147.604 C 12.800 147.822,12.553 148.000,12.251 148.000 C 11.061 148.000,4.026 157.222,4.007 158.806 C 4.003 159.139,3.629 160.104,3.176 160.950 C 1.412 164.240,1.268 176.044,2.954 179.081 C 3.295 179.696,3.841 180.875,4.167 181.700 C 4.493 182.525,4.927 183.200,5.131 183.200 C 5.336 183.200,5.737 183.785,6.023 184.500 C 6.671 186.117,8.744 188.485,11.431 190.675 C 15.062 193.636,14.800 190.697,14.800 228.486 L 14.800 261.850 15.930 262.933 C 18.499 265.395,24.383 265.433,26.400 263.001 C 26.918 262.376,27.027 257.950,27.200 230.439 L 27.400 198.600 34.019 198.383 C 39.676 198.197,40.869 198.045,42.235 197.333 C 43.113 196.875,44.391 196.378,45.074 196.228 C 45.758 196.077,46.615 195.626,46.978 195.224 C 47.342 194.822,48.440 194.188,49.420 193.814 C 50.399 193.440,51.200 193.010,51.200 192.858 C 51.200 192.706,51.830 192.243,52.600 191.828 C 53.370 191.413,54.000 190.927,54.000 190.747 C 54.000 189.368,57.248 189.058,58.630 190.305 C 60.442 191.939,62.500 193.271,64.074 193.826 C 65.001 194.153,66.091 194.776,66.496 195.211 C 66.942 195.690,67.752 196.000,68.556 196.000 C 69.285 196.000,70.763 196.480,71.840 197.066 C 74.581 198.557,83.764 198.723,87.000 197.340 C 88.100 196.870,89.783 196.357,90.739 196.201 C 91.806 196.026,92.793 195.554,93.294 194.978 C 93.743 194.462,94.597 193.932,95.192 193.802 C 95.788 193.671,97.229 192.682,98.396 191.604 L 100.516 189.644 100.284 187.394 C 99.814 182.841,97.104 180.808,94.087 182.744 C 93.011 183.435,91.925 184.000,91.674 184.000 C 91.424 184.000,90.944 184.418,90.609 184.930 C 86.922 190.558,72.046 189.578,65.000 183.243 C 61.827 180.390,60.681 178.597,60.641 176.419 L 60.600 174.200 77.000 174.000 L 93.400 173.800 94.099 172.400 C 95.028 170.542,94.982 169.589,93.887 167.964 C 92.671 166.159,92.732 166.165,75.655 166.083 C 67.674 166.044,60.996 165.921,60.814 165.809 C 60.340 165.516,60.994 162.949,61.730 162.213 C 62.071 161.871,62.565 161.008,62.826 160.296 C 63.088 159.583,64.011 158.460,64.878 157.800 C 65.745 157.140,67.155 156.001,68.011 155.268 C 69.414 154.068,70.727 153.541,75.200 152.382 C 79.089 151.374,89.923 153.058,91.026 154.841 C 91.170 155.075,92.058 155.596,93.000 156.000 C 93.942 156.404,94.832 156.929,94.980 157.167 C 95.656 158.262,99.208 156.625,99.194 155.225 C 99.190 154.820,99.084 154.757,98.894 155.046 C 98.355 155.864,96.784 156.108,96.071 155.485 C 89.828 150.030,76.895 148.242,69.749 151.847 C 65.524 153.978,59.604 159.888,59.599 161.980 C 59.598 162.321,59.238 163.189,58.799 163.910 C 56.635 167.458,57.430 167.639,75.133 167.620 C 89.746 167.605,89.899 167.613,91.614 168.520 C 96.564 171.138,93.797 171.693,75.400 171.776 C 59.465 171.847,58.906 171.907,57.973 173.651 C 56.964 175.536,58.884 179.654,62.575 183.522 C 70.513 191.839,83.032 193.300,91.875 186.941 C 96.765 183.424,96.573 183.506,97.764 184.443 C 100.303 186.440,98.013 190.358,92.746 193.027 C 91.707 193.554,90.751 194.156,90.621 194.365 C 90.492 194.574,89.354 194.955,88.093 195.211 C 86.832 195.467,84.717 195.902,83.394 196.177 C 78.181 197.262,67.276 194.706,63.691 191.558 C 62.966 190.921,62.122 190.400,61.815 190.400 C 61.509 190.400,60.750 189.785,60.129 189.034 C 57.315 185.629,56.113 185.408,53.879 187.886 C 48.566 193.779,37.558 197.972,30.186 196.912 C 27.571 196.536,27.435 196.559,26.325 197.561 L 25.174 198.600 25.087 229.658 C 24.987 265.415,25.346 262.400,21.182 262.400 C 19.520 262.400,18.629 262.189,17.944 261.636 L 17.000 260.871 16.800 226.936 C 16.588 190.960,16.579 190.800,14.789 190.800 C 14.223 190.800,7.200 183.645,7.200 183.069 C 7.200 182.762,6.722 181.812,6.138 180.956 C 1.254 173.803,2.702 161.609,9.361 153.813 C 19.461 141.987,38.895 140.295,51.280 150.164 C 56.869 154.617,53.667 158.365,47.932 154.082 C 36.093 145.242,23.369 146.073,13.491 156.332 C 10.088 159.867,9.520 161.028,7.593 168.400 C 6.703 171.803,10.386 180.306,14.600 184.579 C 23.575 193.681,38.326 194.529,48.202 186.511 C 49.524 185.438,51.196 184.211,51.919 183.784 C 53.968 182.574,54.072 180.835,52.407 175.623 C 49.707 167.169,55.607 152.707,63.091 149.434 C 63.921 149.071,65.164 148.416,65.854 147.977 C 71.985 144.080,87.846 144.202,92.800 148.186 C 93.130 148.451,93.940 148.884,94.600 149.149 C 96.320 149.837,98.710 152.102,99.020 153.338 C 99.369 154.727,100.001 154.298,99.995 152.676 C 99.985 150.471,99.612 149.839,97.477 148.413 C 92.416 145.031,87.816 143.524,80.610 142.887 C 77.798 142.638,68.641 144.276,66.200 145.464 C 62.580 147.226,60.619 148.390,59.602 149.382 C 56.655 152.256,56.758 152.200,56.044 151.306 C 55.012 150.015,49.525 146.000,48.793 146.000 C 48.425 146.000,47.797 145.638,47.397 145.197 C 46.997 144.755,45.934 144.195,45.035 143.953 C 44.136 143.710,43.040 143.360,42.600 143.175 C 40.451 142.269,38.091 142.008,32.400 142.043 C 28.990 142.064,25.660 142.222,25.000 142.393 M35.721 150.629 C 38.460 151.228,45.250 154.162,45.534 154.869 C 45.703 155.290,49.442 157.773,50.900 158.432 C 52.077 158.963,52.213 159.220,51.633 159.820 C 49.861 161.657,48.770 171.733,49.942 175.448 C 51.460 180.261,51.419 180.919,49.498 182.574 C 48.564 183.378,47.350 184.443,46.800 184.940 C 42.949 188.420,32.267 191.241,29.184 189.592 C 28.765 189.367,27.507 189.010,26.389 188.798 C 14.290 186.503,6.415 171.986,11.742 161.800 C 12.684 160.000,18.474 154.510,20.654 153.351 C 25.905 150.559,31.104 149.620,35.721 150.629 M106.303 191.678 C 104.419 194.017,103.990 195.487,103.760 200.400 C 103.380 208.528,103.017 209.200,99.008 209.200 C 96.035 209.200,94.800 210.689,94.801 214.269 C 94.804 218.631,96.062 220.000,100.070 220.000 C 100.713 220.000,101.771 220.275,102.420 220.610 L 103.600 221.221 103.601 241.510 C 103.603 266.273,103.332 265.328,110.200 264.454 C 115.122 263.828,114.977 264.520,115.129 240.952 L 115.258 220.904 116.216 220.392 C 116.887 220.032,118.115 219.952,120.331 220.123 C 126.191 220.575,127.950 219.023,127.515 213.784 C 127.219 210.210,126.303 209.560,120.977 209.144 C 115.509 208.718,115.600 208.805,115.600 204.011 C 115.600 197.204,116.470 196.297,123.155 196.128 C 125.440 196.070,127.405 195.928,127.522 195.812 C 128.049 195.285,126.892 195.073,122.495 194.892 C 114.660 194.569,113.470 195.754,113.088 204.266 C 112.813 210.396,113.941 211.600,119.961 211.600 C 123.707 211.600,125.043 212.018,125.665 213.383 C 127.013 216.341,124.094 218.315,119.164 217.779 C 112.760 217.084,112.800 216.938,112.800 241.131 C 112.800 263.309,112.985 261.890,110.041 262.285 C 104.617 263.013,104.800 263.775,104.800 240.441 C 104.800 216.788,104.970 217.600,100.018 217.600 C 97.077 217.600,96.117 216.480,96.338 213.305 C 96.397 212.447,98.615 211.110,99.759 211.243 C 104.057 211.745,104.501 211.107,104.804 204.000 C 105.006 199.251,105.163 198.329,106.103 196.354 C 107.151 194.152,108.192 190.459,107.858 190.125 C 107.765 190.032,107.065 190.731,106.303 191.678 M63.400 208.764 C 61.559 209.282,57.544 211.225,56.162 212.267 C 54.523 213.503,54.229 213.454,53.240 211.778 C 51.021 208.017,44.411 207.931,42.506 211.639 C 41.889 212.838,41.773 260.551,42.383 262.155 C 43.426 264.898,50.830 265.597,53.036 263.160 C 53.755 262.367,53.812 261.332,54.000 245.459 L 54.200 228.600 55.370 227.000 C 58.332 222.949,61.070 220.801,64.333 219.966 L 67.398 219.182 69.895 220.064 C 71.618 220.672,72.469 221.202,72.641 221.773 C 72.778 222.228,73.321 223.061,73.848 223.625 C 75.235 225.109,75.577 229.727,75.590 247.126 C 75.601 262.465,75.638 262.785,77.512 263.755 C 80.683 265.394,85.194 264.801,86.669 262.552 C 87.567 261.182,87.995 232.533,87.231 224.940 C 86.189 214.586,80.010 208.881,69.505 208.571 C 66.807 208.492,64.060 208.579,63.400 208.764 M149.000 208.769 C 148.120 208.916,146.950 209.323,146.400 209.674 C 145.850 210.024,144.770 210.424,144.000 210.562 C 140.739 211.148,134.804 216.535,133.160 220.400 C 132.926 220.950,132.303 222.300,131.775 223.400 C 131.247 224.500,130.520 227.110,130.161 229.200 C 129.801 231.290,129.354 233.883,129.168 234.961 C 128.981 236.040,128.894 237.030,128.975 237.161 C 129.055 237.293,129.427 239.920,129.802 243.000 C 130.339 247.416,130.728 249.114,131.641 251.032 C 132.279 252.369,132.800 253.649,132.800 253.877 C 132.800 254.251,133.500 255.261,136.007 258.497 C 137.138 259.958,140.667 262.268,142.846 262.974 C 143.810 263.286,145.365 263.824,146.300 264.169 C 149.961 265.519,161.556 265.318,164.305 263.857 C 164.907 263.537,166.221 262.986,167.224 262.633 C 168.919 262.037,170.680 260.694,174.347 257.200 C 181.825 250.075,183.787 232.295,178.352 220.902 C 173.647 211.038,162.627 206.483,149.000 208.769 M72.654 210.730 C 83.727 213.510,85.586 218.297,85.595 244.046 C 85.601 262.759,85.667 262.400,82.231 262.400 C 77.361 262.400,77.657 263.542,77.464 244.000 C 77.281 225.348,77.125 224.272,74.105 220.821 C 69.286 215.311,62.221 216.164,55.518 223.063 C 52.249 226.429,52.276 226.266,52.361 242.116 C 52.470 262.246,52.383 262.640,47.931 262.318 C 43.887 262.025,44.215 264.164,44.099 237.286 C 43.990 211.935,43.971 212.181,46.097 211.433 C 48.104 210.728,50.016 211.559,51.082 213.600 C 52.885 217.050,54.148 217.212,57.358 214.402 C 58.614 213.304,60.127 212.289,60.720 212.147 C 61.314 212.006,62.019 211.717,62.287 211.507 C 64.108 210.075,68.679 209.732,72.654 210.730 M161.202 210.800 C 175.321 213.678,182.697 228.171,178.405 244.600 C 176.728 251.020,171.188 259.600,168.720 259.600 C 168.475 259.600,167.694 260.044,166.983 260.586 C 161.875 264.482,149.155 264.444,142.082 260.511 C 136.608 257.467,134.228 254.068,131.784 245.800 C 129.880 239.360,131.781 224.459,134.973 220.800 C 135.453 220.250,136.365 219.080,137.001 218.200 C 137.636 217.320,138.394 216.455,138.684 216.277 C 138.975 216.099,139.525 215.636,139.906 215.248 C 141.842 213.282,146.221 211.505,152.200 210.259 C 154.145 209.854,157.569 210.060,161.202 210.800 M150.304 217.439 C 137.764 221.295,135.285 246.231,146.631 254.380 C 150.259 256.985,159.165 257.460,162.000 255.200 C 162.550 254.762,163.630 254.060,164.400 253.640 C 165.170 253.220,166.141 252.274,166.558 251.538 C 166.974 250.802,167.635 249.840,168.026 249.400 C 172.037 244.885,171.411 227.608,167.040 222.155 C 163.277 217.462,156.468 215.543,150.304 217.439 M160.296 219.865 C 162.003 220.450,163.471 221.112,163.557 221.335 C 163.643 221.558,164.315 222.341,165.050 223.076 C 168.409 226.435,169.884 235.589,168.379 243.730 C 166.424 254.309,152.414 258.104,145.447 249.942 C 141.949 245.845,140.174 236.422,141.937 231.314 C 142.376 230.041,142.860 228.370,143.011 227.600 C 143.263 226.325,144.653 224.001,145.763 223.000 C 146.007 222.780,146.481 222.174,146.816 221.654 C 148.444 219.129,155.443 218.200,160.296 219.865 M321.998 262.132 C 320.110 263.013,319.919 263.221,320.430 263.836 C 321.697 265.363,325.303 264.086,324.414 262.426 C 323.921 261.504,323.463 261.449,321.998 262.132 M354.065 262.922 C 353.423 263.696,353.883 264.000,355.696 264.000 C 356.946 264.000,357.233 263.865,357.129 263.326 C 356.962 262.459,354.697 262.160,354.065 262.922 " stroke="none" fill="#a5bdd8" fill-rule="evenodd"></path></g></svg>