<svg id="svg" version="1.1" xmlns="http://www.w3.org/2000/svg" xmlns:xlink="http://www.w3.org/1999/xlink" width="400" height="400" viewBox="0, 0, 400,400"><g id="svgg"><path id="path0" d="M116.400 97.948 C 116.400 98.156,116.012 98.224,115.537 98.100 C 114.871 97.925,114.752 98.002,115.014 98.437 C 115.303 98.917,115.253 98.919,114.677 98.451 C 114.053 97.945,113.819 98.102,113.963 98.930 C 113.994 99.111,113.848 99.153,113.638 99.023 C 113.427 98.893,113.148 98.960,113.018 99.171 C 112.887 99.383,111.977 99.508,110.996 99.450 C 110.015 99.393,108.990 99.482,108.719 99.650 C 108.448 99.817,107.996 99.762,107.713 99.528 C 107.330 99.210,107.200 99.273,107.200 99.775 C 107.200 100.145,107.032 100.344,106.828 100.217 C 106.623 100.091,106.342 100.170,106.204 100.393 C 106.066 100.617,105.232 100.800,104.350 100.800 C 103.469 100.800,102.378 100.998,101.925 101.240 C 101.423 101.509,101.201 101.522,101.355 101.274 C 101.513 101.017,101.172 101.031,100.428 101.312 C 99.780 101.557,99.339 101.901,99.448 102.078 C 99.626 102.365,97.976 102.603,97.037 102.426 C 96.837 102.389,96.522 102.592,96.337 102.879 C 96.063 103.303,95.934 103.297,95.644 102.847 C 95.363 102.411,95.230 102.475,95.017 103.147 C 94.841 103.702,94.414 104.000,93.797 104.000 C 93.274 104.000,92.742 104.171,92.613 104.380 C 92.484 104.588,91.854 104.693,91.214 104.612 C 90.337 104.501,90.104 104.604,90.268 105.032 C 90.431 105.457,90.128 105.600,89.070 105.600 C 88.005 105.600,87.591 105.798,87.400 106.400 C 87.149 107.192,86.644 107.357,84.902 107.216 C 84.235 107.162,84.066 107.305,84.244 107.772 C 84.476 108.375,84.057 108.580,82.900 108.430 C 82.625 108.394,82.400 108.563,82.400 108.806 C 82.400 109.049,82.220 109.136,82.000 109.000 C 81.780 108.864,81.600 109.044,81.600 109.400 C 81.600 109.756,81.420 109.936,81.200 109.800 C 80.980 109.664,80.800 109.764,80.800 110.023 C 80.800 110.307,80.410 110.419,79.812 110.304 C 79.269 110.201,78.919 110.270,79.036 110.458 C 79.152 110.646,78.956 110.800,78.600 110.800 C 78.244 110.800,78.064 110.980,78.200 111.200 C 78.433 111.577,77.922 111.713,76.300 111.707 C 75.915 111.705,75.597 111.906,75.594 112.152 C 75.591 112.398,75.399 112.330,75.168 112.000 C 74.827 111.514,74.789 111.551,74.966 112.200 C 75.192 113.025,73.488 114.225,72.744 113.765 C 72.555 113.648,72.386 113.968,72.368 114.476 C 72.351 114.984,72.248 115.180,72.139 114.911 C 72.009 114.592,71.589 114.799,70.922 115.511 C 70.362 116.110,69.756 116.559,69.576 116.508 C 69.396 116.458,69.135 116.775,68.996 117.214 C 68.856 117.653,68.574 117.908,68.368 117.780 C 67.877 117.476,66.755 118.606,67.119 119.039 C 67.274 119.223,67.081 119.129,66.691 118.830 C 66.065 118.351,66.014 118.371,66.259 119.009 C 66.450 119.506,66.390 119.641,66.068 119.442 C 65.792 119.271,65.600 119.393,65.600 119.739 C 65.600 120.143,65.331 120.255,64.733 120.098 C 64.044 119.918,63.918 120.009,64.120 120.536 C 64.306 121.020,64.155 121.200,63.564 121.200 C 63.118 121.200,62.851 121.359,62.971 121.554 C 63.091 121.748,62.652 122.130,61.995 122.402 C 61.299 122.690,60.800 123.196,60.800 123.611 C 60.800 124.113,60.577 124.267,60.049 124.129 C 59.465 123.976,59.310 124.139,59.349 124.866 C 59.387 125.567,59.215 125.768,58.660 125.673 C 58.216 125.597,58.025 125.717,58.183 125.973 C 58.329 126.208,58.245 126.400,57.998 126.400 C 57.279 126.400,59.232 129.554,61.132 131.461 C 62.084 132.418,63.017 133.200,63.205 133.200 C 63.392 133.200,63.660 133.560,63.800 134.000 C 63.940 134.440,64.291 134.800,64.580 134.800 C 64.870 134.800,65.201 135.160,65.316 135.600 C 65.431 136.040,65.812 136.400,66.163 136.400 C 66.513 136.400,66.800 136.658,66.800 136.973 C 66.800 137.288,67.160 137.660,67.600 137.800 C 68.040 137.940,68.400 138.300,68.400 138.600 C 68.400 138.900,68.760 139.260,69.200 139.400 C 69.640 139.540,70.000 139.828,70.000 140.040 C 70.000 140.253,70.630 141.057,71.400 141.827 C 72.170 142.597,72.800 143.389,72.800 143.586 C 72.800 143.784,73.160 144.060,73.600 144.200 C 74.040 144.340,74.400 144.691,74.400 144.980 C 74.400 145.270,74.760 145.601,75.200 145.716 C 75.640 145.831,76.000 146.191,76.000 146.516 C 76.000 146.841,76.360 147.201,76.800 147.316 C 77.240 147.431,77.600 147.812,77.600 148.163 C 77.600 148.513,77.772 148.800,77.982 148.800 C 78.482 148.800,80.215 150.542,80.529 151.360 C 80.664 151.712,80.952 152.000,81.169 152.000 C 81.675 152.000,83.600 153.915,83.600 154.418 C 83.600 154.628,83.887 154.800,84.237 154.800 C 84.588 154.800,84.969 155.160,85.084 155.600 C 85.199 156.040,85.559 156.400,85.884 156.400 C 86.209 156.400,86.569 156.760,86.684 157.200 C 86.799 157.640,87.130 158.000,87.420 158.000 C 87.709 158.000,88.060 158.360,88.200 158.800 C 88.340 159.240,88.700 159.600,89.000 159.600 C 89.300 159.600,89.660 159.960,89.800 160.400 C 89.940 160.840,90.312 161.200,90.627 161.200 C 90.942 161.200,91.201 161.425,91.203 161.700 C 91.205 162.189,93.306 163.600,94.032 163.600 C 94.235 163.600,94.400 163.240,94.400 162.800 C 94.400 162.360,94.649 162.000,94.953 162.000 C 95.258 162.000,95.607 161.617,95.729 161.149 C 95.902 160.489,96.179 160.341,96.964 160.491 C 97.520 160.597,97.881 160.530,97.764 160.342 C 97.648 160.154,97.844 160.000,98.200 160.000 C 98.556 160.000,98.736 159.820,98.600 159.600 C 98.464 159.380,98.535 159.200,98.758 159.200 C 98.981 159.200,99.582 158.782,100.093 158.270 C 100.604 157.759,101.268 157.423,101.567 157.522 C 101.928 157.643,102.004 157.530,101.793 157.189 C 101.558 156.808,101.705 156.734,102.360 156.906 C 103.106 157.101,103.168 157.044,102.755 156.546 C 102.485 156.221,102.430 155.986,102.632 156.025 C 103.830 156.253,104.730 155.910,104.929 155.151 C 105.109 154.461,105.382 154.336,106.385 154.483 C 107.429 154.636,107.656 154.515,107.862 153.695 C 108.076 152.843,108.291 152.744,109.653 152.874 C 110.538 152.958,111.203 152.845,111.206 152.611 C 111.209 152.385,111.387 152.470,111.600 152.800 C 111.844 153.177,111.990 153.219,111.994 152.914 C 112.002 152.237,113.477 151.518,115.077 151.411 C 115.857 151.359,116.657 151.001,116.979 150.561 C 117.671 149.615,138.238 149.384,139.868 150.304 C 140.555 150.692,140.779 150.690,140.943 150.297 C 141.087 149.949,141.343 150.041,141.792 150.600 C 142.221 151.135,142.959 151.417,144.017 151.451 C 144.888 151.479,145.842 151.703,146.137 151.948 C 146.432 152.193,146.792 152.275,146.937 152.130 C 147.082 151.985,147.200 152.077,147.200 152.333 C 147.200 152.590,147.547 152.800,147.971 152.800 C 148.395 152.800,149.081 153.231,149.496 153.758 C 150.067 154.485,150.412 154.625,150.925 154.338 C 151.436 154.052,151.600 154.117,151.600 154.607 C 151.600 155.072,151.825 155.182,152.402 154.999 C 152.926 154.833,153.284 154.953,153.435 155.347 C 153.562 155.678,153.920 155.852,154.230 155.733 C 154.540 155.614,154.907 155.812,155.045 156.173 C 155.184 156.534,155.925 157.092,156.692 157.413 C 157.656 157.815,158.016 158.182,157.856 158.598 C 157.682 159.052,157.922 159.200,158.836 159.200 C 159.502 159.200,159.975 159.335,159.887 159.500 C 159.799 159.665,160.058 160.115,160.463 160.500 C 160.908 160.923,161.200 161.011,161.200 160.724 C 161.200 160.461,161.454 160.595,161.765 161.019 C 162.075 161.444,162.256 161.909,162.167 162.053 C 162.078 162.197,162.476 162.433,163.050 162.577 C 163.624 162.721,163.989 162.944,163.861 163.073 C 163.506 163.428,165.423 164.800,166.274 164.800 C 167.069 164.800,168.173 163.733,168.240 162.900 C 168.331 161.765,168.427 161.600,169.000 161.600 C 169.330 161.600,169.623 161.420,169.650 161.200 C 169.678 160.980,169.745 160.620,169.800 160.400 C 169.855 160.180,169.923 159.820,169.950 159.600 C 169.978 159.380,170.329 159.200,170.731 159.200 C 171.327 159.200,171.451 158.905,171.402 157.600 C 171.344 156.056,171.641 155.739,172.930 155.963 C 173.111 155.994,173.144 155.832,173.002 155.603 C 172.861 155.374,172.564 155.299,172.343 155.435 C 172.122 155.572,172.171 155.316,172.452 154.866 C 172.732 154.416,173.368 153.831,173.864 153.566 C 174.583 153.181,174.685 152.933,174.369 152.342 C 174.062 151.769,174.112 151.600,174.586 151.600 C 174.944 151.600,175.217 151.225,175.240 150.700 C 175.278 149.837,175.293 149.841,175.600 150.800 C 175.852 151.587,175.929 151.352,175.960 149.700 C 175.997 147.738,176.474 146.956,176.935 148.100 C 177.046 148.375,177.151 148.105,177.168 147.500 C 177.186 146.895,177.391 146.400,177.624 146.400 C 177.857 146.400,177.935 146.219,177.798 145.997 C 177.661 145.776,177.831 145.486,178.175 145.354 C 178.519 145.222,178.800 144.864,178.800 144.557 C 178.800 144.251,178.941 144.000,179.114 144.000 C 179.286 144.000,179.762 143.433,180.171 142.741 C 180.580 142.048,180.726 141.598,180.495 141.741 C 180.228 141.906,180.243 141.644,180.537 141.021 C 180.792 140.482,181.360 139.942,181.800 139.821 C 182.478 139.634,182.509 139.540,182.000 139.206 C 181.563 138.919,181.542 138.811,181.924 138.806 C 182.212 138.803,182.342 138.629,182.212 138.420 C 181.917 137.942,183.375 137.127,183.834 137.514 C 184.021 137.671,183.937 137.490,183.647 137.111 C 183.089 136.381,183.963 134.897,184.586 135.519 C 184.740 135.674,184.817 135.620,184.757 135.400 C 184.569 134.715,185.244 132.400,185.632 132.400 C 185.834 132.400,186.003 132.625,186.006 132.900 C 186.018 133.909,186.788 132.197,186.794 131.147 C 186.798 130.433,187.058 130.026,187.600 129.884 C 188.180 129.732,188.400 129.338,188.400 128.452 C 188.400 127.638,188.668 127.085,189.200 126.800 C 189.640 126.565,190.000 126.027,190.000 125.606 C 190.000 125.184,190.281 124.683,190.624 124.491 C 190.967 124.299,191.342 123.525,191.457 122.771 C 191.685 121.280,192.400 120.179,192.400 121.320 C 192.400 121.694,192.576 122.000,192.790 122.000 C 193.041 122.000,193.044 121.643,192.800 121.000 C 192.546 120.333,192.558 120.000,192.834 120.000 C 193.061 120.000,193.136 119.820,193.000 119.600 C 192.864 119.380,192.403 119.200,191.976 119.200 C 191.459 119.200,191.200 118.925,191.200 118.376 C 191.200 117.923,191.029 117.658,190.820 117.788 C 190.611 117.917,190.242 117.652,189.999 117.198 C 189.757 116.745,189.343 116.402,189.079 116.435 C 187.801 116.595,187.491 116.413,188.000 115.800 C 188.422 115.292,188.333 115.200,187.423 115.200 C 186.111 115.200,184.801 114.544,184.797 113.886 C 184.795 113.619,184.054 112.977,183.149 112.460 C 182.244 111.944,181.616 111.702,181.752 111.923 C 181.896 112.155,181.587 112.130,181.021 111.863 C 180.482 111.608,179.942 111.040,179.821 110.600 C 179.634 109.922,179.540 109.891,179.206 110.400 C 178.943 110.801,178.810 110.834,178.806 110.500 C 178.803 110.225,178.579 110.045,178.309 110.100 C 178.040 110.155,177.753 109.766,177.673 109.235 C 177.561 108.493,177.445 108.400,177.170 108.835 C 176.973 109.146,176.809 109.200,176.806 108.955 C 176.803 108.698,176.380 108.591,175.800 108.702 C 174.878 108.878,174.595 108.562,174.745 107.521 C 174.768 107.368,174.093 107.271,173.247 107.304 C 172.263 107.344,171.462 107.119,171.026 106.683 C 170.650 106.307,170.176 105.978,169.971 105.950 C 169.767 105.922,169.420 105.855,169.200 105.800 C 168.980 105.745,168.485 105.675,168.100 105.644 C 167.646 105.607,167.560 105.484,167.856 105.294 C 168.186 105.081,168.158 104.858,167.756 104.484 C 167.302 104.063,167.199 104.063,167.194 104.484 C 167.190 104.849,167.074 104.824,166.800 104.400 C 166.455 103.867,166.411 103.867,166.400 104.400 C 166.390 104.879,166.320 104.893,166.051 104.469 C 165.866 104.177,165.464 103.974,165.157 104.017 C 164.037 104.174,163.158 103.991,163.372 103.645 C 163.493 103.450,163.289 103.045,162.919 102.745 C 162.456 102.370,162.340 102.356,162.547 102.700 C 162.712 102.975,162.657 103.200,162.424 103.200 C 162.191 103.200,162.000 103.036,162.000 102.835 C 162.000 102.635,161.528 102.522,160.950 102.586 C 160.335 102.653,159.595 102.395,159.160 101.960 C 158.614 101.414,157.709 101.191,155.710 101.110 C 153.503 101.020,152.944 100.861,152.696 100.254 C 152.477 99.718,152.109 99.562,151.386 99.701 C 150.833 99.806,150.305 99.769,150.212 99.619 C 150.119 99.468,149.088 99.379,147.921 99.422 C 145.696 99.502,143.761 98.711,144.249 97.921 C 144.431 97.626,144.338 97.591,143.973 97.817 C 143.324 98.218,141.333 98.223,140.084 97.827 C 139.518 97.647,139.200 97.713,139.200 98.011 C 139.200 98.333,138.557 98.406,137.100 98.249 C 134.008 97.916,118.466 97.801,118.158 98.108 C 118.013 98.253,117.558 98.192,117.147 97.972 C 116.697 97.731,116.400 97.721,116.400 97.948 M260.800 97.951 C 260.800 98.198,260.476 98.400,260.080 98.400 C 259.684 98.400,259.156 98.604,258.908 98.852 C 258.659 99.101,257.183 99.326,255.628 99.352 C 254.072 99.378,252.800 99.545,252.800 99.723 C 252.800 99.902,252.607 99.928,252.370 99.782 C 251.712 99.375,249.622 99.311,249.865 99.706 C 249.984 99.897,249.702 100.153,249.240 100.274 C 248.778 100.394,248.400 100.627,248.400 100.790 C 248.400 100.954,247.590 101.065,246.600 101.038 C 245.610 101.011,244.800 101.083,244.800 101.197 C 244.800 101.634,242.146 102.563,241.000 102.527 C 240.340 102.506,239.540 102.694,239.223 102.945 C 238.850 103.239,238.738 103.247,238.906 102.967 C 239.048 102.728,238.895 102.533,238.565 102.533 C 238.235 102.533,238.052 102.758,238.158 103.034 C 238.366 103.577,237.583 104.000,236.367 104.000 C 235.945 104.000,235.597 104.225,235.594 104.500 C 235.590 104.833,235.458 104.800,235.200 104.400 C 234.886 103.915,234.811 103.972,234.806 104.700 C 234.801 105.433,234.576 105.600,233.595 105.600 C 232.310 105.600,230.901 106.242,230.169 107.161 C 229.923 107.470,229.521 107.598,229.275 107.447 C 229.030 107.295,228.467 107.533,228.024 107.976 C 227.578 108.422,226.946 108.677,226.609 108.548 C 226.274 108.420,226.000 108.470,226.000 108.661 C 226.000 108.852,225.621 109.244,225.158 109.533 C 224.461 109.969,224.363 109.968,224.588 109.530 C 224.737 109.238,224.601 109.315,224.286 109.700 C 223.970 110.085,223.507 110.400,223.256 110.400 C 223.005 110.400,222.800 110.593,222.800 110.829 C 222.800 111.064,222.515 110.973,222.168 110.625 C 221.360 109.817,220.809 110.149,221.102 111.268 C 221.284 111.964,221.194 112.083,220.644 111.872 C 220.265 111.727,220.060 111.774,220.186 111.977 C 220.311 112.179,220.241 112.451,220.031 112.581 C 219.821 112.711,219.464 112.498,219.237 112.108 C 218.871 111.481,218.823 111.510,218.812 112.367 C 218.805 112.898,218.686 113.219,218.547 113.080 C 218.408 112.941,217.955 113.257,217.542 113.783 C 217.129 114.309,216.251 114.857,215.592 115.002 C 214.932 115.147,214.495 115.431,214.621 115.633 C 214.878 116.049,213.075 116.843,212.303 116.654 C 212.027 116.587,211.942 116.609,212.116 116.704 C 212.472 116.899,210.878 118.400,210.315 118.400 C 210.116 118.400,210.064 118.579,210.199 118.798 C 210.334 119.017,209.985 119.406,209.423 119.663 C 208.860 119.919,208.400 120.290,208.400 120.488 C 208.400 120.685,208.220 120.736,208.000 120.600 C 207.780 120.464,207.600 120.543,207.600 120.776 C 207.600 121.009,207.330 121.200,207.000 121.200 C 206.670 121.200,206.400 121.393,206.400 121.629 C 206.400 121.864,206.130 122.327,205.800 122.657 C 205.470 122.987,205.200 123.114,205.200 122.940 C 205.200 122.765,204.920 123.022,204.577 123.511 C 204.235 124.000,203.700 124.400,203.390 124.400 C 203.059 124.400,202.918 124.642,203.049 124.983 C 203.197 125.369,202.935 125.651,202.274 125.817 C 201.725 125.955,201.181 126.429,201.066 126.870 C 200.911 127.463,200.646 127.605,200.047 127.415 C 199.402 127.210,199.268 127.314,199.385 127.924 C 199.496 128.498,199.315 128.679,198.666 128.645 C 197.957 128.608,197.815 128.801,197.883 129.713 C 197.928 130.325,197.806 130.727,197.611 130.607 C 197.417 130.487,197.138 130.764,196.993 131.223 C 196.833 131.726,196.504 131.972,196.164 131.841 C 195.854 131.722,195.597 131.844,195.594 132.113 C 195.590 132.427,195.438 132.386,195.168 132.000 C 194.839 131.531,194.803 131.596,195.001 132.302 C 195.173 132.913,195.061 133.279,194.652 133.436 C 194.320 133.563,193.749 134.124,193.383 134.683 C 192.920 135.388,192.883 135.607,193.259 135.399 C 193.556 135.234,193.305 135.579,192.700 136.166 C 192.095 136.752,191.600 137.393,191.600 137.589 C 191.600 137.786,191.244 138.059,190.808 138.197 C 190.373 138.336,190.034 138.573,190.055 138.724 C 190.161 139.462,189.959 140.000,189.576 140.000 C 189.343 140.000,189.288 139.775,189.453 139.500 C 189.671 139.137,189.574 139.145,189.101 139.529 C 188.733 139.827,188.554 140.337,188.692 140.695 C 188.863 141.141,188.784 141.237,188.425 141.016 C 188.042 140.779,187.986 140.926,188.200 141.600 C 188.395 142.213,188.345 142.413,188.043 142.226 C 187.799 142.076,187.579 142.188,187.554 142.476 C 187.528 142.764,187.466 143.180,187.415 143.400 C 187.364 143.620,187.294 144.047,187.261 144.349 C 187.212 144.791,187.083 144.801,186.600 144.400 C 186.090 143.977,185.999 144.075,185.994 145.051 C 185.987 146.398,185.441 147.400,184.715 147.400 C 184.432 147.400,184.178 147.625,184.150 147.900 C 184.123 148.175,184.056 148.535,184.003 148.700 C 183.949 148.865,183.927 149.135,183.953 149.300 C 183.979 149.465,183.809 149.600,183.576 149.600 C 183.343 149.600,183.252 149.761,183.374 149.958 C 183.496 150.155,183.326 150.419,182.998 150.546 C 182.669 150.672,182.400 151.070,182.400 151.430 C 182.400 151.828,182.180 152.001,181.839 151.870 C 180.986 151.543,180.763 152.020,181.449 152.706 C 181.793 153.050,181.895 153.422,181.683 153.558 C 181.477 153.691,181.181 154.205,181.027 154.700 C 180.856 155.248,180.404 155.618,179.873 155.646 C 179.253 155.679,179.192 155.744,179.665 155.869 C 180.246 156.023,180.263 156.174,179.796 157.072 C 179.503 157.637,179.356 158.392,179.469 158.750 C 179.631 159.259,179.592 159.283,179.288 158.857 C 178.787 158.157,178.340 158.816,178.138 160.553 C 177.898 162.611,177.564 163.389,177.184 162.774 C 176.831 162.203,176.495 163.311,176.459 165.164 C 176.448 165.694,176.278 166.234,176.080 166.364 C 175.734 166.591,175.503 167.354,174.862 170.400 C 174.656 171.376,174.360 171.783,173.884 171.744 C 173.138 171.684,172.939 172.246,173.625 172.475 C 173.925 172.575,173.925 172.945,173.625 173.734 C 173.391 174.349,173.200 175.661,173.200 176.650 C 173.200 177.638,173.065 178.365,172.900 178.266 C 172.222 177.855,171.797 179.160,171.749 181.800 C 171.644 187.603,171.644 187.600,170.900 187.600 C 170.194 187.600,169.896 209.537,170.566 212.205 C 170.705 212.761,170.598 213.226,170.299 213.363 C 170.025 213.489,170.166 213.504,170.614 213.397 C 171.513 213.180,171.508 213.161,171.611 217.000 C 171.646 218.320,171.817 220.067,171.991 220.882 C 172.204 221.882,172.159 222.425,171.853 222.551 C 171.604 222.653,171.768 222.751,172.218 222.768 C 173.011 222.799,173.168 223.309,173.310 226.300 C 173.323 226.575,173.440 226.800,173.571 226.800 C 173.701 226.800,173.806 227.385,173.804 228.100 C 173.801 228.928,173.981 229.364,174.300 229.300 C 174.575 229.245,174.818 229.515,174.840 229.900 C 174.862 230.285,174.907 231.140,174.940 231.800 C 174.973 232.460,175.180 233.132,175.400 233.294 C 175.645 233.474,175.601 233.590,175.284 233.594 C 174.863 233.599,174.863 233.702,175.284 234.156 C 175.593 234.488,175.898 234.555,176.044 234.323 C 176.178 234.109,176.410 234.855,176.560 235.981 C 176.712 237.129,177.000 237.924,177.216 237.790 C 177.429 237.659,177.600 238.084,177.600 238.743 C 177.600 239.398,177.825 240.025,178.100 240.136 C 178.476 240.289,178.452 240.444,178.000 240.763 C 177.552 241.080,177.534 241.189,177.929 241.194 C 178.219 241.197,178.727 241.470,179.057 241.800 C 179.387 242.130,179.532 242.400,179.380 242.400 C 179.227 242.400,179.312 242.652,179.568 242.961 C 179.925 243.392,179.913 243.570,179.517 243.730 C 179.212 243.852,179.315 243.950,179.767 243.968 C 180.188 243.986,180.422 244.111,180.286 244.248 C 180.150 244.384,180.316 244.773,180.655 245.112 C 181.046 245.504,181.215 246.218,181.117 247.065 C 180.991 248.141,181.100 248.400,181.680 248.400 C 182.076 248.400,182.423 248.670,182.450 249.000 C 182.478 249.330,182.545 249.780,182.600 250.000 C 182.655 250.220,182.722 250.580,182.750 250.800 C 182.778 251.020,183.070 251.200,183.400 251.200 C 183.922 251.200,184.200 251.931,184.047 252.900 C 184.003 253.182,184.625 253.354,185.300 253.247 C 185.465 253.221,185.579 253.335,185.553 253.500 C 185.431 254.273,185.663 254.827,186.394 255.509 C 186.840 255.924,187.235 256.879,187.294 257.685 C 187.352 258.476,187.501 259.060,187.625 258.984 C 187.749 258.908,188.379 259.194,189.025 259.620 C 189.671 260.046,190.037 260.396,189.838 260.397 C 189.639 260.399,189.771 260.726,190.133 261.125 C 190.656 261.704,190.689 261.956,190.295 262.370 C 189.894 262.791,189.970 262.839,190.697 262.619 C 191.407 262.405,191.545 262.479,191.355 262.974 C 191.221 263.321,191.322 263.600,191.581 263.600 C 191.837 263.600,191.936 263.780,191.800 264.000 C 191.664 264.220,191.788 264.403,192.076 264.406 C 192.462 264.411,192.442 264.526,192.000 264.844 C 191.507 265.198,191.536 265.231,192.162 265.026 C 193.180 264.694,194.790 266.228,194.832 267.570 C 194.849 268.136,194.953 268.377,195.064 268.104 C 195.305 267.507,196.076 268.154,196.520 269.325 C 196.671 269.724,196.988 269.931,197.224 269.785 C 197.463 269.638,197.752 269.893,197.874 270.360 C 198.248 271.790,199.664 271.347,202.110 269.034 C 203.369 267.843,204.400 266.694,204.400 266.481 C 204.400 266.268,204.760 265.999,205.200 265.884 C 205.640 265.769,206.000 265.388,206.000 265.037 C 206.000 264.687,206.184 264.400,206.408 264.400 C 206.872 264.400,212.400 258.779,212.400 258.307 C 212.400 258.138,212.670 258.000,213.000 258.000 C 213.330 258.000,213.600 257.730,213.600 257.400 C 213.600 257.070,213.794 256.800,214.031 256.800 C 214.591 256.800,216.800 254.591,216.800 254.031 C 216.800 253.794,217.070 253.600,217.400 253.600 C 217.730 253.600,218.000 253.330,218.000 253.000 C 218.000 252.670,218.138 252.400,218.307 252.400 C 218.779 252.400,224.400 246.872,224.400 246.408 C 224.400 246.184,224.687 246.000,225.037 246.000 C 225.388 246.000,225.769 245.640,225.884 245.200 C 225.999 244.760,226.256 244.400,226.455 244.400 C 226.887 244.400,232.400 238.749,232.400 238.307 C 232.400 238.138,232.627 238.000,232.904 238.000 C 233.181 238.000,233.632 237.640,233.907 237.200 C 234.182 236.760,234.765 236.400,235.203 236.400 C 236.221 236.400,236.215 235.919,235.186 234.987 C 234.738 234.582,234.462 234.014,234.573 233.725 C 234.697 233.402,234.475 233.200,233.995 233.200 C 233.503 233.200,233.125 232.842,232.972 232.229 C 232.837 231.695,232.463 231.156,232.139 231.032 C 231.814 230.907,231.662 230.623,231.800 230.400 C 231.938 230.177,231.769 229.886,231.425 229.754 C 231.081 229.622,230.800 229.264,230.800 228.957 C 230.800 228.651,230.583 228.445,230.318 228.500 C 230.053 228.555,229.824 228.330,229.809 228.000 C 229.793 227.670,229.470 227.425,229.090 227.456 C 228.424 227.509,228.234 227.152,228.370 226.100 C 228.406 225.825,228.247 225.600,228.018 225.600 C 227.788 225.600,227.645 225.465,227.700 225.300 C 227.755 225.135,227.647 225.000,227.460 225.000 C 227.272 225.000,226.847 224.190,226.513 223.200 C 226.180 222.210,225.743 221.296,225.543 221.170 C 225.343 221.043,225.139 220.386,225.089 219.709 C 225.040 219.032,224.885 218.548,224.745 218.635 C 224.605 218.721,224.245 218.489,223.945 218.119 C 223.476 217.540,223.484 217.496,224.000 217.800 C 224.480 218.083,224.510 218.038,224.151 217.577 C 223.905 217.260,223.757 216.665,223.823 216.255 C 223.896 215.800,223.653 215.434,223.199 215.316 C 222.762 215.201,222.544 214.890,222.670 214.561 C 222.789 214.252,222.716 214.000,222.509 214.000 C 222.303 214.000,222.114 213.505,222.090 212.900 C 222.035 211.508,221.862 210.735,221.459 210.090 C 221.284 209.810,221.289 209.630,221.470 209.690 C 221.652 209.751,221.845 209.665,221.900 209.500 C 222.147 208.758,221.946 208.489,221.275 208.665 C 220.590 208.844,220.548 208.319,220.522 199.227 C 220.500 191.445,220.597 189.600,221.029 189.600 C 221.572 189.600,221.897 188.369,222.166 185.292 C 222.248 184.353,222.551 183.300,222.840 182.952 C 223.363 182.322,223.468 182.012,223.881 179.876 C 224.018 179.164,224.290 178.826,224.624 178.954 C 225.006 179.100,225.143 178.718,225.127 177.549 C 225.111 176.349,225.320 175.791,225.952 175.348 C 226.493 174.969,226.800 174.323,226.800 173.563 C 226.800 172.496,226.883 172.416,227.600 172.800 C 228.073 173.053,228.400 173.073,228.400 172.847 C 228.400 172.638,228.177 172.392,227.904 172.301 C 227.332 172.111,228.439 170.800,229.171 170.800 C 229.531 170.800,229.789 169.717,229.661 168.740 C 229.642 168.597,230.071 168.369,230.613 168.232 C 231.260 168.070,231.600 167.703,231.600 167.165 C 231.600 166.507,231.777 166.396,232.500 166.599 C 233.205 166.797,233.270 166.761,232.800 166.432 C 232.304 166.085,232.298 166.011,232.767 166.006 C 233.078 166.003,233.222 165.889,233.086 165.752 C 232.950 165.616,233.101 165.242,233.423 164.920 C 233.744 164.599,233.902 164.166,233.774 163.958 C 233.646 163.750,233.779 163.630,234.070 163.690 C 234.362 163.751,234.555 163.575,234.500 163.300 C 234.445 163.025,234.580 162.800,234.800 162.800 C 235.020 162.800,235.214 163.115,235.232 163.500 C 235.251 163.940,235.413 163.791,235.666 163.098 C 235.887 162.491,236.233 162.097,236.434 162.221 C 236.635 162.345,236.818 162.032,236.840 161.524 C 236.879 160.612,236.884 160.613,237.200 161.600 L 237.520 162.600 237.560 161.500 C 237.582 160.895,237.819 160.400,238.087 160.400 C 238.736 160.400,240.441 158.390,240.168 157.948 C 239.979 157.643,241.205 157.402,242.130 157.563 C 242.311 157.594,242.327 157.405,242.164 157.142 C 241.958 156.809,242.087 156.748,242.591 156.941 C 243.212 157.179,243.239 157.130,242.789 156.587 C 242.501 156.239,242.430 155.986,242.632 156.025 C 243.715 156.231,244.800 155.930,244.800 155.424 C 244.800 154.720,245.276 154.403,246.707 154.155 C 247.308 154.051,247.980 153.744,248.200 153.473 C 248.420 153.201,249.185 152.984,249.900 152.990 C 250.615 152.995,251.200 152.865,251.200 152.700 C 251.200 152.535,250.885 152.394,250.500 152.387 C 249.862 152.376,249.868 152.323,250.565 151.796 C 251.006 151.462,251.725 151.316,252.265 151.452 C 252.840 151.596,253.200 151.509,253.200 151.226 C 253.200 150.686,254.465 150.817,254.894 151.400 C 255.056 151.620,255.191 151.395,255.194 150.900 C 255.197 150.405,255.425 149.988,255.700 149.972 C 255.975 149.957,256.740 149.853,257.400 149.740 C 258.060 149.628,259.005 149.514,259.500 149.488 C 259.995 149.462,260.400 149.206,260.400 148.920 C 260.400 148.555,261.084 148.398,262.700 148.392 C 266.019 148.380,274.113 147.970,274.700 147.784 C 274.975 147.696,275.203 147.844,275.206 148.113 C 275.210 148.421,275.355 148.379,275.600 148.000 C 275.860 147.597,275.990 147.565,275.994 147.902 C 275.998 148.254,276.743 148.391,278.500 148.362 C 282.884 148.290,283.306 148.347,283.063 148.980 C 282.920 149.353,283.033 149.485,283.380 149.352 C 283.676 149.239,284.038 149.338,284.183 149.573 C 284.328 149.808,285.148 150.000,286.004 150.000 C 287.058 150.000,287.684 150.221,287.944 150.686 C 288.183 151.113,288.893 151.405,289.822 151.457 C 290.644 151.503,291.425 151.703,291.558 151.900 C 291.863 152.352,293.212 152.947,294.000 152.977 C 294.330 152.990,294.661 153.434,294.736 153.965 C 294.841 154.706,294.955 154.799,295.230 154.365 C 295.470 153.985,295.590 153.960,295.594 154.287 C 295.597 154.556,295.831 154.686,296.114 154.578 C 296.397 154.469,297.038 154.763,297.540 155.230 C 298.082 155.735,298.766 155.998,299.226 155.877 C 300.047 155.662,300.359 156.614,299.555 156.882 C 299.310 156.963,299.625 157.251,300.255 157.522 C 301.310 157.974,301.339 157.965,300.624 157.407 C 300.196 157.073,300.002 156.800,300.192 156.800 C 300.772 156.800,301.953 158.046,301.839 158.538 C 301.779 158.792,301.807 158.865,301.899 158.700 C 302.166 158.223,302.590 158.345,303.450 159.146 C 303.890 159.556,304.644 160.102,305.125 160.360 C 305.606 160.617,306.000 161.092,306.000 161.414 C 306.000 161.736,306.270 162.000,306.600 162.000 C 306.962 162.000,307.200 162.370,307.200 162.933 C 307.200 164.233,308.309 164.124,308.601 162.797 C 308.735 162.187,309.513 161.226,310.411 160.563 C 311.278 159.923,312.092 159.085,312.220 158.700 C 312.349 158.315,312.712 158.000,313.027 158.000 C 313.342 158.000,313.600 157.730,313.600 157.400 C 313.600 157.070,313.794 156.800,314.031 156.800 C 314.591 156.800,316.800 154.591,316.800 154.031 C 316.800 153.794,317.070 153.600,317.400 153.600 C 317.730 153.600,318.000 153.330,318.000 153.000 C 318.000 152.670,318.138 152.400,318.307 152.400 C 318.749 152.400,324.400 146.887,324.400 146.455 C 324.400 146.256,324.760 145.999,325.200 145.884 C 325.640 145.769,326.000 145.388,326.000 145.037 C 326.000 144.687,326.184 144.400,326.408 144.400 C 326.872 144.400,332.400 138.779,332.400 138.307 C 332.400 138.138,332.670 138.000,333.000 138.000 C 333.330 138.000,333.600 137.730,333.600 137.400 C 333.600 137.070,333.794 136.800,334.031 136.800 C 334.591 136.800,336.800 134.591,336.800 134.031 C 336.800 133.794,337.070 133.600,337.400 133.600 C 337.730 133.600,338.000 133.330,338.000 133.000 C 338.000 132.670,338.149 132.400,338.332 132.400 C 338.772 132.400,342.800 128.404,342.800 127.968 C 342.800 127.557,344.219 126.752,344.481 127.014 C 344.583 127.116,344.667 126.947,344.667 126.638 C 344.667 126.303,344.424 126.169,344.068 126.306 C 343.678 126.456,343.570 126.372,343.758 126.068 C 344.017 125.649,343.545 125.419,342.700 125.553 C 342.535 125.579,342.421 125.465,342.447 125.300 C 342.594 124.369,342.336 123.613,341.900 123.700 C 341.612 123.758,341.438 123.460,341.488 123.000 C 341.537 122.560,341.480 122.416,341.362 122.679 C 341.059 123.355,339.288 122.507,338.981 121.539 C 338.852 121.133,338.386 120.800,337.946 120.800 C 337.308 120.800,337.197 120.618,337.399 119.900 C 337.597 119.195,337.561 119.130,337.232 119.600 C 336.924 120.040,336.811 120.061,336.806 119.676 C 336.803 119.388,336.625 119.261,336.412 119.393 C 336.198 119.525,335.899 119.137,335.747 118.531 C 335.498 117.538,335.440 117.507,335.163 118.215 C 334.899 118.890,334.852 118.902,334.828 118.300 C 334.813 117.915,334.575 117.645,334.300 117.700 C 334.025 117.755,333.860 117.530,333.933 117.200 C 334.007 116.870,333.933 116.733,333.770 116.897 C 333.607 117.060,333.251 117.008,332.979 116.782 C 332.707 116.557,332.240 116.423,331.942 116.486 C 331.644 116.549,331.445 116.375,331.500 116.100 C 331.555 115.824,331.196 115.587,330.700 115.572 C 329.841 115.545,329.837 115.528,330.600 115.200 C 331.309 114.895,331.275 114.853,330.300 114.828 C 329.665 114.812,329.242 114.596,329.300 114.319 C 329.355 114.054,329.130 113.819,328.800 113.797 C 327.841 113.732,326.000 112.853,326.000 112.460 C 326.000 112.262,325.474 111.995,324.832 111.866 C 324.135 111.727,323.559 111.301,323.403 110.811 C 323.260 110.358,322.975 110.092,322.771 110.218 C 322.567 110.344,322.400 110.244,322.400 109.997 C 322.400 109.719,322.073 109.650,321.550 109.816 C 320.978 109.997,320.789 109.941,320.974 109.643 C 321.426 108.910,320.811 108.293,320.164 108.830 C 319.759 109.166,319.600 109.172,319.600 108.849 C 319.600 108.602,319.465 108.438,319.300 108.485 C 319.135 108.532,318.550 108.316,318.000 108.005 C 317.450 107.694,316.460 107.417,315.800 107.389 C 315.112 107.360,314.643 107.138,314.700 106.869 C 314.755 106.611,314.575 106.397,314.300 106.394 C 313.967 106.390,314.000 106.258,314.400 106.000 C 314.833 105.720,314.466 105.611,313.076 105.606 C 311.965 105.603,311.252 105.440,311.388 105.220 C 311.750 104.633,310.227 104.000,308.453 104.000 C 307.172 104.000,306.800 103.830,306.583 103.147 C 306.366 102.464,306.236 102.404,305.926 102.847 C 305.627 103.274,305.493 103.286,305.336 102.900 C 305.214 102.600,304.383 102.400,303.256 102.400 C 301.873 102.400,301.197 102.189,300.693 101.600 C 300.166 100.985,299.513 100.800,297.866 100.800 C 296.233 100.800,295.552 100.610,295.001 100.001 C 294.477 99.423,294.140 99.318,293.775 99.621 C 293.424 99.912,293.191 99.909,293.007 99.611 C 292.857 99.368,291.936 99.250,290.871 99.337 C 289.842 99.421,288.775 99.313,288.500 99.096 C 288.155 98.824,288.000 98.862,288.000 99.218 C 288.000 99.501,287.884 99.618,287.743 99.476 C 287.602 99.335,287.696 98.966,287.953 98.656 C 288.318 98.217,288.286 98.042,287.810 97.859 C 287.475 97.730,287.200 97.763,287.200 97.933 C 287.200 98.102,286.750 98.240,286.200 98.240 C 285.650 98.240,285.200 98.141,285.200 98.020 C 285.200 97.899,284.570 97.800,283.800 97.800 C 283.030 97.800,282.400 97.956,282.400 98.147 C 282.400 98.337,281.905 98.372,281.300 98.224 C 279.972 97.898,270.695 97.915,266.053 98.252 C 263.452 98.441,262.628 98.373,262.359 97.947 C 262.066 97.485,262.011 97.485,262.006 97.949 C 262.001 98.392,261.884 98.401,261.400 98.000 C 260.985 97.656,260.800 97.641,260.800 97.951 M93.031 237.417 C 92.891 237.977,92.525 238.531,92.217 238.649 C 91.532 238.912,58.800 271.601,58.800 272.021 C 58.800 272.187,58.273 272.505,57.629 272.730 C 56.673 273.063,56.502 273.305,56.697 274.048 C 56.914 274.879,56.957 274.892,57.198 274.205 C 57.380 273.688,57.553 273.601,57.755 273.927 C 57.916 274.187,57.965 274.535,57.866 274.700 C 57.766 274.865,57.935 275.232,58.242 275.516 C 58.549 275.799,58.800 275.861,58.800 275.653 C 58.800 275.438,59.217 275.472,59.770 275.733 C 60.418 276.039,60.584 276.289,60.270 276.489 C 59.966 276.682,60.062 276.790,60.543 276.794 C 61.035 276.798,61.209 277.001,61.057 277.395 C 60.925 277.739,61.034 277.950,61.314 277.895 C 61.586 277.842,61.761 278.152,61.712 278.600 C 61.663 279.040,61.723 279.175,61.845 278.900 C 62.159 278.193,62.445 278.267,63.762 279.400 C 64.401 279.950,65.076 280.400,65.262 280.400 C 65.448 280.400,65.613 280.805,65.628 281.300 C 65.655 282.159,65.672 282.163,66.000 281.400 C 66.330 280.632,66.345 280.636,66.372 281.487 C 66.393 282.148,66.571 282.309,67.069 282.118 C 67.575 281.924,67.677 282.024,67.484 282.526 C 67.326 282.937,67.414 283.154,67.714 283.095 C 67.981 283.043,68.161 283.207,68.114 283.459 C 68.065 283.720,68.341 283.836,68.754 283.728 C 69.154 283.623,69.778 283.835,70.140 284.198 C 70.503 284.560,70.800 284.747,70.800 284.613 C 70.800 284.478,71.051 284.601,71.358 284.884 C 71.665 285.168,71.834 285.535,71.734 285.700 C 71.635 285.865,71.788 286.003,72.076 286.006 C 72.479 286.011,72.470 286.095,72.036 286.369 C 71.634 286.624,71.805 286.719,72.636 286.703 C 74.663 286.663,75.254 286.788,74.998 287.204 C 74.860 287.426,75.299 287.921,75.972 288.304 C 76.644 288.687,77.196 289.225,77.197 289.500 C 77.199 289.790,77.713 290.000,78.424 290.000 C 79.097 290.000,79.548 290.161,79.426 290.357 C 79.248 290.645,80.459 291.201,81.629 291.367 C 82.026 291.424,83.170 292.697,82.987 292.879 C 82.892 292.975,83.520 292.998,84.384 292.929 C 85.249 292.861,86.066 292.984,86.202 293.202 C 86.337 293.421,86.249 293.600,86.008 293.600 C 85.725 293.600,85.753 293.798,86.084 294.156 C 86.425 294.523,86.689 294.569,86.863 294.292 C 87.236 293.697,89.678 294.746,89.318 295.346 C 89.127 295.665,89.218 295.661,89.624 295.333 C 90.070 294.973,90.379 294.996,90.978 295.433 C 91.404 295.745,92.281 296.000,92.925 296.000 C 93.874 296.000,94.011 296.105,93.643 296.549 C 93.131 297.165,94.549 297.600,97.074 297.600 C 97.829 297.600,98.349 297.760,98.228 297.955 C 97.817 298.620,99.067 299.191,100.635 299.055 C 102.419 298.900,103.297 299.120,102.974 299.642 C 102.852 299.839,103.044 300.000,103.400 300.000 C 103.756 300.000,103.964 300.135,103.861 300.300 C 103.759 300.465,104.514 300.582,105.538 300.559 C 108.814 300.487,110.427 300.817,110.307 301.535 C 110.189 302.249,111.459 302.455,112.300 301.857 C 112.603 301.642,112.800 301.659,112.800 301.899 C 112.800 302.156,118.555 302.279,129.100 302.248 C 141.906 302.210,145.379 302.093,145.300 301.700 C 145.245 301.425,145.380 301.200,145.600 301.200 C 145.820 301.200,146.000 301.391,146.000 301.624 C 146.000 301.857,146.183 301.934,146.407 301.796 C 146.630 301.658,146.692 301.349,146.545 301.111 C 146.383 300.849,146.463 300.792,146.745 300.966 C 147.002 301.125,147.121 301.404,147.009 301.586 C 146.896 301.767,147.071 302.019,147.397 302.144 C 147.724 302.269,147.971 302.243,147.948 302.086 C 147.781 300.968,148.090 300.578,149.100 300.630 C 149.705 300.661,150.599 300.538,151.086 300.358 C 151.573 300.178,152.060 300.174,152.169 300.350 C 152.277 300.525,152.779 300.623,153.283 300.568 C 153.787 300.512,154.341 300.452,154.514 300.433 C 154.687 300.415,154.660 300.085,154.454 299.700 C 154.125 299.084,154.302 298.992,155.940 298.933 C 159.309 298.813,160.400 298.615,160.400 298.125 C 160.400 297.824,161.192 297.596,162.500 297.521 C 163.764 297.448,164.600 297.214,164.600 296.933 C 164.600 296.163,165.030 295.956,166.858 295.846 C 167.939 295.781,168.562 295.562,168.500 295.270 C 168.445 295.012,168.672 294.800,169.005 294.800 C 169.338 294.800,169.992 294.575,170.458 294.300 C 171.152 293.890,171.341 293.901,171.507 294.363 C 171.641 294.736,171.881 294.535,172.222 293.763 C 172.504 293.123,172.750 292.859,172.768 293.176 C 172.791 293.599,172.957 293.545,173.387 292.976 C 173.710 292.549,173.980 292.395,173.987 292.633 C 174.009 293.389,175.200 293.100,175.200 292.339 C 175.200 291.811,175.693 291.488,177.000 291.158 C 177.990 290.909,178.800 290.546,178.800 290.353 C 178.800 290.159,179.076 290.000,179.413 290.000 C 179.749 290.000,180.138 289.705,180.277 289.344 C 180.503 288.755,180.587 288.765,181.095 289.444 C 181.646 290.179,181.658 290.178,181.531 289.400 C 181.453 288.923,181.602 288.640,181.900 288.700 C 182.175 288.755,182.400 288.632,182.400 288.427 C 182.400 288.222,182.763 287.939,183.206 287.798 C 183.649 287.657,183.908 287.375,183.782 287.171 C 183.656 286.967,183.923 286.800,184.376 286.800 C 184.829 286.800,185.579 286.421,186.041 285.959 C 186.504 285.496,187.179 285.070,187.541 285.013 C 187.905 284.956,188.147 284.616,188.082 284.255 C 187.970 283.630,188.622 283.397,189.954 283.583 C 190.295 283.630,190.420 283.430,190.280 283.063 C 190.153 282.732,190.316 282.364,190.646 282.238 C 190.982 282.109,191.135 282.181,190.997 282.405 C 190.863 282.622,190.924 282.800,191.134 282.800 C 191.343 282.800,191.618 282.530,191.745 282.200 C 191.871 281.870,192.219 281.600,192.518 281.600 C 192.894 281.600,193.007 281.231,192.885 280.400 C 192.788 279.740,192.555 279.200,192.367 279.200 C 192.179 279.200,192.129 278.930,192.255 278.600 C 192.401 278.220,192.250 278.000,191.843 278.000 C 191.489 278.000,191.221 277.865,191.247 277.700 C 191.422 276.597,191.114 275.600,190.600 275.600 C 190.203 275.600,190.000 275.203,190.000 274.428 C 190.000 273.517,189.799 273.227,189.100 273.128 C 188.325 273.018,188.218 272.796,188.328 271.530 C 188.437 270.277,188.349 270.087,187.728 270.244 C 186.826 270.472,185.700 268.433,186.466 267.959 C 186.748 267.785,186.551 267.619,185.965 267.536 C 185.266 267.438,184.987 267.133,184.951 266.432 C 184.925 265.900,184.565 265.217,184.151 264.915 C 183.738 264.613,183.490 264.289,183.600 264.196 C 183.710 264.102,183.465 263.635,183.056 263.158 C 182.648 262.680,182.271 262.089,182.219 261.845 C 181.864 260.162,181.466 259.235,181.177 259.414 C 180.552 259.801,179.847 257.947,180.459 257.523 C 180.833 257.263,180.720 257.227,180.090 257.404 C 179.589 257.545,179.206 257.512,179.237 257.330 C 179.269 257.149,179.253 256.820,179.201 256.600 C 179.150 256.380,179.083 255.930,179.054 255.600 C 179.024 255.270,178.685 255.025,178.300 255.056 C 177.829 255.093,177.600 254.824,177.600 254.231 C 177.600 253.747,177.284 253.002,176.897 252.575 C 175.925 251.503,175.111 249.600,175.624 249.600 C 175.849 249.600,175.800 249.349,175.516 249.042 C 175.232 248.735,174.877 248.558,174.728 248.649 C 174.578 248.739,174.342 248.630,174.204 248.407 C 174.066 248.183,174.188 247.997,174.476 247.994 C 174.868 247.989,174.853 247.895,174.419 247.620 C 174.100 247.418,173.694 247.342,173.518 247.450 C 173.136 247.687,172.231 245.637,172.367 244.843 C 172.419 244.536,172.270 244.167,172.036 244.022 C 171.802 243.878,171.543 243.140,171.460 242.382 C 171.347 241.353,171.118 241.004,170.555 241.002 C 170.070 241.001,169.822 240.739,169.860 240.273 C 169.898 239.813,169.722 239.621,169.381 239.752 C 169.033 239.885,168.920 239.753,169.063 239.380 C 169.186 239.061,169.076 238.800,168.819 238.800 C 168.563 238.800,168.465 238.619,168.602 238.397 C 168.739 238.176,168.554 237.881,168.192 237.742 C 167.665 237.539,167.640 237.421,168.066 237.150 C 168.605 236.809,168.513 236.790,165.820 236.680 C 165.281 236.658,164.482 236.964,164.045 237.359 C 163.608 237.755,163.072 237.968,162.854 237.833 C 162.636 237.698,162.395 237.996,162.319 238.494 C 162.243 238.992,161.960 239.355,161.691 239.300 C 161.421 239.245,161.200 239.391,161.200 239.624 C 161.200 239.857,161.053 239.956,160.873 239.845 C 160.693 239.734,160.300 239.984,160.000 240.400 C 159.700 240.816,159.307 241.066,159.127 240.955 C 158.947 240.844,158.800 240.943,158.800 241.176 C 158.800 241.409,158.500 241.600,158.133 241.600 C 157.767 241.600,157.568 241.701,157.691 241.825 C 158.048 242.181,156.177 244.000,155.454 244.000 C 155.094 244.000,154.800 244.199,154.800 244.443 C 154.800 244.686,154.532 244.783,154.205 244.657 C 153.865 244.527,153.650 244.633,153.705 244.905 C 153.757 245.167,153.395 245.443,152.900 245.518 C 152.405 245.594,152.000 245.834,152.000 246.051 C 152.000 246.269,151.835 246.345,151.632 246.220 C 151.430 246.095,150.993 246.264,150.661 246.596 C 150.329 246.928,149.487 247.200,148.791 247.200 C 147.894 247.200,147.468 247.416,147.331 247.942 C 147.175 248.539,146.791 248.670,145.368 248.611 C 144.396 248.570,143.600 248.681,143.600 248.856 C 143.600 249.031,143.323 249.068,142.984 248.938 C 142.591 248.788,142.410 248.902,142.484 249.251 C 142.562 249.620,142.142 249.833,141.200 249.900 C 136.737 250.218,135.600 250.466,135.575 251.129 C 135.557 251.609,135.446 251.544,135.188 250.900 C 134.989 250.405,134.719 250.000,134.589 250.000 C 134.459 250.000,134.451 250.160,134.572 250.355 C 135.091 251.194,133.456 251.559,128.667 251.676 C 124.017 251.789,123.574 251.739,123.736 251.119 C 123.953 250.294,123.254 249.977,122.300 250.468 C 121.838 250.706,121.600 250.678,121.600 250.385 C 121.600 250.142,121.195 249.976,120.700 250.016 C 118.279 250.212,115.172 249.968,115.400 249.600 C 115.536 249.380,115.412 249.173,115.124 249.139 C 114.599 249.078,114.148 248.985,113.400 248.785 C 112.611 248.574,112.192 248.492,111.676 248.446 C 111.388 248.421,111.264 248.220,111.400 248.000 C 111.538 247.777,111.195 247.578,110.624 247.550 C 110.061 247.523,109.420 247.455,109.200 247.400 C 108.980 247.345,108.485 247.275,108.100 247.244 C 107.559 247.201,107.521 247.111,107.934 246.850 C 108.359 246.580,108.331 246.459,107.797 246.254 C 107.429 246.113,106.964 246.099,106.764 246.222 C 106.564 246.346,106.400 246.257,106.400 246.024 C 106.400 245.791,106.265 245.621,106.100 245.647 C 105.151 245.797,104.726 245.527,104.895 244.881 C 105.029 244.368,104.841 244.143,104.241 244.098 C 102.540 243.971,101.600 243.569,101.600 242.969 C 101.600 242.630,101.409 242.471,101.175 242.616 C 100.686 242.918,99.122 241.649,99.410 241.184 C 99.515 241.014,99.246 240.967,98.812 241.081 C 98.244 241.230,97.894 241.004,97.562 240.275 C 97.287 239.674,96.877 239.349,96.550 239.474 C 96.163 239.623,95.998 239.347,95.994 238.543 C 95.991 237.914,95.856 237.590,95.694 237.822 C 95.501 238.099,95.168 238.004,94.725 237.547 C 94.250 237.057,94.191 236.793,94.525 236.657 C 94.786 236.550,94.615 236.449,94.143 236.432 C 93.546 236.410,93.209 236.708,93.031 237.417 " stroke="none" fill="#fcac04" fill-rule="evenodd"></path><path id="path1" d="M328.875 113.448 C 329.247 113.558,329.642 113.953,329.752 114.325 C 329.899 114.814,329.932 114.781,329.872 114.205 C 329.825 113.738,329.462 113.375,328.995 113.328 C 328.419 113.268,328.386 113.301,328.875 113.448 M54.800 128.600 C 54.800 129.733,54.648 130.000,54.000 130.000 C 53.467 130.000,53.200 130.267,53.200 130.800 C 53.200 131.333,52.933 131.600,52.400 131.600 C 51.867 131.600,51.600 131.867,51.600 132.400 C 51.600 133.116,51.184 133.387,50.300 133.247 C 50.135 133.221,50.000 133.560,50.000 134.000 C 50.000 134.533,49.733 134.800,49.200 134.800 C 48.605 134.800,48.400 135.067,48.400 135.843 C 48.400 136.587,48.235 136.822,47.823 136.664 C 47.395 136.500,47.214 136.826,47.123 137.921 C 47.030 139.043,46.831 139.387,46.300 139.344 C 45.861 139.310,45.600 139.570,45.600 140.044 C 45.600 140.533,45.318 140.800,44.800 140.800 C 44.360 140.800,44.021 140.935,44.047 141.100 C 44.176 141.913,43.929 142.325,43.200 142.516 C 42.587 142.676,42.400 143.062,42.400 144.163 C 42.400 145.333,42.252 145.600,41.600 145.600 C 40.958 145.600,40.800 145.867,40.800 146.953 C 40.800 147.998,40.606 148.358,39.947 148.530 C 39.321 148.694,39.151 148.971,39.310 149.576 C 39.428 150.029,39.334 150.517,39.101 150.661 C 38.836 150.825,38.796 150.730,38.994 150.410 C 39.206 150.066,39.127 149.961,38.756 150.091 C 38.450 150.198,38.225 150.582,38.256 150.943 C 38.286 151.304,38.151 151.600,37.956 151.600 C 37.760 151.600,37.600 151.941,37.600 152.357 C 37.600 152.774,37.330 153.218,37.000 153.345 C 36.623 153.489,36.400 154.101,36.400 154.987 C 36.400 156.121,36.246 156.400,35.620 156.400 C 34.951 156.400,34.823 156.727,34.720 158.700 C 34.619 160.633,34.488 160.981,33.900 160.882 C 33.329 160.787,33.200 161.064,33.200 162.382 C 33.200 163.554,33.034 164.000,32.600 164.000 C 32.270 164.000,31.973 164.225,31.939 164.500 C 31.906 164.775,31.836 165.180,31.785 165.400 C 31.734 165.620,31.672 166.545,31.646 167.456 C 31.609 168.771,31.456 169.100,30.900 169.056 C 30.307 169.008,30.170 169.457,30.000 172.000 C 29.846 174.311,29.662 175.000,29.200 175.000 C 28.718 175.000,28.577 175.729,28.485 178.700 C 28.394 181.628,28.248 182.400,27.785 182.400 C 27.281 182.400,27.200 184.823,27.200 200.000 C 27.200 215.378,27.276 217.600,27.800 217.600 C 28.416 217.600,28.556 218.916,28.406 223.300 C 28.348 224.977,28.438 225.200,29.170 225.200 C 29.937 225.200,30.000 225.430,30.000 228.237 C 30.000 230.938,30.089 231.298,30.800 231.484 C 31.571 231.686,31.855 233.003,31.621 235.300 C 31.574 235.763,31.829 236.000,32.375 236.000 C 33.107 236.000,33.200 236.245,33.200 238.173 C 33.200 239.995,33.329 240.387,34.000 240.600 C 34.446 240.741,34.827 241.241,34.861 241.727 C 34.894 242.207,34.940 242.868,34.962 243.195 C 34.984 243.522,35.316 243.850,35.701 243.924 C 36.204 244.021,36.400 244.442,36.400 245.429 C 36.400 246.381,36.583 246.800,37.000 246.800 C 37.403 246.800,37.600 247.203,37.600 248.024 C 37.600 248.856,37.750 249.155,38.068 248.958 C 38.389 248.760,38.450 248.892,38.263 249.379 C 38.061 249.907,38.146 250.029,38.595 249.857 C 39.029 249.691,39.200 249.891,39.200 250.566 C 39.200 251.170,39.486 251.582,40.000 251.716 C 40.589 251.870,40.800 252.262,40.800 253.200 C 40.800 254.138,41.011 254.530,41.600 254.684 C 42.319 254.872,42.566 255.528,42.507 257.100 C 42.497 257.375,42.808 257.600,43.198 257.600 C 43.588 257.600,44.001 257.960,44.116 258.400 C 44.231 258.840,44.612 259.200,44.963 259.200 C 45.440 259.200,45.600 259.603,45.600 260.800 C 45.600 262.133,45.733 262.400,46.400 262.400 C 46.917 262.400,47.200 262.667,47.200 263.153 C 47.200 263.582,47.562 264.001,48.040 264.126 C 48.503 264.247,48.762 264.538,48.617 264.773 C 48.462 265.023,48.695 265.200,49.176 265.200 C 49.781 265.200,50.000 265.457,50.000 266.167 C 50.000 267.530,50.396 268.400,51.016 268.400 C 51.307 268.400,51.660 268.760,51.800 269.200 C 51.940 269.640,52.291 270.000,52.580 270.000 C 52.870 270.000,53.201 270.360,53.316 270.800 C 53.431 271.240,53.791 271.600,54.116 271.600 C 54.441 271.600,54.801 271.960,54.916 272.400 C 55.183 273.421,56.400 273.455,56.400 272.441 C 56.400 271.495,91.424 236.400,92.369 236.400 C 92.743 236.400,93.056 236.053,93.090 235.600 C 93.131 235.054,92.904 234.800,92.375 234.800 C 91.867 234.800,91.600 234.525,91.600 234.000 C 91.600 233.560,91.465 233.221,91.300 233.247 C 90.416 233.387,90.000 233.116,90.000 232.400 C 90.000 231.867,89.733 231.600,89.200 231.600 C 88.580 231.600,88.400 231.333,88.400 230.414 C 88.400 229.638,88.124 229.080,87.600 228.800 C 87.160 228.565,86.800 228.108,86.800 227.786 C 86.800 227.464,86.440 227.200,86.000 227.200 C 85.330 227.200,85.200 226.933,85.200 225.557 C 85.200 224.261,85.073 223.963,84.600 224.145 C 84.152 224.317,84.000 224.082,84.000 223.220 C 84.000 221.661,83.629 220.800,82.957 220.800 C 82.475 220.800,82.157 219.442,82.364 218.266 C 82.396 218.082,82.058 217.836,81.611 217.719 C 80.923 217.539,80.800 217.180,80.800 215.353 C 80.800 214.169,80.665 213.221,80.500 213.247 C 79.315 213.435,79.200 213.095,79.200 209.400 C 79.200 205.867,79.144 205.600,78.400 205.600 C 77.645 205.600,77.600 205.333,77.600 200.847 C 77.600 196.430,77.657 196.078,78.400 195.884 C 79.126 195.694,79.200 195.338,79.200 192.037 C 79.200 189.195,79.322 188.400,79.757 188.400 C 80.509 188.400,80.800 187.510,80.800 185.212 C 80.800 183.626,80.923 183.299,81.500 183.344 C 82.067 183.389,82.238 182.982,82.400 181.200 C 82.545 179.600,82.764 179.000,83.200 179.000 C 83.605 179.000,83.840 178.511,83.924 177.500 C 84.005 176.519,84.247 176.000,84.624 176.000 C 85.016 176.000,85.200 175.552,85.200 174.600 C 85.200 173.483,85.356 173.200,85.972 173.200 C 86.468 173.200,86.790 172.878,86.872 172.300 C 86.960 171.682,87.229 171.439,87.732 171.525 C 88.298 171.621,88.435 171.433,88.338 170.690 C 88.269 170.162,88.525 169.418,88.906 169.037 C 89.288 168.655,89.600 168.527,89.600 168.752 C 89.600 168.976,89.285 169.356,88.900 169.595 C 88.260 169.992,88.269 170.019,89.000 169.911 C 89.609 169.822,89.830 169.435,89.924 168.297 C 90.021 167.125,90.217 166.800,90.824 166.800 C 91.430 166.800,91.600 166.520,91.600 165.520 C 91.600 164.524,91.707 164.347,92.080 164.720 C 92.653 165.293,93.200 165.345,93.200 164.827 C 93.200 164.622,92.795 164.331,92.300 164.180 C 90.959 163.773,56.400 128.923,56.400 127.978 C 56.400 127.467,56.126 127.200,55.600 127.200 C 54.952 127.200,54.800 127.467,54.800 128.600 M345.200 128.200 C 345.200 128.750,344.997 129.200,344.749 129.200 C 344.501 129.200,336.482 137.030,326.929 146.600 C 317.376 156.170,309.299 164.000,308.980 164.000 C 308.661 164.000,308.400 164.270,308.400 164.600 C 308.400 165.326,309.056 165.397,309.329 164.700 C 309.437 164.425,309.655 164.785,309.813 165.500 C 310.012 166.402,310.329 166.800,310.850 166.800 C 311.377 166.800,311.600 167.088,311.600 167.767 C 311.600 169.148,311.998 170.000,312.643 170.000 C 312.949 170.000,313.200 170.379,313.200 170.843 C 313.200 171.437,313.382 171.616,313.815 171.450 C 314.491 171.190,314.779 171.690,314.965 173.444 C 315.038 174.128,315.356 174.653,315.744 174.729 C 316.199 174.819,316.400 175.278,316.400 176.229 C 316.400 177.181,316.583 177.600,317.000 177.600 C 317.368 177.600,317.600 177.974,317.600 178.567 C 317.600 179.948,317.998 180.800,318.643 180.800 C 319.225 180.800,319.330 181.311,319.207 183.529 C 319.150 184.573,319.312 184.904,319.967 185.075 C 320.791 185.291,321.080 187.086,320.812 190.329 C 320.759 190.971,320.992 191.325,321.568 191.476 C 322.860 191.814,322.868 205.384,321.576 205.722 C 320.907 205.897,320.767 206.223,320.831 207.469 C 321.040 211.602,320.823 213.139,319.989 213.403 C 319.544 213.545,319.205 213.872,319.237 214.130 C 319.491 216.191,319.152 217.907,318.500 217.856 C 317.821 217.802,317.744 217.986,317.646 219.900 C 317.620 220.413,317.342 220.800,317.000 220.800 C 316.567 220.800,316.400 221.244,316.400 222.400 C 316.400 223.733,316.267 224.000,315.600 224.000 C 315.083 224.000,314.800 224.267,314.800 224.753 C 314.800 225.168,314.453 225.597,314.029 225.708 C 313.498 225.847,313.217 226.329,313.129 227.255 C 313.046 228.121,312.809 228.560,312.466 228.489 C 312.172 228.427,311.836 228.742,311.719 229.189 C 311.602 229.635,311.241 230.000,310.916 230.000 C 310.591 230.000,310.231 230.360,310.116 230.800 C 310.001 231.240,309.677 231.600,309.396 231.600 C 308.811 231.600,308.289 232.696,308.619 233.232 C 308.742 233.429,308.551 233.480,308.197 233.343 C 307.756 233.174,307.482 233.366,307.329 233.948 C 307.202 234.437,306.786 234.800,306.353 234.800 C 305.867 234.800,305.600 235.083,305.600 235.600 C 305.600 236.142,305.333 236.400,304.773 236.400 C 304.140 236.400,304.003 236.580,304.189 237.167 C 304.388 237.793,304.279 237.893,303.593 237.714 C 302.969 237.551,302.695 237.714,302.530 238.347 C 302.407 238.816,302.041 239.200,301.716 239.200 C 301.391 239.200,301.031 239.560,300.916 240.000 C 300.760 240.597,300.370 240.800,299.380 240.800 C 298.405 240.800,297.987 241.012,297.800 241.600 C 297.660 242.040,297.288 242.400,296.973 242.400 C 296.658 242.400,296.400 242.760,296.400 243.200 C 296.400 243.867,296.133 244.000,294.800 244.000 C 293.467 244.000,293.200 244.133,293.200 244.800 C 293.200 245.501,292.933 245.600,291.047 245.600 C 289.230 245.600,288.861 245.725,288.684 246.400 C 288.510 247.067,288.138 247.200,286.457 247.200 C 285.080 247.200,284.333 247.390,284.104 247.800 C 283.857 248.241,282.992 248.412,280.835 248.445 C 278.297 248.483,277.875 248.593,277.700 249.260 C 277.479 250.108,264.686 250.387,264.172 249.555 C 264.045 249.349,264.089 249.230,264.270 249.290 C 264.452 249.351,264.643 249.220,264.696 249.000 C 264.786 248.623,264.090 248.548,259.500 248.443 C 258.127 248.412,257.600 248.239,257.600 247.820 C 257.600 247.394,256.987 247.208,255.300 247.120 C 253.367 247.019,253.019 246.888,253.118 246.300 C 253.213 245.729,252.936 245.600,251.618 245.600 C 250.267 245.600,250.000 245.468,250.000 244.800 C 250.000 244.133,249.733 244.000,248.400 244.000 C 247.067 244.000,246.800 243.867,246.800 243.200 C 246.800 242.683,246.533 242.400,246.047 242.400 C 245.630 242.400,245.200 242.043,245.084 241.600 C 244.934 241.026,244.538 240.800,243.684 240.800 C 242.830 240.800,242.434 240.574,242.284 240.000 C 242.169 239.560,241.788 239.200,241.437 239.200 C 241.087 239.200,240.800 238.949,240.800 238.643 C 240.800 238.042,239.731 237.472,239.209 237.794 C 239.034 237.903,238.915 237.678,238.945 237.296 C 238.987 236.768,238.637 236.570,237.500 236.476 C 236.381 236.383,236.000 236.503,236.000 236.949 C 236.000 237.278,228.080 245.464,218.400 255.141 C 200.437 273.098,198.983 274.800,201.600 274.800 C 202.044 274.800,202.400 275.067,202.400 275.400 C 202.400 275.733,202.756 276.000,203.200 276.000 C 203.733 276.000,204.000 276.267,204.000 276.800 C 204.000 277.333,204.267 277.600,204.800 277.600 C 205.265 277.600,205.600 277.867,205.600 278.237 C 205.600 278.588,205.960 278.969,206.400 279.084 C 207.132 279.275,207.378 279.690,207.245 280.508 C 207.217 280.678,207.641 280.736,208.188 280.637 C 209.002 280.489,209.164 280.605,209.090 281.284 C 209.041 281.739,209.250 282.200,209.556 282.308 C 209.877 282.421,210.001 282.325,209.849 282.080 C 209.705 281.846,209.798 281.525,210.055 281.366 C 210.357 281.179,210.416 281.250,210.222 281.565 C 210.029 281.876,210.225 282.134,210.760 282.274 C 211.224 282.395,211.600 282.818,211.600 283.219 C 211.600 283.664,211.948 283.997,212.500 284.082 C 212.995 284.157,213.355 284.440,213.300 284.709 C 213.245 284.979,213.560 285.200,214.000 285.200 C 214.533 285.200,214.800 285.467,214.800 286.000 C 214.800 286.642,215.067 286.800,216.153 286.800 C 217.170 286.800,217.559 286.999,217.716 287.600 C 217.876 288.213,218.262 288.400,219.363 288.400 C 220.533 288.400,220.800 288.548,220.800 289.200 C 220.800 289.640,220.935 289.979,221.100 289.953 C 221.925 289.822,222.400 290.059,222.400 290.600 C 222.400 290.930,222.625 291.227,222.900 291.261 C 223.175 291.294,223.580 291.364,223.800 291.415 C 224.020 291.466,224.515 291.528,224.900 291.554 C 225.285 291.579,225.600 291.870,225.600 292.200 C 225.600 292.530,225.915 292.827,226.300 292.861 C 226.685 292.894,227.180 292.964,227.400 293.015 C 227.620 293.066,228.025 293.128,228.300 293.154 C 228.575 293.179,228.800 293.491,228.800 293.847 C 228.800 294.297,229.044 294.430,229.601 294.284 C 230.064 294.163,230.300 294.239,230.160 294.464 C 230.028 294.678,230.163 294.820,230.460 294.779 C 231.986 294.570,233.200 294.845,233.200 295.400 C 233.200 295.833,233.644 296.000,234.800 296.000 C 236.133 296.000,236.400 296.133,236.400 296.800 C 236.400 297.502,236.667 297.600,238.573 297.600 C 240.395 297.600,240.787 297.729,241.000 298.400 C 241.224 299.105,241.605 299.200,244.227 299.200 C 247.094 299.200,247.438 299.350,247.241 300.519 C 247.212 300.694,247.415 300.808,247.694 300.772 C 250.720 300.375,254.800 300.858,254.800 301.612 C 254.800 302.858,291.165 302.819,291.491 301.572 C 291.672 300.882,292.073 300.800,295.284 300.800 C 298.538 300.800,298.894 300.725,299.084 300.000 C 299.255 299.346,299.633 299.199,301.147 299.194 C 303.187 299.187,304.252 298.731,303.828 298.045 C 303.638 297.737,304.300 297.600,305.976 297.600 C 308.133 297.600,308.400 297.512,308.400 296.800 C 308.400 296.098,308.667 296.000,310.580 296.000 C 312.193 296.000,312.857 295.828,313.131 295.338 C 313.361 294.927,313.976 294.689,314.751 294.711 C 315.731 294.739,316.000 294.580,316.000 293.973 C 316.000 293.338,316.285 293.200,317.600 293.200 C 318.933 293.200,319.200 293.067,319.200 292.400 C 319.200 291.733,319.467 291.600,320.800 291.600 C 322.133 291.600,322.400 291.467,322.400 290.800 C 322.400 290.152,322.667 290.000,323.800 290.000 C 324.933 290.000,325.200 289.848,325.200 289.200 C 325.200 288.548,325.467 288.400,326.637 288.400 C 327.738 288.400,328.124 288.213,328.284 287.600 C 328.400 287.157,328.830 286.800,329.247 286.800 C 329.733 286.800,330.000 286.517,330.000 286.000 C 330.000 285.352,330.267 285.200,331.400 285.200 C 332.378 285.200,332.800 285.019,332.800 284.600 C 332.800 284.258,333.160 284.000,333.637 284.000 C 334.138 284.000,334.559 283.679,334.684 283.200 C 334.799 282.760,335.142 282.400,335.447 282.400 C 335.751 282.400,336.000 282.040,336.000 281.600 C 336.000 281.021,336.267 280.800,336.967 280.800 C 338.317 280.800,339.200 280.406,339.200 279.804 C 339.200 279.523,339.560 279.199,340.000 279.084 C 340.440 278.969,340.800 278.588,340.800 278.237 C 340.800 277.650,341.282 277.411,342.149 277.569 C 342.341 277.604,342.397 277.369,342.273 277.046 C 342.024 276.396,342.910 275.444,343.353 275.886 C 343.506 276.039,343.732 275.780,343.855 275.310 C 343.985 274.814,344.301 274.540,344.608 274.658 C 344.935 274.784,345.186 274.507,345.268 273.931 C 345.357 273.302,345.627 273.038,346.100 273.118 C 346.577 273.198,346.800 272.974,346.800 272.418 C 346.800 271.867,347.061 271.600,347.600 271.600 C 348.040 271.600,348.379 271.465,348.353 271.300 C 348.213 270.416,348.484 270.000,349.200 270.000 C 349.733 270.000,350.000 269.733,350.000 269.200 C 350.000 268.653,350.267 268.400,350.843 268.400 C 351.449 268.400,351.617 268.221,351.441 267.763 C 351.280 267.343,351.459 267.057,351.964 266.925 C 352.749 266.720,353.414 265.069,352.989 264.382 C 352.859 264.172,353.140 264.000,353.614 264.000 C 354.138 264.000,354.557 263.687,354.684 263.200 C 354.799 262.760,355.142 262.400,355.447 262.400 C 355.751 262.400,356.000 262.061,356.000 261.647 C 356.000 261.230,356.357 260.800,356.800 260.684 C 357.413 260.524,357.600 260.138,357.600 259.037 C 357.600 257.867,357.748 257.600,358.400 257.600 C 358.933 257.600,359.200 257.333,359.200 256.800 C 359.200 256.267,359.467 256.000,360.000 256.000 C 360.642 256.000,360.800 255.733,360.800 254.647 C 360.800 253.630,360.999 253.241,361.600 253.084 C 362.213 252.924,362.400 252.538,362.400 251.437 C 362.400 250.267,362.548 250.000,363.200 250.000 C 363.867 250.000,364.000 249.733,364.000 248.400 C 364.000 247.274,364.171 246.800,364.576 246.800 C 364.953 246.800,365.195 246.281,365.276 245.300 C 365.373 244.129,365.554 243.826,366.100 243.918 C 366.671 244.013,366.800 243.736,366.800 242.418 C 366.800 241.067,366.932 240.800,367.600 240.800 C 368.040 240.800,368.379 240.665,368.353 240.500 C 368.110 238.965,368.486 237.671,369.230 237.476 C 369.732 237.345,370.030 236.971,369.984 236.530 C 369.762 234.402,370.029 233.245,370.800 233.000 C 371.505 232.776,371.600 232.395,371.600 229.773 C 371.600 227.067,371.672 226.800,372.400 226.800 C 373.129 226.800,373.200 226.533,373.200 223.800 C 373.200 221.502,373.330 220.800,373.757 220.800 C 374.659 220.800,374.800 219.848,374.800 213.780 C 374.800 208.794,374.881 208.056,375.408 208.259 C 375.943 208.464,376.003 207.483,375.908 200.179 C 375.821 193.511,375.690 191.830,375.244 191.681 C 374.864 191.555,374.790 191.671,375.008 192.048 C 375.184 192.352,375.196 192.482,375.034 192.337 C 374.873 192.192,374.736 189.537,374.732 186.437 C 374.726 182.744,374.583 180.887,374.319 181.050 C 374.066 181.206,374.016 180.981,374.184 180.450 C 374.381 179.830,374.284 179.600,373.827 179.600 C 373.313 179.600,373.200 179.054,373.200 176.563 C 373.200 173.862,373.111 173.502,372.400 173.316 C 371.723 173.139,371.600 172.770,371.600 170.916 C 371.600 169.062,371.477 168.693,370.800 168.516 C 370.125 168.339,370.000 167.970,370.000 166.153 C 370.000 164.267,369.901 164.000,369.200 164.000 C 368.493 164.000,368.399 163.731,368.394 161.700 C 368.390 160.067,368.275 159.574,368.000 160.000 C 367.665 160.519,367.611 160.510,367.606 159.933 C 367.603 159.567,367.392 159.197,367.137 159.112 C 366.882 159.027,366.690 158.382,366.710 157.679 C 366.739 156.669,366.584 156.400,365.973 156.400 C 365.338 156.400,365.200 156.115,365.200 154.800 C 365.200 153.742,365.032 153.234,364.705 153.300 C 364.404 153.361,364.131 152.777,364.005 151.800 C 363.869 150.736,363.599 150.200,363.200 150.200 C 362.795 150.200,362.560 149.711,362.476 148.700 C 362.379 147.525,362.184 147.200,361.576 147.200 C 361.067 147.200,360.800 146.925,360.800 146.400 C 360.800 145.867,360.533 145.600,360.000 145.600 C 359.333 145.600,359.200 145.333,359.200 144.000 C 359.200 142.667,359.067 142.400,358.400 142.400 C 357.867 142.400,357.600 142.133,357.600 141.600 C 357.600 141.067,357.333 140.800,356.800 140.800 C 356.255 140.800,355.981 140.513,355.939 139.900 C 355.906 139.405,355.860 138.745,355.837 138.433 C 355.815 138.121,355.572 137.791,355.298 137.699 C 355.024 137.608,354.800 137.278,354.800 136.967 C 354.800 136.655,354.440 136.400,354.000 136.400 C 353.467 136.400,353.200 136.133,353.200 135.600 C 353.200 135.067,352.933 134.800,352.400 134.800 C 351.611 134.800,351.442 134.456,351.576 133.117 C 351.614 132.742,351.274 132.203,350.822 131.921 C 350.370 131.639,350.000 131.181,350.000 130.904 C 350.000 130.627,349.852 130.400,349.672 130.400 C 349.141 130.400,346.800 128.170,346.800 127.664 C 346.800 127.409,346.440 127.200,346.000 127.200 C 345.413 127.200,345.200 127.467,345.200 128.200 M173.328 228.995 C 173.375 229.462,173.738 229.825,174.205 229.872 C 174.781 229.932,174.814 229.899,174.325 229.752 C 173.953 229.642,173.558 229.247,173.448 228.875 C 173.301 228.386,173.268 228.419,173.328 228.995 " stroke="none" fill="#ec740c" fill-rule="evenodd"></path><path id="path2" d="M263.100 97.882 C 263.595 97.978,264.405 97.978,264.900 97.882 C 265.395 97.787,264.990 97.709,264.000 97.709 C 263.010 97.709,262.605 97.787,263.100 97.882 M280.500 97.876 C 280.885 97.976,281.515 97.976,281.900 97.876 C 282.285 97.775,281.970 97.693,281.200 97.693 C 280.430 97.693,280.115 97.775,280.500 97.876 M301.275 101.048 C 301.647 101.158,302.042 101.553,302.152 101.925 C 302.299 102.414,302.332 102.381,302.272 101.805 C 302.225 101.338,301.862 100.975,301.395 100.928 C 300.819 100.868,300.786 100.901,301.275 101.048 M213.829 115.429 C 213.104 116.153,213.042 116.400,213.586 116.400 C 213.798 116.400,214.165 116.040,214.400 115.600 C 214.914 114.639,214.686 114.571,213.829 115.429 M189.238 126.955 C 188.954 127.297,188.914 127.623,189.139 127.762 C 189.346 127.890,189.629 127.701,189.768 127.340 C 190.107 126.456,189.823 126.250,189.238 126.955 M343.803 127.590 C 343.672 128.002,335.875 136.048,326.475 145.470 C 317.076 154.891,309.138 162.919,308.836 163.309 C 306.621 166.169,311.727 161.309,326.829 146.181 C 336.371 136.621,344.409 128.800,344.689 128.800 C 345.393 128.800,345.335 127.337,344.620 127.063 C 344.274 126.930,343.945 127.142,343.803 127.590 M56.402 127.700 C 56.407 129.145,91.458 163.608,93.021 163.705 C 94.154 163.774,94.584 163.639,94.623 163.200 C 94.661 162.776,94.625 162.759,94.501 163.142 C 93.850 165.148,91.872 163.323,64.536 135.494 C 60.982 131.875,57.768 128.797,57.395 128.653 C 57.000 128.502,56.812 128.144,56.946 127.797 C 57.072 127.468,57.001 127.200,56.787 127.200 C 56.574 127.200,56.401 127.425,56.402 127.700 M178.519 145.290 C 177.672 146.384,177.553 146.793,178.148 146.564 C 178.733 146.340,179.360 145.226,179.066 144.933 C 178.983 144.849,178.736 145.010,178.519 145.290 M140.176 150.978 C 140.604 151.320,141.234 151.586,141.576 151.568 C 142.115 151.541,142.118 151.507,141.600 151.314 C 141.270 151.192,140.640 150.926,140.200 150.724 C 139.413 150.362,139.412 150.366,140.176 150.978 M177.754 159.777 C 177.632 160.094,177.603 160.679,177.689 161.077 C 177.787 161.528,177.924 161.312,178.054 160.500 C 178.271 159.138,178.130 158.796,177.754 159.777 M222.000 188.305 C 222.000 188.546,221.717 189.026,221.371 189.371 C 221.026 189.717,220.929 190.000,221.157 190.000 C 221.664 190.000,222.556 188.423,222.232 188.099 C 222.105 187.971,222.000 188.064,222.000 188.305 M170.064 211.276 C 170.029 212.088,170.183 212.866,170.407 213.004 C 170.630 213.142,170.717 213.410,170.600 213.600 C 170.483 213.790,170.570 214.058,170.793 214.196 C 171.302 214.511,171.332 213.495,170.829 212.980 C 170.624 212.771,170.383 211.970,170.293 211.200 L 170.128 209.800 170.064 211.276 M75.031 253.599 C 65.554 263.058,57.460 271.039,57.045 271.334 C 56.630 271.629,56.374 272.121,56.476 272.428 C 56.593 272.778,63.036 266.618,73.668 255.993 C 83.022 246.647,91.153 238.596,91.737 238.103 C 92.735 237.260,93.136 236.400,92.531 236.400 C 92.383 236.400,84.508 244.139,75.031 253.599 M217.919 254.000 C 208.258 263.680,200.100 271.600,199.790 271.600 C 199.089 271.600,199.440 272.653,200.244 272.961 C 200.603 273.099,200.962 272.843,201.182 272.292 C 201.378 271.802,209.123 263.840,218.394 254.600 C 233.905 239.140,236.519 236.400,235.756 236.400 C 235.606 236.400,227.579 244.320,217.919 254.000 M59.600 276.351 C 59.600 276.544,59.870 276.926,60.200 277.200 C 60.615 277.544,60.800 277.559,60.800 277.249 C 60.800 277.002,60.609 276.800,60.376 276.800 C 60.143 276.800,60.064 276.620,60.200 276.400 C 60.336 276.180,60.257 276.000,60.024 276.000 C 59.791 276.000,59.600 276.158,59.600 276.351 M178.800 290.272 C 178.800 290.495,178.395 290.873,177.900 291.112 C 177.405 291.351,177.191 291.558,177.424 291.573 C 178.096 291.616,179.430 290.496,179.099 290.166 C 178.935 290.001,178.800 290.049,178.800 290.272 " stroke="none" fill="#f49404" fill-rule="evenodd"></path><path id="path3" d="M124.400 97.874 C 130.800 98.162,136.801 98.175,136.801 97.900 C 136.800 97.735,133.425 97.635,129.300 97.678 C 125.175 97.721,122.970 97.809,124.400 97.874 M137.200 98.055 C 137.200 98.245,137.650 98.400,138.200 98.400 C 138.750 98.400,139.200 98.331,139.200 98.247 C 139.200 98.162,138.750 98.007,138.200 97.902 C 137.650 97.797,137.200 97.866,137.200 98.055 M264.000 98.000 L 262.200 98.280 264.100 98.340 C 265.145 98.373,266.000 98.220,266.000 98.000 C 266.000 97.780,265.955 97.627,265.900 97.660 C 265.845 97.693,264.990 97.846,264.000 98.000 M266.399 97.900 C 266.399 98.065,268.244 98.152,270.499 98.094 C 277.954 97.902,278.683 97.749,272.500 97.674 C 269.145 97.633,266.400 97.735,266.399 97.900 M258.000 98.600 C 258.000 99.275,258.450 99.380,259.020 98.839 C 259.229 98.640,259.760 98.391,260.200 98.285 C 260.652 98.177,260.347 98.073,259.500 98.046 C 258.413 98.013,258.000 98.165,258.000 98.600 M300.640 101.539 C 301.503 102.547,302.000 102.642,302.000 101.800 C 302.000 101.470,301.835 101.200,301.633 101.200 C 301.431 101.200,300.959 101.082,300.584 100.939 C 299.978 100.706,299.984 100.772,300.640 101.539 M169.655 105.767 C 170.400 106.405,171.559 106.759,171.381 106.294 C 171.270 106.005,170.803 105.740,170.344 105.706 C 169.885 105.671,169.575 105.699,169.655 105.767 M224.533 109.394 C 224.533 109.871,224.658 109.893,225.167 109.507 C 225.515 109.243,225.875 108.975,225.967 108.913 C 226.058 108.851,225.773 108.800,225.333 108.800 C 224.893 108.800,224.533 109.067,224.533 109.394 M219.600 112.334 C 219.600 112.809,219.711 112.813,220.300 112.362 C 220.685 112.067,221.065 111.785,221.145 111.735 C 221.225 111.684,220.910 111.672,220.445 111.707 C 219.980 111.742,219.600 112.024,219.600 112.334 M326.005 112.409 C 326.501 113.336,326.800 113.424,326.800 112.643 C 326.800 112.336,326.526 111.980,326.191 111.852 C 325.694 111.661,325.659 111.764,326.005 112.409 M216.633 113.857 C 216.255 114.842,216.582 114.904,217.398 114.002 C 218.012 113.324,218.028 113.200,217.505 113.200 C 217.164 113.200,216.772 113.496,216.633 113.857 M204.400 123.000 C 204.056 123.415,204.041 123.600,204.351 123.600 C 204.598 123.600,204.800 123.409,204.800 123.176 C 204.800 122.943,204.980 122.864,205.200 123.000 C 205.420 123.136,205.600 123.057,205.600 122.824 C 205.600 122.212,204.978 122.303,204.400 123.000 M202.516 124.800 C 202.401 125.240,202.052 125.600,201.741 125.600 C 201.430 125.600,201.059 125.915,200.917 126.300 C 200.775 126.685,200.465 127.132,200.229 127.294 C 199.948 127.486,199.985 127.590,200.337 127.594 C 200.633 127.597,200.965 127.255,201.075 126.834 C 201.185 126.413,201.697 125.962,202.213 125.833 C 202.836 125.676,203.130 125.330,203.090 124.799 C 203.013 123.779,202.783 123.780,202.516 124.800 M57.013 127.579 C 56.715 128.060,57.073 128.800,57.604 128.800 C 57.800 128.800,60.894 131.787,64.480 135.437 C 82.215 153.491,91.875 163.071,92.600 163.323 C 93.388 163.598,93.388 163.593,92.624 163.001 C 92.196 162.670,91.701 162.400,91.524 162.400 C 91.346 162.400,91.200 162.130,91.200 161.800 C 91.200 161.470,90.942 161.200,90.627 161.200 C 90.312 161.200,89.940 160.840,89.800 160.400 C 89.660 159.960,89.300 159.600,89.000 159.600 C 88.700 159.600,88.340 159.240,88.200 158.800 C 88.060 158.360,87.709 158.000,87.420 158.000 C 87.130 158.000,86.799 157.640,86.684 157.200 C 86.569 156.760,86.209 156.400,85.884 156.400 C 85.559 156.400,85.199 156.040,85.084 155.600 C 84.969 155.160,84.588 154.800,84.237 154.800 C 83.887 154.800,83.600 154.628,83.600 154.418 C 83.600 153.918,81.858 152.185,81.040 151.871 C 80.688 151.736,80.400 151.448,80.400 151.231 C 80.400 150.751,78.496 148.800,78.028 148.800 C 77.844 148.800,77.599 148.440,77.484 148.000 C 77.369 147.560,76.988 147.200,76.637 147.200 C 76.287 147.200,76.000 146.913,76.000 146.563 C 76.000 146.212,75.640 145.831,75.200 145.716 C 74.760 145.601,74.400 145.270,74.400 144.980 C 74.400 144.691,74.040 144.340,73.600 144.200 C 73.160 144.060,72.800 143.784,72.800 143.586 C 72.800 143.389,72.170 142.597,71.400 141.827 C 70.630 141.057,70.000 140.253,70.000 140.040 C 70.000 139.828,69.640 139.540,69.200 139.400 C 68.760 139.260,68.400 138.900,68.400 138.600 C 68.400 138.300,68.040 137.940,67.600 137.800 C 67.160 137.660,66.800 137.309,66.800 137.020 C 66.800 136.730,66.440 136.399,66.000 136.284 C 65.560 136.169,65.200 135.788,65.200 135.437 C 65.200 135.087,64.942 134.800,64.627 134.800 C 64.312 134.800,63.940 134.440,63.800 134.000 C 63.660 133.560,63.392 133.200,63.205 133.200 C 62.705 133.200,59.510 129.886,58.732 128.559 C 57.983 127.284,57.401 126.952,57.013 127.579 M342.947 127.793 C 342.665 128.529,338.787 132.400,338.332 132.400 C 338.149 132.400,338.000 132.670,338.000 133.000 C 338.000 133.330,337.730 133.600,337.400 133.600 C 337.070 133.600,336.800 133.794,336.800 134.031 C 336.800 134.591,334.591 136.800,334.031 136.800 C 333.794 136.800,333.600 137.070,333.600 137.400 C 333.600 137.730,333.330 138.000,333.000 138.000 C 332.670 138.000,332.400 138.138,332.400 138.307 C 332.400 138.749,326.887 144.400,326.455 144.400 C 326.256 144.400,325.999 144.760,325.884 145.200 C 325.769 145.640,325.388 146.000,325.037 146.000 C 324.687 146.000,324.400 146.184,324.400 146.408 C 324.400 146.872,318.779 152.400,318.307 152.400 C 318.138 152.400,318.000 152.670,318.000 153.000 C 318.000 153.330,317.730 153.600,317.400 153.600 C 317.070 153.600,316.800 153.794,316.800 154.031 C 316.800 154.268,316.274 154.988,315.631 155.631 C 314.988 156.274,314.268 156.800,314.031 156.800 C 313.794 156.800,313.600 157.070,313.600 157.400 C 313.600 157.730,313.342 158.000,313.027 158.000 C 312.712 158.000,312.340 158.360,312.200 158.800 C 312.060 159.240,311.823 159.607,311.673 159.616 C 311.073 159.652,308.886 161.854,308.631 162.679 C 308.356 163.570,342.938 129.237,343.644 127.918 C 343.902 127.436,343.888 127.200,343.602 127.200 C 343.367 127.200,343.072 127.467,342.947 127.793 M196.800 130.400 C 196.470 130.613,196.357 130.791,196.549 130.794 C 196.741 130.797,196.674 131.070,196.400 131.400 C 196.091 131.773,196.062 132.000,196.324 132.000 C 196.556 132.000,196.861 131.637,197.002 131.194 C 197.143 130.751,197.425 130.492,197.629 130.618 C 197.833 130.744,198.000 130.657,198.000 130.424 C 198.000 129.900,197.586 129.892,196.800 130.400 M192.406 135.982 C 191.859 136.402,191.499 136.824,191.606 136.921 C 191.713 137.017,192.246 136.669,192.792 136.148 C 193.982 135.010,193.782 134.924,192.406 135.982 M271.600 148.000 L 268.200 148.251 271.700 148.325 C 273.816 148.371,275.200 148.242,275.200 148.000 C 275.200 147.780,275.155 147.634,275.100 147.675 C 275.045 147.716,273.470 147.862,271.600 148.000 M283.000 149.200 C 283.398 149.640,283.910 150.000,284.137 150.000 C 284.365 150.000,284.164 149.640,283.692 149.200 C 283.220 148.760,282.708 148.400,282.555 148.400 C 282.401 148.400,282.602 148.760,283.000 149.200 M127.100 149.895 C 128.255 149.976,130.145 149.976,131.300 149.895 C 132.455 149.814,131.510 149.748,129.200 149.748 C 126.890 149.748,125.945 149.814,127.100 149.895 M140.800 150.553 C 140.800 150.858,141.157 151.200,141.593 151.314 C 142.268 151.490,142.325 151.408,141.979 150.761 C 141.505 149.875,140.800 149.751,140.800 150.553 M250.576 151.787 C 250.089 152.156,249.997 152.379,250.329 152.387 C 250.619 152.394,251.127 152.130,251.457 151.800 C 252.228 151.029,251.591 151.020,250.576 151.787 M180.992 153.624 C 180.846 154.084,180.833 154.567,180.963 154.697 C 181.094 154.827,181.200 154.648,181.200 154.300 C 181.200 153.952,181.416 153.595,181.680 153.507 C 182.030 153.390,182.038 153.271,181.709 153.067 C 181.447 152.905,181.146 153.139,180.992 153.624 M154.229 155.906 C 154.465 156.068,154.775 156.515,154.917 156.900 C 155.064 157.300,155.567 157.589,156.087 157.575 C 156.986 157.550,156.987 157.544,156.156 157.208 C 155.691 157.020,155.202 156.582,155.068 156.233 C 154.934 155.885,154.594 155.603,154.313 155.606 C 153.971 155.610,153.943 155.710,154.229 155.906 M299.632 156.086 C 299.614 156.463,300.005 156.968,300.500 157.208 C 301.263 157.578,301.304 157.565,300.765 157.122 C 300.416 156.835,300.025 156.330,299.896 156.000 C 299.707 155.514,299.657 155.530,299.632 156.086 M304.665 160.473 C 305.141 160.703,305.619 161.231,305.728 161.646 C 305.838 162.067,306.251 162.380,306.663 162.354 C 307.332 162.311,307.336 162.290,306.700 162.124 C 306.315 162.024,306.000 161.691,306.000 161.385 C 306.000 160.847,304.793 159.972,304.126 160.027 C 303.947 160.042,304.189 160.242,304.665 160.473 M95.738 161.017 C 95.608 161.357,95.613 161.747,95.751 161.884 C 95.888 162.021,96.000 161.847,96.000 161.496 C 96.000 161.145,96.315 160.776,96.700 160.676 C 97.356 160.504,97.355 160.490,96.687 160.446 C 96.296 160.421,95.868 160.678,95.738 161.017 M234.500 163.300 C 234.555 163.575,234.412 163.767,234.183 163.728 C 233.954 163.688,233.739 164.014,233.706 164.452 C 233.652 165.171,233.723 165.152,234.423 164.262 C 235.295 163.154,235.386 162.800,234.800 162.800 C 234.580 162.800,234.445 163.025,234.500 163.300 M175.000 168.000 C 174.850 168.473,174.817 168.950,174.927 169.060 C 175.037 169.170,175.250 168.873,175.400 168.400 C 175.550 167.927,175.583 167.450,175.473 167.340 C 175.363 167.230,175.150 167.527,175.000 168.000 M173.467 172.667 C 173.320 172.813,173.211 173.308,173.225 173.767 C 173.249 174.533,173.282 174.523,173.634 173.642 C 174.026 172.663,173.944 172.189,173.467 172.667 M170.165 200.200 C 170.166 204.160,170.226 205.726,170.298 203.680 C 170.371 201.634,170.371 198.394,170.298 196.480 C 170.224 194.566,170.165 196.240,170.165 200.200 M220.555 199.000 C 220.556 201.860,220.620 202.978,220.697 201.483 C 220.774 199.989,220.774 197.649,220.696 196.283 C 220.618 194.918,220.555 196.140,220.555 199.000 M226.800 224.400 C 226.800 224.620,227.025 224.755,227.300 224.700 C 227.575 224.645,227.755 224.825,227.700 225.100 C 227.645 225.375,227.780 225.600,228.000 225.600 C 228.542 225.600,228.504 225.064,227.920 224.480 C 227.336 223.896,226.800 223.858,226.800 224.400 M92.636 237.100 C 92.476 237.595,92.188 238.000,91.994 238.000 C 91.800 238.000,83.737 245.902,74.076 255.560 C 62.674 266.959,56.913 272.980,57.656 272.721 C 58.285 272.501,58.800 272.187,58.800 272.021 C 58.800 271.613,91.637 238.800,92.047 238.800 C 92.516 238.800,93.281 237.241,93.089 236.678 C 92.999 236.415,92.795 236.605,92.636 237.100 M233.907 237.200 C 233.632 237.640,233.181 238.000,232.904 238.000 C 232.627 238.000,232.400 238.138,232.400 238.307 C 232.400 238.749,226.887 244.400,226.455 244.400 C 226.256 244.400,225.999 244.760,225.884 245.200 C 225.769 245.640,225.388 246.000,225.037 246.000 C 224.687 246.000,224.400 246.184,224.400 246.408 C 224.400 246.872,218.779 252.400,218.307 252.400 C 218.138 252.400,218.000 252.670,218.000 253.000 C 218.000 253.330,217.730 253.600,217.400 253.600 C 217.070 253.600,216.800 253.794,216.800 254.031 C 216.800 254.268,216.274 254.988,215.631 255.631 C 214.988 256.274,214.268 256.800,214.031 256.800 C 213.794 256.800,213.600 257.070,213.600 257.400 C 213.600 257.730,213.330 258.000,213.000 258.000 C 212.670 258.000,212.400 258.138,212.400 258.307 C 212.400 258.749,206.887 264.400,206.455 264.400 C 206.256 264.400,205.999 264.760,205.884 265.200 C 205.769 265.640,205.388 266.000,205.037 266.000 C 204.687 266.000,204.400 266.195,204.400 266.434 C 204.400 267.204,199.897 271.155,198.831 271.320 C 197.938 271.459,197.971 271.488,199.077 271.540 C 200.253 271.595,201.741 270.210,217.919 254.000 C 227.579 244.320,235.241 236.400,234.945 236.400 C 234.649 236.400,234.182 236.760,233.907 237.200 M153.829 244.629 C 153.405 244.938,153.136 245.269,153.230 245.363 C 153.324 245.457,153.748 245.281,154.171 244.971 C 154.595 244.662,154.864 244.331,154.770 244.237 C 154.676 244.143,154.252 244.319,153.829 244.629 M172.309 245.024 C 172.097 245.236,173.099 247.600,173.401 247.600 C 173.564 247.600,172.902 245.169,172.679 244.946 C 172.599 244.866,172.433 244.901,172.309 245.024 M150.219 246.294 C 150.067 246.690,150.198 246.722,150.756 246.423 C 151.163 246.206,151.608 246.142,151.747 246.281 C 151.886 246.420,152.000 246.335,152.000 246.092 C 152.000 245.477,150.466 245.651,150.219 246.294 M176.805 252.409 C 177.301 253.336,177.600 253.424,177.600 252.643 C 177.600 252.336,177.326 251.980,176.991 251.852 C 176.494 251.661,176.459 251.764,176.805 252.409 M193.065 265.527 C 193.183 265.977,193.557 266.451,193.897 266.582 C 194.894 266.965,194.867 266.602,193.824 265.622 C 192.896 264.751,192.861 264.746,193.065 265.527 M180.230 289.467 C 180.117 289.760,180.177 290.000,180.364 290.000 C 180.550 290.000,180.901 289.760,181.145 289.467 C 181.479 289.064,181.446 288.933,181.011 288.933 C 180.694 288.933,180.342 289.173,180.230 289.467 M89.448 295.183 C 89.641 295.363,90.250 295.629,90.800 295.774 C 91.732 296.020,91.746 296.004,91.000 295.535 C 90.081 294.956,88.921 294.693,89.448 295.183 M146.437 301.070 C 146.576 301.870,146.357 302.151,146.016 301.612 C 145.811 301.288,145.539 301.127,145.412 301.255 C 145.285 301.382,145.431 301.694,145.737 301.948 C 146.164 302.302,146.404 302.277,146.766 301.841 C 147.097 301.442,147.110 301.192,146.810 301.006 C 146.573 300.860,146.406 300.889,146.437 301.070 " stroke="none" fill="#f49e04" fill-rule="evenodd"></path><path id="path4" d="M65.386 137.790 C 70.319 142.746,74.465 146.800,74.599 146.800 C 74.969 146.800,57.902 129.581,57.108 129.153 C 56.728 128.948,60.453 132.835,65.386 137.790 M326.819 146.190 C 317.271 155.755,309.266 163.661,309.030 163.759 C 308.758 163.871,308.776 163.948,309.080 163.968 C 309.344 163.986,317.354 156.197,326.880 146.661 C 336.406 137.124,344.470 129.218,344.800 129.092 C 345.327 128.891,345.325 128.859,344.789 128.832 C 344.454 128.814,336.367 136.626,326.819 146.190 M76.000 148.503 C 76.770 149.322,77.526 149.993,77.681 149.996 C 78.019 150.001,76.517 148.425,75.400 147.603 C 74.960 147.280,75.230 147.685,76.000 148.503 M82.404 154.719 C 82.407 154.874,83.078 155.630,83.897 156.400 C 84.715 157.170,85.120 157.440,84.797 157.000 C 83.975 155.883,82.399 154.381,82.404 154.719 M85.604 157.900 C 85.610 158.285,88.369 160.976,88.539 160.761 C 88.609 160.673,87.977 159.925,87.133 159.100 C 86.290 158.275,85.602 157.735,85.604 157.900 M90.000 162.485 C 91.332 163.850,93.642 165.039,93.026 164.043 C 92.876 163.799,92.414 163.600,91.999 163.600 C 91.585 163.600,91.010 163.285,90.723 162.900 C 90.435 162.515,89.840 161.941,89.400 161.625 C 88.960 161.309,89.230 161.696,90.000 162.485 M73.947 254.046 C 64.347 263.694,56.778 271.428,57.127 271.233 C 58.103 270.687,92.321 236.393,91.831 236.452 C 91.594 236.480,83.546 244.397,73.947 254.046 M218.500 254.405 C 208.985 263.978,201.200 271.926,201.200 272.067 C 201.200 272.208,209.039 264.492,218.619 254.919 C 228.200 245.347,235.985 237.399,235.919 237.257 C 235.854 237.116,228.015 244.832,218.500 254.405 " stroke="none" fill="#f87c08" fill-rule="evenodd"></path></g></svg>