<?xml version="1.0" standalone="no"?>
<!DOCTYPE svg PUBLIC "-//W3C//DTD SVG 20010904//EN"
 "http://www.w3.org/TR/2001/REC-SVG-20010904/DTD/svg10.dtd">
<svg version="1.0" xmlns="http://www.w3.org/2000/svg"
 width="160.000000pt" height="55.000000pt" viewBox="0 0 160.000000 55.000000"
 preserveAspectRatio="xMidYMid meet">

<g transform="translate(0.000000,55.000000) scale(0.100000,-0.100000)"
fill="#000000" stroke="none">
<path d="M0 275 l0 -275 800 0 800 0 0 275 0 275 -800 0 -800 0 0 -275z m510
-5 l0 -230 -230 0 -230 0 0 230 0 230 230 0 230 0 0 -230z m344 110 c14 -5 26
-16 26 -25 0 -11 -5 -13 -26 -5 -71 27 -134 -8 -134 -75 0 -67 63 -102 134
-75 21 8 26 6 26 -5 0 -22 -48 -38 -94 -32 -61 8 -91 45 -91 111 0 40 5 60 20
76 34 38 88 50 139 30z m103 -80 c17 -47 34 -89 36 -94 2 -5 18 32 37 83 28
80 51 114 65 100 2 -2 -16 -53 -39 -114 -51 -134 -67 -142 -103 -50 -65 167
-65 167 -46 163 12 -2 28 -32 50 -88z m213 -25 c0 -96 -3 -115 -15 -115 -12 0
-15 19 -15 115 0 96 3 115 15 115 12 0 15 -19 15 -115z m220 100 c0 -11 -11
-15 -40 -15 l-40 0 0 -100 c0 -82 -3 -100 -15 -100 -12 0 -15 18 -15 100 l0
100 -40 0 c-29 0 -40 4 -40 15 0 12 17 15 95 15 78 0 95 -3 95 -15z"/>
<path d="M60 270 l0 -220 220 0 220 0 0 220 0 220 -220 0 -220 0 0 -220z m400
65 l0 -115 -180 0 -180 0 0 115 0 115 180 0 180 0 0 -115z m-285 -168 c13 -11
15 -16 6 -22 -7 -4 -18 -2 -24 4 -17 17 -37 13 -37 -8 0 -24 23 -43 44 -35 9
3 16 1 16 -4 0 -15 -37 -25 -66 -18 -32 8 -42 50 -19 76 21 23 53 26 80 7z
m68 -7 c3 -11 10 -20 16 -20 6 0 11 9 11 20 0 17 7 20 48 20 l47 0 0 -50 c0
-47 -1 -50 -25 -50 -24 0 -25 3 -22 45 3 29 0 45 -7 45 -6 0 -21 -20 -33 -45
-12 -25 -27 -45 -33 -45 -7 0 -20 19 -30 43 -10 23 -20 45 -23 50 -2 4 7 7 21
7 16 0 26 -7 30 -20z m235 1 c3 -10 -2 -11 -18 -6 -22 7 -23 5 -17 -34 5 -40
5 -41 -26 -41 -24 0 -28 3 -19 12 7 7 12 25 12 41 0 24 -3 27 -20 22 -20 -6
-27 5 -13 19 13 12 96 2 101 -13z"/>
<path d="M297 420 c-6 -23 -35 -27 -43 -6 -4 12 -10 10 -27 -7 -20 -20 -21
-20 -28 -1 -7 17 -8 17 -8 -3 -1 -16 -7 -23 -22 -23 -11 0 -18 -4 -15 -9 3 -4
-3 -16 -14 -26 -25 -22 -26 -44 -2 -52 9 -4 30 -17 45 -30 39 -32 111 -31 175
1 63 32 80 52 64 76 -7 12 -8 21 -2 25 22 14 8 23 -27 18 -36 -6 -37 -6 -20
11 16 17 23 36 12 36 -3 0 -14 -9 -25 -20 -28 -28 -48 -26 -42 5 5 30 -13 34
-21 5z m-105 -84 c-3 -27 1 -37 23 -55 41 -31 11 -26 -34 7 l-40 29 27 26 c15
15 27 27 27 27 1 0 -1 -15 -3 -34z m58 9 c0 -8 -6 -15 -14 -15 -17 0 -28 14
-19 24 12 12 33 6 33 -9z m135 -2 l35 -17 -43 -28 c-54 -36 -73 -37 -51 -3 9
14 13 32 9 45 -8 24 3 25 50 3z"/>
</g>
</svg>
