<svg id="svg" version="1.1" xmlns="http://www.w3.org/2000/svg" xmlns:xlink="http://www.w3.org/1999/xlink" width="400" height="292.6666666666667" viewBox="0, 0, 400,292.6666666666667"><g id="svgg"><path id="path0" d="M183.728 12.578 C 182.120 13.237,182.138 13.055,182.139 29.492 C 182.140 46.560,182.110 46.315,184.247 46.703 C 187.063 47.213,219.258 46.712,219.882 46.148 C 220.853 45.269,220.853 13.882,219.882 13.003 C 219.213 12.397,185.143 11.997,183.728 12.578 M91.794 54.874 C 91.307 55.087,90.747 55.615,90.549 56.048 C 90.060 57.121,90.031 86.695,90.517 87.647 C 91.402 89.378,90.495 89.298,109.421 89.305 L 126.749 89.312 127.650 88.411 L 128.551 87.510 128.544 71.939 C 128.537 54.951,128.607 55.673,126.886 54.793 C 125.889 54.283,92.976 54.359,91.794 54.874 M138.033 54.881 C 137.446 55.140,137.003 55.622,136.789 56.236 C 136.326 57.564,136.321 86.743,136.784 87.647 C 137.669 89.378,136.761 89.298,155.694 89.305 L 173.027 89.312 173.849 88.605 L 174.671 87.898 174.671 71.922 L 174.671 55.946 174.004 55.279 L 173.337 54.612 156.141 54.545 C 142.095 54.491,138.779 54.553,138.033 54.881 M184.041 54.778 C 182.122 55.346,182.138 55.203,182.138 71.899 C 182.138 88.049,182.144 88.119,183.644 88.895 C 185.106 89.651,218.285 89.498,219.546 88.729 L 220.498 88.149 220.498 72.019 C 220.498 54.527,220.579 55.402,218.890 54.760 C 217.919 54.390,185.293 54.408,184.041 54.778 M303.923 66.252 C 301.382 69.694,300.585 71.007,298.095 75.842 C 293.106 85.533,290.183 99.213,291.065 108.737 C 291.506 113.492,292.531 118.531,293.726 121.816 C 294.224 123.184,294.707 124.568,294.800 124.890 C 294.892 125.212,295.802 127.082,296.822 129.044 L 298.675 132.613 297.955 133.180 C 297.558 133.492,296.472 134.038,295.542 134.393 C 294.612 134.749,293.622 135.161,293.342 135.309 C 293.063 135.457,292.576 135.578,292.261 135.578 C 291.947 135.578,291.619 135.692,291.532 135.832 C 291.446 135.971,290.944 136.167,290.417 136.267 C 289.890 136.367,288.734 136.663,287.848 136.925 C 286.962 137.187,285.611 137.518,284.846 137.661 C 284.081 137.804,282.764 138.051,281.918 138.210 C 273.593 139.773,283.106 139.670,146.646 139.674 C 54.688 139.677,21.480 139.765,20.878 140.008 C 16.314 141.846,13.902 144.691,13.197 149.067 C 12.744 151.876,13.363 167.257,14.209 174.231 C 14.901 179.944,15.879 186.317,16.566 189.605 C 16.802 190.732,17.137 192.379,17.310 193.265 C 17.484 194.151,17.745 195.178,17.890 195.548 C 18.036 195.918,18.155 196.602,18.155 197.068 C 18.155 197.534,18.287 197.997,18.448 198.097 C 18.609 198.196,18.741 198.529,18.741 198.836 C 18.741 199.143,18.920 199.959,19.138 200.649 C 19.356 201.339,19.704 202.496,19.911 203.221 C 20.583 205.579,22.278 210.675,22.563 211.197 C 22.715 211.476,22.840 211.944,22.840 212.236 C 22.840 212.528,22.949 212.892,23.081 213.045 C 23.281 213.278,24.104 215.230,25.172 218.009 C 26.932 222.585,31.881 232.074,34.776 236.421 C 35.861 238.051,36.802 239.517,36.867 239.678 C 37.416 241.037,43.306 248.023,46.989 251.684 C 55.811 260.452,64.288 265.649,78.624 271.076 C 79.268 271.320,80.059 271.621,80.381 271.744 C 80.703 271.867,81.559 272.136,82.284 272.341 C 83.009 272.546,84.392 272.974,85.359 273.293 C 87.008 273.838,87.725 274.025,90.630 274.670 C 91.274 274.813,92.460 275.082,93.265 275.268 C 99.983 276.822,101.888 277.192,106.589 277.862 C 107.635 278.012,109.941 278.340,111.713 278.593 C 129.163 281.079,156.033 281.144,174.671 278.745 C 184.361 277.498,185.853 277.266,190.483 276.286 C 192.577 275.844,194.850 275.365,195.534 275.222 C 196.219 275.080,197.372 274.832,198.097 274.671 C 198.821 274.510,199.974 274.257,200.659 274.109 C 201.343 273.961,203.155 273.488,204.685 273.058 C 206.215 272.628,207.862 272.168,208.346 272.037 C 208.829 271.905,210.344 271.441,211.713 271.006 C 213.082 270.572,214.500 270.148,214.865 270.066 C 215.230 269.983,215.600 269.799,215.688 269.658 C 215.775 269.516,216.067 269.400,216.336 269.400 C 216.753 269.400,219.551 268.455,221.523 267.649 C 221.845 267.517,224.151 266.589,226.647 265.586 C 229.143 264.582,232.013 263.383,233.023 262.920 C 234.034 262.458,234.937 262.079,235.030 262.079 C 235.287 262.079,244.114 257.601,246.221 256.402 C 247.243 255.820,248.130 255.344,248.192 255.344 C 248.254 255.344,249.026 254.883,249.907 254.319 C 250.788 253.755,251.593 253.294,251.696 253.294 C 252.266 253.294,267.616 242.607,268.521 241.580 C 268.602 241.488,270.512 239.909,272.767 238.070 C 277.258 234.408,285.539 226.253,289.882 221.217 C 291.403 219.452,292.721 217.943,292.810 217.862 C 292.899 217.782,293.497 217.057,294.137 216.252 C 294.778 215.447,295.441 214.642,295.611 214.465 C 295.780 214.287,296.705 213.101,297.667 211.829 C 298.628 210.557,299.487 209.451,299.576 209.370 C 299.734 209.227,300.514 208.094,302.901 204.539 C 303.550 203.572,304.184 202.738,304.310 202.684 C 304.436 202.631,304.539 202.464,304.539 202.315 C 304.539 202.166,304.991 201.400,305.544 200.614 C 306.492 199.265,309.994 193.518,311.628 190.630 C 312.037 189.905,312.863 188.455,313.463 187.408 C 316.285 182.480,320.040 175.051,322.195 170.132 C 322.441 169.568,322.968 168.382,323.365 167.496 C 324.882 164.113,326.777 159.619,327.935 156.662 C 328.597 154.971,329.251 153.412,329.388 153.198 C 329.577 152.905,331.034 152.777,335.317 152.677 C 338.440 152.604,341.457 152.417,342.020 152.262 C 342.584 152.107,343.563 151.979,344.196 151.978 C 344.829 151.977,345.751 151.855,346.246 151.707 C 346.740 151.558,348.133 151.209,349.341 150.931 C 361.994 148.013,375.655 138.972,380.831 130.088 C 381.136 129.564,381.489 129.136,381.615 129.136 C 381.741 129.136,381.845 128.992,381.845 128.815 C 381.845 128.639,382.090 128.145,382.389 127.717 C 384.627 124.517,387.515 116.890,386.763 116.162 C 380.704 110.295,370.185 106.614,357.833 106.038 C 352.880 105.807,344.166 106.105,341.933 106.581 C 341.160 106.746,339.836 106.881,338.991 106.881 L 337.454 106.881 336.956 104.737 C 336.681 103.558,336.457 102.314,336.457 101.973 C 336.457 101.631,336.325 101.271,336.164 101.171 C 336.003 101.072,335.871 100.667,335.871 100.272 C 335.871 99.876,335.756 99.324,335.614 99.044 C 335.473 98.765,335.194 98.009,334.995 97.365 C 334.796 96.720,334.437 95.732,334.197 95.168 C 333.958 94.605,333.658 93.880,333.531 93.558 C 330.741 86.471,324.112 77.551,317.570 72.080 C 315.282 70.167,308.681 65.593,308.207 65.593 C 308.116 65.593,307.519 65.264,306.881 64.861 C 306.244 64.458,305.669 64.129,305.605 64.129 C 305.542 64.129,304.784 65.084,303.923 66.252 M45.608 97.619 L 44.802 98.311 44.802 114.254 C 44.802 129.782,44.818 130.213,45.387 130.824 C 46.280 131.783,46.716 131.803,64.674 131.711 L 81.470 131.625 82.316 130.611 L 83.163 129.598 83.163 114.422 C 83.163 100.516,83.120 99.181,82.654 98.452 C 81.647 96.878,82.469 96.945,63.836 96.935 L 46.413 96.926 45.608 97.619 M91.329 97.455 C 90.208 98.631,90.190 98.892,90.190 114.315 C 90.190 130.511,90.196 130.578,91.697 131.354 C 92.955 132.005,125.850 131.972,127.114 131.318 C 128.529 130.586,128.551 130.326,128.551 114.089 L 128.551 98.788 127.719 97.857 L 126.888 96.925 109.344 96.943 C 93.266 96.959,91.761 97.001,91.329 97.455 M137.736 97.444 C 136.466 98.473,136.457 98.593,136.457 114.344 C 136.457 131.278,136.412 130.894,138.435 131.483 C 139.187 131.702,144.841 131.774,156.434 131.714 L 173.337 131.625 174.004 130.958 L 174.671 130.291 174.671 114.364 L 174.671 98.437 173.961 97.681 L 173.251 96.925 155.805 96.932 C 139.718 96.938,138.312 96.978,137.736 97.444 M183.416 97.444 C 182.147 98.473,182.138 98.592,182.138 114.357 C 182.138 131.080,182.109 130.812,183.996 131.470 C 185.161 131.876,217.824 131.883,218.890 131.478 C 220.579 130.836,220.498 131.701,220.498 114.330 L 220.498 98.311 219.693 97.619 L 218.887 96.926 201.464 96.932 C 185.398 96.938,183.992 96.978,183.416 97.444 M229.472 97.643 L 228.697 98.361 228.697 114.207 C 228.697 131.079,228.683 130.920,230.199 131.448 C 231.785 132.001,264.219 131.891,265.306 131.329 C 266.776 130.569,266.764 130.709,266.764 114.244 L 266.764 98.727 266.006 97.826 L 265.248 96.925 247.747 96.925 L 230.247 96.925 229.472 97.643 M255.271 263.169 C 255.794 263.234,256.651 263.234,257.174 263.169 C 257.698 263.104,257.269 263.051,256.223 263.051 C 255.176 263.051,254.747 263.104,255.271 263.169 M252.737 264.297 C 250.409 266.255,251.089 270.476,253.981 272.020 C 255.161 272.650,257.518 272.838,257.833 272.328 C 257.933 272.167,258.213 272.035,258.457 272.035 C 258.960 272.035,259.280 271.742,260.406 270.251 C 261.735 268.490,261.495 266.174,259.792 264.348 C 258.636 263.108,258.091 263.352,259.131 264.645 C 261.606 267.726,259.941 271.742,256.188 271.742 C 252.192 271.742,250.435 267.198,253.353 264.409 C 254.466 263.346,253.973 263.256,252.737 264.297 M254.661 265.788 C 254.228 266.221,254.447 269.985,254.905 269.985 C 255.212 269.985,255.344 269.676,255.344 268.960 C 255.344 268.076,255.439 267.936,256.043 267.936 C 256.553 267.936,256.872 268.211,257.228 268.960 C 257.769 270.100,258.434 270.378,258.107 269.327 C 257.508 267.406,257.476 267.373,256.382 267.551 C 255.353 267.718,255.344 267.710,255.344 266.656 C 255.344 265.653,255.103 265.346,254.661 265.788 M257.202 266.310 C 257.397 266.725,257.649 266.919,257.799 266.769 C 258.156 266.412,257.797 265.593,257.284 265.593 C 256.941 265.593,256.926 265.725,257.202 266.310 " stroke="none" fill="#fbfbfc" fill-rule="evenodd"></path><path id="path1" d="M182.975 12.322 L 182.284 12.931 183.008 12.469 C 183.648 12.060,185.810 12.006,201.543 12.006 L 219.353 12.006 220.072 12.725 C 220.467 13.120,220.791 13.327,220.791 13.185 C 220.791 13.043,220.443 12.654,220.019 12.320 C 218.804 11.364,184.060 11.366,182.975 12.322 M181.979 13.543 C 181.902 13.745,181.873 21.025,181.915 29.722 L 181.991 45.534 182.138 29.356 C 182.218 20.457,182.247 13.177,182.202 13.177 C 182.156 13.177,182.056 13.342,181.979 13.543 M220.937 29.592 C 220.937 38.268,221.027 45.140,221.136 44.865 C 221.407 44.182,221.422 14.582,221.152 14.157 C 221.034 13.971,220.937 20.917,220.937 29.592 M182.299 46.053 C 182.834 47.447,182.710 47.438,201.561 47.438 C 220.467 47.438,220.791 47.413,220.791 45.966 C 220.791 45.824,220.467 46.031,220.072 46.426 L 219.353 47.145 201.517 47.145 L 183.682 47.145 182.900 46.363 C 182.469 45.933,182.199 45.793,182.299 46.053 M100.826 54.099 C 105.629 54.145,113.404 54.145,118.103 54.099 C 122.802 54.054,118.873 54.017,109.370 54.017 C 99.868 54.017,96.023 54.054,100.826 54.099 M147.093 54.099 C 151.896 54.145,159.670 54.145,164.369 54.099 C 169.069 54.054,165.139 54.017,155.637 54.017 C 146.135 54.017,142.290 54.054,147.093 54.099 M192.899 54.099 C 197.610 54.145,205.318 54.145,210.029 54.099 C 214.740 54.054,210.886 54.017,201.464 54.017 C 192.042 54.017,188.188 54.054,192.899 54.099 M127.347 54.581 C 128.835 55.406,128.822 55.254,128.833 72.131 L 128.843 87.893 127.987 88.749 C 127.517 89.220,127.241 89.605,127.376 89.605 C 127.510 89.605,127.964 89.195,128.385 88.695 L 129.151 87.786 129.070 71.686 L 128.990 55.586 128.168 54.879 C 127.716 54.491,127.189 54.177,126.997 54.183 C 126.805 54.189,126.962 54.368,127.347 54.581 M173.084 54.261 C 173.152 54.310,173.602 54.582,174.085 54.864 L 174.963 55.379 174.272 54.776 C 173.892 54.444,173.442 54.173,173.272 54.173 C 173.102 54.173,173.017 54.213,173.084 54.261 M182.701 55.029 L 181.845 55.885 181.851 71.939 C 181.858 89.462,181.786 88.689,183.509 89.570 C 184.826 90.244,218.706 90.006,219.839 89.315 C 220.362 88.996,220.789 88.568,220.786 88.364 C 220.783 88.121,220.708 88.100,220.567 88.304 C 219.649 89.625,219.953 89.605,201.421 89.605 L 183.940 89.605 183.039 88.847 L 182.138 88.088 182.138 72.136 C 182.138 55.318,182.132 55.391,183.536 54.629 C 183.975 54.391,184.159 54.191,183.945 54.184 C 183.732 54.178,183.172 54.558,182.701 55.029 M219.034 54.254 C 219.034 54.310,219.462 54.669,219.985 55.052 C 220.574 55.483,220.779 55.554,220.522 55.238 C 220.132 54.757,219.034 54.031,219.034 54.254 M90.153 55.242 C 89.823 55.639,89.750 58.603,89.742 71.714 L 89.734 87.701 89.889 71.889 C 90.008 59.779,90.132 55.922,90.420 55.417 C 90.862 54.644,90.725 54.554,90.153 55.242 M136.174 55.910 C 135.974 56.285,135.894 61.758,135.939 72.089 L 136.008 87.701 136.159 71.889 C 136.242 63.192,136.417 55.911,136.547 55.710 C 136.678 55.509,136.715 55.344,136.631 55.344 C 136.546 55.344,136.341 55.599,136.174 55.910 M175.044 71.785 L 175.124 87.878 174.261 88.741 C 173.786 89.216,173.508 89.605,173.642 89.605 C 173.777 89.605,174.228 89.199,174.645 88.704 L 175.403 87.803 175.403 71.884 C 175.403 63.128,175.304 55.903,175.183 55.828 C 175.062 55.754,175.000 62.934,175.044 71.785 M220.937 72.053 C 220.937 80.729,221.027 87.601,221.136 87.325 C 221.407 86.642,221.422 57.041,221.152 56.617 C 221.034 56.431,220.937 63.377,220.937 72.053 M304.356 64.641 C 303.917 65.245,303.209 66.201,302.782 66.764 C 301.787 68.077,299.854 71.110,299.854 71.358 C 299.854 71.462,301.044 69.812,302.499 67.692 C 305.500 63.318,305.170 63.496,307.732 64.880 C 308.794 65.454,309.400 65.707,309.078 65.442 C 308.374 64.863,305.846 63.543,305.442 63.543 C 305.284 63.543,304.795 64.037,304.356 64.641 M309.810 65.954 C 309.890 66.049,311.166 66.921,312.646 67.892 C 314.125 68.862,316.326 70.521,317.538 71.578 C 319.827 73.574,320.975 74.277,318.993 72.468 C 316.571 70.258,308.762 64.719,309.810 65.954 M299.122 72.621 C 298.872 73.104,298.733 73.499,298.814 73.499 C 298.894 73.499,299.164 73.104,299.414 72.621 C 299.664 72.138,299.803 71.742,299.722 71.742 C 299.642 71.742,299.371 72.138,299.122 72.621 M322.718 76.558 C 327.053 81.203,329.762 85.035,332.256 90.047 C 333.175 91.893,333.983 93.347,334.053 93.278 C 334.833 92.498,327.302 81.053,323.464 77.185 C 321.994 75.704,321.658 75.421,322.718 76.558 M293.884 84.221 C 293.625 84.982,293.464 85.655,293.526 85.717 C 293.588 85.779,293.850 85.207,294.110 84.446 C 294.369 83.686,294.530 83.013,294.468 82.951 C 294.406 82.889,294.144 83.460,293.884 84.221 M293.153 86.433 C 293.134 86.702,293.043 87.163,292.950 87.458 C 292.790 87.966,292.799 87.967,293.116 87.472 C 293.300 87.186,293.391 86.724,293.319 86.448 C 293.200 85.994,293.183 85.993,293.153 86.433 M89.898 88.108 C 89.898 88.386,91.328 89.750,91.443 89.581 C 91.489 89.514,91.160 89.104,90.712 88.672 C 90.264 88.239,89.898 87.985,89.898 88.108 M136.398 88.324 C 136.751 88.984,137.583 89.753,137.748 89.573 C 137.806 89.510,137.455 89.069,136.966 88.593 C 136.355 87.997,136.178 87.913,136.398 88.324 M292.263 89.627 C 292.055 90.439,291.940 91.159,292.008 91.227 C 292.076 91.295,292.302 90.687,292.510 89.875 C 292.719 89.063,292.833 88.343,292.765 88.275 C 292.697 88.207,292.471 88.815,292.263 89.627 M100.680 89.824 C 105.563 89.869,113.470 89.869,118.249 89.824 C 123.029 89.779,119.034 89.742,109.370 89.742 C 99.707 89.742,95.796 89.779,100.680 89.824 M146.946 89.824 C 151.830 89.869,159.736 89.869,164.516 89.824 C 169.296 89.779,165.300 89.742,155.637 89.742 C 145.974 89.742,142.063 89.779,146.946 89.824 M291.654 91.679 C 291.654 91.746,291.456 92.921,291.215 94.290 C 290.974 95.659,290.787 97.108,290.800 97.511 C 290.813 97.914,291.076 96.805,291.386 95.047 C 291.695 93.289,291.882 91.785,291.801 91.704 C 291.721 91.623,291.654 91.612,291.654 91.679 M334.711 95.354 C 334.705 95.537,334.892 96.130,335.128 96.672 C 335.363 97.214,335.561 97.508,335.567 97.325 C 335.573 97.142,335.386 96.549,335.151 96.007 C 334.915 95.465,334.718 95.172,334.711 95.354 M55.417 96.559 C 60.048 96.604,67.624 96.604,72.255 96.559 C 76.885 96.514,73.097 96.477,63.836 96.477 C 54.575 96.477,50.787 96.514,55.417 96.559 M100.931 96.559 C 105.469 96.604,112.980 96.604,117.622 96.559 C 122.264 96.514,118.551 96.477,109.370 96.477 C 100.190 96.477,96.393 96.514,100.931 96.559 M147.197 96.559 C 151.736 96.604,159.247 96.604,163.888 96.559 C 168.530 96.514,164.817 96.477,155.637 96.477 C 146.457 96.477,142.659 96.514,147.197 96.559 M193.045 96.559 C 197.676 96.604,205.253 96.604,209.883 96.559 C 214.513 96.514,210.725 96.477,201.464 96.477 C 192.204 96.477,188.415 96.514,193.045 96.559 M239.312 96.559 C 243.942 96.604,251.519 96.604,256.149 96.559 C 260.780 96.514,256.991 96.477,247.731 96.477 C 238.470 96.477,234.682 96.514,239.312 96.559 M45.073 97.438 L 44.363 98.243 45.242 97.511 C 45.725 97.108,46.175 96.746,46.242 96.706 C 46.309 96.665,46.233 96.633,46.073 96.633 C 45.914 96.633,45.463 96.995,45.073 97.438 M81.406 96.840 C 81.647 96.929,82.108 97.215,82.430 97.476 C 83.011 97.946,83.011 97.945,82.458 97.291 C 82.151 96.929,81.690 96.643,81.433 96.656 C 81.037 96.675,81.033 96.703,81.406 96.840 M173.353 96.840 C 173.594 96.929,174.056 97.215,174.378 97.476 C 174.958 97.946,174.959 97.945,174.406 97.291 C 174.099 96.929,173.638 96.643,173.381 96.656 C 172.984 96.675,172.980 96.703,173.353 96.840 M182.701 97.438 L 181.991 98.243 182.870 97.511 C 183.353 97.108,183.803 96.746,183.870 96.706 C 183.937 96.665,183.861 96.633,183.702 96.633 C 183.542 96.633,183.092 96.995,182.701 97.438 M219.058 96.706 C 219.125 96.746,219.575 97.108,220.059 97.511 L 220.937 98.243 220.227 97.438 C 219.837 96.995,219.386 96.633,219.227 96.633 C 219.067 96.633,218.991 96.665,219.058 96.706 M229.097 97.151 C 227.826 98.181,227.818 98.286,227.818 114.344 C 227.818 131.246,227.794 130.997,229.566 131.913 C 230.310 132.298,232.749 132.348,247.789 132.289 L 265.154 132.220 247.584 132.069 C 237.921 131.986,229.779 131.803,229.491 131.663 C 228.136 131.002,228.111 130.693,228.111 114.377 C 228.111 98.092,228.118 98.006,229.524 97.134 C 229.955 96.867,230.176 96.648,230.015 96.647 C 229.854 96.646,229.441 96.873,229.097 97.151 M265.488 96.923 C 267.090 97.569,267.057 97.197,267.057 114.443 L 267.057 130.365 266.148 131.215 C 265.647 131.682,265.372 132.064,265.536 132.064 C 265.700 132.064,266.175 131.659,266.592 131.163 L 267.350 130.263 267.350 114.348 L 267.350 98.434 266.592 97.533 C 266.175 97.038,265.615 96.641,265.347 96.651 C 264.990 96.665,265.027 96.737,265.488 96.923 M83.162 114.290 L 83.309 130.454 83.385 114.512 C 83.426 105.744,83.360 98.470,83.238 98.348 C 83.116 98.226,83.082 105.400,83.162 114.290 M174.963 114.348 C 174.963 123.256,175.062 130.483,175.183 130.409 C 175.304 130.334,175.403 123.107,175.403 114.348 C 175.403 105.590,175.304 98.363,175.183 98.288 C 175.062 98.214,174.963 105.441,174.963 114.348 M44.102 98.853 C 43.846 99.519,43.891 129.509,44.148 129.913 C 44.266 130.099,44.363 123.083,44.363 114.321 C 44.363 105.558,44.344 98.389,44.321 98.389 C 44.298 98.389,44.199 98.598,44.102 98.853 M181.981 114.348 C 181.981 123.206,182.019 126.872,182.064 122.495 C 182.110 118.118,182.110 110.870,182.064 106.390 C 182.019 101.909,181.982 105.490,181.981 114.348 M290.337 101.977 C 290.225 103.949,290.245 106.947,290.381 108.638 C 290.601 111.360,290.630 110.948,290.636 105.051 C 290.639 101.387,290.619 98.389,290.592 98.389 C 290.565 98.389,290.450 100.004,290.337 101.977 M89.673 114.110 C 89.600 130.817,89.601 130.835,91.135 131.770 C 92.065 132.337,92.620 132.355,109.400 132.356 L 126.707 132.357 127.679 131.698 C 128.214 131.336,128.703 130.842,128.765 130.600 C 128.841 130.303,128.772 130.327,128.553 130.674 C 127.675 132.061,127.626 132.064,109.370 132.064 C 91.137 132.064,90.966 132.052,90.299 130.684 C 90.159 130.397,89.976 123.045,89.893 114.348 L 89.741 98.536 89.673 114.110 M128.980 114.348 C 128.980 123.045,129.017 126.561,129.063 122.161 C 129.108 117.761,129.108 110.645,129.063 106.348 C 129.017 102.051,128.980 105.652,128.980 114.348 M135.939 114.143 C 135.880 127.613,135.932 129.869,136.315 130.610 C 137.243 132.405,136.771 132.364,155.842 132.289 L 173.206 132.220 155.637 132.069 C 145.974 131.986,137.833 131.804,137.547 131.664 C 136.343 131.076,136.316 130.745,136.159 114.348 L 136.008 98.536 135.939 114.143 M220.937 114.349 C 220.937 122.934,221.034 129.807,221.152 129.621 C 221.271 129.435,221.367 122.562,221.367 114.348 C 221.367 106.135,221.271 99.262,221.152 99.076 C 221.034 98.891,220.937 105.763,220.937 114.349 M336.754 102.367 C 336.757 102.676,336.892 103.126,337.056 103.367 C 337.273 103.688,337.300 103.570,337.157 102.928 C 336.916 101.852,336.748 101.618,336.754 102.367 M345.388 105.432 C 341.498 105.826,341.155 105.979,344.656 105.758 C 356.346 105.020,367.010 105.999,374.378 108.485 C 374.919 108.668,374.923 108.657,374.433 108.343 C 371.110 106.216,354.292 104.530,345.388 105.432 M337.915 106.405 C 338.061 106.552,338.901 106.538,339.875 106.375 L 341.581 106.087 339.621 106.118 C 338.503 106.136,337.770 106.259,337.915 106.405 M376.574 109.337 C 380.046 110.790,382.650 112.321,385.597 114.641 C 387.342 116.015,387.545 116.444,387.140 117.909 C 386.974 118.509,386.892 119.054,386.958 119.120 C 387.226 119.388,387.734 116.711,387.506 116.234 C 386.723 114.595,377.182 108.604,375.428 108.651 C 375.173 108.658,375.688 108.966,376.574 109.337 M290.802 112.499 C 290.772 113.400,291.583 117.455,291.843 117.699 C 291.938 117.789,291.917 117.401,291.795 116.837 C 291.674 116.274,291.407 114.890,291.202 113.763 C 290.997 112.635,290.817 112.067,290.802 112.499 M291.989 118.448 C 291.992 119.059,292.768 121.303,292.799 120.791 C 292.809 120.630,292.630 119.905,292.402 119.180 C 292.173 118.455,291.988 118.126,291.989 118.448 M386.296 120.556 C 385.862 121.968,386.072 122.178,386.530 120.791 C 386.723 120.205,386.824 119.670,386.755 119.600 C 386.685 119.530,386.479 119.961,386.296 120.556 M293.011 121.816 C 293.110 122.218,293.371 122.943,293.591 123.426 C 293.912 124.132,293.956 124.160,293.811 123.572 C 293.713 123.170,293.452 122.445,293.232 121.962 C 292.911 121.256,292.867 121.228,293.011 121.816 M384.542 124.608 C 383.866 125.971,383.377 127.086,383.454 127.086 C 383.649 127.086,386.006 122.366,385.876 122.235 C 385.818 122.178,385.218 123.245,384.542 124.608 M294.018 124.597 C 294.018 124.758,294.206 125.220,294.436 125.622 C 294.666 126.025,294.855 126.223,294.855 126.061 C 294.855 125.900,294.666 125.439,294.436 125.037 C 294.206 124.634,294.018 124.436,294.018 124.597 M295.168 127.239 C 295.550 128.250,296.888 130.600,297.082 130.600 C 297.212 130.600,295.248 126.778,294.978 126.507 C 294.902 126.430,294.987 126.759,295.168 127.239 M380.673 130.966 C 380.241 131.555,380.171 131.760,380.487 131.503 C 380.967 131.113,381.693 130.015,381.471 130.015 C 381.415 130.015,381.056 130.443,380.673 130.966 M44.649 130.916 C 45.202 132.358,45.265 132.362,63.881 132.289 L 81.259 132.220 63.640 132.069 L 46.021 131.918 45.249 131.193 C 44.818 130.788,44.553 130.665,44.649 130.916 M82.138 131.341 C 81.654 131.737,81.401 132.062,81.574 132.063 C 81.747 132.064,82.199 131.735,82.577 131.332 C 83.444 130.409,83.271 130.412,82.138 131.341 M182.803 131.367 L 183.615 132.211 201.251 132.219 L 218.887 132.227 201.415 132.072 L 183.943 131.918 182.967 131.221 L 181.991 130.524 182.803 131.367 M219.766 131.341 C 219.283 131.737,219.029 132.062,219.202 132.063 C 219.375 132.064,219.827 131.735,220.205 131.332 C 221.073 130.409,220.899 130.412,219.766 131.341 M173.939 131.479 C 173.536 131.794,173.351 132.054,173.527 132.058 C 173.703 132.061,174.086 131.801,174.378 131.479 C 175.045 130.741,174.882 130.741,173.939 131.479 M297.218 131.071 C 297.218 131.231,297.380 131.523,297.577 131.720 C 297.860 132.003,297.850 132.216,297.530 132.731 C 297.159 133.326,297.166 133.348,297.610 132.980 C 297.878 132.759,298.092 132.430,298.087 132.248 C 298.076 131.835,297.218 130.674,297.218 131.071 M378.604 133.602 C 377.899 134.447,377.554 134.954,377.838 134.728 C 378.407 134.274,380.211 132.064,380.012 132.064 C 379.943 132.064,379.310 132.756,378.604 133.602 M295.754 133.675 C 295.351 133.905,295.154 134.093,295.315 134.093 C 295.476 134.093,295.937 133.905,296.340 133.675 C 296.742 133.445,296.940 133.256,296.779 133.256 C 296.618 133.256,296.157 133.445,295.754 133.675 M375.823 136.823 L 374.963 137.775 375.915 136.914 C 376.802 136.113,377.001 135.871,376.775 135.871 C 376.725 135.871,376.296 136.299,375.823 136.823 M285.212 137.056 C 284.892 137.273,285.010 137.300,285.652 137.157 C 286.728 136.916,286.962 136.748,286.213 136.754 C 285.904 136.757,285.454 136.892,285.212 137.056 M282.430 137.628 C 281.684 137.949,282.454 137.949,283.455 137.628 C 284.044 137.440,284.073 137.392,283.602 137.385 C 283.280 137.380,282.753 137.490,282.430 137.628 M279.722 138.123 C 280.004 138.196,280.465 138.196,280.747 138.123 C 281.029 138.049,280.798 137.989,280.234 137.989 C 279.671 137.989,279.440 138.049,279.722 138.123 M372.621 139.734 C 368.674 143.162,360.851 147.777,356.808 149.064 C 356.164 149.269,355.781 149.485,355.956 149.544 C 356.295 149.658,359.827 148.213,362.518 146.858 C 365.041 145.589,371.269 141.335,373.206 139.556 C 375.560 137.396,375.180 137.512,372.621 139.734 M275.769 138.713 C 276.131 138.783,276.724 138.783,277.086 138.713 C 277.449 138.643,277.152 138.586,276.428 138.586 C 275.703 138.586,275.406 138.643,275.769 138.713 M146.852 139.092 L 21.816 139.240 146.706 139.287 C 215.395 139.313,272.255 139.231,273.060 139.106 L 274.524 138.878 273.206 138.911 C 272.482 138.930,215.622 139.011,146.852 139.092 M15.984 142.387 C 14.044 144.333,12.568 146.963,12.625 148.371 C 12.655 149.112,12.679 149.090,12.862 148.159 C 13.326 145.789,15.209 142.966,17.370 141.401 C 18.011 140.936,18.372 140.556,18.172 140.556 C 17.972 140.556,16.987 141.380,15.984 142.387 M12.419 154.466 C 12.418 157.204,12.462 158.363,12.516 157.042 C 12.570 155.721,12.571 153.481,12.517 152.064 C 12.463 150.647,12.419 151.728,12.419 154.466 M352.562 150.512 C 352.172 150.765,352.172 150.796,352.562 150.796 C 352.804 150.796,353.199 150.669,353.441 150.512 C 353.831 150.260,353.831 150.229,353.441 150.229 C 353.199 150.229,352.804 150.356,352.562 150.512 M349.634 151.259 C 348.909 151.467,348.580 151.645,348.902 151.656 C 349.224 151.666,350.081 151.488,350.805 151.260 C 352.444 150.743,351.436 150.743,349.634 151.259 M346.559 151.977 C 345.762 152.179,345.749 152.201,346.413 152.214 C 346.816 152.222,347.408 152.115,347.731 151.977 C 348.453 151.666,347.779 151.666,346.559 151.977 M342.313 152.562 L 340.996 152.767 342.167 152.782 C 342.811 152.790,343.668 152.691,344.070 152.562 C 344.995 152.266,344.218 152.266,342.313 152.562 M333.044 153.073 C 331.170 153.133,329.962 153.300,329.778 153.524 C 329.397 153.989,327.352 159.075,327.490 159.213 C 327.549 159.272,328.116 158.030,328.750 156.453 L 329.903 153.587 334.242 153.380 C 336.628 153.265,338.729 153.111,338.910 153.037 C 339.244 152.899,338.342 152.905,333.044 153.073 M12.701 162.958 C 12.702 164.729,12.750 165.416,12.808 164.484 C 12.867 163.552,12.866 162.103,12.807 161.263 C 12.748 160.423,12.700 161.186,12.701 162.958 M326.255 161.799 C 325.765 162.876,325.858 163.105,326.389 162.126 C 326.637 161.669,326.785 161.240,326.718 161.173 C 326.651 161.106,326.443 161.388,326.255 161.799 M324.451 165.801 C 324.451 165.889,324.252 166.438,324.008 167.021 C 323.764 167.605,323.631 168.082,323.711 168.082 C 323.943 168.082,324.768 165.959,324.601 165.792 C 324.519 165.709,324.451 165.714,324.451 165.801 M12.972 167.789 C 12.972 168.675,13.027 169.037,13.094 168.594 C 13.161 168.152,13.161 167.427,13.094 166.984 C 13.027 166.541,12.972 166.903,12.972 167.789 M323.034 169.119 C 322.544 170.196,322.637 170.426,323.168 169.447 C 323.416 168.990,323.564 168.561,323.497 168.494 C 323.430 168.427,323.222 168.709,323.034 169.119 M13.265 171.010 C 13.265 171.896,13.320 172.258,13.387 171.816 C 13.454 171.373,13.454 170.648,13.387 170.205 C 13.320 169.762,13.265 170.124,13.265 171.010 M320.985 173.512 C 320.494 174.589,320.588 174.818,321.118 173.839 C 321.366 173.382,321.514 172.953,321.447 172.886 C 321.380 172.820,321.172 173.101,320.985 173.512 M13.524 173.792 C 13.513 174.275,13.613 175.198,13.746 175.842 C 14.065 177.383,14.092 175.998,13.778 174.231 C 13.602 173.243,13.538 173.133,13.524 173.792 M14.119 178.770 C 14.116 179.253,14.220 179.978,14.348 180.381 L 14.583 181.113 14.577 180.381 C 14.574 179.978,14.471 179.253,14.348 178.770 L 14.125 177.892 14.119 178.770 M315.959 183.602 C 315.311 184.890,314.847 185.944,314.928 185.944 C 315.008 185.944,315.604 184.890,316.252 183.602 C 316.900 182.313,317.364 181.259,317.283 181.259 C 317.203 181.259,316.607 182.313,315.959 183.602 M14.697 182.577 C 14.689 183.060,14.796 183.719,14.934 184.041 L 15.186 184.627 15.172 184.041 C 15.164 183.719,15.057 183.060,14.934 182.577 L 14.711 181.698 14.697 182.577 M15.295 185.944 C 15.295 186.508,15.355 186.739,15.429 186.457 C 15.502 186.175,15.502 185.714,15.429 185.432 C 15.355 185.150,15.295 185.381,15.295 185.944 M312.879 189.239 C 309.131 195.863,306.051 200.758,302.269 206.099 C 301.092 207.763,300.256 209.044,300.413 208.947 C 301.593 208.218,311.282 193.045,314.321 187.170 C 315.384 185.114,314.475 186.417,312.879 189.239 M16.164 190.483 C 16.164 190.805,16.269 191.398,16.398 191.801 C 16.584 192.381,16.633 192.411,16.633 191.947 C 16.633 191.625,16.527 191.032,16.398 190.630 C 16.213 190.050,16.164 190.019,16.164 190.483 M16.732 193.265 C 16.732 193.507,16.845 193.968,16.984 194.290 C 17.143 194.659,17.236 194.713,17.236 194.436 C 17.236 194.195,17.122 193.734,16.984 193.411 C 16.825 193.042,16.732 192.988,16.732 193.265 M17.318 195.608 C 17.318 195.849,17.431 196.310,17.570 196.633 C 17.728 197.002,17.821 197.056,17.821 196.779 C 17.821 196.537,17.708 196.076,17.570 195.754 C 17.411 195.385,17.318 195.331,17.318 195.608 M20.509 206.921 C 20.503 207.104,20.690 207.697,20.926 208.239 C 21.161 208.781,21.359 209.074,21.365 208.892 C 21.371 208.709,21.184 208.116,20.949 207.574 C 20.713 207.032,20.516 206.738,20.509 206.921 M299.268 210.249 C 298.924 210.732,298.708 211.127,298.789 211.127 C 298.869 211.127,299.217 210.732,299.561 210.249 C 299.905 209.766,300.120 209.370,300.040 209.370 C 299.959 209.370,299.612 209.766,299.268 210.249 M296.916 213.363 C 296.076 214.432,295.534 215.217,295.711 215.107 C 296.093 214.871,298.778 211.420,298.580 211.420 C 298.504 211.420,297.756 212.295,296.916 213.363 M23.146 214.236 C 23.130 214.662,24.356 217.615,24.493 217.479 C 24.550 217.422,24.273 216.595,23.877 215.642 C 23.482 214.689,23.152 214.056,23.146 214.236 M292.234 219.107 C 290.578 221.080,286.440 225.494,283.037 228.917 C 279.635 232.339,276.924 235.139,277.013 235.139 C 277.488 235.139,288.246 224.162,291.218 220.644 C 293.123 218.389,294.878 216.314,295.117 216.032 C 295.356 215.750,295.483 215.520,295.398 215.520 C 295.313 215.520,293.889 217.134,292.234 219.107 M25.202 219.349 C 25.169 219.645,26.687 223.268,26.966 223.558 C 27.474 224.087,27.309 223.650,25.699 220.205 C 25.436 219.641,25.212 219.256,25.202 219.349 M27.233 224.116 C 27.233 224.434,29.565 228.990,29.728 228.990 C 29.859 228.990,27.620 224.334,27.345 224.036 C 27.283 223.969,27.233 224.005,27.233 224.116 M29.868 229.336 C 29.868 229.611,31.914 233.191,32.264 233.529 C 32.431 233.690,32.134 233.031,31.604 232.064 C 30.520 230.087,29.868 229.063,29.868 229.336 M274.817 236.803 C 272.917 238.552,265.715 244.300,263.177 246.093 C 262.090 246.861,261.201 247.551,261.201 247.627 C 261.201 248.081,267.885 243.008,273.206 238.516 C 276.531 235.709,276.834 235.428,276.522 235.444 C 276.389 235.450,275.622 236.062,274.817 236.803 M34.264 236.876 C 34.730 237.780,36.614 240.410,36.794 240.410 C 36.964 240.410,36.752 240.058,35.468 238.214 C 34.226 236.428,33.773 235.925,34.264 236.876 M37.648 241.728 C 42.328 248.516,51.221 257.157,58.443 261.934 C 61.146 263.721,67.327 267.178,67.504 267.001 C 67.569 266.936,66.298 266.182,64.679 265.325 C 56.056 260.758,47.048 253.252,40.742 245.379 C 39.512 243.844,38.132 242.131,37.674 241.572 L 36.841 240.556 37.648 241.728 M255.930 250.974 C 253.755 252.408,252.076 253.583,252.198 253.584 C 252.496 253.588,260.029 248.671,260.029 248.473 C 260.029 248.256,260.297 248.093,255.930 250.974 M249.268 255.082 C 248.422 255.575,247.731 256.046,247.731 256.128 C 247.731 256.291,250.335 254.843,250.791 254.427 C 251.287 253.974,250.836 254.168,249.268 255.082 M246.486 256.683 C 245.391 257.277,245.458 257.524,246.559 256.955 C 247.042 256.705,247.438 256.438,247.438 256.361 C 247.438 256.173,247.406 256.184,246.486 256.683 M242.679 258.733 C 241.585 259.327,241.651 259.574,242.753 259.004 C 243.236 258.755,243.631 258.488,243.631 258.411 C 243.631 258.223,243.600 258.233,242.679 258.733 M236.457 261.802 C 234.524 262.750,233.057 263.529,233.195 263.534 C 233.508 263.545,239.171 260.931,239.963 260.410 C 241.168 259.616,239.847 260.141,236.457 261.802 M256.960 262.485 C 258.900 262.986,259.536 263.350,260.470 264.493 C 260.898 265.017,261.118 265.183,260.958 264.861 C 260.271 263.471,258.743 262.518,256.808 262.273 L 255.490 262.106 256.960 262.485 M253.734 262.713 C 249.374 265.118,249.738 271.353,254.319 272.770 C 254.641 272.869,254.510 272.729,254.026 272.457 C 249.709 270.032,249.907 264.388,254.365 262.799 C 254.998 262.573,255.234 262.396,254.905 262.394 C 254.583 262.391,254.056 262.535,253.734 262.713 M228.469 265.228 C 226.331 266.118,224.637 266.902,224.706 266.971 C 224.839 267.104,230.870 264.693,232.170 263.987 C 233.660 263.177,232.323 263.626,228.469 265.228 M254.563 264.136 C 253.145 264.852,252.398 266.160,252.452 267.833 C 252.485 268.840,252.513 268.792,252.717 267.388 C 253.165 264.309,253.881 264.474,253.870 267.653 L 253.860 270.425 253.285 269.733 C 252.968 269.353,252.709 269.179,252.709 269.346 C 252.709 269.513,253.200 270.055,253.800 270.550 C 254.885 271.444,255.551 271.729,255.190 271.144 C 255.086 270.976,255.155 270.653,255.343 270.426 C 255.531 270.199,255.624 269.777,255.549 269.487 C 255.441 269.074,255.405 269.102,255.378 269.619 C 255.354 270.076,255.161 270.278,254.747 270.278 C 254.185 270.278,254.155 270.127,254.235 267.716 L 254.319 265.154 255.985 265.066 C 257.863 264.968,258.473 265.514,258.159 267.011 C 258.004 267.747,258.013 267.754,258.320 267.141 C 259.047 265.692,258.161 264.715,256.114 264.710 C 254.847 264.707,254.448 264.622,254.758 264.422 C 255.857 263.712,257.718 264.081,258.819 265.227 C 259.437 265.870,259.682 266.026,259.410 265.603 C 258.226 263.761,256.400 263.208,254.563 264.136 M255.958 266.161 C 255.515 266.435,255.719 267.350,256.223 267.350 C 256.651 267.350,256.945 266.491,256.625 266.171 C 256.478 266.024,256.186 266.020,255.958 266.161 M259.816 267.643 C 259.816 268.367,259.873 268.664,259.943 268.302 C 260.013 267.939,260.013 267.346,259.943 266.984 C 259.873 266.622,259.816 266.918,259.816 267.643 M69.831 268.137 C 71.122 268.836,74.746 270.300,74.873 270.174 C 74.933 270.113,74.550 269.891,74.021 269.680 C 73.493 269.469,72.233 268.924,71.223 268.470 C 69.226 267.571,68.436 267.382,69.831 268.137 M221.171 268.054 C 220.655 268.242,220.128 268.506,220.000 268.641 C 219.732 268.922,220.811 268.629,222.108 268.070 C 223.197 267.600,222.452 267.587,221.171 268.054 M258.159 268.375 C 258.669 269.956,258.646 270.278,258.028 270.278 C 257.695 270.278,257.289 270.048,257.124 269.766 C 256.960 269.484,256.822 269.402,256.817 269.583 C 256.812 269.765,257.012 270.083,257.261 270.289 C 257.510 270.496,257.641 270.854,257.552 271.084 C 257.342 271.632,259.228 270.058,259.525 269.437 C 259.719 269.033,259.699 269.035,259.394 269.452 C 259.074 269.889,258.975 269.824,258.502 268.866 C 258.209 268.274,258.055 268.053,258.159 268.375 M218.009 269.264 C 216.826 269.805,217.533 269.806,218.780 269.265 C 219.322 269.029,219.568 268.843,219.327 268.849 C 219.085 268.856,218.492 269.043,218.009 269.264 M261.201 269.534 C 261.201 269.769,260.694 270.493,260.075 271.144 C 259.455 271.795,259.050 272.328,259.173 272.328 C 259.526 272.328,261.493 269.924,261.493 269.493 C 261.493 269.281,261.428 269.107,261.347 269.107 C 261.266 269.107,261.201 269.299,261.201 269.534 M88.433 274.657 C 88.675 274.821,89.125 274.956,89.434 274.959 C 90.183 274.965,89.949 274.797,88.873 274.556 C 88.231 274.413,88.113 274.440,88.433 274.657 M197.072 275.256 C 196.469 275.449,196.443 275.495,196.925 275.515 C 197.247 275.529,197.709 275.412,197.950 275.256 C 198.463 274.925,198.107 274.925,197.072 275.256 M194.583 275.842 C 194.214 276.001,194.159 276.094,194.436 276.094 C 194.678 276.094,195.139 275.980,195.461 275.842 C 195.830 275.683,195.884 275.590,195.608 275.590 C 195.366 275.590,194.905 275.703,194.583 275.842 M99.707 277.298 C 100.266 277.546,102.133 277.713,101.879 277.493 C 101.812 277.435,101.164 277.309,100.439 277.213 C 99.559 277.097,99.316 277.125,99.707 277.298 M187.116 277.306 C 186.122 277.515,186.118 277.522,186.969 277.531 C 187.452 277.536,188.177 277.435,188.580 277.306 C 189.540 276.999,188.577 276.999,187.116 277.306 M102.635 277.892 C 102.958 278.030,103.616 278.137,104.100 278.129 L 104.978 278.115 104.100 277.892 C 103.616 277.769,102.958 277.662,102.635 277.654 L 102.050 277.640 102.635 277.892 M183.895 277.892 C 182.901 278.101,182.897 278.108,183.748 278.117 C 184.231 278.122,184.956 278.021,185.359 277.892 C 186.319 277.584,185.355 277.584,183.895 277.892 M106.149 278.477 C 106.633 278.600,107.357 278.701,107.760 278.701 C 108.413 278.701,108.397 278.677,107.613 278.477 C 107.130 278.354,106.406 278.254,106.003 278.254 C 105.350 278.254,105.366 278.278,106.149 278.477 M180.088 278.477 C 179.100 278.685,179.095 278.693,179.941 278.697 C 180.425 278.699,181.215 278.600,181.698 278.477 C 182.914 278.168,181.557 278.168,180.088 278.477 M109.590 278.972 C 109.872 279.046,110.333 279.046,110.615 278.972 C 110.897 278.898,110.666 278.838,110.102 278.838 C 109.539 278.838,109.308 278.898,109.590 278.972 M175.695 279.063 C 174.918 279.227,174.847 279.284,175.403 279.300 C 175.805 279.312,176.662 279.213,177.306 279.080 C 178.282 278.878,178.331 278.838,177.599 278.842 C 177.116 278.845,176.259 278.944,175.695 279.063 M113.694 279.566 C 114.139 279.633,114.798 279.631,115.158 279.562 C 115.518 279.492,115.154 279.437,114.348 279.440 C 113.543 279.442,113.249 279.499,113.694 279.566 M172.552 279.566 C 172.997 279.633,173.656 279.631,174.016 279.562 C 174.376 279.492,174.012 279.437,173.206 279.440 C 172.401 279.442,172.106 279.499,172.552 279.566 M116.984 279.952 C 118.143 280.198,121.148 280.333,120.913 280.128 C 120.846 280.070,119.671 279.950,118.302 279.863 C 116.564 279.751,116.166 279.778,116.984 279.952 M167.789 279.941 L 166.179 280.139 167.643 280.165 C 168.448 280.179,169.700 280.085,170.425 279.956 L 171.742 279.722 170.571 279.733 C 169.927 279.739,168.675 279.833,167.789 279.941 M123.572 280.539 C 124.879 280.775,129.639 280.917,129.405 280.714 C 129.337 280.656,127.701 280.539,125.769 280.455 C 123.560 280.359,122.744 280.390,123.572 280.539 M160.029 280.527 L 157.394 280.709 159.883 280.739 C 161.252 280.755,163.031 280.666,163.836 280.541 L 165.300 280.313 163.982 280.329 C 163.258 280.338,161.479 280.427,160.029 280.527 M136.788 281.159 C 140.434 281.296,146.493 281.296,150.258 281.159 C 156.646 280.926,156.206 280.910,143.631 280.910 C 131.225 280.910,130.685 280.929,136.788 281.159 " stroke="none" fill="#74bdf4" fill-rule="evenodd"></path><path id="path2" d="M0.000 146.413 L 0.000 292.826 200.000 292.826 L 400.000 292.826 400.000 146.413 L 400.000 0.000 200.000 0.000 L 0.000 0.000 0.000 146.413 M219.146 11.533 C 219.681 11.757,220.434 12.383,220.820 12.924 L 221.523 13.909 221.604 29.136 L 221.685 44.363 221.018 45.680 C 219.927 47.835,220.908 47.737,201.122 47.657 L 183.356 47.584 182.600 46.874 L 181.845 46.164 181.854 29.598 C 181.864 11.758,181.796 12.520,183.455 11.625 C 184.684 10.962,217.576 10.878,219.146 11.533 M128.111 54.416 C 129.443 55.589,129.429 55.398,129.429 72.168 L 129.429 88.121 128.394 89.156 L 127.360 90.190 109.497 90.190 C 93.397 90.190,91.561 90.143,90.897 89.708 C 89.291 88.655,89.312 88.891,89.312 71.718 L 89.312 55.852 90.358 54.866 L 91.403 53.880 109.464 53.890 C 126.289 53.899,127.566 53.935,128.111 54.416 M174.794 54.923 L 175.710 55.966 175.629 72.232 L 175.549 88.498 174.535 89.344 L 173.521 90.190 155.662 90.190 L 137.802 90.190 136.837 89.254 L 135.871 88.318 135.871 71.931 L 135.871 55.543 136.802 54.711 L 137.734 53.880 155.806 53.880 L 173.878 53.880 174.794 54.923 M220.138 54.454 C 221.646 55.712,221.669 55.972,221.667 71.660 C 221.666 87.391,221.614 87.996,220.145 89.368 L 219.265 90.190 201.534 90.190 L 183.803 90.190 182.824 89.443 L 181.845 88.696 181.845 72.060 L 181.845 55.424 182.617 54.652 L 183.389 53.880 201.431 53.890 C 218.698 53.899,219.501 53.923,220.138 54.454 M307.383 64.024 C 308.154 64.450,309.135 65.043,309.562 65.342 C 309.990 65.641,310.415 65.886,310.508 65.886 C 310.703 65.886,313.982 67.945,314.202 68.205 C 314.283 68.300,314.876 68.770,315.520 69.250 C 317.586 70.788,317.780 70.962,320.773 73.977 C 327.901 81.156,329.657 83.560,333.684 91.654 C 335.422 95.148,337.628 102.172,337.628 104.214 C 337.628 105.836,338.203 106.169,340.304 105.766 C 349.109 104.075,362.884 104.664,371.889 107.116 C 375.141 108.002,382.335 111.312,383.666 112.536 C 384.050 112.888,384.885 113.570,385.520 114.051 C 388.350 116.189,388.302 116.065,387.397 118.912 C 385.891 123.647,383.155 128.688,379.606 133.273 C 378.090 135.230,371.162 141.767,369.249 143.045 C 368.043 143.851,367.013 144.608,366.959 144.729 C 366.906 144.850,366.728 144.949,366.565 144.949 C 366.402 144.949,365.919 145.192,365.492 145.489 C 364.211 146.379,361.041 147.997,358.858 148.877 C 357.731 149.331,356.545 149.812,356.223 149.946 C 353.905 150.911,349.286 152.054,345.242 152.662 C 339.116 153.584,337.543 153.734,333.952 153.734 L 330.300 153.734 329.541 155.417 C 329.124 156.343,328.678 157.365,328.550 157.687 C 327.577 160.140,326.924 161.710,326.322 163.039 C 325.937 163.890,325.622 164.634,325.622 164.693 C 325.622 164.752,324.888 166.363,323.991 168.272 C 323.094 170.180,322.028 172.467,321.622 173.353 C 321.215 174.239,320.698 175.312,320.473 175.737 C 319.949 176.726,319.246 178.148,317.745 181.259 C 316.204 184.452,313.951 188.673,312.941 190.258 C 312.507 190.939,312.152 191.552,312.152 191.619 C 312.152 191.687,311.624 192.579,310.979 193.602 C 310.334 194.624,309.717 195.659,309.609 195.900 C 309.371 196.430,305.361 202.720,305.129 202.928 C 305.039 203.009,303.858 204.656,302.505 206.589 C 301.153 208.521,299.937 210.146,299.803 210.200 C 299.670 210.254,299.561 210.484,299.561 210.713 C 299.561 210.941,299.457 211.127,299.331 211.127 C 299.205 211.127,298.885 211.490,298.622 211.933 C 298.358 212.376,297.897 213.001,297.598 213.324 C 297.299 213.646,296.663 214.436,296.186 215.081 C 295.709 215.725,295.251 216.318,295.170 216.398 C 295.089 216.479,294.498 217.204,293.857 218.009 C 293.216 218.814,292.557 219.617,292.393 219.794 C 292.228 219.971,291.375 220.959,290.498 221.990 C 288.724 224.074,281.218 231.654,278.036 234.574 C 274.822 237.524,271.820 240.154,271.091 240.660 C 270.725 240.914,270.161 241.366,269.839 241.666 C 267.871 243.495,254.392 253.001,253.767 253.001 C 253.671 253.001,252.668 253.594,251.537 254.319 C 250.407 255.044,249.414 255.637,249.332 255.637 C 249.250 255.637,248.626 255.989,247.944 256.420 C 243.967 258.934,234.183 263.682,227.233 266.471 C 226.347 266.827,225.359 267.225,225.037 267.357 C 222.231 268.502,212.535 271.742,211.913 271.742 C 211.638 271.742,211.183 271.863,210.904 272.011 C 210.624 272.158,209.605 272.497,208.638 272.763 C 207.672 273.029,206.579 273.369,206.209 273.519 C 205.839 273.669,205.155 273.792,204.689 273.792 C 204.223 273.792,203.760 273.924,203.660 274.085 C 203.561 274.246,203.034 274.378,202.489 274.378 C 201.944 274.378,201.417 274.510,201.318 274.671 C 201.218 274.832,200.644 274.963,200.041 274.963 C 199.439 274.963,198.821 275.078,198.668 275.217 C 198.515 275.357,197.335 275.694,196.047 275.965 C 194.758 276.237,193.300 276.584,192.805 276.736 C 192.310 276.889,191.429 277.013,190.846 277.013 C 190.263 277.013,189.704 277.145,189.605 277.306 C 189.505 277.467,188.913 277.599,188.289 277.599 C 187.665 277.599,186.789 277.738,186.343 277.907 C 185.378 278.274,180.906 278.965,175.110 279.643 C 173.741 279.804,172.160 279.997,171.596 280.072 C 168.151 280.535,159.458 281.145,152.173 281.435 C 136.979 282.041,119.613 280.975,104.432 278.504 C 103.326 278.325,102.297 278.101,102.146 278.007 C 101.994 277.913,101.120 277.712,100.203 277.560 C 99.286 277.408,97.943 277.163,97.218 277.017 C 96.493 276.870,95.242 276.617,94.436 276.454 C 93.631 276.291,92.247 275.941,91.362 275.676 C 90.476 275.411,89.322 275.128,88.797 275.046 C 88.272 274.965,87.770 274.781,87.681 274.638 C 87.593 274.495,87.131 274.378,86.655 274.378 C 86.179 274.378,85.561 274.260,85.282 274.116 C 85.002 273.972,83.587 273.497,82.138 273.060 C 80.688 272.623,79.239 272.156,78.917 272.023 C 78.594 271.890,77.277 271.425,75.988 270.989 C 74.700 270.554,73.520 270.084,73.367 269.945 C 73.214 269.806,72.921 269.693,72.716 269.693 C 72.089 269.693,68.586 268.047,63.543 265.384 C 61.618 264.368,55.420 260.348,54.706 259.653 C 54.493 259.446,53.792 258.885,53.148 258.408 C 41.307 249.635,30.144 233.460,22.842 214.495 C 21.764 211.693,21.083 209.735,21.083 209.432 C 21.083 209.233,20.965 208.841,20.819 208.561 C 20.674 208.282,20.396 207.460,20.202 206.735 C 20.008 206.010,19.683 204.956,19.480 204.392 C 18.757 202.386,18.448 201.268,18.448 200.655 C 18.448 200.314,18.316 199.953,18.155 199.854 C 17.994 199.754,17.862 199.241,17.862 198.714 C 17.862 198.186,17.764 197.656,17.643 197.536 C 17.334 197.226,16.409 193.509,15.797 190.117 C 15.645 189.272,15.394 187.888,15.241 187.042 C 15.087 186.197,14.823 184.649,14.654 183.602 C 14.484 182.555,14.270 181.501,14.177 181.259 C 13.999 180.794,13.629 177.949,13.149 173.353 C 12.240 164.655,11.747 150.343,12.284 148.256 C 13.491 143.569,16.874 140.169,21.512 138.981 C 22.311 138.776,63.853 138.615,149.780 138.484 C 234.088 138.355,277.606 138.189,279.063 137.989 C 281.059 137.715,283.685 137.181,286.823 136.410 C 287.467 136.251,288.424 136.051,288.949 135.964 C 289.473 135.877,289.975 135.689,290.064 135.546 C 290.152 135.403,290.520 135.286,290.881 135.286 C 291.242 135.286,291.663 135.176,291.816 135.041 C 291.969 134.907,292.753 134.558,293.558 134.266 C 295.008 133.741,297.529 132.652,297.795 132.437 C 297.871 132.376,297.805 132.234,297.649 132.122 C 296.911 131.593,293.626 124.892,292.813 122.255 C 292.614 121.611,292.353 120.820,292.232 120.498 C 289.491 113.201,289.285 99.057,291.793 90.337 C 292.071 89.370,292.361 88.250,292.438 87.848 C 292.514 87.445,292.681 86.852,292.807 86.530 C 292.934 86.208,293.203 85.417,293.405 84.773 C 293.606 84.129,293.968 83.141,294.207 82.577 C 294.447 82.013,294.743 81.288,294.866 80.966 C 295.746 78.664,297.297 75.432,297.584 75.305 C 297.705 75.251,297.804 75.018,297.804 74.787 C 297.804 74.555,298.133 73.844,298.536 73.206 C 298.939 72.569,299.268 71.912,299.268 71.748 C 299.268 71.584,299.368 71.449,299.489 71.449 C 299.611 71.449,299.898 71.021,300.128 70.498 C 300.945 68.634,304.898 63.250,305.449 63.250 C 305.742 63.250,306.613 63.599,307.383 64.024 M81.142 96.378 C 81.690 96.561,82.434 97.016,82.796 97.390 L 83.455 98.071 83.455 114.427 C 83.455 132.617,83.567 131.591,81.505 132.375 C 80.699 132.682,47.791 132.765,46.288 132.464 C 45.702 132.347,45.065 131.895,44.567 131.243 L 43.777 130.207 43.691 115.104 C 43.588 97.031,43.548 97.332,46.120 96.409 C 47.381 95.956,79.789 95.928,81.142 96.378 M127.672 96.707 C 129.460 97.604,129.429 97.292,129.429 114.393 C 129.429 130.880,129.430 130.865,128.018 131.918 C 127.253 132.489,126.776 132.504,109.370 132.504 C 91.965 132.504,91.488 132.489,90.723 131.918 C 89.310 130.864,89.312 130.891,89.312 114.205 L 89.312 98.422 90.006 97.615 C 91.324 96.083,91.361 96.080,109.663 96.139 C 125.208 96.189,126.734 96.237,127.672 96.707 M173.117 96.391 C 173.749 96.581,174.588 97.118,174.981 97.585 L 175.695 98.434 175.695 114.253 C 175.695 128.637,175.650 130.147,175.196 130.916 C 174.140 132.704,174.532 132.671,155.208 132.584 L 137.620 132.504 136.746 131.568 L 135.871 130.632 135.871 114.420 C 135.871 96.221,135.720 97.474,138.035 96.466 C 139.271 95.928,171.342 95.860,173.117 96.391 M219.453 96.654 C 221.704 97.712,221.669 97.439,221.667 114.135 C 221.666 130.968,221.602 131.436,219.210 132.346 C 218.087 132.773,184.891 132.763,183.665 132.335 C 181.783 131.679,181.845 132.295,181.845 114.263 L 181.845 97.906 182.539 97.254 C 183.720 96.144,184.462 96.098,201.541 96.072 C 217.773 96.047,218.192 96.061,219.453 96.654 M265.037 96.380 C 265.584 96.562,266.395 97.048,266.837 97.459 L 267.643 98.206 267.643 114.381 L 267.643 130.555 266.753 131.445 C 265.497 132.701,265.788 132.685,246.784 132.590 L 229.586 132.504 228.629 131.546 L 227.672 130.589 227.672 114.351 L 227.672 98.113 228.338 97.446 C 228.705 97.079,229.430 96.624,229.949 96.435 C 231.267 95.955,263.614 95.904,265.037 96.380 M259.663 263.015 C 260.348 263.482,260.908 264.055,260.908 264.289 C 260.908 264.523,261.025 264.714,261.167 264.714 C 261.310 264.714,261.508 265.110,261.607 265.593 C 261.705 266.076,261.869 266.877,261.969 267.374 C 262.141 268.221,261.999 268.717,261.050 270.571 C 258.989 274.598,252.093 273.890,250.645 269.503 C 248.877 264.146,254.934 259.789,259.663 263.015 M253.305 266.159 C 252.879 266.954,252.945 268.533,253.441 269.400 C 253.831 270.082,253.860 269.978,253.870 267.862 C 253.880 265.478,253.800 265.234,253.305 266.159 M258.860 266.125 C 258.859 266.498,258.726 267.050,258.564 267.351 C 258.368 267.718,258.368 267.960,258.564 268.082 C 258.726 268.181,258.873 268.683,258.892 269.197 C 258.914 269.813,258.974 269.932,259.067 269.546 C 259.144 269.224,259.327 268.835,259.472 268.682 C 259.867 268.267,259.792 267.231,259.299 266.285 C 258.888 265.496,258.861 265.487,258.860 266.125 M255.856 270.003 C 255.453 270.982,255.462 271.013,256.152 271.105 C 257.143 271.239,257.250 271.021,256.726 269.938 L 256.270 268.996 255.856 270.003 " stroke="none" fill="#2494ec" fill-rule="evenodd"></path><path id="path3" d="M182.856 12.725 C 182.461 13.120,182.138 13.614,182.139 13.823 C 182.140 14.031,182.457 13.807,182.843 13.324 L 183.546 12.445 201.406 12.445 C 218.557 12.445,219.289 12.467,219.881 13.003 C 220.853 13.882,220.853 45.269,219.882 46.148 C 219.293 46.681,218.505 46.710,202.239 46.792 C 183.184 46.888,183.513 46.908,182.710 45.592 C 182.376 45.043,182.139 44.851,182.139 45.128 C 182.138 45.388,182.485 45.948,182.910 46.373 L 183.682 47.145 201.439 47.145 C 221.186 47.145,220.198 47.246,220.778 45.160 C 221.188 43.682,221.188 15.469,220.778 13.991 C 220.198 11.904,221.191 12.006,201.386 12.006 L 183.575 12.006 182.856 12.725 M91.394 54.581 C 89.906 55.406,89.919 55.254,89.908 72.131 L 89.898 87.893 90.753 88.749 L 91.609 89.605 109.370 89.605 L 127.131 89.605 127.987 88.749 L 128.843 87.893 128.843 72.190 C 128.843 55.153,128.853 55.257,127.241 54.523 C 126.070 53.989,92.363 54.044,91.394 54.581 M137.660 54.581 C 136.173 55.406,136.185 55.257,136.174 72.086 L 136.164 87.803 137.065 88.704 L 137.966 89.605 155.682 89.605 L 173.398 89.605 174.254 88.749 L 175.110 87.893 175.110 72.223 C 175.110 55.600,175.090 55.359,173.673 54.626 C 172.458 53.998,138.788 53.956,137.660 54.581 M183.536 54.629 C 182.725 55.069,181.960 56.142,182.249 56.432 C 182.337 56.519,182.566 56.245,182.759 55.822 C 182.988 55.320,183.475 54.952,184.161 54.761 C 185.588 54.365,217.848 54.363,218.890 54.760 C 220.579 55.402,220.498 54.527,220.498 72.019 L 220.498 88.149 219.546 88.729 C 218.626 89.291,218.035 89.309,201.464 89.300 C 183.115 89.290,183.375 89.311,182.546 87.815 C 182.265 87.309,182.156 87.250,182.148 87.602 C 182.142 87.870,182.543 88.430,183.039 88.847 L 183.940 89.605 201.368 89.605 C 220.508 89.605,220.227 89.630,220.729 87.851 C 220.844 87.446,220.937 80.084,220.937 71.491 L 220.937 55.865 219.923 55.019 L 218.909 54.173 201.622 54.184 C 186.936 54.194,184.214 54.261,183.536 54.629 M126.886 54.793 C 128.607 55.673,128.537 54.951,128.544 71.939 L 128.551 87.510 127.650 88.411 L 126.749 89.312 109.421 89.305 C 90.495 89.298,91.402 89.378,90.517 87.647 C 90.031 86.695,90.060 57.121,90.549 56.048 C 91.257 54.495,91.319 54.489,109.463 54.477 C 121.268 54.469,126.436 54.563,126.886 54.793 M174.004 55.279 L 174.671 55.946 174.671 71.922 L 174.671 87.898 173.849 88.605 L 173.027 89.312 155.694 89.305 C 136.761 89.298,137.669 89.378,136.784 87.647 C 136.321 86.743,136.326 57.564,136.789 56.236 C 137.412 54.449,137.152 54.472,156.141 54.545 L 173.337 54.612 174.004 55.279 M302.503 67.687 C 298.847 73.014,294.661 81.742,293.324 86.823 C 293.239 87.145,292.892 88.434,292.552 89.688 C 288.706 103.874,290.356 118.264,297.254 130.686 C 298.415 132.777,298.385 132.819,294.558 134.413 C 293.041 135.044,292.033 135.564,292.317 135.569 C 292.601 135.574,293.063 135.457,293.342 135.309 C 293.622 135.161,294.612 134.749,295.542 134.393 C 296.472 134.038,297.558 133.492,297.955 133.180 L 298.675 132.613 296.822 129.044 C 295.802 127.082,294.892 125.212,294.800 124.890 C 294.707 124.568,294.224 123.184,293.726 121.816 C 289.379 109.868,290.181 95.200,295.984 80.518 C 296.842 78.345,297.688 76.582,299.631 72.914 C 301.059 70.218,305.200 64.129,305.605 64.129 C 305.669 64.129,306.244 64.458,306.881 64.861 C 307.519 65.264,308.116 65.593,308.207 65.593 C 308.681 65.593,315.282 70.167,317.570 72.080 C 324.112 77.551,330.741 86.471,333.531 93.558 C 333.658 93.880,333.958 94.605,334.197 95.168 C 334.437 95.732,334.796 96.720,334.995 97.365 C 335.194 98.009,335.473 98.765,335.614 99.044 C 335.756 99.324,335.871 99.876,335.871 100.272 C 335.871 100.667,336.003 101.072,336.164 101.171 C 336.325 101.271,336.457 101.631,336.457 101.973 C 336.457 102.314,336.681 103.558,336.956 104.737 L 337.454 106.881 338.991 106.881 C 339.836 106.881,341.160 106.746,341.933 106.581 C 342.706 106.416,345.578 106.179,348.316 106.054 C 357.974 105.612,365.885 106.391,372.621 108.447 C 378.452 110.226,383.448 112.953,386.763 116.162 C 387.515 116.890,384.627 124.517,382.389 127.717 C 382.090 128.145,381.845 128.639,381.845 128.815 C 381.845 128.992,381.741 129.136,381.615 129.136 C 381.489 129.136,381.136 129.564,380.831 130.088 C 375.655 138.972,361.994 148.013,349.341 150.931 C 348.133 151.209,346.740 151.558,346.246 151.707 C 345.751 151.855,344.763 151.990,344.049 152.006 C 343.336 152.022,342.423 152.140,342.020 152.269 L 341.288 152.504 342.020 152.527 C 345.608 152.642,354.977 150.085,360.615 147.452 C 372.879 141.726,383.103 130.745,386.657 119.482 C 387.720 116.113,387.546 115.798,382.904 112.653 C 373.681 106.406,356.904 103.906,340.463 106.329 C 337.820 106.718,337.651 106.635,337.308 104.773 C 334.331 88.596,323.618 73.944,308.477 65.342 C 305.086 63.415,305.562 63.229,302.503 67.687 M45.319 97.487 L 44.363 98.341 44.363 114.348 L 44.363 130.356 45.319 131.210 L 46.276 132.064 63.740 132.064 L 81.204 132.064 82.183 131.317 C 82.722 130.907,83.163 130.352,83.163 130.084 C 83.163 129.752,82.893 129.920,82.316 130.611 L 81.470 131.625 64.674 131.711 C 46.716 131.803,46.280 131.783,45.387 130.824 C 44.818 130.213,44.802 129.782,44.802 114.216 L 44.802 98.236 45.577 97.654 C 46.325 97.092,46.968 97.066,63.806 96.922 L 81.259 96.772 63.767 96.702 L 46.276 96.633 45.319 97.487 M100.680 96.852 C 105.563 96.897,113.470 96.897,118.249 96.852 C 123.029 96.807,119.034 96.770,109.370 96.770 C 99.707 96.770,95.796 96.807,100.680 96.852 M137.620 97.132 C 137.222 97.406,136.736 97.834,136.539 98.083 C 136.031 98.728,136.007 129.349,136.514 130.462 C 137.254 132.086,137.000 132.065,155.842 132.063 L 173.206 132.062 174.085 131.359 L 174.963 130.656 174.963 114.407 C 174.963 97.068,174.952 96.925,173.549 96.925 C 173.385 96.925,173.570 97.265,173.961 97.681 L 174.671 98.437 174.671 114.364 L 174.671 130.291 174.004 130.958 L 173.337 131.625 156.434 131.714 C 138.108 131.810,137.656 131.777,136.898 130.311 C 136.259 129.076,136.235 99.668,136.871 98.438 C 137.665 96.903,137.406 96.924,155.930 96.847 L 173.206 96.774 155.775 96.703 C 139.761 96.638,138.285 96.673,137.620 97.132 M183.039 97.391 C 182.543 97.808,182.142 98.368,182.147 98.635 C 182.154 99.031,182.215 99.013,182.478 98.536 C 183.398 96.863,182.496 96.939,201.464 96.932 L 218.887 96.926 219.693 97.619 L 220.498 98.311 220.498 114.330 C 220.498 131.701,220.579 130.836,218.890 131.478 C 217.829 131.881,185.161 131.876,184.002 131.472 C 183.530 131.308,182.912 130.814,182.629 130.374 C 182.231 129.757,182.133 129.706,182.201 130.151 C 182.249 130.467,182.735 131.027,183.281 131.395 L 184.274 132.064 201.592 132.064 L 218.909 132.064 219.923 131.218 L 220.937 130.372 220.937 114.357 L 220.937 98.342 219.981 97.487 L 219.024 96.633 201.482 96.633 L 183.940 96.633 183.039 97.391 M229.524 97.134 C 229.094 97.401,228.600 97.931,228.426 98.311 C 227.959 99.338,227.991 129.431,228.461 130.462 C 229.201 132.086,228.944 132.064,247.832 132.064 L 265.238 132.064 266.148 131.215 L 267.057 130.365 267.057 114.417 C 267.057 97.351,267.020 96.925,265.546 96.925 C 265.382 96.925,265.589 97.331,266.006 97.826 L 266.764 98.727 266.764 114.244 C 266.764 130.709,266.776 130.569,265.306 131.329 C 264.219 131.891,231.785 132.001,230.199 131.448 C 228.683 130.920,228.697 131.079,228.697 114.207 L 228.697 98.361 229.469 97.646 L 230.242 96.930 247.698 96.852 L 265.154 96.774 247.731 96.711 C 231.943 96.654,230.234 96.694,229.524 97.134 M81.807 97.438 C 82.084 97.720,82.498 98.214,82.727 98.536 C 82.956 98.858,83.148 98.975,83.153 98.795 C 83.166 98.335,82.015 96.925,81.626 96.925 C 81.448 96.925,81.530 97.156,81.807 97.438 M90.646 97.668 L 89.898 98.475 89.898 114.085 C 89.898 130.841,89.900 130.869,91.404 131.647 C 92.645 132.289,126.141 132.266,127.385 131.622 C 128.857 130.861,128.843 131.021,128.843 114.208 L 128.843 98.363 128.094 97.613 C 127.100 96.619,126.843 96.925,127.802 97.960 L 128.551 98.768 128.551 114.079 C 128.551 130.326,128.529 130.586,127.114 131.318 C 125.850 131.972,92.955 132.005,91.697 131.354 C 90.196 130.578,90.190 130.511,90.190 114.320 C 90.190 98.617,90.246 97.853,91.429 97.431 C 91.633 97.358,91.709 97.200,91.597 97.079 C 91.486 96.959,91.057 97.223,90.646 97.668 M290.483 135.871 C 290.126 136.102,290.164 136.156,290.686 136.159 C 291.038 136.162,291.409 136.032,291.508 135.871 C 291.738 135.498,291.060 135.498,290.483 135.871 M288.647 136.341 C 288.549 136.439,287.440 136.756,286.182 137.047 C 284.857 137.353,284.255 137.586,284.752 137.602 C 285.224 137.616,286.015 137.500,286.509 137.344 C 289.509 136.396,289.984 136.208,289.434 136.187 C 289.098 136.174,288.744 136.244,288.647 136.341 M281.991 137.921 L 280.966 138.137 281.991 138.171 C 282.555 138.189,283.214 138.077,283.455 137.921 C 283.988 137.577,283.626 137.577,281.991 137.921 M278.331 138.507 C 277.491 138.720,277.504 138.731,278.624 138.744 C 279.268 138.752,280.059 138.645,280.381 138.507 C 281.152 138.175,279.633 138.175,278.331 138.507 M274.256 139.019 C 274.135 139.140,217.086 139.305,147.480 139.385 L 20.925 139.531 18.973 140.492 C 16.693 141.615,14.770 143.593,13.556 146.064 L 12.738 147.731 12.770 155.930 C 12.812 166.472,13.332 172.624,15.098 183.455 C 16.164 189.995,18.085 198.581,18.132 197.012 C 18.145 196.577,18.036 195.918,17.890 195.548 C 17.745 195.178,17.484 194.151,17.310 193.265 C 17.137 192.379,16.802 190.732,16.566 189.605 C 15.879 186.317,14.901 179.944,14.209 174.231 C 13.363 167.257,12.744 151.876,13.197 149.067 C 13.902 144.691,16.314 141.846,20.878 140.008 C 21.480 139.765,54.808 139.671,146.939 139.653 C 247.457 139.633,272.702 139.553,274.817 139.250 C 277.111 138.922,277.260 138.868,275.964 138.836 C 275.145 138.816,274.377 138.898,274.256 139.019 M329.548 153.073 C 329.347 153.273,328.631 154.854,327.957 156.586 C 326.789 159.588,324.929 164.007,323.365 167.496 C 322.968 168.382,322.441 169.568,322.195 170.132 C 320.040 175.051,316.285 182.480,313.463 187.408 C 312.863 188.455,312.037 189.905,311.628 190.630 C 309.994 193.518,306.492 199.265,305.544 200.614 C 304.991 201.400,304.539 202.166,304.539 202.315 C 304.539 202.464,304.436 202.631,304.310 202.684 C 304.184 202.738,303.550 203.572,302.901 204.539 C 300.514 208.094,299.734 209.227,299.576 209.370 C 299.487 209.451,298.628 210.557,297.667 211.829 C 296.705 213.101,295.780 214.287,295.611 214.465 C 295.441 214.642,294.778 215.447,294.137 216.252 C 293.497 217.057,292.899 217.782,292.810 217.862 C 292.721 217.943,291.403 219.452,289.882 221.217 C 285.539 226.253,277.258 234.408,272.767 238.070 C 270.512 239.909,268.602 241.488,268.521 241.580 C 267.616 242.607,252.266 253.294,251.696 253.294 C 251.593 253.294,250.788 253.755,249.907 254.319 C 249.026 254.883,248.254 255.344,248.192 255.344 C 248.130 255.344,247.243 255.820,246.221 256.402 C 244.114 257.601,235.287 262.079,235.030 262.079 C 234.937 262.079,234.034 262.458,233.023 262.920 C 232.013 263.383,229.143 264.582,226.647 265.586 C 224.151 266.589,221.845 267.517,221.523 267.649 C 219.551 268.455,216.753 269.400,216.336 269.400 C 216.067 269.400,215.775 269.516,215.688 269.658 C 215.600 269.799,215.230 269.983,214.865 270.066 C 214.500 270.148,213.082 270.572,211.713 271.006 C 210.344 271.441,208.829 271.905,208.346 272.037 C 206.653 272.500,203.943 273.233,202.825 273.530 C 202.205 273.696,201.758 273.891,201.832 273.965 C 201.906 274.039,202.677 273.907,203.545 273.673 C 204.414 273.438,206.134 272.975,207.368 272.644 C 209.897 271.964,219.162 268.967,220.059 268.538 C 220.381 268.384,221.237 268.065,221.962 267.830 C 223.302 267.396,227.767 265.602,232.796 263.478 C 236.882 261.752,244.245 258.036,248.680 255.460 C 278.400 238.199,300.994 213.433,318.110 179.356 C 320.926 173.750,323.865 167.608,323.865 167.331 C 323.865 167.270,324.202 166.507,324.615 165.637 C 325.027 164.767,326.320 161.709,327.488 158.841 C 330.007 152.660,329.191 153.237,335.871 152.913 L 341.288 152.650 335.601 152.679 C 331.494 152.701,329.812 152.810,329.548 153.073 M18.155 198.182 C 18.155 198.329,18.272 198.831,18.414 199.297 C 18.556 199.764,18.818 200.673,18.996 201.318 C 19.797 204.215,21.152 208.229,21.284 208.096 C 21.364 208.016,21.172 207.183,20.857 206.244 C 20.541 205.306,20.115 203.946,19.909 203.221 C 19.703 202.496,19.356 201.339,19.138 200.649 C 18.920 199.959,18.741 199.143,18.741 198.836 C 18.741 198.529,18.609 198.196,18.448 198.097 C 18.287 197.997,18.155 198.036,18.155 198.182 M21.400 208.600 C 21.346 209.178,22.702 212.652,22.795 212.173 C 22.850 211.886,22.751 211.507,22.575 211.331 C 22.399 211.154,22.249 210.806,22.242 210.556 C 22.227 210.043,21.437 208.207,21.400 208.600 M22.932 213.245 C 31.323 237.111,46.955 256.286,65.886 265.930 C 69.428 267.734,70.669 268.303,74.085 269.686 C 74.971 270.045,75.959 270.447,76.281 270.580 C 78.071 271.319,80.331 272.036,80.461 271.906 C 80.543 271.824,80.361 271.676,80.057 271.578 C 77.781 270.847,72.021 268.497,68.881 267.019 C 56.798 261.332,46.960 253.193,38.311 241.728 C 37.582 240.761,36.933 239.839,36.867 239.678 C 36.802 239.517,35.861 238.051,34.776 236.421 C 32.192 232.542,27.643 223.962,25.749 219.400 C 25.406 218.572,25.149 217.932,24.134 215.373 C 23.421 213.576,22.435 211.829,22.932 213.245 M254.365 262.788 C 248.863 264.805,250.409 272.952,256.284 272.903 C 257.487 272.893,259.625 272.069,258.509 272.046 C 258.237 272.040,257.933 272.167,257.833 272.328 C 257.518 272.838,255.161 272.650,253.981 272.020 C 251.089 270.476,250.409 266.255,252.737 264.297 C 253.973 263.256,254.466 263.346,253.353 264.409 C 250.435 267.198,252.192 271.742,256.188 271.742 C 259.941 271.742,261.606 267.726,259.131 264.645 C 257.972 263.204,258.737 263.141,259.995 264.573 C 260.914 265.620,261.103 266.105,261.303 267.936 C 261.365 268.499,261.393 268.216,261.365 267.305 C 261.257 263.825,257.734 261.552,254.365 262.788 M257.174 263.169 C 256.651 263.234,255.794 263.234,255.271 263.169 C 254.747 263.104,255.176 263.051,256.223 263.051 C 257.269 263.051,257.698 263.104,257.174 263.169 M258.198 264.295 C 259.771 265.326,260.496 267.815,259.653 269.290 C 258.332 271.603,255.665 272.149,253.755 270.497 C 250.240 267.459,254.325 261.758,258.198 264.295 M254.368 265.203 C 253.763 265.808,254.174 270.278,254.832 270.244 C 255.346 270.218,255.376 270.180,254.966 270.074 C 254.513 269.956,254.453 269.654,254.526 267.862 C 254.618 265.631,255.344 264.539,255.344 266.632 C 255.344 267.714,255.349 267.719,256.382 267.551 C 257.476 267.373,257.508 267.406,258.107 269.327 C 258.434 270.378,257.769 270.100,257.228 268.960 C 256.638 267.718,255.319 267.457,255.378 268.594 C 255.404 269.090,255.445 269.126,255.546 268.741 C 255.761 267.917,256.368 268.148,256.896 269.253 C 257.531 270.585,258.761 270.762,258.421 269.473 C 258.305 269.030,258.190 268.009,258.166 267.204 C 258.142 266.398,258.016 265.575,257.887 265.373 C 257.642 264.991,254.721 264.849,254.368 265.203 M257.881 266.052 C 258.184 266.841,257.564 267.077,257.202 266.310 C 256.926 265.725,256.941 265.593,257.284 265.593 C 257.516 265.593,257.784 265.799,257.881 266.052 M256.710 266.891 C 256.613 267.143,256.394 267.350,256.223 267.350 C 255.719 267.350,255.515 266.435,255.958 266.161 C 256.477 265.840,256.941 266.290,256.710 266.891 M260.291 270.416 C 259.906 270.982,259.491 271.446,259.370 271.447 C 259.250 271.449,259.151 271.597,259.151 271.778 C 259.151 272.001,259.297 271.986,259.604 271.731 C 260.246 271.198,261.291 269.685,261.128 269.523 C 261.053 269.448,260.677 269.850,260.291 270.416 M82.723 272.782 C 84.846 273.507,86.437 273.762,84.627 273.087 C 82.809 272.410,81.521 272.035,81.092 272.058 C 80.862 272.071,81.596 272.397,82.723 272.782 M86.091 273.792 C 86.332 273.948,86.728 274.076,86.969 274.076 C 87.360 274.076,87.360 274.044,86.969 273.792 C 86.728 273.636,86.332 273.508,86.091 273.508 C 85.700 273.508,85.700 273.540,86.091 273.792 M88.141 274.378 C 89.269 274.739,89.871 274.739,89.312 274.378 C 89.070 274.222,88.543 274.105,88.141 274.119 L 87.408 274.143 88.141 274.378 M199.414 274.378 C 198.859 274.736,199.759 274.736,200.878 274.378 C 201.596 274.148,201.593 274.143,200.732 274.119 C 200.249 274.105,199.656 274.222,199.414 274.378 M89.922 274.776 C 90.041 274.880,94.143 275.909,96.486 276.424 C 99.403 277.065,101.345 277.376,101.495 277.227 C 101.584 277.137,100.889 276.917,99.950 276.736 C 99.011 276.556,97.716 276.287,97.072 276.139 C 96.428 275.992,95.176 275.717,94.290 275.530 C 93.404 275.343,92.377 275.073,92.007 274.930 C 91.363 274.682,89.668 274.557,89.922 274.776 M196.977 274.863 C 196.871 274.969,196.223 275.151,195.537 275.268 C 190.860 276.067,185.585 277.306,186.864 277.306 C 188.497 277.306,199.488 274.753,198.072 274.703 C 197.576 274.685,197.083 274.757,196.977 274.863 M101.903 277.382 C 102.301 277.793,114.656 279.529,122.401 280.262 C 131.926 281.164,158.700 280.892,169.400 279.785 C 175.832 279.119,185.963 277.675,186.237 277.386 C 186.388 277.226,184.974 277.364,181.406 277.858 C 157.543 281.161,131.592 281.434,111.713 278.591 C 103.250 277.380,101.719 277.192,101.903 277.382 " stroke="none" fill="#add8f9" fill-rule="evenodd"></path><path id="path4" d="M183.455 11.625 C 182.566 12.105,181.871 12.824,181.854 13.281 C 181.849 13.419,182.227 13.123,182.694 12.622 L 183.544 11.713 201.396 11.713 L 219.248 11.713 220.092 12.364 C 220.751 12.872,220.840 12.894,220.498 12.465 C 219.447 11.150,219.115 11.127,201.254 11.139 C 186.232 11.150,184.235 11.204,183.455 11.625 M221.376 29.722 C 221.296 38.097,221.129 45.212,221.006 45.534 C 220.883 45.857,220.983 45.690,221.228 45.164 C 221.613 44.340,221.664 42.157,221.599 29.351 L 221.523 14.495 221.376 29.722 M181.854 45.703 C 181.844 46.194,183.015 47.442,183.474 47.431 C 183.625 47.428,183.469 47.197,183.127 46.919 C 182.786 46.641,182.362 46.149,182.185 45.827 C 181.941 45.385,181.860 45.354,181.854 45.703 M192.606 47.657 C 197.478 47.702,205.450 47.702,210.322 47.657 C 215.194 47.612,211.208 47.575,201.464 47.575 C 191.720 47.575,187.734 47.612,192.606 47.657 M90.358 54.866 L 89.312 55.852 89.312 71.718 C 89.312 88.891,89.291 88.655,90.897 89.708 C 91.561 90.143,93.397 90.190,109.497 90.190 L 127.360 90.190 128.394 89.156 L 129.429 88.121 129.429 72.043 C 129.429 63.200,129.330 55.903,129.209 55.828 C 129.089 55.754,129.026 62.922,129.070 71.757 L 129.151 87.822 128.289 88.787 L 127.427 89.751 109.401 89.751 L 91.375 89.751 90.563 88.939 L 89.751 88.128 89.678 72.248 C 89.598 54.856,89.548 55.387,91.357 54.424 C 91.918 54.125,92.158 53.880,91.890 53.880 C 91.623 53.880,90.933 54.324,90.358 54.866 M127.080 54.207 C 127.480 54.366,128.040 54.708,128.325 54.966 C 128.610 55.224,128.843 55.337,128.843 55.217 C 128.843 54.805,127.526 53.899,126.940 53.908 C 126.444 53.916,126.466 53.961,127.080 54.207 M136.802 54.711 C 136.290 55.169,135.875 55.729,135.879 55.956 C 135.883 56.183,136.110 56.009,136.383 55.569 C 136.656 55.129,137.278 54.572,137.766 54.331 C 138.254 54.090,138.446 53.890,138.193 53.887 C 137.940 53.883,137.315 54.254,136.802 54.711 M173.513 54.292 C 175.470 55.144,175.403 54.512,175.403 72.020 L 175.403 87.838 174.548 88.795 L 173.694 89.751 156.137 89.831 C 137.283 89.917,137.408 89.926,136.458 88.367 C 136.136 87.840,135.873 87.613,135.872 87.863 C 135.872 88.114,136.306 88.740,136.837 89.254 L 137.802 90.190 155.662 90.190 L 173.521 90.190 174.535 89.344 L 175.549 88.498 175.629 72.232 L 175.710 55.966 174.794 54.923 C 174.264 54.320,173.613 53.885,173.249 53.891 C 172.731 53.901,172.778 53.971,173.513 54.292 M182.617 54.652 C 182.192 55.077,181.845 55.567,181.845 55.742 C 181.845 55.917,182.059 55.754,182.322 55.379 C 182.584 55.005,183.210 54.520,183.713 54.301 C 184.442 53.983,184.501 53.901,184.008 53.891 C 183.667 53.885,183.041 54.227,182.617 54.652 M219.327 54.393 C 221.363 55.410,221.338 55.207,221.433 71.889 L 221.517 86.823 221.606 72.182 C 221.667 62.280,221.593 57.185,221.378 56.443 C 221.013 55.181,219.750 53.880,218.890 53.880 C 218.467 53.881,218.589 54.024,219.327 54.393 M303.353 65.496 C 302.499 66.731,301.956 67.645,302.146 67.527 C 302.336 67.410,303.029 66.523,303.685 65.557 C 304.341 64.590,305.053 63.733,305.268 63.650 C 306.315 63.248,315.482 69.148,318.960 72.463 C 319.403 72.885,319.766 73.105,319.766 72.953 C 319.766 72.800,319.223 72.235,318.560 71.696 C 317.897 71.158,317.205 70.581,317.023 70.414 C 316.840 70.247,316.164 69.721,315.520 69.244 C 314.876 68.768,314.283 68.300,314.202 68.205 C 313.982 67.945,310.703 65.886,310.508 65.886 C 310.415 65.886,309.990 65.641,309.562 65.342 C 305.824 62.727,305.257 62.741,303.353 65.496 M301.013 68.831 C 300.662 69.323,300.439 69.790,300.517 69.868 C 300.596 69.946,300.935 69.544,301.272 68.973 C 302.023 67.699,301.876 67.618,301.013 68.831 M298.406 73.390 C 298.062 73.974,297.828 74.499,297.886 74.558 C 297.945 74.616,298.288 74.138,298.649 73.496 C 299.469 72.037,299.259 71.945,298.406 73.390 M320.059 73.434 C 320.059 73.559,321.006 74.580,322.165 75.703 C 323.323 76.826,324.080 77.487,323.848 77.172 C 323.173 76.256,320.059 73.184,320.059 73.434 M296.375 77.541 C 296.001 78.298,295.576 79.145,295.432 79.425 C 295.287 79.705,295.172 80.100,295.175 80.303 C 295.179 80.507,295.644 79.700,296.209 78.510 C 296.773 77.320,297.194 76.306,297.144 76.256 C 297.095 76.207,296.748 76.785,296.375 77.541 M325.303 78.917 C 327.053 81.143,330.225 85.655,330.726 86.630 C 331.003 87.169,331.292 87.547,331.368 87.470 C 331.723 87.115,327.870 81.489,325.610 79.063 C 324.457 77.825,324.438 77.816,325.303 78.917 M294.107 82.755 C 293.999 83.059,293.732 83.753,293.515 84.296 C 293.297 84.839,293.125 85.498,293.134 85.761 C 293.142 86.023,293.465 85.385,293.852 84.344 C 294.238 83.303,294.498 82.395,294.429 82.326 C 294.360 82.257,294.215 82.450,294.107 82.755 M292.746 86.561 C 292.629 86.678,292.541 87.114,292.552 87.531 L 292.570 88.287 292.853 87.580 C 293.157 86.818,293.094 86.213,292.746 86.561 M333.040 91.069 C 334.875 94.944,335.888 97.823,337.161 102.782 C 337.389 103.668,337.587 104.172,337.602 103.904 C 337.691 102.252,335.296 94.893,333.472 91.215 C 331.435 87.110,331.114 87.001,333.040 91.069 M181.851 88.345 C 181.848 88.538,182.285 89.033,182.824 89.443 L 183.803 90.190 201.492 90.189 L 219.180 90.187 220.059 89.448 L 220.937 88.708 219.912 89.302 C 218.914 89.880,218.433 89.895,201.518 89.896 C 183.404 89.898,183.399 89.897,182.364 88.619 C 182.085 88.275,181.855 88.152,181.851 88.345 M292.147 88.838 C 292.037 89.125,291.956 89.580,291.966 89.848 C 291.978 90.172,292.080 90.098,292.267 89.630 C 292.422 89.241,292.504 88.786,292.449 88.620 C 292.393 88.453,292.258 88.551,292.147 88.838 M291.434 91.719 C 290.606 95.157,290.485 95.866,290.512 97.149 C 290.535 98.279,290.614 98.047,290.941 95.900 C 291.162 94.451,291.497 92.701,291.686 92.012 C 291.874 91.323,291.962 90.693,291.882 90.613 C 291.801 90.532,291.600 91.030,291.434 91.719 M46.497 96.287 C 46.221 96.397,53.957 96.486,63.689 96.486 C 73.421 96.486,81.158 96.397,80.882 96.287 C 80.606 96.178,72.870 96.088,63.690 96.088 C 54.510 96.088,46.773 96.178,46.497 96.287 M92.178 96.287 C 91.902 96.397,99.639 96.486,109.370 96.486 C 119.102 96.486,126.839 96.397,126.563 96.287 C 125.908 96.027,92.833 96.027,92.178 96.287 M138.444 96.287 C 138.168 96.397,145.905 96.486,155.637 96.486 C 165.369 96.486,173.105 96.397,172.829 96.287 C 172.174 96.027,139.099 96.027,138.444 96.287 M184.243 96.296 C 183.871 96.400,191.534 96.486,201.272 96.486 C 211.010 96.486,218.825 96.389,218.640 96.271 C 218.224 96.007,185.186 96.030,184.243 96.296 M230.391 96.287 C 230.115 96.397,237.852 96.486,247.584 96.486 C 257.316 96.486,265.052 96.397,264.777 96.287 C 264.501 96.178,256.764 96.088,247.584 96.088 C 238.404 96.088,230.667 96.178,230.391 96.287 M44.586 97.443 C 43.607 98.639,43.598 98.821,43.691 115.104 L 43.777 130.207 44.598 131.282 C 45.049 131.873,45.642 132.354,45.915 132.349 C 46.276 132.344,46.199 132.209,45.638 131.861 C 43.921 130.795,43.924 130.825,43.924 114.319 C 43.924 98.653,43.922 98.675,45.183 97.291 C 45.513 96.929,45.661 96.635,45.512 96.638 C 45.363 96.641,44.947 97.004,44.586 97.443 M90.070 97.533 L 89.312 98.434 89.312 114.244 C 89.312 125.573,89.407 130.231,89.648 130.681 C 90.083 131.494,91.096 132.335,91.654 132.346 C 91.896 132.351,91.662 132.092,91.135 131.770 C 89.583 130.824,89.584 130.838,89.671 113.843 L 89.751 98.041 90.630 97.338 C 91.113 96.952,91.355 96.635,91.168 96.634 C 90.981 96.633,90.487 97.038,90.070 97.533 M127.960 97.205 C 128.361 97.512,128.746 97.706,128.818 97.634 C 128.983 97.469,127.913 96.652,127.526 96.648 C 127.365 96.647,127.560 96.897,127.960 97.205 M136.643 97.404 C 136.219 97.829,135.871 98.312,135.871 98.478 C 135.871 98.644,135.904 98.724,135.944 98.656 C 135.985 98.589,136.405 98.105,136.878 97.583 C 137.908 96.444,137.735 96.312,136.643 97.404 M174.644 97.539 L 175.403 98.591 175.403 114.387 L 175.403 130.183 174.556 131.197 L 173.710 132.211 156.071 132.291 C 138.605 132.370,138.421 132.365,137.371 131.755 L 136.310 131.140 136.977 131.822 L 137.644 132.504 155.220 132.584 C 174.531 132.671,174.140 132.704,175.196 130.916 C 175.650 130.147,175.695 128.636,175.695 114.235 L 175.695 98.399 174.791 97.442 L 173.886 96.486 174.644 97.539 M182.432 97.363 C 182.054 97.765,181.800 98.143,181.868 98.203 C 181.936 98.263,182.298 97.934,182.672 97.472 C 183.511 96.439,183.363 96.372,182.432 97.363 M220.088 97.253 C 221.193 98.506,221.228 98.963,221.381 114.202 L 221.533 129.283 221.601 114.428 C 221.675 98.385,221.631 97.871,220.127 96.954 L 219.473 96.556 220.088 97.253 M228.382 97.388 L 227.672 98.144 227.672 114.366 L 227.672 130.589 228.629 131.546 L 229.586 132.504 246.784 132.590 C 265.788 132.685,265.497 132.701,266.753 131.445 L 267.643 130.555 267.643 114.381 L 267.643 98.206 266.707 97.346 L 265.772 96.486 266.561 97.460 L 267.350 98.434 267.350 114.366 L 267.350 130.298 266.496 131.255 L 265.641 132.211 248.046 132.291 C 232.671 132.361,230.341 132.314,229.579 131.920 C 227.792 130.996,227.818 131.261,227.818 114.344 C 227.818 98.286,227.826 98.181,229.097 97.151 C 229.441 96.873,229.580 96.643,229.407 96.639 C 229.234 96.635,228.772 96.973,228.382 97.388 M129.070 113.899 C 129.120 123.683,129.042 129.931,128.864 130.400 C 128.160 132.251,128.709 132.195,109.530 132.365 L 92.094 132.520 109.663 132.512 C 129.077 132.503,128.221 132.584,129.116 130.660 C 129.478 129.881,129.569 98.510,129.209 98.288 C 129.089 98.213,129.026 105.238,129.070 113.899 M290.081 99.890 C 289.847 101.060,289.906 109.382,290.156 110.542 C 290.261 111.025,290.344 108.620,290.341 105.198 C 290.339 101.775,290.320 98.975,290.300 98.975 C 290.280 98.975,290.181 99.387,290.081 99.890 M351.684 104.747 C 346.867 105.007,341.351 105.498,340.652 105.730 C 339.953 105.960,340.030 105.983,341.142 105.873 C 352.306 104.771,360.013 104.944,367.789 106.471 C 368.353 106.582,368.724 106.574,368.613 106.454 C 367.980 105.765,355.722 104.529,351.684 104.747 M337.637 105.485 C 337.628 106.017,338.774 106.471,339.446 106.201 C 339.654 106.118,339.468 106.039,339.034 106.026 C 338.599 106.013,338.109 105.772,337.944 105.490 C 337.663 105.008,337.645 105.008,337.637 105.485 M370.849 107.183 C 371.968 107.481,373.458 107.944,374.161 108.212 C 374.863 108.481,375.499 108.639,375.574 108.565 C 375.695 108.443,374.340 107.927,371.282 106.930 C 370.707 106.742,369.917 106.600,369.525 106.615 C 369.134 106.630,369.730 106.885,370.849 107.183 M377.477 109.336 C 377.775 109.609,381.259 111.267,381.259 111.136 C 381.259 110.972,377.876 109.224,377.558 109.224 C 377.446 109.224,377.410 109.274,377.477 109.336 M381.713 111.520 C 382.173 111.926,384.187 113.088,384.187 112.947 C 384.187 112.771,381.914 111.274,381.646 111.274 C 381.530 111.274,381.560 111.384,381.713 111.520 M290.488 112.909 C 290.490 113.701,290.623 114.546,290.782 114.788 C 290.981 115.088,291.013 114.673,290.884 113.470 C 290.647 111.268,290.482 111.034,290.488 112.909 M384.480 113.402 C 384.480 113.466,385.007 113.942,385.652 114.460 C 386.296 114.977,386.820 115.296,386.817 115.168 C 386.810 114.937,384.480 113.176,384.480 113.402 M291.111 116.105 C 291.112 116.589,291.291 117.445,291.508 118.009 C 292.026 119.355,292.030 118.548,291.515 116.691 C 291.195 115.539,291.109 115.414,291.111 116.105 M387.380 115.903 C 387.578 116.275,387.666 117.000,387.575 117.514 C 387.448 118.231,387.473 118.312,387.681 117.862 C 388.107 116.945,388.038 116.067,387.507 115.629 C 387.064 115.263,387.053 115.288,387.380 115.903 M386.969 119.180 C 386.859 119.526,386.835 119.876,386.916 119.956 C 386.996 120.037,387.152 119.819,387.262 119.473 C 387.372 119.127,387.396 118.777,387.316 118.697 C 387.235 118.616,387.079 118.834,386.969 119.180 M291.968 119.675 C 291.957 120.028,292.079 120.398,292.240 120.498 C 292.586 120.712,292.586 120.425,292.240 119.619 C 291.997 119.055,291.988 119.057,291.968 119.675 M292.547 121.289 C 292.533 121.795,292.743 122.384,293.777 124.735 C 294.094 125.454,294.474 126.362,294.622 126.752 C 294.771 127.142,294.964 127.389,295.052 127.301 C 295.140 127.213,294.983 126.700,294.704 126.162 C 294.425 125.624,293.829 124.195,293.379 122.987 C 292.929 121.779,292.555 121.015,292.547 121.289 M385.153 123.914 C 384.638 125.015,384.274 125.915,384.344 125.915 C 384.556 125.915,386.277 122.370,386.180 122.133 C 386.131 122.012,385.669 122.814,385.153 123.914 M382.587 128.507 C 376.694 137.583,368.041 144.815,358.349 148.762 C 357.425 149.138,356.732 149.509,356.808 149.585 C 357.108 149.885,363.515 146.862,365.492 145.489 C 365.919 145.192,366.402 144.949,366.565 144.949 C 366.728 144.949,366.906 144.850,366.959 144.729 C 367.013 144.608,368.043 143.851,369.249 143.045 C 371.159 141.770,378.095 135.226,379.597 133.284 C 380.822 131.699,383.110 128.401,383.642 127.453 C 384.673 125.619,384.074 126.217,382.587 128.507 M295.754 128.905 C 295.754 129.263,296.995 131.214,297.134 131.075 C 297.209 131.000,296.929 130.437,296.512 129.823 C 296.095 129.209,295.754 128.796,295.754 128.905 M220.927 130.099 C 220.825 130.505,220.412 131.147,220.010 131.524 L 219.279 132.211 201.417 132.211 L 183.554 132.211 182.699 131.255 C 181.761 130.204,181.590 130.233,182.303 131.321 C 182.556 131.706,183.168 132.162,183.665 132.335 C 184.891 132.763,218.087 132.773,219.210 132.346 C 220.427 131.883,221.780 130.028,221.271 129.519 C 221.183 129.431,221.029 129.692,220.927 130.099 M82.529 131.308 L 81.748 132.211 64.081 132.363 L 46.413 132.515 63.645 132.582 C 82.184 132.655,82.177 132.656,83.112 131.158 C 83.697 130.222,83.401 130.298,82.529 131.308 M294.290 133.971 C 293.404 134.348,292.422 134.726,292.106 134.813 C 291.791 134.899,291.606 135.042,291.694 135.130 C 291.841 135.276,295.970 133.703,296.297 133.376 C 296.583 133.090,295.856 133.306,294.290 133.971 M287.848 136.177 C 287.527 136.394,287.645 136.422,288.287 136.278 C 289.364 136.037,289.597 135.870,288.848 135.876 C 288.540 135.878,288.089 136.014,287.848 136.177 M284.187 137.042 C 283.377 137.249,283.366 137.268,284.041 137.296 C 284.444 137.313,284.971 137.199,285.212 137.042 C 285.711 136.720,285.453 136.720,284.187 137.042 M281.406 137.628 C 280.823 138.004,281.555 138.004,282.430 137.628 L 283.016 137.376 282.430 137.360 C 282.108 137.351,281.647 137.472,281.406 137.628 M277.013 138.214 C 276.473 138.563,277.251 138.563,278.624 138.214 L 279.502 137.990 278.477 137.960 C 277.914 137.943,277.255 138.058,277.013 138.214 M22.548 138.799 C 22.033 139.132,270.112 139.142,273.353 138.809 C 274.480 138.693,218.609 138.580,149.195 138.557 C 68.139 138.530,22.830 138.617,22.548 138.799 M19.357 139.705 C 18.649 140.019,18.134 140.339,18.211 140.417 C 18.289 140.495,18.793 140.339,19.332 140.071 C 19.870 139.802,20.715 139.486,21.209 139.367 C 21.994 139.180,22.015 139.151,21.376 139.143 C 20.974 139.138,20.065 139.391,19.357 139.705 M15.989 141.860 C 14.745 143.086,13.177 145.252,13.177 145.744 C 13.177 145.866,13.628 145.296,14.180 144.477 C 14.732 143.658,15.804 142.441,16.564 141.772 C 17.323 141.103,17.802 140.556,17.628 140.556 C 17.454 140.556,16.716 141.143,15.989 141.860 M12.190 148.536 C 11.964 149.379,12.020 159.093,12.266 161.786 C 12.369 162.914,12.452 160.245,12.449 155.857 C 12.447 151.469,12.428 147.878,12.406 147.878 C 12.385 147.877,12.288 148.173,12.190 148.536 M354.173 150.226 C 353.367 150.519,352.050 150.965,351.245 151.216 C 350.135 151.563,350.029 151.638,350.805 151.527 C 352.114 151.340,355.843 150.204,356.208 149.880 C 356.646 149.492,355.786 149.638,354.173 150.226 M347.731 151.977 C 347.197 152.206,347.210 152.228,347.877 152.228 C 348.280 152.228,348.873 152.115,349.195 151.977 C 349.729 151.747,349.716 151.725,349.048 151.725 C 348.646 151.725,348.053 151.838,347.731 151.977 M343.631 152.578 C 342.035 152.902,334.747 153.452,332.127 153.446 L 329.994 153.441 329.411 154.800 C 329.091 155.547,328.887 156.217,328.958 156.288 C 329.029 156.359,329.354 155.814,329.681 155.076 L 330.275 153.734 333.845 153.734 C 337.371 153.734,340.666 153.426,344.949 152.696 C 346.453 152.440,346.776 152.325,345.974 152.331 C 345.329 152.336,344.275 152.447,343.631 152.578 M326.117 162.720 C 325.040 165.240,324.205 167.348,324.262 167.405 C 324.355 167.498,324.715 166.737,326.506 162.665 C 327.894 159.508,328.326 158.390,328.206 158.270 C 328.134 158.197,327.194 160.200,326.117 162.720 M12.621 167.960 C 12.637 169.074,12.760 170.315,12.895 170.717 C 13.041 171.153,13.073 170.382,12.973 168.814 C 12.772 165.632,12.580 165.169,12.621 167.960 M322.749 170.292 C 321.867 172.108,321.965 172.362,322.874 170.616 C 323.280 169.835,323.563 169.146,323.501 169.085 C 323.440 169.023,323.102 169.567,322.749 170.292 M13.325 174.231 C 13.470 176.738,13.978 180.562,14.336 181.845 L 14.622 182.870 14.500 181.698 C 14.354 180.309,13.804 176.203,13.460 173.939 L 13.215 172.328 13.325 174.231 M320.130 175.824 C 319.773 176.558,319.532 177.160,319.594 177.160 C 319.824 177.160,320.958 175.027,320.870 174.762 C 320.820 174.611,320.486 175.089,320.130 175.824 M317.466 181.176 C 316.153 183.839,313.994 187.811,311.166 192.766 C 310.266 194.344,309.646 195.563,309.788 195.475 C 310.022 195.330,311.834 192.367,312.125 191.654 C 312.191 191.493,312.563 190.854,312.952 190.234 C 314.656 187.522,318.940 179.221,318.821 178.863 C 318.773 178.721,318.164 179.762,317.466 181.176 M14.666 184.187 C 14.658 184.590,14.778 185.117,14.934 185.359 C 15.307 185.935,15.307 184.908,14.934 184.041 C 14.704 183.505,14.681 183.517,14.666 184.187 M15.261 187.408 C 15.247 187.811,15.364 188.338,15.520 188.580 C 15.881 189.139,15.881 188.537,15.520 187.408 L 15.285 186.676 15.261 187.408 M15.817 190.508 C 15.820 190.977,15.956 191.559,16.121 191.801 C 16.335 192.116,16.364 191.908,16.224 191.069 C 15.981 189.616,15.811 189.382,15.817 190.508 M16.422 192.972 C 16.414 193.375,16.597 194.231,16.829 194.876 C 17.367 196.368,17.377 195.621,16.844 193.704 C 16.588 192.782,16.432 192.511,16.422 192.972 M307.080 199.408 C 305.854 201.344,304.945 202.922,305.061 202.915 C 305.332 202.898,309.590 196.169,309.430 196.009 C 309.363 195.942,308.306 197.472,307.080 199.408 M17.297 196.688 C 17.286 197.041,17.408 197.411,17.570 197.511 C 17.916 197.725,17.916 197.439,17.570 196.633 C 17.327 196.068,17.317 196.070,17.297 196.688 M17.883 199.031 C 17.872 199.384,17.994 199.754,18.155 199.854 C 18.502 200.068,18.502 199.781,18.155 198.975 C 17.913 198.410,17.903 198.412,17.883 199.031 M18.462 200.858 C 18.440 201.514,19.620 205.075,19.800 204.895 C 19.856 204.839,19.773 204.406,19.614 203.934 C 19.456 203.461,19.135 202.482,18.901 201.757 C 18.667 201.032,18.470 200.628,18.462 200.858 M302.664 205.930 C 301.609 207.419,300.468 209.001,300.129 209.444 C 299.790 209.887,299.622 210.244,299.756 210.238 C 299.890 210.232,300.337 209.738,300.749 209.140 C 301.161 208.542,302.259 206.966,303.189 205.637 C 304.119 204.308,304.813 203.221,304.731 203.221 C 304.650 203.221,303.719 204.440,302.664 205.930 M21.099 209.394 C 21.090 209.648,21.407 210.637,21.803 211.590 C 22.733 213.831,22.749 213.303,21.826 210.835 C 21.434 209.788,21.107 209.139,21.099 209.394 M298.128 212.145 C 297.456 213.035,297.009 213.762,297.135 213.761 C 297.261 213.760,297.694 213.275,298.097 212.684 C 298.499 212.093,299.009 211.428,299.230 211.208 C 299.450 210.987,299.567 210.744,299.490 210.666 C 299.413 210.589,298.800 211.254,298.128 212.145 M22.548 213.875 C 22.548 214.116,22.679 214.395,22.840 214.495 C 23.001 214.594,23.133 214.478,23.133 214.237 C 23.133 213.995,23.001 213.716,22.840 213.616 C 22.679 213.517,22.548 213.633,22.548 213.875 M295.555 215.447 C 290.424 221.838,285.133 227.548,278.825 233.504 C 277.325 234.920,276.149 236.129,276.212 236.192 C 276.386 236.366,288.717 224.121,290.513 221.990 C 291.383 220.959,292.228 219.971,292.393 219.794 C 292.557 219.617,293.216 218.814,293.857 218.009 C 294.498 217.204,295.089 216.479,295.170 216.398 C 295.573 216.000,296.937 214.056,296.813 214.056 C 296.735 214.056,296.169 214.682,295.555 215.447 M23.150 215.117 C 23.102 216.064,28.995 229.070,29.659 229.480 C 30.003 229.693,30.086 229.881,28.090 225.915 C 27.199 224.143,26.159 221.903,25.781 220.937 C 25.402 219.971,24.980 219.055,24.845 218.902 C 24.709 218.749,24.597 218.469,24.597 218.281 C 24.597 217.817,23.171 214.700,23.150 215.117 M29.885 229.933 C 29.850 230.363,34.177 237.482,34.474 237.482 C 34.550 237.482,34.354 237.053,34.040 236.530 C 30.119 230.003,29.907 229.667,29.885 229.933 M273.499 238.243 C 270.886 240.511,270.097 241.314,271.303 240.478 C 272.266 239.811,276.077 236.333,275.842 236.336 C 275.761 236.337,274.707 237.195,273.499 238.243 M36.205 240.117 C 40.501 246.465,48.098 254.667,53.148 258.408 C 53.792 258.885,54.493 259.446,54.706 259.653 C 55.420 260.348,61.618 264.368,63.543 265.384 C 68.662 268.087,72.117 269.705,72.701 269.673 C 72.899 269.662,72.731 269.505,72.328 269.325 C 57.540 262.704,47.307 254.680,38.401 242.723 C 34.804 237.894,34.280 237.272,36.205 240.117 M269.253 241.771 C 266.937 243.679,261.522 247.597,257.773 250.079 C 255.485 251.594,253.664 252.884,253.726 252.946 C 253.902 253.121,261.936 247.720,265.506 245.026 C 269.733 241.838,270.390 241.303,270.250 241.164 C 270.185 241.100,269.736 241.374,269.253 241.771 M250.582 254.536 C 249.814 255.029,249.237 255.484,249.299 255.546 C 249.415 255.662,252.416 253.875,252.416 253.690 C 252.416 253.451,251.893 253.692,250.582 254.536 M246.619 256.857 C 245.443 257.513,244.538 258.106,244.608 258.175 C 244.677 258.244,245.177 258.049,245.720 257.741 C 247.749 256.588,248.902 255.868,248.902 255.754 C 248.902 255.581,248.926 255.569,246.619 256.857 M241.632 259.506 C 240.452 260.145,239.544 260.725,239.615 260.796 C 239.752 260.933,243.588 258.982,244.056 258.537 C 244.601 258.018,243.767 258.351,241.632 259.506 M237.482 261.640 C 236.757 262.028,236.264 262.351,236.387 262.359 C 236.673 262.376,239.239 261.173,239.239 261.022 C 239.239 260.787,238.762 260.955,237.482 261.640 M253.171 262.624 C 251.385 263.672,250.545 265.127,250.478 267.288 L 250.417 269.253 250.618 267.496 C 250.909 264.958,252.445 262.927,254.398 262.497 C 255.718 262.206,255.828 262.125,254.905 262.124 C 254.422 262.123,253.642 262.348,253.171 262.624 M256.955 262.223 C 257.116 262.277,257.607 262.400,258.047 262.497 C 258.487 262.594,259.311 263.080,259.877 263.578 C 260.444 264.075,260.908 264.343,260.908 264.173 C 260.908 263.627,258.350 262.078,257.488 262.102 C 257.033 262.115,256.794 262.169,256.955 262.223 M232.504 263.869 C 230.238 264.922,221.878 268.234,219.674 268.952 C 218.818 269.231,218.187 269.530,218.273 269.615 C 218.359 269.701,218.796 269.633,219.244 269.464 C 219.692 269.294,221.047 268.805,222.255 268.376 C 223.463 267.947,224.714 267.488,225.037 267.357 C 225.359 267.225,226.347 266.827,227.233 266.471 C 229.333 265.628,230.243 265.240,232.292 264.310 C 233.223 263.888,234.104 263.543,234.251 263.543 C 234.398 263.543,234.600 263.411,234.700 263.250 C 234.981 262.795,234.558 262.914,232.504 263.869 M254.758 264.422 C 254.448 264.622,254.847 264.707,256.114 264.710 C 258.150 264.715,259.023 265.673,258.346 267.160 C 258.125 267.644,258.150 268.013,258.441 268.537 C 258.731 269.061,258.840 269.121,258.848 268.758 C 258.853 268.486,258.724 268.180,258.560 268.079 C 258.397 267.978,258.348 267.757,258.453 267.588 C 259.866 265.301,257.086 262.918,254.758 264.422 M253.285 265.457 C 252.568 266.322,252.564 268.870,253.278 269.696 L 253.909 270.425 253.455 269.487 C 252.870 268.279,252.877 266.780,253.471 265.932 C 254.013 265.158,253.860 264.765,253.285 265.457 M261.498 267.587 C 261.495 268.550,261.605 269.073,261.786 268.960 C 262.159 268.730,262.159 267.049,261.786 266.471 C 261.583 266.157,261.501 266.475,261.498 267.587 M256.003 268.731 C 255.802 268.804,255.637 269.155,255.637 269.512 C 255.637 269.869,255.490 270.308,255.311 270.487 C 254.796 271.001,255.289 271.449,256.369 271.449 C 257.523 271.449,257.900 271.033,257.346 270.369 C 257.131 270.111,256.823 269.608,256.662 269.250 C 256.501 268.892,256.204 268.659,256.003 268.731 M257.022 271.041 C 256.328 271.735,255.461 270.964,255.856 270.003 L 256.270 268.996 256.726 269.938 C 256.977 270.456,257.110 270.952,257.022 271.041 M250.659 269.484 C 250.659 269.901,251.358 271.157,251.591 271.157 C 251.730 271.157,251.617 270.794,251.340 270.351 C 250.682 269.300,250.659 269.270,250.659 269.484 M73.353 269.902 C 73.713 270.266,78.180 271.845,78.354 271.670 C 78.424 271.601,77.920 271.367,77.234 271.151 C 76.549 270.935,75.857 270.669,75.695 270.561 C 75.534 270.452,75.139 270.293,74.817 270.207 C 74.495 270.122,73.968 269.952,73.646 269.829 C 73.252 269.679,73.156 269.703,73.353 269.902 M216.530 269.943 C 216.377 270.081,215.217 270.505,213.952 270.885 C 212.687 271.265,211.785 271.620,211.947 271.674 C 212.266 271.780,217.862 270.025,217.862 269.819 C 217.862 269.589,216.814 269.688,216.530 269.943 M208.199 272.621 C 207.809 272.873,207.809 272.905,208.199 272.905 C 208.441 272.905,208.836 272.777,209.078 272.621 C 209.468 272.368,209.468 272.337,209.078 272.337 C 208.836 272.337,208.441 272.465,208.199 272.621 M253.716 272.751 C 254.476 273.360,257.934 273.377,258.729 272.777 C 259.041 272.540,259.140 272.342,258.948 272.337 C 258.757 272.332,258.518 272.460,258.419 272.621 C 258.178 273.010,254.600 272.997,253.787 272.605 C 253.170 272.306,253.167 272.311,253.716 272.751 M83.016 273.361 C 83.660 273.593,84.385 273.779,84.627 273.775 C 84.868 273.770,84.539 273.576,83.895 273.344 C 83.250 273.112,82.526 272.926,82.284 272.931 C 82.042 272.936,82.372 273.129,83.016 273.361 M205.417 273.361 C 204.771 273.574,204.508 273.755,204.832 273.765 C 205.154 273.775,205.944 273.593,206.589 273.361 C 208.050 272.835,207.015 272.835,205.417 273.361 M85.359 274.085 C 85.458 274.246,85.828 274.368,86.181 274.357 C 86.800 274.337,86.802 274.328,86.237 274.085 C 85.431 273.739,85.145 273.739,85.359 274.085 M202.782 274.085 C 202.217 274.328,202.219 274.337,202.838 274.357 C 203.191 274.368,203.561 274.246,203.660 274.085 C 203.874 273.739,203.588 273.739,202.782 274.085 M200.439 274.671 C 199.875 274.913,199.877 274.923,200.495 274.943 C 200.848 274.954,201.218 274.832,201.318 274.671 C 201.532 274.324,201.245 274.324,200.439 274.671 M89.898 275.256 C 90.139 275.412,90.534 275.540,90.776 275.540 C 91.166 275.540,91.166 275.509,90.776 275.256 C 90.534 275.100,90.139 274.972,89.898 274.972 C 89.507 274.972,89.507 275.004,89.898 275.256 M92.533 275.981 C 93.258 276.222,94.180 276.405,94.583 276.389 C 95.106 276.369,94.981 276.282,94.143 276.087 C 91.954 275.577,91.159 275.525,92.533 275.981 M195.461 275.842 C 195.139 275.980,194.480 276.121,193.997 276.154 C 193.399 276.195,193.307 276.252,193.709 276.332 C 194.034 276.397,195.022 276.256,195.906 276.019 C 196.789 275.782,197.182 275.588,196.779 275.589 C 196.376 275.590,195.783 275.703,195.461 275.842 M95.754 276.720 C 95.996 276.876,96.523 276.993,96.925 276.980 L 97.657 276.955 96.925 276.720 C 95.797 276.359,95.195 276.359,95.754 276.720 M191.508 276.720 L 190.776 276.955 191.508 276.980 C 191.911 276.993,192.438 276.876,192.679 276.720 C 193.239 276.359,192.637 276.359,191.508 276.720 M98.682 277.306 C 98.924 277.462,99.385 277.583,99.707 277.574 L 100.293 277.558 99.707 277.306 C 98.832 276.930,98.100 276.930,98.682 277.306 M188.580 277.306 L 187.848 277.540 188.636 277.570 C 189.069 277.586,189.505 277.467,189.605 277.306 C 189.810 276.973,189.619 276.973,188.580 277.306 M101.757 277.892 C 102.079 278.030,102.540 278.143,102.782 278.143 C 103.059 278.143,103.005 278.050,102.635 277.892 C 102.313 277.753,101.852 277.640,101.611 277.640 C 101.334 277.640,101.388 277.733,101.757 277.892 M185.890 277.750 C 185.807 277.834,184.962 278.015,184.012 278.154 C 182.579 278.363,182.484 278.408,183.455 278.419 C 184.587 278.432,187.446 277.692,186.506 277.630 C 186.251 277.613,185.974 277.667,185.890 277.750 M103.883 278.392 C 104.248 278.462,104.775 278.459,105.055 278.386 C 105.335 278.312,105.037 278.255,104.392 278.258 C 103.748 278.262,103.519 278.322,103.883 278.392 M106.149 278.764 C 106.703 279.008,109.459 279.182,109.200 278.957 C 109.133 278.899,108.287 278.774,107.321 278.679 C 106.205 278.570,105.777 278.601,106.149 278.764 M179.649 278.770 L 178.184 278.971 179.649 278.996 C 180.454 279.010,181.376 278.909,181.698 278.770 L 182.284 278.518 181.698 278.544 C 181.376 278.558,180.454 278.660,179.649 278.770 M110.102 279.356 C 110.344 279.512,111.135 279.627,111.859 279.610 L 113.177 279.581 112.006 279.339 C 110.302 278.987,109.542 278.993,110.102 279.356 M175.549 279.356 L 174.378 279.566 175.695 279.586 C 176.420 279.598,177.277 279.494,177.599 279.356 C 178.348 279.034,177.348 279.034,175.549 279.356 M114.934 279.941 C 115.256 280.080,116.047 280.187,116.691 280.180 L 117.862 280.167 116.691 279.925 C 116.047 279.791,115.256 279.684,114.934 279.686 L 114.348 279.690 114.934 279.941 M170.571 279.941 L 169.400 280.151 170.717 280.172 C 171.442 280.184,172.299 280.080,172.621 279.941 C 173.370 279.619,172.370 279.619,170.571 279.941 M120.205 280.519 C 120.849 280.665,123.353 280.845,125.769 280.917 C 130.357 281.055,130.401 281.060,121.523 280.429 C 119.702 280.300,119.348 280.324,120.205 280.519 M165.088 280.398 C 164.998 280.488,163.098 280.677,160.866 280.818 L 156.808 281.075 161.054 280.927 C 163.389 280.847,165.959 280.675,166.764 280.546 L 168.228 280.313 166.740 280.273 C 165.921 280.252,165.178 280.308,165.088 280.398 M138.111 281.512 C 141.259 281.654,146.138 281.654,149.238 281.512 C 154.355 281.278,153.945 281.259,143.631 281.259 C 133.250 281.259,132.880 281.276,138.111 281.512 " stroke="none" fill="#53acf4" fill-rule="evenodd"></path></g></svg>