<?xml version="1.0" encoding="UTF-8"?> <svg xmlns="http://www.w3.org/2000/svg" width="800" height="320" viewBox="0 0 800 320"><g class="nc-icon-wrapper"><defs></defs><path class="cls-1" d="M100.37 66.48a3.28 3.28 0 0 1 4.74 0l27.75 15.57 27.77 16.25c2 .68 2.7 2.71 2.7 4.74v42.66a5 5 0 0 1-7.45 4.06l-6.76-3.39c-2-1.35-3.39-1.35-5.42 0L120 159.92l-23 13.53a4.22 4.22 0 0 0-2.71 4.07v13.54c0 4.06-4.74 6.09-8.12 4.06L72.61 187l-27.76-15.57a5.13 5.13 0 0 1-2.71-4.75V103c0-2 .68-4.06 2.71-4.74l27.76-16.21 27.75-15.57z" fill="#2380ff" fill-rule="evenodd"></path><path class="cls-2" d="M160.63 66.48c2-1.35 4.06-1.35 5.41 0l12.87 6.77 12.18 7.45c2 .67 2.71 2.71 2.71 4.74v28.43c0 2-.68 4.07-2.71 4.74l-12.18 7.45c-4.07 2-8.13-.68-8.13-4.74V99c0-2-.67-4.06-2.71-4.74l-20.31-11.53a5.7 5.7 0 0 1 0-9.48h.68l12.19-6.77z" fill-rule="evenodd" fill="#00d25e"></path><path class="cls-3" d="M143.7 155.85a7.46 7.46 0 0 1 5.42 0l18.95 11.51 19.64 10.84a5.69 5.69 0 0 1 2.71 4.74v44c0 2-1.36 3.39-2.71 4.74l-19.64 10.84L149.12 254a7.46 7.46 0 0 1-5.42 0l-19-11.51-19.63-10.84a6.12 6.12 0 0 1-2-4.74v-44c0-2 .67-4.07 2-4.74l19.63-10.84z" fill-rule="evenodd" fill="#ff4f67"></path><path class="cls-4" d="M757.86 116.58s-19.62 60.89-26.4 83.25l-8.78-20.28c7.41-23.55 20.17-62.5 20.32-63h14.89zm-26.41 83.28a2.51 2.51 0 0 0-.67 2c-4.07 12.87-22.34 41.3-53.48 41.31V229c17.6 0 33.84-14.21 38.58-28.43l-37.23-83.97h16.23l24.37 54.83v.67l3.38 7.45 8.8 20.31zm-197.7-9.48c-16.25 0-29.11-12.86-29.11-29.79a28.89 28.89 0 0 1 29.11-29.11c16.25 0 29.79 12.86 29.79 29.11a29.61 29.61 0 0 1-29.79 29.79m-44-29.79c0 24.38 19.64 44.69 44 44.69a45.08 45.08 0 0 0 44.69-44.69c0-24.37-20.31-44-44.69-44a43.93 43.93 0 0 0-44 44m-75.15 29.8h-12.88A8.2 8.2 0 0 1 395 187a15 15 0 0 1-2.71-8.8v-46.71h22.33v-14.9h-22.36V77.33L378 86.79v29.77h-14.2v14.88H378v46.76q0 12.18 6.09 18.28c5.42 6.09 12.86 8.8 17.61 8.8h12.86zm251.86-29.8a29.61 29.61 0 0 1-29.78 29.79 29 29 0 0 1-14.89-4l-7.44 12.84a42.6 42.6 0 0 0 22.33 6.09c24.38 0 44-20.31 44-44.69a43.92 43.92 0 0 0-44-44 43.14 43.14 0 0 0-29.77 11.5v-11.53H592l.67 126.6h14.22v-81.48c0-15.88 13-29.73 28.85-30.22 16.67-.51 30.73 12.54 30.73 29.1m-306.7 29.8h-13.56a8 8 0 0 1-6.1-3.38c-2-2-2.71-4.74-2.71-8.8V77.33l-14.88 9.47v91.4c0 8.12 2.71 14.22 6.09 18.28 5.42 6.09 12.86 8.8 17.61 8.8h13.54zm-52.2-54.85a44.94 44.94 0 0 0-34.14-18.89c-27.2-1.48-48.39 20.24-46.3 47.41 1.76 22.8 20.67 41.22 43.88 41.22 19.63 0 36.55-13.54 42-31.13h-15.62A29.76 29.76 0 0 1 271 190.38a30.22 30.22 0 0 1-22.35-10.15 36.65 36.65 0 0 1-6.77-13.54c0-2-.67-4.07-.67-6.1 0-16.25 13.54-29.11 29.79-29.11a28.94 28.94 0 0 1 23 10.82l-43.32 20.3c.69 4.74 3.39 9.47 6.09 13.53l43.32-21 13.54-6.09a48.72 48.72 0 0 0-6.09-13.53m176.77-4.74c-14.89 0-23 4.74-27.75 10.15-4.74 6.1-5.42 13.55-5.42 19.64v44.68h-14.9v-88.65h14.89V126c7.44-6.08 17.59-9.47 33.15-9.47v14.2l.04.07z" fill-rule="evenodd" fill="#11223a"></path></g></svg> 