<svg id="svg" version="1.1" xmlns="http://www.w3.org/2000/svg" xmlns:xlink="http://www.w3.org/1999/xlink" width="400" height="266.6666666666667" viewBox="0, 0, 400,266.6666666666667"><g id="svgg"><path id="path0" d="M198.400 68.212 C 196.322 69.348,195.878 71.459,196.675 76.413 C 197.302 80.307,197.292 83.756,196.650 84.703 C 196.366 85.123,196.073 85.824,196.000 86.261 C 195.841 87.205,195.685 87.261,191.467 87.873 C 182.392 89.190,173.015 93.819,166.235 100.328 C 164.030 102.445,164.001 102.462,163.346 102.033 C 162.983 101.795,162.291 101.600,161.809 101.599 C 160.452 101.597,159.353 100.771,155.449 96.814 C 150.593 91.893,148.745 91.202,146.486 93.461 C 143.965 95.981,145.464 98.485,151.676 102.132 C 155.125 104.157,156.874 105.614,157.327 106.841 C 157.552 107.449,157.945 108.178,158.201 108.461 C 158.806 109.129,158.839 108.997,157.553 111.106 C 152.518 119.371,149.951 130.142,150.690 139.904 C 150.950 143.340,150.905 143.733,150.252 143.733 C 150.041 143.733,149.399 144.158,148.825 144.676 C 147.588 145.793,145.737 146.258,140.874 146.671 C 134.876 147.181,132.978 148.237,132.978 151.067 C 132.978 154.833,136.060 155.493,142.400 153.086 C 146.613 151.487,149.207 150.935,150.261 151.416 C 150.645 151.590,151.406 151.733,151.952 151.733 L 152.946 151.733 153.709 153.800 C 157.249 163.381,164.338 172.302,172.623 177.600 C 174.300 178.672,174.870 179.174,174.741 179.467 C 174.644 179.687,174.556 180.647,174.546 181.600 C 174.525 183.554,173.824 185.058,170.928 189.361 C 167.476 194.491,167.327 197.430,170.459 198.622 C 173.481 199.772,174.883 198.306,177.087 191.687 C 178.765 186.647,179.525 185.184,180.802 184.532 C 181.330 184.263,181.908 183.721,182.087 183.329 C 182.328 182.799,182.531 182.665,182.873 182.810 C 191.606 186.511,204.333 186.870,214.954 183.714 C 217.636 182.918,218.111 182.930,218.129 183.795 C 218.131 183.902,218.625 184.240,219.226 184.547 C 220.505 185.199,221.509 187.122,222.910 191.600 C 225.020 198.345,226.780 199.945,230.195 198.225 C 232.368 197.130,232.265 193.783,229.959 190.574 C 226.819 186.203,225.105 182.638,225.542 181.386 C 225.702 180.927,225.716 180.458,225.577 180.238 C 225.080 179.453,225.431 179.014,227.849 177.395 C 236.080 171.886,242.909 163.153,246.393 153.679 C 247.115 151.716,247.200 151.603,247.912 151.661 C 248.327 151.695,249.147 151.541,249.733 151.319 C 251.036 150.827,252.931 151.245,258.007 153.140 C 263.810 155.307,266.530 154.871,266.995 151.700 C 267.449 148.606,265.318 147.087,259.926 146.664 C 254.069 146.204,252.116 145.731,251.103 144.527 C 250.746 144.104,250.164 143.684,249.808 143.595 L 249.161 143.433 249.282 138.397 C 249.535 127.842,247.321 119.307,242.104 110.719 L 241.066 109.011 241.702 108.510 C 242.052 108.235,242.414 107.611,242.505 107.123 C 242.771 105.707,246.174 102.937,250.076 100.962 C 254.691 98.625,255.930 94.423,252.523 92.661 C 250.448 91.588,248.870 92.342,245.067 96.227 C 241.038 100.342,239.434 101.600,238.217 101.600 C 237.703 101.600,236.933 101.806,236.507 102.058 L 235.731 102.516 234.066 100.903 C 226.745 93.812,215.923 88.550,206.667 87.578 C 204.514 87.352,204.000 87.096,204.000 86.246 C 204.000 85.879,203.730 85.211,203.400 84.763 C 202.717 83.834,202.639 80.779,203.208 77.200 C 204.377 69.843,202.350 66.054,198.400 68.212 M195.200 98.115 C 195.200 101.708,194.047 117.824,193.737 118.566 C 193.260 119.707,191.908 120.531,190.511 120.532 C 189.517 120.533,172.562 109.132,172.351 108.321 C 172.268 108.000,175.874 105.039,178.191 103.525 C 184.724 99.259,195.200 95.927,195.200 98.115 M207.777 97.710 C 212.561 98.632,218.606 101.232,222.491 104.038 C 224.827 105.726,227.467 107.974,227.467 108.275 C 227.467 108.605,211.294 119.995,210.367 120.318 C 208.843 120.850,206.758 119.933,206.174 118.474 C 205.935 117.876,204.800 101.063,204.800 98.115 C 204.800 97.190,204.961 97.168,207.777 97.710 M174.474 123.051 C 178.401 126.536,181.791 129.729,182.007 130.147 C 182.840 131.758,182.176 133.954,180.612 134.756 C 179.847 135.148,161.373 140.533,160.792 140.533 C 160.247 140.533,160.625 131.085,161.289 128.133 C 162.604 122.278,165.799 115.347,166.779 116.221 C 167.084 116.493,170.546 119.566,174.474 123.051 M235.365 119.014 C 238.042 124.305,239.181 129.023,239.387 135.667 C 239.470 138.343,239.458 140.533,239.360 140.533 C 238.878 140.533,220.279 135.102,219.502 134.734 C 217.384 133.732,216.942 131.076,218.600 129.321 C 222.162 125.549,233.482 115.816,233.822 116.232 C 234.018 116.471,234.712 117.723,235.365 119.014 M204.997 132.514 L 206.927 134.891 206.263 137.830 C 205.899 139.446,205.600 140.816,205.600 140.874 C 205.600 140.932,204.337 141.557,202.793 142.264 L 199.986 143.548 197.213 142.279 L 194.439 141.010 193.736 137.986 L 193.032 134.962 194.966 132.548 L 196.899 130.133 199.983 130.135 L 203.067 130.137 204.997 132.514 M226.610 148.014 C 231.995 148.901,236.608 149.711,236.862 149.814 C 237.739 150.168,234.536 156.513,231.450 160.533 C 228.772 164.023,221.862 170.260,221.319 169.678 C 220.930 169.262,213.567 151.204,213.423 150.314 C 213.219 149.059,213.925 147.692,215.141 146.988 C 216.411 146.251,215.333 146.155,226.610 148.014 M185.295 147.342 C 186.231 148.130,186.790 149.590,186.547 150.614 C 186.187 152.136,178.840 169.600,178.561 169.597 C 177.607 169.589,171.997 164.667,169.604 161.738 C 166.356 157.762,162.089 149.925,163.133 149.853 C 163.243 149.845,167.353 149.137,172.267 148.278 C 182.657 146.463,184.125 146.358,185.295 147.342 M201.761 155.174 C 202.767 155.787,202.612 155.536,208.222 165.680 L 212.764 173.893 212.049 174.173 C 207.865 175.806,199.554 176.482,194.267 175.619 C 190.944 175.077,187.467 174.157,187.467 173.821 C 187.467 172.972,197.480 155.636,198.238 155.174 C 199.295 154.529,200.704 154.529,201.761 155.174 " stroke="none" fill="#fafbfb" fill-rule="evenodd"></path><path id="path1" d="M197.634 44.567 C 196.846 44.698,195.226 45.262,194.034 45.821 C 179.998 52.403,130.735 76.042,129.701 76.692 C 125.132 79.562,125.856 77.303,116.508 117.867 C 106.974 159.242,107.229 157.455,110.227 161.914 C 111.753 164.184,155.434 218.308,156.562 219.327 C 157.972 220.601,160.552 221.810,162.563 222.140 C 165.354 222.597,235.759 222.470,237.959 222.004 C 242.658 221.008,240.711 223.126,267.205 190.179 C 293.707 157.222,291.551 160.292,291.576 155.467 C 291.589 152.994,276.806 87.336,275.204 82.755 C 274.144 79.721,272.104 77.581,268.533 75.752 C 266.443 74.682,211.457 48.391,205.921 45.815 C 203.029 44.469,200.509 44.089,197.634 44.567 M202.384 68.684 C 203.937 70.087,204.215 71.592,203.620 75.376 C 202.757 80.859,202.740 83.729,203.563 84.708 C 203.978 85.200,204.267 85.869,204.267 86.335 C 204.267 87.116,204.290 87.129,206.067 87.310 C 215.569 88.282,226.333 93.361,233.827 100.411 L 235.890 102.352 236.545 101.849 C 236.906 101.571,237.637 101.343,238.174 101.339 C 239.497 101.331,241.705 99.643,244.869 96.217 C 249.181 91.549,252.228 90.804,254.145 93.948 C 255.611 96.352,253.983 99.128,249.812 101.334 C 245.538 103.595,242.667 105.952,242.667 107.198 C 242.667 107.708,242.438 108.122,241.968 108.464 L 241.270 108.973 242.927 111.812 C 247.548 119.734,249.464 127.205,249.455 137.267 C 249.451 142.764,249.498 143.467,249.875 143.467 C 250.109 143.467,250.653 143.839,251.083 144.294 C 252.306 145.584,254.542 146.145,260.000 146.530 C 265.104 146.889,267.200 148.212,267.200 151.075 C 267.200 154.541,263.904 155.544,258.843 153.618 C 253.103 151.432,250.443 150.853,249.458 151.574 C 249.159 151.792,248.608 151.892,248.129 151.814 C 247.318 151.683,247.304 151.701,246.420 154.041 C 242.779 163.673,235.877 172.348,227.432 177.906 C 225.533 179.156,225.389 179.313,225.613 179.901 C 225.746 180.252,225.784 181.063,225.696 181.703 C 225.505 183.101,226.384 184.936,229.481 189.604 C 232.501 194.154,232.771 195.995,230.703 197.923 C 227.679 200.744,225.036 198.732,222.827 191.927 C 221.211 186.951,220.397 185.331,219.211 184.740 C 218.703 184.486,218.138 183.993,217.955 183.644 L 217.622 183.009 216.209 183.486 C 205.781 187.006,192.484 186.837,182.873 183.062 C 182.538 182.930,182.324 183.074,182.089 183.592 C 181.911 183.982,181.379 184.463,180.908 184.660 C 179.712 185.160,178.947 186.617,177.337 191.467 C 174.985 198.546,172.950 200.405,169.712 198.430 C 167.131 196.857,167.413 194.321,170.723 189.345 C 173.574 185.059,174.424 183.222,174.339 181.531 C 174.301 180.762,174.357 179.893,174.463 179.600 C 174.626 179.152,174.371 178.889,172.862 177.950 C 164.958 173.035,157.647 164.113,153.999 154.930 C 152.798 151.909,152.697 151.749,152.083 151.903 C 151.702 151.999,150.998 151.870,150.380 151.591 C 149.114 151.020,147.349 151.405,141.922 153.435 C 136.814 155.346,134.698 155.243,133.341 153.018 C 131.348 149.749,133.874 147.138,139.488 146.663 C 145.632 146.144,147.549 145.700,148.660 144.540 C 149.072 144.111,149.760 143.682,150.190 143.588 C 150.783 143.457,150.927 143.310,150.790 142.975 C 150.426 142.088,150.330 133.988,150.649 131.196 C 151.489 123.865,154.137 116.143,157.748 110.494 L 158.625 109.121 158.005 108.538 C 157.663 108.217,157.311 107.566,157.222 107.091 C 156.982 105.808,155.178 104.326,150.579 101.631 C 145.606 98.717,144.271 96.545,145.856 93.946 C 147.744 90.849,150.529 91.615,155.401 96.571 C 159.465 100.705,160.443 101.435,161.847 101.380 C 162.472 101.355,163.002 101.494,163.203 101.736 C 163.724 102.365,163.954 102.245,166.045 100.259 C 173.150 93.510,182.741 88.884,192.444 87.527 C 195.728 87.067,195.733 87.066,195.733 86.345 C 195.733 85.948,196.047 85.168,196.430 84.612 C 197.237 83.438,197.223 80.980,196.376 75.465 C 195.774 71.541,195.967 70.363,197.457 68.873 C 199.037 67.293,200.771 67.227,202.384 68.684 M194.000 97.542 C 189.602 98.059,183.013 100.566,178.736 103.350 C 176.218 104.989,172.486 108.003,172.598 108.307 C 172.722 108.646,188.647 119.803,189.543 120.180 C 191.093 120.832,192.716 120.125,193.604 118.412 C 193.944 117.757,195.230 97.615,194.938 97.501 C 194.862 97.472,194.440 97.490,194.000 97.542 M205.003 97.486 C 204.773 97.716,206.108 118.120,206.387 118.642 C 207.172 120.110,209.490 120.676,211.086 119.789 C 212.556 118.972,227.200 108.503,227.200 108.269 C 227.200 107.370,220.701 102.822,216.715 100.932 C 213.019 99.179,205.517 96.972,205.003 97.486 M164.714 118.996 C 161.673 125.257,160.050 133.134,160.649 138.723 L 160.834 140.459 170.484 137.675 C 175.791 136.144,180.402 134.719,180.730 134.509 C 182.126 133.612,182.650 131.361,181.773 130.023 C 181.398 129.451,167.279 116.669,166.486 116.185 C 166.277 116.057,165.686 116.995,164.714 118.996 M228.533 120.441 C 219.158 128.831,217.947 130.023,217.756 131.042 C 217.523 132.282,218.145 133.720,219.189 134.354 C 219.828 134.743,234.970 139.293,238.443 140.140 C 241.114 140.791,238.725 125.853,234.986 118.521 C 233.516 115.638,234.091 115.468,228.533 120.441 M195.074 132.687 L 193.261 134.974 193.879 137.788 C 194.592 141.037,194.347 140.737,197.541 142.269 L 200.014 143.456 202.607 142.195 C 205.721 140.680,205.367 141.127,206.117 137.750 L 206.734 134.969 204.924 132.684 L 203.114 130.400 200.000 130.400 L 196.886 130.400 195.074 132.687 M172.721 148.344 L 163.175 149.996 163.341 150.665 C 164.106 153.741,168.058 159.991,171.543 163.637 C 174.027 166.235,178.381 169.743,178.690 169.394 C 179.529 168.448,186.253 151.164,186.260 149.938 C 186.278 146.343,185.089 146.203,172.721 148.344 M215.045 147.169 C 214.027 147.790,213.488 149.031,213.668 150.338 C 213.783 151.173,220.188 167.099,221.180 169.016 L 221.498 169.632 223.216 168.373 C 229.266 163.940,235.186 156.217,236.905 150.516 C 237.065 149.986,236.703 149.903,227.269 148.315 C 216.365 146.480,216.202 146.464,215.045 147.169 M199.052 154.974 C 197.802 155.303,197.484 155.784,192.335 165.122 L 187.526 173.843 188.780 174.260 C 192.760 175.582,199.183 176.213,203.760 175.732 C 207.267 175.364,212.431 174.118,212.337 173.662 C 212.199 172.989,202.853 156.357,202.289 155.781 C 201.556 155.032,200.157 154.683,199.052 154.974 " stroke="none" fill="#346ce4" fill-rule="evenodd"></path><path id="path2" d="M171.989 164.333 C 172.643 165.030,173.213 165.600,173.256 165.600 C 173.456 165.600,173.244 165.361,172.067 164.256 L 170.800 163.067 171.989 164.333 " stroke="none" fill="#94b4f4" fill-rule="evenodd"></path><path id="path3" d="M155.467 96.883 C 155.467 96.929,155.857 97.319,156.333 97.750 L 157.200 98.533 156.417 97.667 C 155.687 96.859,155.467 96.677,155.467 96.883 M218.783 129.133 L 218.000 130.000 218.867 129.217 C 219.343 128.786,219.733 128.396,219.733 128.350 C 219.733 128.144,219.513 128.325,218.783 129.133 M198.467 130.330 C 199.310 130.383,200.690 130.383,201.533 130.330 C 202.377 130.277,201.687 130.234,200.000 130.234 C 198.313 130.234,197.623 130.277,198.467 130.330 M234.792 171.800 L 233.200 173.467 234.867 171.875 C 235.783 171.000,236.533 170.250,236.533 170.208 C 236.533 170.011,236.270 170.252,234.792 171.800 " stroke="none" fill="#789fed" fill-rule="evenodd"></path><path id="path4" d="M202.743 82.267 C 202.745 83.000,202.797 83.268,202.858 82.863 C 202.919 82.458,202.918 81.858,202.854 81.530 C 202.791 81.202,202.741 81.533,202.743 82.267 M243.587 97.667 L 242.533 98.800 243.667 97.746 C 244.290 97.166,244.800 96.656,244.800 96.613 C 244.800 96.411,244.568 96.613,243.587 97.667 M194.995 100.267 C 194.995 100.780,195.050 100.990,195.117 100.733 C 195.184 100.477,195.184 100.057,195.117 99.800 C 195.050 99.543,194.995 99.753,194.995 100.267 M204.862 100.267 C 204.862 100.780,204.917 100.990,204.984 100.733 C 205.051 100.477,205.051 100.057,204.984 99.800 C 204.917 99.543,204.862 99.753,204.862 100.267 M165.187 101.133 L 164.133 102.267 165.267 101.213 C 166.321 100.232,166.523 100.000,166.321 100.000 C 166.277 100.000,165.767 100.510,165.187 101.133 M234.133 100.883 C 234.133 100.929,234.523 101.319,235.000 101.750 L 235.867 102.533 235.083 101.667 C 234.353 100.859,234.133 100.677,234.133 100.883 M194.462 109.600 C 194.462 110.113,194.517 110.323,194.584 110.067 C 194.651 109.810,194.651 109.390,194.584 109.133 C 194.517 108.877,194.462 109.087,194.462 109.600 M194.195 114.400 C 194.195 114.913,194.250 115.123,194.317 114.867 C 194.384 114.610,194.384 114.190,194.317 113.933 C 194.250 113.677,194.195 113.887,194.195 114.400 M205.662 114.400 C 205.662 114.913,205.717 115.123,205.784 114.867 C 205.851 114.610,205.851 114.190,205.784 113.933 C 205.717 113.677,205.662 113.887,205.662 114.400 M150.473 134.400 C 150.473 135.060,150.525 135.330,150.588 135.000 C 150.652 134.670,150.652 134.130,150.588 133.800 C 150.525 133.470,150.473 133.740,150.473 134.400 M249.432 136.533 C 249.432 138.073,249.476 138.703,249.530 137.933 C 249.584 137.163,249.584 135.903,249.530 135.133 C 249.476 134.363,249.432 134.993,249.432 136.533 M150.467 138.533 C 150.470 139.120,150.525 139.329,150.589 138.997 C 150.652 138.665,150.650 138.185,150.583 137.930 C 150.516 137.675,150.464 137.947,150.467 138.533 M216.333 146.584 C 216.590 146.651,217.010 146.651,217.267 146.584 C 217.523 146.517,217.313 146.462,216.800 146.462 C 216.287 146.462,216.077 146.517,216.333 146.584 M198.067 186.055 C 198.397 186.118,198.937 186.118,199.267 186.055 C 199.597 185.991,199.327 185.939,198.667 185.939 C 198.007 185.939,197.737 185.991,198.067 186.055 M200.867 186.050 C 201.123 186.118,201.543 186.118,201.800 186.050 C 202.057 185.983,201.847 185.929,201.333 185.929 C 200.820 185.929,200.610 185.983,200.867 186.050 " stroke="none" fill="#a2bcf4" fill-rule="evenodd"></path></g></svg>