<svg id="svg" version="1.1" xmlns="http://www.w3.org/2000/svg" xmlns:xlink="http://www.w3.org/1999/xlink" width="400" height="166.71875" viewBox="0, 0, 400,166.71875"><g id="svgg"><path id="path0" d="M88.233 13.405 C 87.535 13.709,85.167 18.459,85.167 19.555 C 85.167 19.680,85.061 20.000,84.931 20.266 C 84.538 21.074,83.155 24.490,82.577 26.083 C 82.277 26.908,81.755 28.221,81.417 29.000 C 81.078 29.779,80.555 31.092,80.255 31.917 C 79.955 32.742,79.259 34.542,78.707 35.917 C 76.311 41.894,75.340 44.352,74.789 45.833 C 74.602 46.337,74.318 47.050,74.159 47.417 C 73.452 49.044,72.667 51.018,72.667 51.166 C 72.667 51.256,72.207 52.436,71.646 53.789 C 71.085 55.143,70.379 56.925,70.078 57.750 C 69.777 58.575,69.147 60.150,68.677 61.250 C 68.208 62.350,67.757 63.512,67.676 63.833 C 67.594 64.154,67.098 65.429,66.573 66.667 C 66.047 67.904,65.372 69.592,65.072 70.417 C 64.772 71.242,64.175 72.742,63.745 73.750 C 63.315 74.758,62.867 75.922,62.751 76.336 C 61.438 81.000,56.959 83.996,51.292 83.999 L 50.333 84.000 50.333 86.000 L 50.333 88.000 62.167 88.000 L 74.000 88.000 74.000 86.000 L 74.000 84.000 73.208 83.999 C 68.595 83.991,65.561 80.810,66.851 77.333 C 67.038 76.829,67.294 76.079,67.420 75.667 C 67.546 75.254,68.178 73.654,68.824 72.111 C 69.471 70.567,70.000 69.228,70.000 69.133 C 70.000 69.039,70.459 67.883,71.019 66.565 L 72.039 64.167 86.728 64.167 L 101.417 64.167 102.020 65.708 C 102.351 66.556,103.087 68.412,103.656 69.833 C 104.224 71.254,104.810 72.754,104.957 73.167 C 105.471 74.602,106.318 76.759,106.922 78.167 C 108.768 82.471,107.676 83.682,101.708 83.951 L 99.500 84.050 99.500 86.025 L 99.500 88.000 114.417 88.000 L 129.333 88.000 129.333 86.000 L 129.333 84.000 126.929 84.000 C 122.783 84.000,120.682 83.528,119.625 82.358 C 119.130 81.810,117.500 78.364,117.500 77.865 C 117.500 77.718,116.410 75.051,115.316 72.520 C 115.142 72.119,115.000 71.699,115.000 71.587 C 115.000 71.389,113.810 68.447,113.176 67.076 C 113.004 66.705,112.717 65.955,112.537 65.409 C 112.218 64.442,110.949 61.286,110.316 59.884 C 110.142 59.500,110.000 59.102,110.000 59.000 C 110.000 58.898,109.446 57.450,108.770 55.782 C 108.093 54.114,107.277 52.075,106.956 51.250 C 106.635 50.425,106.056 48.962,105.669 48.000 C 105.282 47.038,104.735 45.650,104.454 44.917 C 104.172 44.183,103.730 43.114,103.472 42.541 C 103.214 41.967,102.845 41.029,102.653 40.457 C 102.281 39.351,101.064 36.333,100.400 34.870 C 100.180 34.386,100.000 33.890,100.000 33.767 C 100.000 33.644,99.546 32.465,98.991 31.147 C 98.436 29.829,97.769 28.150,97.509 27.417 C 97.249 26.683,96.622 25.108,96.116 23.917 C 95.609 22.725,95.044 21.300,94.859 20.750 C 94.675 20.200,94.120 18.775,93.625 17.583 C 93.130 16.392,92.580 15.042,92.401 14.583 C 91.891 13.270,89.861 12.696,88.233 13.405 M13.167 18.041 L 13.167 20.454 17.708 20.555 C 26.023 20.739,27.773 21.454,28.332 24.895 C 28.557 26.284,28.555 107.157,28.330 108.716 C 27.829 112.177,26.301 112.806,18.042 112.953 L 13.167 113.039 13.167 115.520 L 13.167 118.000 52.229 118.000 L 91.292 118.000 91.378 117.542 C 91.425 117.290,91.700 114.758,91.987 111.917 C 92.275 109.075,93.066 101.537,93.745 95.167 C 94.425 88.796,95.022 82.944,95.072 82.162 C 95.122 81.380,95.211 80.386,95.271 79.953 L 95.379 79.167 93.368 79.167 L 91.357 79.167 91.250 80.125 C 91.191 80.652,90.954 82.546,90.723 84.333 C 90.492 86.121,90.240 88.146,90.164 88.833 C 89.388 95.804,85.394 103.886,81.040 107.293 C 74.868 112.123,71.312 112.917,55.833 112.917 L 45.417 112.917 44.278 112.506 C 42.855 111.993,42.585 111.631,42.340 109.911 C 42.054 107.901,42.173 24.817,42.463 23.978 C 43.330 21.464,46.245 20.700,55.542 20.547 L 61.167 20.455 61.167 18.045 L 61.167 15.635 60.375 15.738 C 56.014 16.302,18.678 16.300,14.042 15.735 L 13.167 15.628 13.167 18.041 M283.667 18.069 L 283.667 20.500 286.482 20.500 C 294.521 20.500,298.121 21.883,300.505 25.887 C 300.823 26.421,301.198 26.984,301.338 27.137 C 301.643 27.471,302.667 28.982,302.667 29.098 C 302.667 29.143,303.135 29.860,303.708 30.692 C 304.281 31.524,304.999 32.627,305.304 33.144 C 305.609 33.661,306.143 34.458,306.491 34.917 C 306.838 35.375,307.257 35.975,307.422 36.250 C 307.586 36.525,308.215 37.489,308.819 38.392 C 309.423 39.295,310.104 40.355,310.333 40.748 C 310.563 41.141,311.087 41.921,311.500 42.482 C 311.912 43.044,312.364 43.709,312.504 43.960 C 312.643 44.211,313.242 45.129,313.836 46.000 C 314.429 46.871,315.177 48.006,315.499 48.522 C 315.820 49.038,316.908 50.687,317.917 52.187 C 318.925 53.686,319.862 55.101,320.000 55.332 C 320.252 55.754,324.082 61.557,326.526 65.219 C 327.289 66.361,327.790 67.270,327.720 67.385 C 327.493 67.761,326.440 69.253,325.804 70.099 C 325.454 70.566,325.166 71.016,325.166 71.099 C 325.166 71.182,324.861 71.652,324.488 72.143 C 324.116 72.634,323.160 74.014,322.364 75.208 C 321.568 76.403,320.579 77.887,320.167 78.506 C 319.193 79.968,316.814 83.473,315.929 84.750 C 315.547 85.300,315.133 85.955,315.008 86.206 C 314.882 86.456,314.657 86.794,314.506 86.956 C 314.355 87.117,313.629 88.150,312.892 89.250 C 312.156 90.350,310.966 92.112,310.247 93.167 C 307.289 97.508,305.548 100.102,304.945 101.064 C 304.594 101.625,304.174 102.233,304.011 102.417 C 303.849 102.600,303.354 103.275,302.913 103.917 C 298.958 109.664,292.903 112.588,284.208 112.950 L 281.833 113.049 281.833 115.524 L 281.833 118.000 285.140 118.000 L 288.446 118.000 288.041 120.208 C 287.433 123.519,286.698 126.499,285.892 128.917 C 285.495 130.108,285.169 131.173,285.168 131.282 C 285.167 131.495,283.896 134.139,283.043 135.702 C 281.251 138.990,278.089 141.922,274.196 143.906 C 272.232 144.907,267.088 146.161,263.083 146.616 C 259.828 146.986,234.773 147.062,233.085 146.707 C 231.839 146.444,230.693 145.879,230.303 145.333 C 229.716 144.512,229.673 142.929,229.670 121.948 L 229.667 101.313 238.708 101.379 C 247.053 101.440,247.904 101.472,249.750 101.803 C 256.361 102.986,258.833 107.040,258.833 116.696 L 258.833 118.833 260.833 118.833 L 262.833 118.833 262.833 98.917 L 262.833 79.000 260.833 79.000 L 258.833 79.000 258.833 81.066 C 258.833 89.491,256.921 93.464,252.083 95.094 C 249.053 96.115,248.078 96.200,238.458 96.285 L 229.667 96.363 229.667 77.672 C 229.667 58.711,229.713 57.093,230.284 56.221 C 230.672 55.630,232.107 55.022,233.584 54.824 C 235.837 54.522,261.278 54.713,263.583 55.050 C 278.023 57.159,282.618 62.966,285.007 82.125 L 285.221 83.833 287.194 83.833 C 288.986 83.833,289.167 83.806,289.167 83.532 C 289.167 83.366,288.792 80.404,288.333 76.950 C 287.875 73.495,287.495 70.350,287.490 69.960 C 287.484 69.569,286.900 64.900,286.192 59.583 L 284.904 49.917 250.328 49.833 L 215.751 49.750 215.467 46.667 C 215.311 44.971,215.112 42.346,215.024 40.833 C 214.937 39.321,214.431 33.265,213.902 27.375 L 212.938 16.667 167.158 16.667 L 121.379 16.667 121.288 17.375 C 121.238 17.765,120.962 21.121,120.674 24.833 C 120.386 28.546,119.814 35.746,119.403 40.833 C 118.992 45.921,118.658 50.177,118.661 50.292 C 118.665 50.446,119.160 50.500,120.562 50.500 L 122.457 50.500 122.569 49.292 C 123.550 38.749,124.856 32.531,126.777 29.249 C 127.175 28.570,127.500 27.953,127.500 27.878 C 127.500 27.576,130.307 24.983,131.083 24.567 C 133.936 23.040,135.241 22.608,138.322 22.168 C 144.183 21.333,155.992 21.230,158.215 21.995 C 159.638 22.485,160.094 22.991,160.279 24.290 C 160.460 25.552,160.458 107.626,160.278 108.890 C 160.034 110.602,158.591 111.800,156.235 112.247 C 153.358 112.793,152.007 112.885,145.500 112.982 L 138.750 113.083 138.704 115.556 L 138.658 118.028 139.870 117.948 C 147.109 117.474,187.897 117.474,194.542 117.948 L 195.667 118.028 195.667 115.514 L 195.667 113.000 190.042 112.999 C 177.913 112.998,174.811 112.151,174.167 108.662 C 174.053 108.046,174.011 93.878,174.040 65.995 L 174.083 24.250 174.546 23.308 C 175.341 21.689,176.275 21.513,184.101 21.505 C 198.108 21.492,203.638 23.108,207.027 28.205 C 208.071 29.775,209.814 34.578,210.086 36.637 C 210.143 37.066,210.335 38.317,210.514 39.417 C 210.871 41.625,211.667 48.438,211.667 49.292 L 211.667 49.833 206.167 49.833 L 200.667 49.833 200.667 52.228 L 200.667 54.623 205.208 54.713 C 212.685 54.860,214.810 55.556,215.705 58.147 C 215.984 58.955,216.106 140.611,215.831 142.417 C 215.290 145.968,213.527 146.673,204.542 146.929 L 200.667 147.039 200.667 149.353 L 200.667 151.667 243.902 151.667 L 287.137 151.667 287.312 150.458 C 287.408 149.794,287.795 147.375,288.173 145.083 C 288.551 142.792,289.119 139.304,289.436 137.333 C 289.754 135.362,290.575 130.412,291.262 126.333 C 291.949 122.254,292.508 118.710,292.505 118.458 L 292.500 118.000 305.167 118.000 L 317.833 118.000 317.833 115.524 L 317.833 113.048 316.542 112.952 C 312.495 112.652,309.555 110.627,308.571 107.462 C 308.053 105.794,308.318 105.198,312.075 99.568 C 312.987 98.202,313.989 96.748,314.301 96.339 C 314.614 95.929,314.929 95.438,315.001 95.246 C 315.074 95.055,315.319 94.677,315.545 94.407 C 315.772 94.137,316.538 93.017,317.248 91.917 C 317.958 90.817,318.674 89.767,318.839 89.583 C 319.005 89.400,319.428 88.796,319.779 88.242 C 320.620 86.911,323.486 82.659,324.322 81.500 C 324.686 80.996,324.989 80.508,324.996 80.417 C 325.002 80.325,325.160 80.063,325.347 79.833 C 325.665 79.444,326.983 77.511,329.211 74.167 C 329.730 73.387,330.334 72.530,330.553 72.261 L 330.952 71.772 333.084 75.011 C 334.871 77.725,338.429 83.071,339.771 85.059 C 339.966 85.347,341.012 86.933,342.096 88.583 C 343.180 90.233,344.314 91.908,344.617 92.304 C 344.919 92.701,345.167 93.107,345.167 93.206 C 345.167 93.305,345.454 93.768,345.804 94.235 C 346.155 94.701,346.811 95.668,347.263 96.382 C 347.714 97.096,348.522 98.296,349.058 99.049 C 349.595 99.801,350.082 100.531,350.142 100.670 C 350.284 101.002,354.190 106.892,354.340 107.000 C 354.608 107.193,355.167 108.524,355.167 108.969 C 355.167 110.671,351.046 112.654,346.842 112.975 L 345.417 113.083 345.370 115.557 L 345.324 118.030 346.370 117.951 C 352.790 117.465,375.731 117.466,385.208 117.952 L 387.000 118.044 387.000 115.541 L 387.000 113.039 382.625 112.953 C 374.614 112.794,372.981 112.015,369.265 106.571 C 368.294 105.149,367.500 103.956,367.500 103.921 C 367.500 103.861,366.163 101.838,360.237 92.927 C 358.961 91.008,357.804 89.245,357.667 89.010 C 357.529 88.775,356.322 86.932,354.984 84.916 C 353.646 82.900,351.666 79.900,350.585 78.250 C 349.504 76.600,348.488 75.100,348.327 74.917 C 348.167 74.733,347.894 74.321,347.721 74.000 C 347.278 73.177,343.503 67.489,343.146 67.106 C 342.983 66.931,342.722 66.520,342.567 66.191 C 342.411 65.863,341.788 64.880,341.183 64.008 C 340.578 63.135,339.854 62.045,339.574 61.585 C 339.294 61.126,338.966 60.595,338.845 60.406 C 338.648 60.098,338.697 59.967,339.312 59.156 C 339.690 58.658,339.999 58.185,339.999 58.105 C 340.000 58.026,340.402 57.426,340.893 56.772 C 341.385 56.118,342.073 55.133,342.422 54.583 C 342.772 54.033,343.495 52.993,344.029 52.272 C 344.563 51.551,345.000 50.883,345.000 50.789 C 345.000 50.695,345.250 50.310,345.556 49.934 C 346.155 49.197,348.829 45.304,349.917 43.584 C 350.283 43.005,350.706 42.392,350.855 42.224 C 351.005 42.055,351.788 40.942,352.597 39.750 C 354.981 36.234,355.902 34.886,357.666 32.333 C 358.584 31.004,359.599 29.524,359.921 29.044 C 360.596 28.039,363.365 25.251,364.037 24.900 C 364.287 24.770,364.774 24.469,365.120 24.232 C 368.111 22.186,374.733 20.500,379.779 20.500 L 380.667 20.500 380.667 18.083 L 380.667 15.667 362.667 15.667 L 344.667 15.667 344.667 18.046 L 344.667 20.426 346.127 20.625 C 351.740 21.390,355.294 25.426,353.526 29.028 C 352.938 30.227,352.985 30.150,351.417 32.446 C 350.775 33.385,350.100 34.383,349.917 34.664 C 348.736 36.475,346.573 39.637,346.323 39.917 C 346.160 40.100,345.739 40.707,345.388 41.266 C 344.479 42.713,341.411 47.228,340.736 48.113 C 340.423 48.523,340.167 48.934,340.167 49.026 C 340.167 49.119,339.914 49.507,339.605 49.889 C 339.296 50.271,338.398 51.558,337.609 52.750 C 335.467 55.986,335.646 55.875,334.914 54.417 C 334.776 54.142,334.322 53.467,333.905 52.917 C 333.487 52.367,332.948 51.579,332.706 51.167 C 332.465 50.754,331.776 49.704,331.175 48.833 C 330.575 47.962,329.985 47.060,329.866 46.827 C 329.746 46.594,329.310 45.957,328.897 45.410 C 328.484 44.864,327.946 44.079,327.701 43.667 C 327.457 43.254,326.768 42.203,326.170 41.331 C 325.572 40.459,324.985 39.556,324.866 39.325 C 324.746 39.093,324.310 38.457,323.897 37.910 C 323.484 37.364,322.946 36.579,322.701 36.167 C 322.457 35.754,321.749 34.681,321.128 33.781 C 320.508 32.881,319.996 32.094,319.992 32.031 C 319.987 31.968,319.686 31.504,319.322 31.000 C 317.794 28.883,316.059 26.183,315.746 25.433 C 314.906 23.422,318.936 21.011,323.875 20.569 L 325.167 20.454 325.167 18.045 L 325.167 15.635 324.375 15.738 C 320.170 16.281,291.278 16.284,284.875 15.741 L 283.667 15.638 283.667 18.069 M87.583 29.083 C 87.832 29.817,88.515 31.556,89.101 32.949 C 89.687 34.341,90.167 35.558,90.167 35.653 C 90.167 35.811,90.827 37.482,93.663 44.500 C 94.237 45.921,94.948 47.758,95.242 48.583 C 95.536 49.408,96.159 50.983,96.625 52.083 C 97.092 53.183,97.624 54.533,97.809 55.083 C 97.994 55.633,98.518 56.965,98.974 58.042 L 99.804 60.000 86.721 60.000 C 79.526 60.000,73.664 59.942,73.694 59.872 C 73.725 59.801,74.041 58.995,74.396 58.080 C 74.752 57.165,75.596 55.052,76.271 53.384 C 76.947 51.716,77.500 50.281,77.500 50.194 C 77.500 50.108,77.840 49.223,78.256 48.227 C 78.671 47.231,79.239 45.817,79.518 45.083 C 80.073 43.624,80.241 43.197,81.614 39.750 C 82.517 37.485,84.491 32.462,85.543 29.750 C 85.828 29.017,86.203 28.079,86.377 27.667 L 86.694 26.917 86.912 27.333 C 87.033 27.563,87.334 28.350,87.583 29.083 " stroke="none" fill="#040404" fill-rule="evenodd"></path><path id="path1" d="" stroke="none" fill="#080404" fill-rule="evenodd"></path><path id="path2" d="" stroke="none" fill="#080404" fill-rule="evenodd"></path><path id="path3" d="" stroke="none" fill="#080404" fill-rule="evenodd"></path><path id="path4" d="" stroke="none" fill="#080404" fill-rule="evenodd"></path></g></svg>