<svg id="svg" version="1.1" xmlns="http://www.w3.org/2000/svg" xmlns:xlink="http://www.w3.org/1999/xlink" width="400" height="400" viewBox="0, 0, 400,400"><g id="svgg"><path id="path0" d="M290.105 127.887 C 290.714 127.979,291.614 127.977,292.105 127.882 C 292.597 127.787,292.100 127.711,291.000 127.714 C 289.900 127.717,289.497 127.795,290.105 127.887 M12.700 160.306 L 0.000 160.411 0.000 191.782 C 0.000 209.590,0.153 223.248,0.355 223.372 C 0.550 223.493,0.824 224.200,0.963 224.945 C 1.630 228.497,6.803 235.464,9.800 236.844 C 10.240 237.046,11.140 237.556,11.800 237.977 C 12.460 238.397,13.369 238.755,13.820 238.771 C 14.271 238.787,14.865 239.025,15.140 239.300 C 15.531 239.692,22.589 239.800,47.720 239.800 L 79.800 239.800 79.800 235.200 L 79.800 230.600 58.600 230.400 C 39.309 230.218,37.283 230.136,36.105 229.493 C 34.053 228.371,32.059 226.443,30.885 224.445 L 29.800 222.600 29.686 191.500 C 29.598 167.454,29.462 160.390,29.086 160.358 C 27.517 160.222,24.085 160.211,12.700 160.306 M102.231 160.302 C 102.104 160.429,102.000 173.736,102.000 189.872 L 102.000 219.210 116.500 219.105 L 131.000 219.000 131.000 189.600 L 131.000 160.200 116.731 160.135 C 108.883 160.100,102.358 160.175,102.231 160.302 M152.197 160.467 C 152.085 160.760,152.040 178.730,152.097 200.400 L 152.200 239.800 166.353 239.905 C 176.573 239.981,180.660 239.882,181.060 239.550 C 181.525 239.164,181.611 233.605,181.591 205.081 C 181.577 185.373,181.719 170.921,181.928 170.712 C 182.369 170.271,200.422 170.200,205.376 170.620 C 213.140 171.277,220.298 175.120,222.544 179.837 C 222.954 180.697,223.449 181.713,223.644 182.095 C 226.388 187.452,218.174 196.091,205.434 201.248 C 197.890 204.302,197.794 207.222,204.907 217.285 C 206.507 219.548,208.158 221.935,208.576 222.590 C 208.994 223.244,209.489 223.964,209.676 224.190 C 210.330 224.979,215.988 233.231,216.390 233.981 C 216.612 234.397,217.028 234.977,217.312 235.269 C 217.597 235.561,218.243 236.475,218.748 237.300 C 220.467 240.110,219.906 240.018,235.005 239.989 C 242.488 239.976,248.816 239.837,249.067 239.682 C 249.363 239.499,247.817 236.973,244.661 232.482 C 226.307 206.362,226.402 206.673,235.373 201.999 C 239.262 199.974,241.504 198.524,242.894 197.138 C 243.275 196.758,243.829 196.301,244.123 196.123 C 246.557 194.653,250.004 187.411,249.995 183.787 C 249.982 178.930,243.922 168.400,241.139 168.400 C 240.984 168.400,240.603 168.146,240.293 167.836 C 238.116 165.659,230.340 162.583,222.400 160.758 C 219.061 159.991,152.484 159.715,152.197 160.467 M338.200 160.436 C 323.719 161.504,315.289 177.689,322.661 190.269 C 326.301 196.480,331.527 199.803,346.600 205.492 C 348.286 206.128,348.819 206.331,351.400 207.314 C 362.951 211.714,366.735 213.785,369.014 216.956 C 371.502 220.417,369.899 225.537,365.367 228.600 L 363.000 230.200 341.600 230.400 L 320.200 230.600 320.200 235.200 L 320.200 239.800 352.000 239.800 L 383.800 239.800 386.200 238.826 C 392.621 236.220,398.012 230.407,399.028 224.992 C 399.172 224.222,399.450 223.493,399.645 223.372 C 400.241 223.004,400.056 217.798,399.402 216.546 C 399.074 215.916,398.804 214.916,398.802 214.324 C 398.801 213.732,398.620 213.136,398.400 213.000 C 398.180 212.864,398.000 212.473,398.000 212.130 C 398.000 210.376,393.398 204.899,389.837 202.416 C 389.377 202.095,388.803 201.645,388.563 201.416 C 387.945 200.828,377.512 196.000,376.858 196.000 C 376.565 196.000,372.500 194.451,370.600 193.615 C 370.160 193.422,367.640 192.454,365.000 191.464 C 350.769 186.129,347.427 182.524,350.438 175.755 C 351.274 173.877,353.617 171.373,354.919 170.967 C 355.404 170.816,355.928 170.491,356.085 170.246 C 356.288 169.929,362.698 169.765,378.185 169.678 L 400.000 169.556 400.000 164.983 L 400.000 160.410 370.700 160.305 C 354.585 160.247,339.960 160.306,338.200 160.436 M268.984 181.300 C 268.879 181.575,268.840 194.850,268.897 210.800 L 269.000 239.800 283.500 239.905 L 298.000 240.010 298.000 210.405 L 298.000 180.800 283.587 180.800 C 272.426 180.800,269.132 180.913,268.984 181.300 M108.200 272.400 C 108.060 272.627,108.396 272.800,108.976 272.800 C 109.539 272.800,110.000 272.620,110.000 272.400 C 110.000 272.180,109.651 272.000,109.224 272.000 C 108.797 272.000,108.336 272.180,108.200 272.400 " stroke="none" fill="#224d79" fill-rule="evenodd"></path><path id="path1" d="M0.000 79.611 L 0.000 159.223 14.854 159.185 C 24.021 159.162,29.857 159.297,30.098 159.538 C 30.345 159.785,30.471 170.751,30.443 189.464 C 30.393 223.007,30.457 223.759,33.600 226.521 C 36.813 229.344,36.320 229.288,60.200 229.562 L 81.000 229.800 81.112 234.846 C 81.222 239.863,81.217 239.897,80.207 240.559 C 79.078 241.299,22.346 241.286,16.785 240.545 C 10.776 239.744,4.557 235.103,1.507 229.143 C 0.848 227.854,0.239 226.800,0.154 226.800 C 0.069 226.800,0.000 265.770,0.000 313.400 L 0.000 400.000 200.000 400.000 L 400.000 400.000 399.999 313.300 C 399.997 217.554,400.217 225.798,397.793 230.555 C 396.802 232.498,392.546 236.737,390.522 237.796 C 389.685 238.234,388.910 238.700,388.800 238.831 C 387.321 240.593,382.258 240.889,350.701 241.059 C 314.928 241.251,318.800 241.989,318.800 234.978 C 318.800 232.258,318.972 229.941,319.184 229.810 C 319.395 229.679,328.762 229.582,339.998 229.593 C 354.851 229.608,360.667 229.485,361.301 229.146 C 361.782 228.889,362.540 228.661,362.987 228.639 C 368.578 228.370,371.000 217.986,366.068 215.435 C 365.479 215.131,364.656 214.503,364.237 214.041 C 363.818 213.578,363.144 213.200,362.738 213.200 C 362.332 213.200,362.000 213.020,362.000 212.800 C 362.000 212.580,361.819 212.400,361.598 212.400 C 361.377 212.400,360.263 211.950,359.123 211.400 C 357.983 210.850,356.656 210.400,356.174 210.400 C 355.692 210.400,355.074 210.130,354.800 209.800 C 354.526 209.470,354.052 209.200,353.746 209.200 C 353.440 209.200,352.877 209.042,352.495 208.849 C 352.113 208.656,351.080 208.275,350.200 208.003 C 349.320 207.731,348.060 207.283,347.400 207.008 C 346.353 206.572,345.173 206.106,341.800 204.793 C 341.360 204.622,340.343 204.193,339.540 203.841 C 338.736 203.488,337.791 203.200,337.440 203.200 C 337.088 203.200,336.800 203.020,336.800 202.800 C 336.800 202.580,336.536 202.400,336.214 202.400 C 335.449 202.400,332.800 201.135,332.800 200.769 C 332.800 200.614,332.395 200.382,331.900 200.254 C 331.405 200.126,330.477 199.566,329.838 199.010 C 329.199 198.455,328.525 198.000,328.341 198.000 C 327.776 198.000,322.800 192.753,322.800 192.158 C 322.800 191.851,322.665 191.599,322.500 191.597 C 322.075 191.594,320.803 189.268,320.787 188.468 C 320.780 188.100,320.510 187.451,320.187 187.024 C 319.864 186.596,319.600 185.752,319.600 185.147 C 319.600 184.542,319.420 183.936,319.200 183.800 C 318.678 183.478,318.678 176.522,319.200 176.200 C 319.420 176.064,319.600 175.458,319.600 174.853 C 319.600 174.248,319.864 173.404,320.187 172.976 C 320.510 172.549,320.780 171.885,320.787 171.500 C 320.794 171.115,320.960 170.800,321.157 170.800 C 321.353 170.800,321.626 170.350,321.764 169.800 C 321.902 169.250,322.192 168.800,322.408 168.800 C 322.623 168.800,322.800 168.562,322.800 168.270 C 322.800 167.642,327.720 162.800,328.358 162.800 C 328.601 162.800,328.800 162.623,328.800 162.408 C 328.800 162.192,329.250 161.902,329.800 161.764 C 330.350 161.626,330.800 161.353,330.800 161.157 C 330.800 160.960,331.214 160.800,331.720 160.800 C 332.226 160.800,332.838 160.602,333.080 160.360 C 334.044 159.396,341.050 159.176,369.900 159.203 L 400.000 159.232 400.000 79.616 L 400.000 0.000 200.000 0.000 L 0.000 0.000 0.000 79.611 M298.157 111.158 C 300.877 113.795,300.569 117.625,297.429 120.198 L 295.599 121.697 283.700 121.640 C 271.057 121.579,268.871 121.239,267.985 119.200 C 267.842 118.870,267.516 118.197,267.262 117.705 C 266.713 116.643,266.659 114.666,267.153 113.695 C 267.348 113.313,267.720 112.539,267.980 111.976 C 269.061 109.639,269.365 109.595,283.678 109.702 L 296.757 109.800 298.157 111.158 M296.226 126.636 C 300.327 128.350,300.649 134.473,296.776 137.116 C 294.787 138.474,271.587 138.342,269.729 136.962 C 266.029 134.216,266.105 129.492,269.888 127.140 C 272.216 125.693,293.014 125.295,296.226 126.636 M297.269 144.120 C 300.400 146.509,300.113 151.523,296.727 153.588 C 294.645 154.857,272.458 154.834,270.013 153.560 C 267.090 152.036,266.210 148.992,267.832 146.011 C 269.540 142.874,269.633 142.855,283.469 142.826 L 295.538 142.800 297.269 144.120 M131.300 159.151 L 132.400 159.580 132.400 189.357 C 132.400 205.735,132.291 219.419,132.157 219.767 C 131.839 220.596,102.103 220.743,101.280 219.920 C 100.915 219.555,100.800 212.260,100.800 189.531 L 100.800 159.623 102.018 159.311 C 104.016 158.801,130.036 158.658,131.300 159.151 M219.400 159.497 C 221.600 159.704,223.907 160.081,224.526 160.336 C 225.145 160.591,226.260 160.800,227.002 160.800 C 227.745 160.800,228.464 160.980,228.600 161.200 C 228.736 161.420,229.214 161.600,229.663 161.600 C 231.296 161.600,239.361 165.603,241.475 167.464 C 242.314 168.202,243.405 168.914,243.900 169.046 C 244.395 169.179,244.800 169.473,244.800 169.700 C 244.800 169.928,245.610 171.062,246.600 172.221 C 247.590 173.379,248.400 174.514,248.400 174.741 C 248.400 174.968,248.797 175.827,249.282 176.649 C 250.027 177.912,250.822 181.396,250.867 183.600 C 250.908 185.601,250.142 188.884,249.220 190.662 C 247.598 193.786,243.885 198.400,242.992 198.400 C 242.703 198.400,242.407 198.552,242.333 198.738 C 242.114 199.294,238.320 201.844,236.600 202.591 C 231.106 204.979,229.444 206.945,230.756 209.505 C 230.952 209.887,231.447 210.963,231.856 211.895 C 232.265 212.828,232.718 213.593,232.862 213.595 C 233.006 213.598,233.681 214.545,234.362 215.700 C 236.125 218.690,236.489 219.232,237.500 220.375 C 237.995 220.934,238.400 221.619,238.400 221.896 C 238.400 222.173,238.580 222.400,238.800 222.400 C 239.020 222.400,239.200 222.676,239.200 223.013 C 239.200 223.349,239.470 223.729,239.800 223.855 C 240.130 223.982,240.400 224.254,240.400 224.460 C 240.400 224.813,240.731 225.282,241.900 226.585 C 242.175 226.892,242.400 227.321,242.400 227.538 C 242.400 227.755,242.538 227.993,242.707 228.067 C 242.876 228.140,243.637 229.190,244.399 230.400 C 245.160 231.610,245.967 232.795,246.192 233.034 C 246.606 233.474,247.031 234.049,249.195 237.097 C 249.858 238.030,250.400 239.245,250.400 239.797 L 250.400 240.800 235.489 240.800 C 219.889 240.800,218.800 240.684,218.800 239.020 C 218.800 238.726,218.530 238.382,218.200 238.255 C 217.870 238.129,217.600 237.820,217.600 237.570 C 217.600 237.178,217.071 236.419,215.194 234.117 C 214.977 233.851,214.800 233.535,214.800 233.414 C 214.800 233.293,213.630 231.576,212.200 229.600 C 210.770 227.624,209.600 225.825,209.600 225.603 C 209.600 225.381,209.448 225.200,209.263 225.200 C 209.078 225.200,208.587 224.570,208.172 223.800 C 207.757 223.030,207.279 222.400,207.109 222.400 C 206.939 222.400,206.800 222.229,206.800 222.021 C 206.800 221.812,206.350 221.156,205.800 220.562 C 205.250 219.969,204.800 219.322,204.800 219.125 C 204.800 218.927,204.048 217.748,203.130 216.505 C 198.498 210.234,197.526 205.780,200.193 203.034 C 200.959 202.245,201.859 201.600,202.193 201.600 C 202.527 201.600,202.800 201.420,202.800 201.200 C 202.800 200.980,203.145 200.800,203.568 200.800 C 203.990 200.800,204.845 200.541,205.468 200.226 C 207.972 198.955,211.106 197.600,211.540 197.600 C 211.793 197.600,212.000 197.420,212.000 197.200 C 212.000 196.980,212.360 196.800,212.800 196.800 C 213.240 196.800,213.600 196.632,213.600 196.427 C 213.600 196.222,213.936 195.947,214.346 195.817 C 215.822 195.349,220.638 190.145,221.729 187.840 C 223.904 183.246,222.133 178.321,217.388 175.766 C 216.625 175.354,216.000 174.879,216.000 174.709 C 216.000 174.539,215.662 174.400,215.249 174.400 C 214.836 174.400,214.274 174.130,214.000 173.800 C 213.726 173.470,213.175 173.200,212.775 173.200 C 212.375 173.200,211.936 173.020,211.800 172.800 C 211.664 172.580,210.969 172.400,210.256 172.400 C 209.543 172.400,208.754 172.194,208.502 171.942 C 207.958 171.398,188.236 170.928,184.670 171.374 L 182.400 171.658 182.400 205.982 L 182.400 240.307 181.500 240.548 C 179.888 240.980,152.406 240.831,151.574 240.386 C 150.817 239.981,150.800 239.110,150.800 200.035 L 150.800 160.098 151.700 159.464 C 152.733 158.737,211.606 158.766,219.400 159.497 M296.884 160.859 C 299.921 163.023,299.801 167.639,296.657 169.553 C 295.163 170.463,292.656 170.600,279.694 170.481 L 270.788 170.400 269.309 169.044 C 266.651 166.608,267.380 161.713,270.600 160.382 C 272.652 159.533,295.607 159.950,296.884 160.859 M358.724 170.811 C 356.898 171.118,354.765 172.086,353.679 173.100 C 353.384 173.375,352.976 173.600,352.771 173.600 C 352.567 173.600,352.400 173.784,352.400 174.008 C 352.400 174.232,351.950 175.129,351.400 176.000 C 350.225 177.862,350.004 181.173,351.000 182.000 C 351.330 182.274,351.600 182.669,351.600 182.878 C 351.600 183.857,359.403 188.800,360.949 188.800 C 361.225 188.800,362.383 189.250,363.523 189.800 C 364.663 190.350,365.779 190.800,366.003 190.800 C 366.228 190.800,366.723 190.958,367.105 191.151 C 368.960 192.089,370.904 192.800,371.614 192.800 C 372.046 192.800,372.400 192.980,372.400 193.200 C 372.400 193.420,372.726 193.600,373.124 193.600 C 373.521 193.600,374.196 193.864,374.624 194.187 C 375.051 194.510,375.794 194.780,376.276 194.787 C 376.758 194.794,377.264 194.980,377.400 195.200 C 377.536 195.420,377.907 195.600,378.226 195.600 C 378.544 195.600,379.737 196.050,380.877 196.600 C 382.017 197.150,383.102 197.600,383.288 197.600 C 383.791 197.600,386.034 198.688,387.400 199.595 C 388.060 200.033,388.870 200.518,389.200 200.673 C 389.530 200.828,389.993 201.145,390.229 201.378 C 390.466 201.610,391.456 202.413,392.429 203.161 C 395.275 205.349,397.887 208.897,399.526 212.800 C 399.827 213.516,399.954 207.644,399.973 192.100 L 400.000 170.400 380.300 170.447 C 369.465 170.473,359.756 170.636,358.724 170.811 M298.720 180.080 C 299.495 180.855,299.407 240.346,298.630 240.644 C 297.104 241.229,268.374 241.001,267.993 240.400 C 267.390 239.450,267.475 180.685,268.080 180.080 C 268.769 179.391,298.031 179.391,298.720 180.080 M130.814 231.029 C 132.948 233.164,132.985 236.309,130.902 238.392 L 129.294 240.000 116.820 240.000 L 104.347 240.000 102.976 238.954 C 100.171 236.815,100.356 232.305,103.324 230.447 C 104.536 229.688,105.229 229.652,117.093 229.724 L 129.586 229.800 130.814 231.029 M129.966 246.429 C 134.128 248.599,133.989 254.333,129.720 256.539 C 127.953 257.451,105.409 257.537,103.680 256.638 C 101.237 255.367,100.481 253.655,100.730 249.961 C 100.829 248.487,103.281 246.090,104.894 245.890 C 110.137 245.240,128.441 245.634,129.966 246.429 M129.251 262.565 C 134.030 264.567,134.430 270.978,129.910 273.135 C 127.518 274.276,106.354 274.550,103.933 273.471 C 99.459 271.476,99.381 265.013,103.800 262.482 C 105.068 261.756,127.495 261.829,129.251 262.565 M127.043 278.572 C 130.056 278.803,132.400 280.047,132.400 281.416 C 132.400 281.931,132.580 282.464,132.800 282.600 C 133.020 282.736,133.200 283.546,133.200 284.400 C 133.200 285.254,133.020 286.064,132.800 286.200 C 132.580 286.336,132.400 286.807,132.400 287.246 C 132.400 287.686,131.820 288.575,131.111 289.223 L 129.822 290.400 117.085 290.400 C 103.705 290.400,103.704 290.400,101.405 288.487 C 99.277 286.715,99.623 282.039,102.004 280.400 C 102.483 280.070,103.384 279.431,104.007 278.980 C 105.139 278.160,118.570 277.922,127.043 278.572 " stroke="none" fill="#fbfbfb" fill-rule="evenodd"></path><path id="path2" d="M280.200 110.400 C 268.946 110.656,268.000 111.055,268.000 115.551 C 268.000 120.183,269.814 120.806,283.200 120.772 C 296.012 120.739,297.063 120.505,298.452 117.371 C 299.518 114.968,298.890 112.920,296.600 111.326 C 295.102 110.284,292.290 110.125,280.200 110.400 M105.042 279.852 C 100.488 281.449,99.730 286.444,103.665 288.929 C 105.401 290.026,127.399 290.038,129.593 288.943 C 133.331 287.079,132.910 281.676,128.894 279.954 C 126.586 278.965,107.799 278.885,105.042 279.852 " stroke="none" fill="#d8433d" fill-rule="evenodd"></path><path id="path3" d="M270.600 110.467 C 269.395 111.133,267.998 112.484,268.012 112.970 C 268.019 113.206,268.208 113.085,268.432 112.700 C 269.480 110.900,270.950 110.611,280.200 110.385 L 289.000 110.170 280.200 110.097 C 274.387 110.049,271.128 110.174,270.600 110.467 M292.365 110.298 C 298.531 110.588,300.951 115.054,297.285 119.378 C 296.626 120.156,296.629 120.164,297.365 119.593 C 301.826 116.134,298.766 109.931,292.672 110.079 L 289.400 110.159 292.365 110.298 M267.372 114.971 C 267.237 115.505,267.319 116.270,267.552 116.671 C 267.899 117.268,267.978 117.092,267.988 115.700 C 268.001 113.805,267.741 113.498,267.372 114.971 M268.000 118.087 C 268.000 118.429,268.495 119.025,269.100 119.412 L 270.200 120.115 269.200 118.958 C 268.650 118.321,268.155 117.725,268.100 117.633 C 268.045 117.542,268.000 117.746,268.000 118.087 M271.546 120.578 C 273.435 121.451,293.063 121.441,295.200 120.566 C 296.406 120.072,296.434 120.034,295.400 120.293 C 293.802 120.693,272.476 120.674,271.200 120.271 C 270.650 120.098,270.806 120.236,271.546 120.578 M269.745 127.941 C 266.432 130.341,266.978 135.395,270.707 136.835 C 272.091 137.370,295.358 137.358,296.359 136.822 C 298.873 135.477,299.864 131.769,298.361 129.338 C 296.824 126.851,296.523 126.800,283.280 126.800 L 271.320 126.800 269.745 127.941 M292.105 127.882 C 291.614 127.977,290.714 127.979,290.105 127.887 C 289.497 127.795,289.900 127.717,291.000 127.714 C 292.100 127.711,292.597 127.787,292.105 127.882 M280.200 143.608 C 270.237 143.833,270.159 143.847,268.808 145.675 C 266.909 148.243,267.968 152.094,270.904 153.300 C 272.699 154.037,287.856 154.337,293.501 153.747 C 296.034 153.482,298.000 152.316,298.000 151.077 C 298.000 150.731,298.180 150.336,298.400 150.200 C 298.946 149.863,298.905 147.346,298.337 146.274 C 296.833 143.435,295.639 143.259,280.200 143.608 M0.000 160.019 C 0.000 160.303,4.584 160.425,14.300 160.398 C 22.165 160.376,28.819 160.368,29.086 160.379 C 29.462 160.395,29.598 167.440,29.686 191.500 L 29.800 222.600 30.885 224.445 C 32.059 226.443,34.053 228.371,36.105 229.493 C 37.283 230.136,39.309 230.218,58.600 230.400 L 79.800 230.600 79.800 235.200 L 79.800 239.800 47.720 239.800 C 22.589 239.800,15.531 239.692,15.140 239.300 C 14.865 239.025,14.271 238.787,13.820 238.771 C 13.369 238.755,12.460 238.397,11.800 237.977 C 11.140 237.556,10.240 237.046,9.800 236.844 C 6.803 235.464,1.630 228.497,0.963 224.945 C 0.655 223.303,0.000 222.764,0.000 224.153 C 0.000 224.703,0.157 225.250,0.348 225.368 C 0.540 225.486,0.797 226.082,0.921 226.692 C 1.665 230.375,7.035 236.118,12.000 238.541 L 15.400 240.200 47.535 240.320 C 71.668 240.410,79.811 240.323,80.235 239.971 C 80.855 239.456,81.063 231.434,80.481 230.517 C 80.249 230.152,74.999 230.005,58.987 229.917 C 35.127 229.785,36.730 229.996,33.321 226.547 C 30.315 223.505,30.438 224.974,30.362 191.076 C 30.304 165.287,30.208 160.665,29.719 160.176 C 28.996 159.453,0.000 159.299,0.000 160.019 M101.900 160.032 C 101.008 160.552,100.793 218.633,101.680 219.520 C 102.368 220.208,130.832 220.208,131.520 219.520 C 132.350 218.690,132.200 160.162,131.367 159.843 C 130.251 159.414,102.656 159.592,101.900 160.032 M151.680 160.080 C 150.984 160.776,150.984 239.224,151.680 239.920 C 152.234 240.474,180.637 240.618,181.498 240.072 C 181.887 239.824,182.018 232.271,182.098 205.378 L 182.200 171.000 195.310 171.030 C 204.777 171.052,208.551 171.191,208.890 171.530 C 209.149 171.789,209.778 172.000,210.288 172.000 C 213.423 172.000,220.709 177.017,222.252 180.238 C 225.484 186.986,218.198 196.125,206.200 200.374 C 199.381 202.789,197.654 205.760,200.139 210.800 C 201.135 212.821,206.590 221.028,208.140 222.838 C 208.503 223.262,208.800 223.699,208.800 223.808 C 208.800 223.917,209.981 225.639,211.425 227.635 C 212.869 229.630,214.702 232.282,215.498 233.527 C 216.295 234.772,217.091 235.973,217.268 236.195 C 217.445 236.418,218.186 237.410,218.915 238.400 L 220.240 240.200 234.931 240.305 C 247.342 240.394,249.655 240.321,249.840 239.840 C 249.966 239.511,247.978 236.305,245.129 232.244 C 242.418 228.379,238.592 222.919,236.627 220.109 C 228.184 208.036,228.096 206.338,235.720 202.440 C 241.543 199.463,245.148 196.413,247.751 192.263 C 249.100 190.114,250.293 186.960,249.905 186.571 C 249.781 186.448,249.469 187.033,249.212 187.873 C 248.363 190.646,245.495 195.295,244.123 196.123 C 243.829 196.301,243.275 196.758,242.894 197.138 C 241.504 198.524,239.262 199.974,235.373 201.999 C 230.076 204.759,229.790 205.065,229.841 207.912 C 229.906 211.458,230.014 211.637,244.661 232.482 C 247.817 236.973,249.363 239.499,249.067 239.682 C 248.816 239.837,242.488 239.976,235.005 239.989 C 219.906 240.018,220.467 240.110,218.748 237.300 C 218.243 236.475,217.597 235.561,217.312 235.269 C 217.028 234.977,216.612 234.397,216.390 233.981 C 215.988 233.231,210.330 224.979,209.676 224.190 C 209.489 223.964,208.994 223.244,208.576 222.590 C 208.158 221.935,206.507 219.548,204.907 217.285 C 197.794 207.222,197.890 204.302,205.434 201.248 C 218.174 196.091,226.388 187.452,223.644 182.095 C 223.449 181.713,222.954 180.697,222.544 179.837 C 220.298 175.120,213.140 171.277,205.376 170.620 C 200.422 170.200,182.369 170.271,181.928 170.712 C 181.719 170.921,181.577 185.373,181.591 205.081 C 181.611 233.605,181.525 239.164,181.060 239.550 C 180.660 239.882,176.573 239.981,166.353 239.905 L 152.200 239.800 152.200 200.000 L 152.200 160.200 185.800 160.200 C 223.154 160.200,221.856 160.117,230.800 163.093 C 233.859 164.111,239.273 166.816,240.293 167.836 C 240.603 168.146,240.984 168.400,241.139 168.400 C 243.953 168.400,249.883 178.762,250.067 184.000 L 250.144 186.200 250.296 184.256 C 251.224 172.354,237.279 161.619,218.800 160.011 C 212.383 159.452,152.246 159.514,151.680 160.080 M336.800 159.897 C 335.590 159.979,334.429 160.216,334.220 160.423 C 334.011 160.630,333.548 160.800,333.191 160.800 C 331.856 160.800,328.065 163.264,325.513 165.792 C 319.985 171.265,317.783 180.152,320.357 186.600 C 323.317 194.015,328.111 198.425,337.700 202.554 C 338.525 202.909,339.785 203.454,340.500 203.764 C 341.215 204.074,344.050 205.164,346.800 206.187 C 352.265 208.218,354.338 209.022,356.260 209.854 C 356.954 210.154,357.628 210.400,357.759 210.400 C 358.510 210.400,364.320 213.407,365.916 214.622 C 370.480 218.095,370.820 222.742,366.805 226.757 C 363.530 230.032,363.793 230.000,340.197 230.000 C 321.862 230.000,319.660 230.067,319.443 230.633 C 318.921 231.992,319.180 239.485,319.765 239.971 C 320.680 240.730,384.119 240.354,386.000 239.578 C 392.044 237.084,399.200 229.912,399.200 226.349 C 399.200 225.963,399.380 225.536,399.600 225.400 C 399.820 225.264,400.000 224.703,400.000 224.153 C 400.000 222.745,399.343 223.313,399.028 224.992 C 398.012 230.407,392.621 236.220,386.200 238.826 L 383.800 239.800 352.000 239.800 L 320.200 239.800 320.200 235.200 L 320.200 230.600 341.600 230.400 L 363.000 230.200 365.367 228.600 C 374.466 222.451,371.338 215.325,357.000 209.538 C 352.991 207.919,351.652 207.399,346.600 205.492 C 337.757 202.154,334.001 200.485,330.800 198.469 C 315.056 188.556,316.948 167.017,334.089 161.003 C 335.556 160.489,340.387 160.403,367.900 160.405 C 389.215 160.406,400.000 160.271,400.000 160.003 C 400.000 159.623,342.289 159.525,336.800 159.897 M131.000 189.600 L 131.000 219.000 116.500 219.105 L 102.000 219.210 102.000 189.872 C 102.000 173.736,102.104 160.429,102.231 160.302 C 102.358 160.175,108.883 160.100,116.731 160.135 L 131.000 160.200 131.000 189.600 M357.500 169.891 C 356.675 169.978,356.000 170.198,356.000 170.381 C 356.000 170.564,355.569 170.821,355.043 170.953 C 353.712 171.288,351.313 173.789,350.438 175.755 C 347.427 182.524,350.769 186.129,365.000 191.464 C 367.640 192.454,370.160 193.422,370.600 193.615 C 372.500 194.451,376.565 196.000,376.858 196.000 C 377.512 196.000,387.945 200.828,388.563 201.416 C 388.803 201.645,389.377 202.095,389.837 202.416 C 393.229 204.781,398.000 210.359,398.000 211.959 C 398.000 212.208,398.170 212.723,398.378 213.105 C 398.586 213.487,398.863 214.469,398.994 215.286 C 399.124 216.103,399.404 216.879,399.615 217.010 C 400.101 217.310,400.120 215.422,399.641 214.495 C 399.444 214.113,398.959 212.990,398.564 212.000 C 396.292 206.301,390.222 200.917,382.600 197.841 C 381.060 197.219,378.850 196.281,377.689 195.755 C 376.528 195.230,375.415 194.800,375.215 194.800 C 375.016 194.800,373.806 194.371,372.526 193.847 C 371.247 193.323,368.940 192.407,367.400 191.812 C 365.860 191.217,363.430 190.278,362.000 189.726 C 353.895 186.597,350.000 183.332,350.000 179.668 C 350.000 176.387,351.880 173.391,355.111 171.523 L 357.400 170.200 378.800 169.984 L 400.200 169.768 379.600 169.751 C 368.270 169.742,358.325 169.805,357.500 169.891 M268.700 180.432 C 267.673 181.030,267.607 239.764,268.633 240.157 C 269.920 240.651,297.812 240.428,298.320 239.920 C 299.015 239.225,299.015 181.175,298.320 180.480 C 297.698 179.858,269.764 179.812,268.700 180.432 M298.000 210.405 L 298.000 240.010 283.500 239.905 L 269.000 239.800 268.897 210.800 C 268.840 194.850,268.879 181.575,268.984 181.300 C 269.132 180.913,272.426 180.800,283.587 180.800 L 298.000 180.800 298.000 210.405 M103.504 247.243 C 99.961 249.887,100.946 255.262,105.181 256.391 C 107.270 256.948,126.743 256.913,128.429 256.350 C 132.756 254.903,133.643 249.478,129.924 247.210 C 127.868 245.957,105.191 245.985,103.504 247.243 M103.125 263.573 C 99.510 266.417,100.675 272.016,105.121 273.162 C 108.006 273.906,127.991 273.504,129.671 272.668 C 132.927 271.048,133.454 266.743,130.717 264.120 L 129.549 263.000 116.848 262.884 C 104.635 262.773,104.108 262.800,103.125 263.573 M110.000 272.400 C 110.000 272.620,109.539 272.800,108.976 272.800 C 108.396 272.800,108.060 272.627,108.200 272.400 C 108.336 272.180,108.797 272.000,109.224 272.000 C 109.651 272.000,110.000 272.180,110.000 272.400 M104.400 279.526 C 102.301 280.537,100.800 282.308,100.800 283.774 C 100.800 284.275,101.133 283.909,101.700 282.785 C 103.304 279.605,104.070 279.421,116.320 279.274 C 127.850 279.137,129.550 279.393,131.220 281.516 C 131.649 282.061,132.000 282.316,132.000 282.083 C 132.000 281.370,130.743 280.347,128.892 279.554 C 126.380 278.477,106.624 278.454,104.400 279.526 M132.059 284.600 C 132.063 286.445,132.095 286.512,132.477 285.464 C 132.763 284.679,132.761 284.062,132.472 283.464 C 132.122 282.741,132.055 282.926,132.059 284.600 M100.859 285.400 C 100.841 285.840,101.090 286.549,101.413 286.976 C 101.736 287.404,102.000 287.575,102.000 287.356 C 102.000 287.138,101.837 286.789,101.639 286.580 C 101.440 286.371,101.191 285.840,101.085 285.400 L 100.893 284.600 100.859 285.400 M131.297 287.594 C 130.242 289.282,128.633 289.583,120.000 289.703 L 111.800 289.818 120.506 289.909 L 129.212 290.000 130.705 288.632 C 131.526 287.880,132.101 287.168,131.984 287.050 C 131.866 286.933,131.557 287.177,131.297 287.594 M103.000 288.980 C 103.889 289.732,104.615 289.982,105.800 289.941 L 107.400 289.886 106.000 289.643 C 105.230 289.509,103.970 289.077,103.200 288.682 L 101.800 287.963 103.000 288.980 " stroke="none" fill="#9ca5b9" fill-rule="evenodd"></path><path id="path4" d="M269.527 110.278 C 268.936 110.649,268.240 111.414,267.980 111.976 C 267.720 112.539,267.348 113.313,267.153 113.695 C 266.659 114.666,266.713 116.643,267.262 117.705 C 267.516 118.197,267.842 118.870,267.985 119.200 C 268.871 121.239,271.057 121.579,283.700 121.640 L 295.599 121.697 297.429 120.198 C 300.569 117.625,300.877 113.795,298.157 111.158 L 296.757 109.800 283.678 109.702 C 271.994 109.614,270.486 109.676,269.527 110.278 M297.326 111.305 C 299.382 113.243,299.831 115.311,298.695 117.599 C 297.092 120.825,296.410 120.983,283.600 121.103 L 272.600 121.206 270.457 120.103 C 267.776 118.723,266.875 116.820,267.663 114.200 C 268.908 110.061,269.127 110.003,283.672 110.001 L 295.943 110.000 297.326 111.305 M280.000 126.000 C 271.849 126.190,271.321 126.249,269.888 127.140 C 266.105 129.492,266.029 134.216,269.729 136.962 C 271.587 138.342,294.787 138.474,296.776 137.116 C 299.645 135.159,300.398 131.206,298.430 128.443 C 296.657 125.953,294.475 125.663,280.000 126.000 M296.381 127.390 C 299.929 129.225,299.916 134.918,296.359 136.822 C 295.358 137.358,272.091 137.370,270.707 136.835 C 266.978 135.395,266.432 130.341,269.745 127.941 L 271.320 126.800 283.280 126.800 C 293.041 126.800,295.450 126.909,296.381 127.390 M270.132 143.483 C 266.149 145.468,266.078 151.509,270.013 153.560 C 272.458 154.834,294.645 154.857,296.727 153.588 C 300.113 151.523,300.400 146.509,297.269 144.120 L 295.538 142.800 283.469 142.826 C 273.310 142.847,271.199 142.951,270.132 143.483 M295.426 143.812 C 297.811 144.291,300.079 149.162,298.400 150.200 C 298.180 150.336,298.000 150.731,298.000 151.077 C 298.000 152.316,296.034 153.482,293.501 153.747 C 287.856 154.337,272.699 154.037,270.904 153.300 C 267.202 151.779,266.850 145.839,270.361 144.127 C 271.549 143.548,292.779 143.282,295.426 143.812 M13.600 159.204 L -0.200 159.416 14.471 159.508 C 30.960 159.611,30.665 159.558,30.256 162.362 C 30.049 163.777,30.052 163.781,30.451 162.600 C 30.980 161.036,30.328 159.200,29.243 159.200 C 28.815 159.200,28.226 159.153,27.933 159.096 C 27.640 159.039,21.190 159.088,13.600 159.204 M102.018 159.311 L 100.800 159.623 100.800 189.531 C 100.800 212.260,100.915 219.555,101.280 219.920 C 102.103 220.743,131.839 220.596,132.157 219.767 C 132.291 219.419,132.400 205.735,132.400 189.357 L 132.400 159.580 131.300 159.151 C 130.036 158.658,104.016 158.801,102.018 159.311 M151.700 159.464 L 150.800 160.098 150.800 200.035 C 150.800 239.110,150.817 239.981,151.574 240.386 C 152.406 240.831,179.888 240.980,181.500 240.548 L 182.400 240.307 182.400 205.953 C 182.400 187.059,182.445 171.571,182.500 171.537 C 182.555 171.502,187.280 171.355,193.000 171.212 L 203.400 170.950 192.800 170.975 L 182.200 171.000 182.098 205.378 C 182.018 232.271,181.887 239.824,181.498 240.072 C 180.637 240.618,152.234 240.474,151.680 239.920 C 150.984 239.224,150.984 160.776,151.680 160.080 C 152.046 159.714,159.630 159.610,183.580 159.640 C 211.988 159.676,219.691 159.855,224.000 160.577 C 225.304 160.796,225.332 160.780,224.400 160.344 C 221.454 158.966,153.575 158.145,151.700 159.464 M339.200 159.180 C 338.650 159.367,337.447 159.538,336.526 159.560 C 334.664 159.604,332.300 160.384,333.113 160.685 C 333.396 160.790,333.918 160.634,334.275 160.338 C 334.801 159.901,341.054 159.760,367.561 159.586 L 400.200 159.372 371.956 159.286 C 356.422 159.239,342.922 159.119,341.956 159.020 C 340.990 158.920,339.750 158.992,339.200 159.180 M131.367 159.843 C 132.200 160.162,132.350 218.690,131.520 219.520 C 130.832 220.208,102.368 220.208,101.680 219.520 C 100.793 218.633,101.008 160.552,101.900 160.032 C 102.656 159.592,130.251 159.414,131.367 159.843 M270.600 160.382 C 267.380 161.713,266.651 166.608,269.309 169.044 L 270.788 170.400 279.694 170.481 C 292.656 170.600,295.163 170.463,296.657 169.553 C 299.801 167.639,299.921 163.023,296.884 160.859 C 295.607 159.950,272.652 159.533,270.600 160.382 M229.000 161.819 C 230.540 162.345,231.980 162.712,232.200 162.635 C 232.720 162.453,230.574 161.600,229.598 161.600 C 229.185 161.600,228.736 161.420,228.600 161.200 C 228.464 160.980,227.868 160.814,227.276 160.832 C 226.537 160.854,227.078 161.163,229.000 161.819 M330.800 161.157 C 330.800 161.353,330.350 161.626,329.800 161.764 C 329.250 161.902,328.800 162.195,328.800 162.416 C 328.800 162.636,329.520 162.449,330.400 162.000 C 332.098 161.134,332.376 160.800,331.400 160.800 C 331.070 160.800,330.800 160.960,330.800 161.157 M232.833 162.943 C 232.925 163.021,234.705 163.966,236.788 165.043 C 243.215 168.363,248.358 174.022,249.796 179.355 C 250.312 181.268,250.349 181.309,250.369 180.000 C 250.381 179.207,249.959 177.845,249.395 176.859 C 248.848 175.902,248.400 174.940,248.400 174.723 C 248.400 174.506,247.590 173.379,246.600 172.221 C 245.610 171.062,244.800 169.928,244.800 169.700 C 244.800 169.473,244.395 169.179,243.900 169.046 C 243.405 168.914,242.322 168.209,241.493 167.480 C 240.016 166.179,233.955 162.800,233.101 162.800 C 232.862 162.800,232.742 162.864,232.833 162.943 M325.212 165.392 C 323.788 166.802,322.708 168.036,322.812 168.133 C 322.915 168.229,324.248 167.069,325.772 165.554 C 327.297 164.039,328.377 162.806,328.172 162.814 C 327.968 162.821,326.635 163.982,325.212 165.392 M321.773 169.700 C 321.619 170.195,321.314 170.714,321.097 170.854 C 320.880 170.993,320.774 171.322,320.861 171.583 C 320.948 171.845,321.411 171.326,321.890 170.430 C 322.368 169.533,322.601 168.800,322.407 168.800 C 322.213 168.800,321.928 169.205,321.773 169.700 M358.400 170.368 C 356.680 170.618,353.304 172.299,352.477 173.318 C 351.753 174.209,350.359 176.892,350.531 177.064 C 350.734 177.268,352.400 174.517,352.400 173.977 C 352.400 173.770,352.567 173.600,352.771 173.600 C 352.976 173.600,353.381 173.366,353.671 173.079 C 353.962 172.793,355.100 172.118,356.200 171.579 L 358.200 170.600 379.200 170.385 L 400.200 170.171 380.200 170.139 C 369.200 170.121,359.390 170.224,358.400 170.368 M205.800 171.498 C 207.120 171.578,208.371 171.814,208.580 172.022 C 208.789 172.230,209.543 172.400,210.256 172.400 C 210.969 172.400,211.664 172.580,211.800 172.800 C 211.936 173.020,212.352 173.194,212.724 173.186 C 213.862 173.162,211.544 172.030,210.324 172.014 C 209.732 172.006,209.136 171.820,209.000 171.600 C 208.864 171.380,207.548 171.234,206.076 171.276 L 203.400 171.351 205.800 171.498 M320.032 173.139 C 319.795 173.584,319.600 174.399,319.600 174.950 C 319.600 175.502,319.420 176.064,319.200 176.200 C 318.980 176.336,318.800 178.046,318.800 180.000 C 318.800 181.954,318.980 183.664,319.200 183.800 C 319.420 183.936,319.600 184.542,319.600 185.147 C 319.600 186.193,320.761 188.321,320.787 187.324 C 320.794 187.062,320.650 186.755,320.467 186.641 C 319.121 185.810,319.135 176.081,320.486 173.466 C 320.694 173.062,320.775 172.641,320.665 172.531 C 320.555 172.421,320.270 172.695,320.032 173.139 M214.000 173.800 C 214.274 174.130,214.836 174.400,215.249 174.400 C 215.662 174.400,216.000 174.539,216.000 174.709 C 216.000 174.879,216.625 175.354,217.388 175.766 C 219.036 176.653,221.204 178.943,221.918 180.552 C 222.200 181.185,222.514 181.619,222.617 181.517 C 223.004 181.130,221.395 178.571,219.775 176.997 C 217.701 174.980,212.668 172.195,214.000 173.800 M350.074 179.353 C 349.982 181.793,350.940 183.453,353.521 185.326 C 355.990 187.118,359.191 188.870,359.690 188.703 C 359.909 188.630,359.213 188.130,358.144 187.591 C 357.075 187.052,355.546 186.159,354.747 185.606 C 353.948 185.053,352.913 184.335,352.447 184.012 C 351.981 183.688,351.600 183.215,351.600 182.961 C 351.600 182.706,351.339 182.281,351.020 182.016 C 350.695 181.747,350.375 180.625,350.294 179.467 L 350.148 177.400 350.074 179.353 M268.080 180.080 C 267.475 180.685,267.390 239.450,267.993 240.400 C 268.374 241.001,297.104 241.229,298.630 240.644 C 299.407 240.346,299.495 180.855,298.720 180.080 C 298.031 179.391,268.769 179.391,268.080 180.080 M298.320 180.480 C 299.015 181.175,299.015 239.225,298.320 239.920 C 297.812 240.428,269.920 240.651,268.633 240.157 C 267.607 239.764,267.673 181.030,268.700 180.432 C 269.764 179.812,297.698 179.858,298.320 180.480 M250.460 183.800 C 250.468 185.528,250.515 185.646,250.809 184.666 C 250.999 184.034,250.995 183.149,250.800 182.666 C 250.533 182.004,250.453 182.272,250.460 183.800 M222.800 183.989 C 222.800 187.232,217.344 194.866,214.346 195.817 C 213.936 195.947,213.600 196.232,213.600 196.450 C 213.600 197.846,220.801 191.054,222.174 188.362 C 222.864 187.010,223.545 182.400,223.056 182.400 C 222.915 182.400,222.800 183.115,222.800 183.989 M250.058 186.600 C 249.616 191.653,242.597 199.553,236.161 202.242 C 235.365 202.575,234.817 202.950,234.942 203.076 C 235.430 203.564,241.936 199.746,242.333 198.738 C 242.407 198.552,242.703 198.400,242.992 198.400 C 243.893 198.400,247.578 193.809,249.299 190.542 C 250.081 189.056,250.397 187.951,250.288 187.080 C 250.200 186.376,250.097 186.160,250.058 186.600 M320.800 188.701 C 320.800 189.307,322.137 191.594,322.493 191.597 C 322.654 191.599,322.410 190.925,321.950 190.100 C 320.957 188.317,320.800 188.127,320.800 188.701 M362.200 189.809 C 364.855 191.060,365.955 191.033,363.425 189.779 C 362.339 189.241,361.169 188.815,360.825 188.833 C 360.481 188.852,361.100 189.291,362.200 189.809 M367.400 191.809 C 368.500 192.327,369.670 192.750,370.000 192.750 C 370.330 192.749,369.970 192.469,369.200 192.126 C 368.430 191.784,367.487 191.346,367.105 191.152 C 366.723 190.958,366.183 190.815,365.905 190.833 C 365.627 190.852,366.300 191.291,367.400 191.809 M322.800 192.265 C 322.800 192.786,327.838 198.000,328.341 198.000 C 328.525 198.000,329.199 198.455,329.838 199.010 C 330.477 199.566,331.405 200.126,331.900 200.254 C 332.395 200.382,332.800 200.614,332.800 200.769 C 332.800 201.135,335.449 202.400,336.214 202.400 C 336.536 202.400,336.800 202.580,336.800 202.800 C 336.800 203.020,337.088 203.200,337.440 203.200 C 337.791 203.200,338.736 203.488,339.540 203.841 C 340.343 204.193,341.360 204.622,341.800 204.793 C 345.173 206.106,346.353 206.572,347.400 207.008 C 348.060 207.283,349.320 207.734,350.200 208.009 C 351.080 208.285,352.205 208.696,352.699 208.923 C 353.194 209.149,353.695 209.238,353.812 209.121 C 354.045 208.888,354.066 208.897,346.800 206.190 C 344.050 205.166,341.215 204.074,340.500 203.764 C 339.785 203.454,338.525 202.909,337.700 202.554 C 331.844 200.032,327.442 197.121,324.635 193.912 C 323.626 192.758,322.800 192.017,322.800 192.265 M372.600 193.809 C 374.882 194.884,375.762 195.048,374.624 194.187 C 374.196 193.864,373.521 193.600,373.124 193.600 C 372.726 193.600,372.400 193.420,372.400 193.200 C 372.400 192.980,371.995 192.815,371.500 192.833 C 370.845 192.858,371.144 193.123,372.600 193.809 M377.800 195.779 C 378.900 196.291,381.060 197.219,382.600 197.840 C 391.225 201.323,397.082 207.019,399.376 214.157 C 399.509 214.574,399.729 214.805,399.863 214.670 C 400.933 213.601,395.926 205.850,392.429 203.161 C 391.456 202.413,390.466 201.610,390.229 201.378 C 389.993 201.145,389.530 200.828,389.200 200.673 C 388.870 200.518,388.060 200.033,387.400 199.595 C 386.034 198.688,383.791 197.600,383.288 197.600 C 383.102 197.600,382.017 197.150,380.877 196.600 C 379.737 196.050,378.544 195.600,378.226 195.600 C 377.907 195.600,377.536 195.420,377.400 195.200 C 377.264 194.980,376.848 194.811,376.476 194.824 C 376.104 194.838,376.700 195.267,377.800 195.779 M212.000 197.200 C 212.000 197.420,211.793 197.600,211.540 197.600 C 211.287 197.600,210.162 198.025,209.040 198.543 C 207.918 199.062,206.482 199.699,205.848 199.958 C 205.215 200.218,204.810 200.543,204.949 200.682 C 205.088 200.821,205.606 200.743,206.101 200.508 C 213.006 197.236,213.771 196.800,212.600 196.800 C 212.270 196.800,212.000 196.980,212.000 197.200 M202.800 201.200 C 202.800 201.420,202.527 201.600,202.193 201.600 C 201.280 201.600,198.798 204.345,198.816 205.334 C 198.829 206.063,198.915 206.010,199.361 205.000 C 199.993 203.567,200.855 202.778,203.000 201.665 C 204.282 201.001,204.421 200.832,203.700 200.818 C 203.205 200.808,202.800 200.980,202.800 201.200 M232.610 204.018 C 228.507 206.637,229.230 209.532,236.627 220.109 C 238.592 222.919,242.418 228.379,245.129 232.244 C 247.947 236.260,249.966 239.512,249.842 239.835 C 249.421 240.931,220.910 240.643,219.726 239.530 C 219.217 239.052,218.800 238.862,218.800 239.108 C 218.800 240.674,220.047 240.800,235.489 240.800 L 250.400 240.800 250.400 239.797 C 250.400 239.245,249.858 238.030,249.195 237.097 C 247.031 234.049,246.606 233.474,246.192 233.034 C 245.967 232.795,245.160 231.610,244.399 230.400 C 243.637 229.190,242.876 228.140,242.707 228.067 C 242.538 227.993,242.400 227.755,242.400 227.538 C 242.400 227.321,242.175 226.892,241.900 226.585 C 240.731 225.282,240.400 224.813,240.400 224.460 C 240.400 224.254,240.130 223.982,239.800 223.855 C 239.470 223.729,239.200 223.349,239.200 223.013 C 239.200 222.676,239.020 222.400,238.800 222.400 C 238.580 222.400,238.400 222.173,238.400 221.896 C 238.400 221.619,237.995 220.934,237.500 220.375 C 236.489 219.232,236.125 218.690,234.362 215.700 C 233.681 214.545,233.006 213.598,232.862 213.595 C 232.718 213.593,232.265 212.828,231.856 211.895 C 231.447 210.963,230.952 209.887,230.756 209.505 C 229.803 207.647,230.952 205.479,233.821 203.724 C 234.250 203.461,234.420 203.250,234.200 203.253 C 233.980 203.256,233.265 203.600,232.610 204.018 M198.832 208.425 C 198.795 209.147,200.372 212.561,200.625 212.308 C 200.718 212.215,200.460 211.433,200.051 210.569 C 199.642 209.706,199.207 208.730,199.085 208.400 C 198.894 207.883,198.859 207.886,198.832 208.425 M354.800 209.800 C 355.074 210.130,355.771 210.399,356.349 210.398 L 357.400 210.395 356.254 209.798 C 354.782 209.030,354.162 209.031,354.800 209.800 M357.739 210.700 C 357.842 210.865,358.843 211.355,359.963 211.788 C 361.083 212.221,362.000 212.716,362.000 212.888 C 362.000 213.060,362.332 213.200,362.738 213.200 C 363.144 213.200,363.818 213.578,364.237 214.041 C 364.656 214.503,365.479 215.131,366.068 215.435 C 369.674 217.300,369.764 224.768,366.206 226.884 C 365.069 227.560,363.840 228.774,364.281 228.787 C 365.352 228.816,368.681 224.896,369.143 223.061 C 370.380 218.148,368.185 215.106,361.014 211.794 C 357.884 210.348,357.425 210.195,357.739 210.700 M200.800 212.958 C 200.800 213.140,201.700 214.526,202.800 216.038 C 203.900 217.550,204.800 218.944,204.800 219.135 C 204.800 219.327,205.250 219.969,205.800 220.562 C 206.350 221.156,206.800 221.812,206.800 222.021 C 206.800 222.229,206.939 222.400,207.109 222.400 C 207.279 222.400,207.757 223.030,208.172 223.800 C 208.587 224.570,209.078 225.200,209.263 225.200 C 209.448 225.200,209.600 225.381,209.600 225.603 C 209.600 225.825,210.770 227.624,212.200 229.600 C 213.630 231.576,214.800 233.293,214.800 233.414 C 214.800 233.535,214.977 233.851,215.194 234.117 C 216.709 235.975,217.498 237.095,217.719 237.700 C 217.860 238.085,218.165 238.400,218.397 238.400 C 218.769 238.400,217.814 236.525,217.175 236.000 C 217.041 235.890,216.283 234.779,215.491 233.531 C 214.698 232.284,212.869 229.630,211.425 227.635 C 209.981 225.639,208.800 223.840,208.800 223.637 C 208.800 223.433,208.646 223.207,208.457 223.133 C 208.268 223.060,206.718 220.930,205.013 218.400 C 201.880 213.752,200.800 212.357,200.800 212.958 M30.493 217.200 C 30.493 217.970,30.575 218.285,30.676 217.900 C 30.776 217.515,30.776 216.885,30.676 216.500 C 30.575 216.115,30.493 216.430,30.493 217.200 M30.611 221.582 C 30.879 223.709,31.833 225.354,33.883 227.224 C 36.831 229.912,35.680 229.788,58.987 229.917 C 74.999 230.005,80.249 230.152,80.481 230.517 C 80.997 231.329,80.859 239.381,80.320 239.920 C 79.956 240.284,72.449 240.411,49.220 240.447 C 32.379 240.473,19.140 240.632,19.800 240.800 C 20.460 240.968,34.140 241.123,50.200 241.144 C 85.083 241.190,81.276 241.972,81.113 234.788 L 81.000 229.800 60.200 229.562 C 48.760 229.431,38.770 229.179,38.000 229.003 C 34.836 228.280,31.248 224.761,31.172 222.308 C 31.156 221.809,30.973 221.040,30.765 220.600 C 30.492 220.023,30.449 220.297,30.611 221.582 M0.000 225.743 C 0.000 230.883,10.961 240.506,16.630 240.344 L 18.600 240.287 16.597 240.042 C 10.680 239.316,1.974 231.902,0.921 226.692 C 0.677 225.486,-0.000 224.788,0.000 225.743 M399.500 225.431 C 399.335 225.597,399.200 226.030,399.200 226.392 C 399.200 231.114,389.189 239.502,382.800 240.134 C 381.586 240.254,381.637 240.280,383.187 240.336 C 384.752 240.392,388.236 239.449,388.800 238.817 C 388.910 238.693,389.685 238.234,390.522 237.796 C 393.011 236.493,396.854 232.380,398.525 229.229 C 399.842 226.745,400.416 224.507,399.500 225.431 M361.580 229.033 C 360.787 229.475,356.682 229.578,340.084 229.576 C 328.800 229.574,319.395 229.679,319.184 229.810 C 318.209 230.412,318.739 239.868,319.786 240.554 C 320.866 241.262,378.231 241.495,380.400 240.800 C 380.950 240.624,367.621 240.462,350.780 240.440 C 327.543 240.410,320.044 240.284,319.680 239.920 C 319.139 239.379,319.004 231.328,319.521 230.514 C 319.756 230.144,324.924 230.000,341.015 229.914 C 355.524 229.836,362.434 229.661,362.944 229.360 C 364.101 228.674,362.788 228.359,361.580 229.033 M103.324 230.447 C 100.356 232.305,100.171 236.815,102.976 238.954 L 104.347 240.000 116.820 240.000 L 129.294 240.000 130.902 238.392 C 132.985 236.309,132.948 233.164,130.814 231.029 L 129.586 229.800 117.093 229.724 C 105.229 229.652,104.536 229.688,103.324 230.447 M104.894 245.890 C 103.281 246.090,100.829 248.487,100.730 249.961 C 100.481 253.655,101.237 255.367,103.680 256.638 C 105.409 257.537,127.953 257.451,129.720 256.539 C 133.989 254.333,134.128 248.599,129.966 246.429 C 128.441 245.634,110.137 245.240,104.894 245.890 M129.924 247.210 C 133.643 249.478,132.756 254.903,128.429 256.350 C 126.743 256.913,107.270 256.948,105.181 256.391 C 100.946 255.262,99.961 249.887,103.504 247.243 C 105.191 245.985,127.868 245.957,129.924 247.210 M103.800 262.482 C 99.381 265.013,99.459 271.476,103.933 273.471 C 106.354 274.550,127.518 274.276,129.910 273.135 C 134.430 270.978,134.030 264.567,129.251 262.565 C 127.495 261.829,105.068 261.756,103.800 262.482 M130.717 264.120 C 133.454 266.743,132.927 271.048,129.671 272.668 C 127.991 273.504,108.006 273.906,105.121 273.162 C 100.675 272.016,99.510 266.417,103.125 263.573 C 104.108 262.800,104.635 262.773,116.848 262.884 L 129.549 263.000 130.717 264.120 M104.007 278.980 C 103.384 279.431,102.483 280.070,102.004 280.400 C 99.623 282.039,99.277 286.715,101.405 288.487 C 103.704 290.400,103.705 290.400,117.085 290.400 L 129.822 290.400 131.111 289.223 C 131.820 288.575,132.400 287.686,132.400 287.246 C 132.400 286.807,132.580 286.336,132.800 286.200 C 133.020 286.064,133.200 285.254,133.200 284.400 C 133.200 283.546,133.020 282.736,132.800 282.600 C 132.580 282.464,132.400 281.931,132.400 281.416 C 132.400 280.047,130.056 278.803,127.043 278.572 C 118.570 277.922,105.139 278.160,104.007 278.980 M129.372 279.804 C 133.196 281.613,133.751 285.980,130.517 288.819 L 129.172 290.000 116.772 290.000 C 103.029 290.000,103.205 290.031,101.620 287.344 C 99.836 284.321,100.950 281.188,104.400 279.526 C 107.003 278.272,126.595 278.490,129.372 279.804 " stroke="none" fill="#ccd3e0" fill-rule="evenodd"></path></g></svg>