<svg id="svg" version="1.1" xmlns="http://www.w3.org/2000/svg" xmlns:xlink="http://www.w3.org/1999/xlink" width="400" height="484.3333333333333" viewBox="0, 0, 400,484.3333333333333"><g id="svgg"><path id="path0" d="M135.330 64.583 L 129.833 70.167 135.417 64.670 C 138.487 61.648,141.000 59.135,141.000 59.087 C 141.000 58.849,140.436 59.396,135.330 64.583 M126.659 73.250 L 123.833 76.167 126.750 73.341 C 128.354 71.786,129.667 70.474,129.667 70.424 C 129.667 70.181,129.284 70.541,126.659 73.250 M335.333 146.500 C 334.524 147.325,333.936 148.000,334.028 148.000 C 334.120 148.000,334.857 147.325,335.667 146.500 C 336.476 145.675,337.064 145.000,336.972 145.000 C 336.880 145.000,336.143 145.675,335.333 146.500 M331.667 150.167 C 330.857 150.992,330.270 151.667,330.361 151.667 C 330.453 151.667,331.190 150.992,332.000 150.167 C 332.810 149.342,333.397 148.667,333.305 148.667 C 333.214 148.667,332.476 149.342,331.667 150.167 M327.667 154.167 C 326.857 154.992,326.270 155.667,326.361 155.667 C 326.453 155.667,327.190 154.992,328.000 154.167 C 328.810 153.342,329.397 152.667,329.305 152.667 C 329.214 152.667,328.476 153.342,327.667 154.167 M323.821 158.083 L 322.167 159.833 323.917 158.179 C 325.543 156.642,325.820 156.333,325.571 156.333 C 325.518 156.333,324.731 157.121,323.821 158.083 " stroke="none" fill="#ec4c2c" fill-rule="evenodd"></path><path id="path1" d="M119.333 80.238 C 92.841 106.770,80.017 119.717,90.833 109.011 C 113.664 86.414,112.907 87.170,143.996 55.917 C 157.081 42.762,167.722 32.000,167.643 32.000 C 167.564 32.000,145.824 53.707,119.333 80.238 M184.665 85.583 L 172.833 97.500 184.750 85.668 C 195.825 74.672,196.817 73.667,196.582 73.667 C 196.535 73.667,191.172 79.029,184.665 85.583 M252.649 87.250 L 251.500 88.500 252.750 87.351 C 253.913 86.282,254.153 86.000,253.899 86.000 C 253.843 86.000,253.281 86.563,252.649 87.250 M244.411 104.667 C 244.411 105.308,244.479 105.571,244.563 105.250 C 244.647 104.929,244.647 104.404,244.563 104.083 C 244.479 103.763,244.411 104.025,244.411 104.667 M140.331 129.917 L 129.833 140.500 140.417 130.002 C 146.237 124.228,151.000 119.466,151.000 119.419 C 151.000 119.183,150.088 120.081,140.331 129.917 M60.484 139.083 L 59.167 140.500 60.583 139.182 C 61.901 137.957,62.153 137.667,61.901 137.667 C 61.847 137.667,61.209 138.304,60.484 139.083 M127.667 142.500 C 126.857 143.325,126.270 144.000,126.361 144.000 C 126.453 144.000,127.190 143.325,128.000 142.500 C 128.810 141.675,129.397 141.000,129.305 141.000 C 129.214 141.000,128.476 141.675,127.667 142.500 M123.667 146.500 C 122.857 147.325,122.270 148.000,122.361 148.000 C 122.453 148.000,123.190 147.325,124.000 146.500 C 124.810 145.675,125.397 145.000,125.305 145.000 C 125.214 145.000,124.476 145.675,123.667 146.500 M120.000 150.167 C 119.190 150.992,118.603 151.667,118.695 151.667 C 118.786 151.667,119.524 150.992,120.333 150.167 C 121.143 149.342,121.730 148.667,121.639 148.667 C 121.547 148.667,120.810 149.342,120.000 150.167 M116.000 154.167 C 115.190 154.992,114.603 155.667,114.695 155.667 C 114.786 155.667,115.524 154.992,116.333 154.167 C 117.143 153.342,117.730 152.667,117.639 152.667 C 117.547 152.667,116.810 153.342,116.000 154.167 M112.154 158.083 L 110.500 159.833 112.250 158.179 C 113.212 157.269,114.000 156.482,114.000 156.429 C 114.000 156.180,113.691 156.457,112.154 158.083 M108.333 161.833 C 107.524 162.658,106.936 163.333,107.028 163.333 C 107.120 163.333,107.857 162.658,108.667 161.833 C 109.476 161.008,110.064 160.333,109.972 160.333 C 109.880 160.333,109.143 161.008,108.333 161.833 M97.328 172.917 L 93.167 177.167 97.417 173.005 C 101.364 169.139,101.818 168.667,101.578 168.667 C 101.530 168.667,99.617 170.579,97.328 172.917 M399.751 273.500 C 399.754 274.233,399.823 274.494,399.902 274.079 C 399.982 273.665,399.979 273.065,399.896 272.746 C 399.812 272.427,399.747 272.767,399.751 273.500 M0.411 287.000 C 0.411 287.642,0.479 287.904,0.563 287.583 C 0.647 287.262,0.647 286.737,0.563 286.417 C 0.479 286.096,0.411 286.358,0.411 287.000 M0.744 294.333 C 0.744 294.975,0.813 295.237,0.896 294.917 C 0.980 294.596,0.980 294.071,0.896 293.750 C 0.813 293.429,0.744 293.692,0.744 294.333 M93.333 388.438 C 93.333 388.495,93.821 388.983,94.417 389.521 L 95.500 390.500 94.521 389.417 C 93.608 388.407,93.333 388.180,93.333 388.438 M360.479 401.890 C 359.966 402.563,359.716 403.009,359.924 402.880 C 360.351 402.617,361.794 400.667,361.562 400.667 C 361.480 400.667,360.992 401.217,360.479 401.890 M61.333 426.167 C 61.955 426.808,62.539 427.333,62.631 427.333 C 62.722 427.333,62.289 426.808,61.667 426.167 C 61.045 425.525,60.461 425.000,60.369 425.000 C 60.278 425.000,60.711 425.525,61.333 426.167 M67.000 431.500 C 67.622 432.142,68.206 432.667,68.297 432.667 C 68.389 432.667,67.955 432.142,67.333 431.500 C 66.711 430.858,66.128 430.333,66.036 430.333 C 65.944 430.333,66.378 430.858,67.000 431.500 M193.587 432.569 C 194.002 432.649,194.602 432.646,194.921 432.562 C 195.239 432.479,194.900 432.414,194.167 432.417 C 193.433 432.421,193.173 432.489,193.587 432.569 M203.254 432.569 C 203.669 432.649,204.269 432.646,204.587 432.562 C 204.906 432.479,204.567 432.414,203.833 432.417 C 203.100 432.421,202.839 432.489,203.254 432.569 M69.644 433.746 C 70.273 434.430,70.861 434.917,70.949 434.828 C 71.038 434.739,71.048 434.629,70.971 434.583 C 70.893 434.537,70.306 434.050,69.665 433.501 L 68.500 432.501 69.644 433.746 M196.576 482.907 C 197.168 482.981,198.218 482.982,198.909 482.910 C 199.601 482.838,199.117 482.778,197.833 482.776 C 196.550 482.775,195.984 482.834,196.576 482.907 M201.088 482.906 C 201.595 482.982,202.345 482.980,202.755 482.901 C 203.165 482.822,202.750 482.760,201.833 482.762 C 200.917 482.765,200.581 482.829,201.088 482.906 M204.250 482.902 C 204.662 482.981,205.338 482.981,205.750 482.902 C 206.162 482.822,205.825 482.757,205.000 482.757 C 204.175 482.757,203.838 482.822,204.250 482.902 " stroke="none" fill="#f44c2b" fill-rule="evenodd"></path><path id="path2" d="M183.499 16.074 L 167.500 32.148 183.500 16.336 C 192.300 7.640,199.642 0.407,199.817 0.262 C 200.016 0.097,200.016 0.000,199.815 0.000 C 199.640 0.000,192.298 7.233,183.499 16.074 M146.496 53.417 L 140.833 59.167 146.583 53.504 C 151.925 48.242,152.484 47.667,152.246 47.667 C 152.198 47.667,149.611 50.254,146.496 53.417 M198.154 72.083 L 196.500 73.833 198.250 72.179 C 199.876 70.642,200.153 70.333,199.904 70.333 C 199.851 70.333,199.064 71.121,198.154 72.083 M98.664 101.250 L 90.167 109.833 98.750 101.336 C 103.471 96.662,107.333 92.800,107.333 92.752 C 107.333 92.516,106.561 93.274,98.664 101.250 M156.330 113.917 L 150.833 119.500 156.417 114.004 C 161.604 108.898,162.151 108.333,161.913 108.333 C 161.865 108.333,159.352 110.846,156.330 113.917 M66.496 133.083 L 61.833 137.833 66.583 133.171 C 69.196 130.607,71.333 128.469,71.333 128.421 C 71.333 128.182,70.827 128.671,66.496 133.083 M307.500 179.667 C 307.832 180.033,308.253 180.333,308.436 180.333 C 308.619 180.333,308.423 180.033,308.000 179.667 C 307.577 179.300,307.156 179.000,307.064 179.000 C 306.972 179.000,307.168 179.300,307.500 179.667 M67.531 210.833 C 67.230 211.292,67.114 211.667,67.272 211.667 C 67.430 211.667,67.731 211.292,67.939 210.833 C 68.148 210.375,68.265 210.000,68.198 210.000 C 68.131 210.000,67.831 210.375,67.531 210.833 M339.196 336.619 C 338.771 337.308,338.363 338.688,338.635 338.520 C 338.800 338.418,339.091 337.884,339.283 337.334 C 339.616 336.378,339.572 336.011,339.196 336.619 M301.192 392.020 C 300.839 392.376,300.703 392.667,300.890 392.667 C 301.077 392.667,301.502 392.367,301.833 392.000 C 302.607 391.145,302.042 391.163,301.192 392.020 M98.333 393.500 C 98.764 393.958,99.172 394.333,99.240 394.333 C 99.517 394.333,98.144 392.687,97.859 392.677 C 97.689 392.671,97.903 393.042,98.333 393.500 M44.864 408.167 C 45.164 408.625,45.569 409.000,45.763 409.000 C 45.957 409.000,45.764 408.625,45.333 408.167 C 44.903 407.708,44.498 407.333,44.434 407.333 C 44.370 407.333,44.564 407.708,44.864 408.167 M339.665 425.501 C 339.236 425.959,339.027 426.333,339.201 426.333 C 339.574 426.333,340.777 424.999,340.581 424.803 C 340.507 424.729,340.095 425.044,339.665 425.501 " stroke="none" fill="#ec4c24" fill-rule="evenodd"></path><path id="path3" d="M127.500 72.564 C 87.533 112.565,53.933 146.286,52.833 147.498 C 51.733 148.710,50.227 150.332,49.486 151.101 C 48.746 151.870,47.644 153.223,47.038 154.106 C 46.433 154.989,45.727 155.792,45.470 155.891 C 45.214 155.989,45.082 156.197,45.178 156.352 C 45.274 156.506,45.048 156.796,44.676 156.995 C 44.304 157.194,44.000 157.540,44.000 157.765 C 44.000 157.989,43.700 158.360,43.333 158.589 C 42.967 158.818,42.667 159.193,42.667 159.423 C 42.667 159.652,42.361 160.031,41.987 160.264 C 41.613 160.497,41.379 160.804,41.466 160.945 C 41.554 161.087,41.147 161.727,40.563 162.369 C 39.978 163.011,39.298 163.920,39.051 164.389 C 38.804 164.859,38.242 165.631,37.801 166.107 C 37.361 166.582,37.000 167.127,37.000 167.319 C 37.000 167.510,36.850 167.667,36.667 167.667 C 36.483 167.667,36.333 167.879,36.333 168.139 C 36.333 168.399,36.221 168.661,36.083 168.722 C 35.946 168.783,35.383 169.508,34.833 170.333 C 34.283 171.158,33.641 172.036,33.406 172.285 C 33.171 172.533,32.684 173.312,32.325 174.016 C 31.966 174.720,31.071 176.154,30.336 177.203 C 29.601 178.252,29.000 179.287,29.000 179.504 C 29.000 179.720,28.704 180.165,28.341 180.493 C 27.979 180.821,27.752 181.201,27.837 181.339 C 27.921 181.476,27.718 181.943,27.386 182.377 C 27.053 182.812,26.676 183.392,26.550 183.667 C 26.423 183.942,25.807 185.067,25.180 186.167 C 24.553 187.267,23.801 188.686,23.508 189.321 C 23.214 189.956,22.751 190.723,22.477 191.025 C 22.203 191.328,21.923 191.868,21.854 192.225 C 21.785 192.583,21.106 194.066,20.344 195.521 C 19.582 196.976,18.963 198.167,18.970 198.167 C 18.976 198.167,18.893 198.504,18.785 198.917 C 18.677 199.329,18.474 199.667,18.334 199.667 C 18.194 199.667,17.911 200.333,17.706 201.147 C 17.501 201.961,17.184 202.720,17.000 202.833 C 16.817 202.947,16.667 203.330,16.667 203.686 C 16.667 204.042,16.542 204.333,16.389 204.333 C 16.236 204.333,16.111 204.556,16.111 204.827 C 16.111 205.099,15.800 205.961,15.419 206.744 C 15.039 207.526,14.386 209.179,13.969 210.417 C 13.551 211.654,13.072 212.667,12.903 212.667 C 12.734 212.667,12.680 212.887,12.783 213.156 C 12.886 213.425,12.832 213.731,12.661 213.837 C 12.491 213.942,12.170 214.659,11.949 215.431 C 11.459 217.139,11.485 217.054,11.253 217.667 C 11.149 217.942,10.951 218.467,10.812 218.833 C 10.674 219.200,10.587 219.619,10.618 219.764 C 10.650 219.908,10.513 220.331,10.315 220.702 C 10.116 221.073,9.899 221.657,9.833 222.000 C 9.550 223.471,8.540 226.863,8.286 227.195 C 8.134 227.394,7.944 228.069,7.863 228.695 C 7.782 229.321,7.537 230.283,7.318 230.833 C 7.099 231.383,6.876 232.166,6.824 232.572 C 6.771 232.979,6.471 234.329,6.158 235.572 C 5.845 236.816,5.542 238.058,5.486 238.333 C 5.430 238.608,5.361 238.833,5.333 238.833 C 5.264 238.833,5.026 239.948,4.834 241.167 C 4.747 241.717,4.589 242.542,4.481 243.000 C 4.374 243.458,4.241 244.133,4.186 244.500 C 4.130 244.867,4.043 245.242,3.990 245.333 C 3.938 245.425,3.865 245.875,3.827 246.333 C 3.789 246.792,3.674 247.617,3.572 248.167 C 3.470 248.717,3.282 249.992,3.155 251.000 C 3.028 252.008,2.828 252.983,2.712 253.167 C 2.595 253.350,2.479 254.025,2.453 254.667 C 2.427 255.308,2.301 256.508,2.174 257.333 C 2.047 258.158,1.886 259.433,1.817 260.167 C 1.747 260.900,1.611 262.250,1.513 263.167 C 0.359 273.980,0.356 288.278,1.503 301.000 C 1.885 305.232,2.062 306.955,2.207 307.833 C 2.297 308.383,2.446 309.283,2.537 309.833 C 2.629 310.383,2.761 311.358,2.832 312.000 C 2.903 312.642,3.033 313.542,3.122 314.000 C 3.210 314.458,3.372 315.433,3.481 316.167 C 3.590 316.900,3.757 317.747,3.851 318.049 C 4.017 318.577,4.253 319.917,4.488 321.667 C 4.550 322.125,4.635 322.500,4.676 322.500 C 4.718 322.500,4.797 322.800,4.852 323.167 C 4.974 323.972,5.245 325.186,5.473 325.943 C 5.638 326.491,5.923 327.857,6.145 329.167 C 6.502 331.264,6.731 332.177,6.979 332.486 C 7.131 332.677,7.413 333.508,7.604 334.333 C 7.796 335.158,8.191 336.733,8.482 337.833 C 8.773 338.933,9.075 340.096,9.153 340.418 C 9.232 340.739,9.388 341.151,9.500 341.333 C 9.612 341.515,9.760 341.927,9.827 342.249 C 9.894 342.570,10.179 343.471,10.460 344.250 C 10.741 345.029,10.884 345.667,10.778 345.667 C 10.672 345.667,10.752 345.868,10.956 346.114 C 11.160 346.360,11.229 346.660,11.108 346.781 C 10.988 346.901,11.073 347.000,11.297 347.000 C 11.522 347.000,11.603 347.167,11.477 347.371 C 11.351 347.574,11.388 347.837,11.558 347.954 C 11.805 348.123,12.945 351.031,13.471 352.833 C 13.525 353.017,13.806 353.700,14.095 354.352 C 14.385 355.004,14.727 355.979,14.857 356.518 C 14.986 357.058,15.240 357.688,15.420 357.917 C 15.601 358.146,15.632 358.333,15.489 358.333 C 15.347 358.333,15.468 358.596,15.758 358.917 C 16.048 359.237,16.286 359.575,16.286 359.667 C 16.286 359.758,16.472 360.283,16.699 360.833 C 16.925 361.383,17.137 361.908,17.169 362.000 C 17.201 362.092,17.504 362.767,17.843 363.500 C 18.182 364.233,18.481 364.908,18.508 365.000 C 18.697 365.653,19.391 367.254,19.664 367.667 C 20.514 368.949,22.314 372.667,22.088 372.672 C 21.948 372.675,22.009 372.788,22.223 372.925 C 22.438 373.061,22.663 373.393,22.723 373.662 C 22.784 373.931,23.022 374.354,23.253 374.602 C 23.484 374.851,23.595 375.179,23.501 375.332 C 23.406 375.485,23.443 375.660,23.581 375.722 C 23.842 375.837,24.617 377.181,25.763 379.500 C 26.125 380.233,26.526 380.908,26.654 381.000 C 26.782 381.092,27.099 381.654,27.358 382.250 C 27.617 382.846,27.952 383.333,28.101 383.333 C 28.250 383.333,28.294 383.461,28.198 383.616 C 28.102 383.772,28.313 384.210,28.667 384.591 C 29.022 384.971,29.789 386.194,30.373 387.308 C 30.957 388.422,31.562 389.333,31.718 389.333 C 31.873 389.333,32.000 389.558,32.000 389.833 C 32.000 390.108,32.150 390.333,32.333 390.333 C 32.517 390.333,32.667 390.548,32.667 390.810 C 32.667 391.071,32.863 391.484,33.102 391.726 C 33.341 391.968,33.824 392.654,34.174 393.250 C 34.524 393.846,34.937 394.333,35.092 394.333 C 35.246 394.333,35.292 394.463,35.194 394.622 C 35.096 394.781,35.328 395.193,35.709 395.538 C 36.090 395.883,36.608 396.564,36.860 397.051 C 37.112 397.538,37.514 398.139,37.755 398.385 C 37.995 398.632,38.556 399.433,39.002 400.167 C 39.867 401.591,40.040 401.819,41.333 403.260 C 41.792 403.771,42.467 404.618,42.833 405.142 C 43.200 405.667,44.100 406.800,44.833 407.660 C 47.425 410.699,47.667 411.008,47.667 411.281 C 47.667 411.432,48.079 411.943,48.583 412.415 C 49.978 413.721,52.000 415.936,52.000 416.159 C 52.000 416.267,53.013 417.346,54.250 418.556 C 55.487 419.766,56.291 420.639,56.037 420.496 C 55.529 420.211,59.036 423.718,61.367 425.826 C 62.174 426.555,62.796 427.267,62.750 427.409 C 62.704 427.551,62.817 427.667,63.000 427.667 C 63.183 427.667,63.909 428.229,64.612 428.917 C 65.315 429.604,66.847 430.992,68.017 432.000 C 69.186 433.008,70.617 434.314,71.196 434.903 C 71.776 435.491,72.327 435.895,72.421 435.802 C 72.514 435.708,72.892 436.014,73.260 436.482 C 73.628 436.950,74.059 437.333,74.216 437.333 C 74.374 437.333,75.141 437.933,75.919 438.667 C 76.698 439.400,77.472 440.000,77.640 440.000 C 77.807 440.000,77.994 440.121,78.056 440.268 C 78.163 440.528,82.643 443.940,84.333 445.050 C 84.792 445.351,85.488 445.904,85.881 446.278 C 86.274 446.653,86.663 446.892,86.746 446.810 C 86.828 446.728,87.285 447.021,87.761 447.462 C 88.236 447.903,88.706 448.183,88.805 448.084 C 88.904 447.985,89.079 448.151,89.194 448.452 C 89.310 448.754,89.614 449.000,89.869 449.000 C 90.124 449.000,90.333 449.150,90.333 449.333 C 90.333 449.517,90.547 449.667,90.808 449.667 C 91.069 449.667,91.970 450.192,92.811 450.833 C 93.651 451.475,94.488 452.000,94.670 452.000 C 94.851 452.000,95.000 452.134,95.000 452.297 C 95.000 452.461,95.340 452.680,95.757 452.784 C 96.173 452.889,96.810 453.251,97.173 453.589 C 97.536 453.927,98.321 454.420,98.917 454.683 C 99.513 454.947,100.000 455.276,100.000 455.415 C 100.000 455.553,100.168 455.667,100.373 455.667 C 100.578 455.667,101.666 456.227,102.790 456.913 C 103.914 457.598,104.946 458.123,105.083 458.079 C 105.221 458.036,105.333 458.159,105.333 458.353 C 105.333 458.547,105.471 458.621,105.638 458.518 C 105.806 458.414,105.993 458.455,106.055 458.608 C 106.116 458.761,107.166 459.356,108.389 459.930 C 109.611 460.503,110.708 461.131,110.828 461.325 C 110.948 461.519,111.186 461.591,111.356 461.486 C 111.527 461.380,111.667 461.462,111.667 461.667 C 111.667 461.872,111.790 461.963,111.941 461.870 C 112.092 461.776,113.067 462.213,114.108 462.840 C 115.148 463.467,116.002 463.872,116.005 463.740 C 116.008 463.608,116.127 463.684,116.270 463.908 C 116.412 464.133,116.822 464.365,117.181 464.423 C 117.540 464.482,118.583 464.911,119.500 465.376 C 120.417 465.841,121.242 466.237,121.333 466.256 C 121.888 466.370,123.045 466.843,124.514 467.556 C 125.438 468.005,126.413 468.408,126.680 468.452 C 126.948 468.496,127.504 468.718,127.917 468.944 C 128.329 469.171,128.667 469.273,128.667 469.172 C 128.667 469.070,129.267 469.293,130.000 469.667 C 130.733 470.041,131.333 470.252,131.333 470.135 C 131.333 470.019,131.671 470.142,132.083 470.409 C 132.496 470.676,133.283 471.019,133.833 471.170 C 134.383 471.322,134.946 471.477,135.083 471.514 C 135.221 471.552,135.408 471.621,135.500 471.667 C 135.592 471.712,135.817 471.787,136.000 471.833 C 136.183 471.879,136.408 471.954,136.500 472.000 C 136.592 472.046,136.779 472.111,136.917 472.144 C 137.054 472.177,137.654 472.320,138.250 472.462 C 138.846 472.604,139.333 472.867,139.333 473.046 C 139.333 473.226,139.452 473.300,139.596 473.210 C 139.740 473.121,141.128 473.483,142.679 474.015 C 144.231 474.546,145.829 474.986,146.230 474.991 C 146.632 474.996,147.041 475.130,147.140 475.289 C 147.238 475.449,148.066 475.678,148.979 475.799 C 149.892 475.920,150.725 476.158,150.830 476.328 C 150.935 476.498,151.226 476.559,151.477 476.463 C 151.728 476.367,152.033 476.451,152.156 476.649 C 152.279 476.848,152.519 476.925,152.690 476.819 C 152.860 476.714,153.185 476.742,153.411 476.881 C 153.877 477.169,154.254 477.256,156.250 477.537 C 157.029 477.647,157.667 477.880,157.667 478.055 C 157.667 478.230,157.784 478.300,157.927 478.212 C 158.149 478.075,159.245 478.267,163.500 479.193 C 163.867 479.272,164.617 479.405,165.167 479.488 C 165.717 479.570,166.617 479.730,167.167 479.842 C 168.079 480.029,168.985 480.171,171.333 480.497 C 171.792 480.561,172.204 480.643,172.250 480.681 C 172.334 480.750,172.742 480.801,175.833 481.123 C 176.750 481.218,178.025 481.376,178.667 481.473 C 179.308 481.570,181.183 481.731,182.833 481.829 C 184.483 481.928,186.583 482.097,187.500 482.205 C 190.026 482.502,194.198 482.635,200.833 482.632 C 210.085 482.626,213.850 482.431,222.667 481.497 C 223.858 481.371,225.283 481.230,225.833 481.184 C 226.383 481.138,227.058 481.008,227.333 480.895 C 227.608 480.782,228.733 480.610,229.833 480.515 C 231.975 480.328,232.688 480.222,234.000 479.897 C 234.748 479.712,235.737 479.545,238.333 479.167 C 238.792 479.100,239.917 478.882,240.833 478.683 C 242.879 478.239,243.963 478.013,244.833 477.848 C 245.200 477.779,245.500 477.693,245.500 477.656 C 245.500 477.620,245.886 477.544,246.357 477.487 C 247.690 477.325,251.320 476.361,253.213 475.666 C 254.155 475.320,255.014 475.125,255.122 475.233 C 255.229 475.340,255.535 475.248,255.800 475.027 C 256.066 474.807,256.632 474.581,257.058 474.526 C 258.267 474.369,259.799 473.935,260.175 473.642 C 260.363 473.496,260.888 473.315,261.342 473.239 C 261.795 473.164,262.392 473.006,262.667 472.888 C 263.713 472.440,267.200 471.278,267.937 471.132 C 268.360 471.048,269.258 470.684,269.932 470.323 C 270.606 469.962,271.397 469.667,271.690 469.667 C 271.983 469.667,272.327 469.562,272.454 469.435 C 272.582 469.307,272.918 469.169,273.202 469.127 C 273.486 469.085,274.269 468.783,274.943 468.455 C 275.616 468.127,276.242 467.839,276.333 467.816 C 276.483 467.777,277.506 467.349,280.000 466.280 C 280.458 466.083,281.094 465.790,281.412 465.628 C 281.730 465.466,282.200 465.333,282.455 465.333 C 282.710 465.333,283.104 465.110,283.330 464.837 C 283.557 464.564,283.875 464.423,284.038 464.523 C 284.200 464.624,284.333 464.547,284.333 464.353 C 284.333 464.159,284.446 464.028,284.583 464.062 C 284.721 464.095,285.733 463.698,286.833 463.178 C 287.933 462.658,289.208 462.068,289.667 461.867 C 290.125 461.666,290.575 461.418,290.667 461.317 C 290.995 460.954,294.667 458.998,294.667 459.187 C 294.667 459.292,295.102 459.069,295.635 458.689 C 296.167 458.310,296.767 458.000,296.968 458.000 C 297.169 458.000,297.333 457.862,297.333 457.693 C 297.333 457.523,297.858 457.212,298.500 457.000 C 299.142 456.788,299.667 456.504,299.667 456.369 C 299.667 456.085,302.043 454.850,302.417 454.940 C 302.554 454.973,302.667 454.850,302.667 454.667 C 302.667 454.483,302.892 454.333,303.167 454.333 C 303.442 454.333,303.667 454.200,303.667 454.038 C 303.667 453.876,304.220 453.480,304.896 453.159 C 305.572 452.838,306.417 452.304,306.774 451.971 C 307.131 451.639,307.956 451.114,308.608 450.805 C 309.259 450.496,309.951 450.111,310.146 449.950 C 311.829 448.560,313.563 447.339,313.859 447.337 C 314.056 447.335,314.569 446.958,315.000 446.500 C 315.431 446.042,315.966 445.667,316.189 445.667 C 316.413 445.667,316.685 445.432,316.795 445.146 C 316.905 444.859,317.131 444.708,317.296 444.810 C 317.461 444.913,317.683 444.772,317.788 444.498 C 317.893 444.224,318.193 444.000,318.454 444.000 C 318.715 444.000,319.015 443.775,319.121 443.500 C 319.226 443.225,319.526 443.000,319.787 443.000 C 320.048 443.000,320.344 442.786,320.444 442.525 C 320.544 442.264,321.160 441.797,321.813 441.487 C 322.466 441.177,323.000 440.804,323.000 440.657 C 323.000 440.511,324.010 439.590,325.244 438.612 C 327.564 436.773,328.067 436.353,329.477 435.083 C 329.935 434.671,330.405 434.333,330.521 434.333 C 330.761 434.333,331.706 433.423,340.333 424.885 C 343.725 421.528,347.250 417.923,348.167 416.873 C 349.083 415.822,350.471 414.313,351.250 413.518 C 352.029 412.724,352.667 411.918,352.667 411.728 C 352.667 411.537,353.062 411.071,353.545 410.691 C 354.028 410.311,354.321 410.000,354.196 410.000 C 354.072 410.000,354.314 409.633,354.735 409.185 C 355.156 408.737,356.025 407.666,356.667 406.804 C 357.308 405.943,358.058 404.989,358.333 404.684 C 358.608 404.379,359.354 403.392,359.990 402.491 C 360.626 401.590,361.376 400.597,361.657 400.284 C 362.731 399.085,362.953 398.731,362.758 398.536 C 362.647 398.424,362.698 398.333,362.873 398.333 C 363.047 398.333,363.473 397.846,363.819 397.250 C 364.165 396.654,364.650 396.045,364.898 395.896 C 365.145 395.747,365.274 395.507,365.184 395.361 C 365.094 395.216,365.480 394.588,366.041 393.965 C 366.602 393.343,367.364 392.196,367.734 391.417 C 368.104 390.637,368.517 390.000,368.653 390.000 C 368.788 390.000,369.165 389.409,369.491 388.686 C 369.817 387.964,370.290 387.293,370.542 387.197 C 370.794 387.100,371.000 386.750,371.000 386.420 C 371.000 386.089,371.424 385.297,371.942 384.659 C 372.823 383.575,373.155 382.972,373.315 382.167 C 373.351 381.983,373.595 381.713,373.857 381.567 C 374.119 381.420,374.333 381.042,374.333 380.727 C 374.333 380.412,374.708 379.603,375.167 378.928 C 375.625 378.254,376.000 377.544,376.000 377.351 C 376.000 377.158,376.159 377.000,376.353 377.000 C 376.547 377.000,376.621 376.862,376.517 376.694 C 376.412 376.525,376.521 376.187,376.758 375.944 C 377.353 375.331,380.333 369.378,380.333 368.802 C 380.333 368.544,380.492 368.333,380.686 368.333 C 380.880 368.333,380.954 368.195,380.850 368.027 C 380.746 367.858,380.860 367.521,381.104 367.277 C 381.348 367.033,381.571 366.719,381.600 366.580 C 381.629 366.440,381.875 365.897,382.147 365.372 C 382.418 364.847,382.546 364.324,382.431 364.209 C 382.316 364.094,382.372 364.000,382.556 364.000 C 382.739 364.000,382.895 363.813,382.903 363.583 C 382.910 363.354,383.460 362.021,384.125 360.622 C 384.790 359.222,385.333 357.868,385.333 357.613 C 385.333 357.357,385.535 356.852,385.780 356.491 C 386.026 356.129,386.739 354.333,387.364 352.500 C 387.989 350.667,388.575 349.092,388.667 349.000 C 388.758 348.908,388.884 348.533,388.947 348.167 C 389.009 347.800,389.356 346.675,389.717 345.667 C 390.078 344.658,390.428 343.608,390.495 343.333 C 390.562 343.058,390.869 342.158,391.177 341.333 C 391.486 340.508,391.792 339.533,391.858 339.167 C 392.014 338.292,392.498 336.546,393.127 334.583 C 393.406 333.712,393.562 333.000,393.472 333.000 C 393.383 333.000,393.473 332.695,393.672 332.323 C 394.019 331.674,394.115 331.267,394.530 328.667 C 394.632 328.025,394.801 327.275,394.904 327.000 C 395.136 326.384,395.255 325.833,395.480 324.333 C 395.576 323.692,395.760 322.792,395.889 322.333 C 396.017 321.875,396.162 321.275,396.210 321.000 C 396.399 319.918,396.724 318.125,396.876 317.333 C 397.270 315.269,397.354 314.743,397.514 313.333 C 397.684 311.829,397.910 310.500,397.994 310.500 C 398.019 310.500,398.104 309.900,398.183 309.167 C 398.262 308.433,398.396 307.233,398.482 306.500 C 398.637 305.174,398.868 302.862,399.133 300.000 C 400.296 287.419,399.852 266.843,398.208 257.167 C 398.115 256.617,397.956 255.567,397.855 254.833 C 397.754 254.100,397.587 252.900,397.484 252.167 C 397.381 251.433,397.241 250.341,397.172 249.739 C 397.027 248.462,396.786 247.292,395.990 244.005 C 395.791 243.183,395.565 241.983,395.488 241.338 C 395.343 240.132,395.090 238.833,395.000 238.833 C 394.972 238.833,394.898 238.608,394.835 238.333 C 393.951 234.454,393.628 233.071,393.494 232.583 C 393.406 232.263,393.274 231.737,393.202 231.415 C 392.893 230.046,392.285 227.796,392.099 227.333 C 391.988 227.058,391.882 226.683,391.862 226.500 C 391.842 226.317,391.504 225.336,391.111 224.321 C 390.718 223.306,390.324 222.019,390.236 221.461 C 390.148 220.904,389.833 219.976,389.535 219.400 C 389.237 218.825,389.019 218.236,389.050 218.093 C 389.082 217.950,388.933 217.411,388.720 216.895 C 388.508 216.379,388.333 215.812,388.333 215.634 C 388.333 215.457,388.086 214.754,387.784 214.073 C 387.482 213.391,387.196 212.683,387.149 212.500 C 387.101 212.317,386.675 211.303,386.201 210.248 C 385.728 209.193,385.349 208.293,385.360 208.248 C 385.391 208.122,384.754 206.494,383.990 204.749 C 383.609 203.879,383.174 202.867,383.024 202.500 C 382.874 202.133,382.395 201.094,381.959 200.190 C 381.523 199.286,381.161 198.461,381.154 198.357 C 381.125 197.919,378.682 192.770,377.981 191.667 C 377.806 191.392,377.401 190.642,377.081 190.000 C 376.762 189.358,376.407 188.758,376.294 188.667 C 376.181 188.575,375.788 187.900,375.422 187.167 C 374.136 184.590,373.164 182.832,372.930 182.655 C 372.799 182.557,372.470 181.945,372.199 181.295 C 371.927 180.645,371.473 179.921,371.190 179.686 C 370.906 179.450,370.756 179.125,370.857 178.962 C 370.957 178.800,370.872 178.667,370.667 178.667 C 370.462 178.667,370.387 178.516,370.501 178.331 C 370.616 178.146,370.474 177.905,370.188 177.795 C 369.901 177.685,369.667 177.438,369.667 177.246 C 369.667 177.054,369.284 176.395,368.816 175.781 C 368.349 175.168,368.049 174.667,368.150 174.667 C 368.251 174.667,368.033 174.367,367.667 174.000 C 367.300 173.633,366.997 173.146,366.994 172.917 C 366.991 172.688,366.617 172.147,366.162 171.716 C 365.708 171.285,365.419 170.798,365.521 170.633 C 365.623 170.468,365.559 170.333,365.380 170.333 C 365.201 170.333,364.718 169.771,364.307 169.083 C 363.895 168.396,363.292 167.533,362.966 167.167 C 362.640 166.800,362.402 166.409,362.437 166.298 C 362.472 166.187,362.050 165.563,361.500 164.912 C 360.950 164.260,360.275 163.400,360.000 162.999 C 359.725 162.599,359.238 161.962,358.917 161.585 C 358.596 161.207,358.333 160.802,358.333 160.685 C 358.333 160.568,357.846 159.939,357.250 159.287 C 355.795 157.696,354.974 156.667,355.159 156.667 C 355.243 156.667,354.829 156.168,354.239 155.559 C 353.649 154.950,352.792 153.959,352.333 153.355 C 351.875 152.752,350.975 151.683,350.333 150.980 C 349.692 150.277,348.492 148.947,347.667 148.024 C 346.842 147.101,345.025 145.159,343.629 143.709 L 341.091 141.073 323.089 158.929 L 305.088 176.786 307.458 179.143 C 308.762 180.439,309.831 181.575,309.834 181.667 C 309.837 181.758,310.363 182.398,311.003 183.089 C 311.643 183.779,312.799 185.054,313.572 185.922 C 314.346 186.790,315.581 188.175,316.318 189.000 C 317.054 189.825,317.659 190.688,317.662 190.917 C 317.665 191.146,317.796 191.333,317.955 191.333 C 318.113 191.333,318.676 191.971,319.205 192.750 C 319.734 193.529,320.279 194.217,320.417 194.278 C 320.554 194.339,320.667 194.533,320.667 194.709 C 320.667 194.885,321.042 195.434,321.500 195.928 C 321.958 196.422,322.333 196.947,322.333 197.093 C 322.333 197.429,323.746 199.461,324.083 199.611 C 324.221 199.672,324.333 199.935,324.333 200.194 C 324.333 200.454,324.483 200.667,324.667 200.667 C 324.850 200.667,325.000 200.892,325.000 201.167 C 325.000 201.442,325.175 201.667,325.389 201.667 C 325.603 201.667,325.685 201.760,325.571 201.873 C 325.458 201.987,325.545 202.281,325.766 202.528 C 326.757 203.638,327.010 204.000,326.795 204.000 C 326.668 204.000,326.836 204.301,327.169 204.669 C 327.832 205.402,328.148 205.932,329.549 208.667 C 330.066 209.675,330.716 210.767,330.994 211.094 C 331.272 211.421,331.450 211.779,331.388 211.890 C 331.327 212.001,331.414 212.184,331.582 212.296 C 331.929 212.528,335.077 218.927,334.930 219.101 C 334.877 219.163,335.096 219.477,335.417 219.798 C 335.928 220.309,336.075 220.772,335.972 221.546 C 335.956 221.663,336.073 221.851,336.231 221.963 C 336.480 222.139,337.783 224.825,337.861 225.323 C 337.877 225.420,338.089 225.950,338.333 226.500 C 338.578 227.050,338.795 227.575,338.817 227.667 C 338.839 227.758,339.032 228.148,339.246 228.532 C 339.460 228.916,339.704 229.610,339.788 230.075 C 339.872 230.539,340.173 231.369,340.457 231.917 C 340.741 232.466,340.892 232.997,340.793 233.096 C 340.694 233.195,340.805 233.627,341.040 234.055 C 341.275 234.483,341.508 235.075,341.558 235.371 C 341.608 235.667,341.828 236.342,342.046 236.871 C 342.265 237.400,342.475 237.946,342.514 238.083 C 342.552 238.221,342.620 238.446,342.664 238.583 C 342.709 238.721,342.731 238.936,342.714 239.061 C 342.696 239.186,342.897 239.804,343.161 240.435 C 343.425 241.066,343.546 241.676,343.431 241.791 C 343.316 241.906,343.422 242.000,343.667 242.000 C 343.911 242.000,344.016 242.095,343.901 242.210 C 343.785 242.326,343.818 242.664,343.974 242.960 C 344.130 243.257,344.341 244.106,344.443 244.848 C 344.545 245.589,344.853 246.864,345.128 247.681 C 345.403 248.498,345.700 249.617,345.787 250.167 C 345.874 250.717,345.976 251.204,346.014 251.250 C 346.151 251.415,346.638 253.666,346.826 255.000 C 346.890 255.458,347.037 256.508,347.152 257.333 C 347.267 258.158,347.444 259.208,347.545 259.667 C 347.647 260.125,347.792 261.025,347.868 261.667 C 347.944 262.308,348.086 263.358,348.183 264.000 C 348.281 264.642,348.439 266.067,348.534 267.167 C 348.630 268.267,348.772 269.767,348.849 270.500 C 348.927 271.233,349.066 273.408,349.158 275.333 C 349.250 277.258,349.389 279.958,349.467 281.333 C 349.593 283.560,349.252 290.957,348.815 295.500 C 348.726 296.417,348.592 297.992,348.516 299.000 C 348.389 300.684,347.939 304.607,347.826 305.000 C 347.549 305.972,347.326 307.086,347.159 308.333 C 346.807 310.951,346.722 311.500,346.667 311.500 C 346.637 311.500,346.563 311.875,346.503 312.333 C 346.387 313.213,346.087 314.500,345.998 314.500 C 345.970 314.500,345.900 314.875,345.843 315.333 C 345.787 315.792,345.649 316.504,345.537 316.917 C 345.114 318.473,344.936 319.201,344.693 320.359 C 344.556 321.015,344.352 321.700,344.239 321.882 C 344.127 322.064,343.960 322.578,343.868 323.023 C 343.523 324.694,343.374 325.198,342.879 326.361 C 342.600 327.017,342.321 327.917,342.260 328.361 C 342.200 328.804,342.049 329.327,341.926 329.523 C 341.802 329.720,341.626 330.293,341.535 330.799 C 341.443 331.304,341.068 332.343,340.701 333.109 C 340.334 333.874,339.967 334.879,339.886 335.342 C 339.804 335.805,339.474 336.780,339.151 337.509 C 338.828 338.237,338.587 338.946,338.615 339.083 C 338.644 339.221,338.517 339.333,338.333 339.333 C 338.150 339.333,338.000 339.624,338.000 339.980 C 338.000 340.336,337.848 340.722,337.661 340.837 C 337.475 340.952,337.409 341.186,337.514 341.356 C 337.620 341.527,337.547 341.667,337.353 341.667 C 337.159 341.667,337.032 341.779,337.071 341.917 C 337.110 342.054,336.954 342.504,336.726 342.917 C 336.497 343.329,336.413 343.667,336.540 343.667 C 336.666 343.667,336.539 343.929,336.258 344.250 C 335.976 344.571,335.636 345.208,335.501 345.667 C 335.276 346.434,334.324 348.466,333.626 349.667 C 333.466 349.942,333.007 350.879,332.605 351.750 C 332.204 352.621,331.744 353.333,331.585 353.333 C 331.425 353.333,331.379 353.471,331.483 353.640 C 331.588 353.808,331.484 354.146,331.253 354.390 C 331.022 354.634,330.612 355.283,330.342 355.833 C 330.072 356.383,329.285 357.706,328.592 358.774 C 327.900 359.841,327.333 360.830,327.333 360.972 C 327.333 361.114,326.959 361.665,326.500 362.198 C 326.042 362.731,325.667 363.326,325.667 363.520 C 325.667 363.715,325.398 364.165,325.070 364.520 C 324.743 364.876,323.907 366.104,323.213 367.250 C 322.519 368.396,321.813 369.333,321.643 369.333 C 321.472 369.333,321.333 369.496,321.333 369.694 C 321.333 369.892,320.771 370.753,320.083 371.607 C 319.396 372.461,318.718 373.311,318.577 373.497 C 318.436 373.682,318.052 374.161,317.723 374.562 C 317.394 374.963,316.834 375.687,316.479 376.172 C 316.124 376.656,315.383 377.552,314.833 378.164 C 314.283 378.775,313.233 379.984,312.500 380.850 C 310.620 383.071,299.821 394.000,299.506 394.000 C 299.363 394.000,298.750 394.525,298.145 395.167 C 297.540 395.808,296.938 396.333,296.808 396.333 C 296.678 396.333,296.106 396.778,295.536 397.321 C 293.027 399.712,290.000 402.166,290.000 401.810 C 290.000 401.661,289.813 401.763,289.583 402.037 C 288.960 402.781,286.098 405.000,285.762 405.000 C 285.437 405.000,284.464 405.706,282.912 407.068 C 282.348 407.563,281.777 407.902,281.644 407.820 C 281.512 407.738,281.314 407.904,281.204 408.190 C 281.094 408.475,280.854 408.616,280.669 408.501 C 280.484 408.387,280.333 408.453,280.333 408.647 C 280.333 408.841,280.108 409.000,279.833 409.000 C 279.558 409.000,279.333 409.159,279.333 409.353 C 279.333 409.547,279.199 409.623,279.035 409.522 C 278.871 409.420,278.642 409.583,278.527 409.883 C 278.412 410.183,278.230 410.341,278.123 410.234 C 278.016 410.128,277.610 410.337,277.221 410.700 C 276.832 411.062,276.173 411.445,275.757 411.549 C 275.340 411.653,275.000 411.882,275.000 412.056 C 275.000 412.230,274.850 412.280,274.667 412.167 C 274.483 412.053,274.333 412.120,274.333 412.314 C 274.333 412.508,274.108 412.667,273.833 412.667 C 273.558 412.667,273.333 412.842,273.333 413.056 C 273.333 413.269,273.238 413.349,273.121 413.232 C 273.004 413.115,272.493 413.315,271.986 413.677 C 271.479 414.038,270.968 414.333,270.851 414.333 C 270.734 414.333,270.457 414.484,270.236 414.669 C 269.562 415.230,265.961 417.000,265.494 417.000 C 265.253 417.000,265.006 417.113,264.944 417.250 C 264.769 417.644,262.787 418.667,262.199 418.667 C 261.906 418.667,261.667 418.800,261.667 418.963 C 261.667 419.126,260.992 419.459,260.167 419.703 C 259.342 419.946,258.667 420.272,258.667 420.426 C 258.667 420.580,258.527 420.620,258.356 420.514 C 258.186 420.409,257.952 420.475,257.837 420.661 C 257.722 420.848,257.336 421.000,256.980 421.000 C 256.624 421.000,256.333 421.175,256.333 421.389 C 256.333 421.603,256.239 421.683,256.123 421.567 C 256.007 421.452,255.595 421.532,255.206 421.745 C 254.818 421.959,254.203 422.183,253.840 422.243 C 253.478 422.303,253.035 422.498,252.857 422.676 C 252.679 422.854,252.337 423.000,252.096 423.000 C 251.856 423.000,251.024 423.287,250.246 423.637 C 249.469 423.987,248.008 424.524,247.000 424.830 C 245.992 425.135,244.942 425.473,244.667 425.580 C 244.392 425.688,244.092 425.802,244.000 425.833 C 243.908 425.865,243.608 425.977,243.333 426.082 C 243.058 426.187,242.158 426.441,241.333 426.647 C 240.508 426.853,239.608 427.086,239.333 427.165 C 238.529 427.396,234.894 428.331,234.167 428.494 C 233.800 428.577,232.900 428.791,232.167 428.970 C 229.227 429.688,228.811 429.782,228.250 429.848 C 227.929 429.886,227.629 429.948,227.583 429.985 C 227.537 430.023,227.125 430.103,226.667 430.162 C 225.705 430.287,224.330 430.523,222.667 430.850 C 221.331 431.112,220.507 431.226,218.167 431.474 C 217.250 431.571,215.975 431.733,215.333 431.835 C 210.859 432.544,198.157 432.900,191.500 432.502 C 182.816 431.983,179.281 431.674,178.836 431.396 C 178.651 431.281,178.125 431.169,177.667 431.147 C 176.611 431.098,173.280 430.582,171.333 430.167 C 170.875 430.069,170.125 429.919,169.667 429.833 C 167.475 429.425,166.677 429.259,164.667 428.797 C 163.475 428.523,162.275 428.212,162.000 428.106 C 161.725 427.999,161.064 427.856,160.531 427.787 C 159.997 427.717,159.393 427.521,159.187 427.350 C 158.981 427.179,158.442 426.961,157.990 426.864 C 155.205 426.270,150.781 424.861,149.341 424.110 C 148.879 423.868,148.196 423.670,147.824 423.669 C 147.452 423.668,146.815 423.433,146.408 423.148 C 146.000 422.862,145.667 422.730,145.667 422.853 C 145.667 422.976,145.297 422.834,144.845 422.538 C 144.393 422.242,143.718 422.000,143.345 422.000 C 142.972 422.000,142.667 421.850,142.667 421.667 C 142.667 421.483,142.397 421.333,142.067 421.333 C 141.737 421.333,141.287 421.153,141.067 420.933 C 140.847 420.713,140.664 420.676,140.662 420.850 C 140.659 421.024,140.534 420.974,140.385 420.738 C 140.235 420.502,139.675 420.231,139.140 420.135 C 138.605 420.039,137.532 419.590,136.756 419.137 C 135.980 418.683,135.267 418.319,135.171 418.326 C 134.958 418.343,130.881 416.217,129.500 415.369 C 128.950 415.032,128.387 414.819,128.250 414.897 C 128.112 414.975,128.000 414.872,128.000 414.667 C 128.000 414.462,127.870 414.374,127.711 414.472 C 127.552 414.571,127.157 414.358,126.833 414.000 C 126.509 413.642,126.114 413.429,125.955 413.528 C 125.797 413.626,125.667 413.559,125.667 413.379 C 125.667 413.199,125.166 412.887,124.554 412.685 C 123.943 412.483,123.118 412.015,122.721 411.646 C 122.324 411.276,122.000 411.061,122.000 411.167 C 122.000 411.273,121.677 411.059,121.283 410.691 C 120.888 410.324,120.438 410.102,120.283 410.198 C 120.127 410.294,120.000 410.214,120.000 410.020 C 120.000 409.826,119.775 409.667,119.500 409.667 C 119.225 409.667,119.000 409.515,119.000 409.329 C 119.000 409.143,118.325 408.663,117.500 408.263 C 116.675 407.862,116.000 407.414,116.000 407.267 C 116.000 407.120,115.797 407.000,115.549 407.000 C 115.300 407.000,114.700 406.632,114.215 406.183 C 113.730 405.733,113.329 405.471,113.323 405.599 C 113.318 405.728,113.160 405.571,112.973 405.250 C 112.786 404.929,112.445 404.667,112.215 404.667 C 111.985 404.667,111.243 404.159,110.565 403.538 C 109.888 402.918,109.333 402.474,109.333 402.552 C 109.333 402.731,108.490 402.051,107.514 401.083 C 107.097 400.671,106.620 400.333,106.452 400.333 C 106.284 400.333,105.931 400.033,105.667 399.667 C 105.402 399.300,105.008 399.000,104.789 399.000 C 104.571 399.000,104.014 398.550,103.551 398.000 C 103.088 397.450,102.619 397.000,102.509 397.000 C 102.399 397.000,101.639 396.311,100.821 395.469 C 100.003 394.628,99.333 394.049,99.333 394.183 C 99.333 394.510,88.983 384.032,86.667 381.360 C 85.658 380.196,84.275 378.627,83.592 377.872 C 82.910 377.118,82.347 376.394,82.342 376.265 C 82.337 376.136,81.996 375.663,81.583 375.214 C 80.684 374.234,80.387 373.857,79.318 372.333 C 78.868 371.692,78.350 371.056,78.167 370.922 C 77.983 370.787,77.939 370.675,78.067 370.672 C 78.196 370.669,77.919 370.254,77.451 369.750 C 76.982 369.246,76.369 368.383,76.087 367.833 C 75.805 367.283,75.222 366.478,74.792 366.043 C 74.362 365.608,74.092 365.121,74.192 364.960 C 74.291 364.799,74.246 364.667,74.091 364.667 C 73.937 364.667,73.365 363.842,72.822 362.834 C 72.278 361.827,71.721 361.002,71.583 361.001 C 71.446 361.001,71.333 360.775,71.333 360.500 C 71.333 360.225,71.174 360.000,70.980 360.000 C 70.786 360.000,70.720 359.850,70.833 359.667 C 70.947 359.483,70.908 359.333,70.748 359.333 C 70.466 359.333,68.853 356.741,68.840 356.267 C 68.836 356.138,68.646 355.846,68.417 355.617 C 68.188 355.388,68.000 355.016,68.000 354.790 C 68.000 354.565,67.773 354.154,67.495 353.876 C 66.972 353.353,64.604 348.516,64.680 348.128 C 64.704 348.007,64.595 347.816,64.438 347.704 C 64.080 347.448,63.197 345.585,63.275 345.250 C 63.307 345.113,63.158 345.000,62.944 345.000 C 62.731 345.000,62.650 344.906,62.764 344.791 C 62.879 344.676,62.723 344.114,62.417 343.541 C 62.112 342.968,61.842 342.425,61.818 342.333 C 61.794 342.242,61.440 341.417,61.032 340.500 C 59.915 337.989,59.349 336.609,59.154 335.917 C 59.115 335.779,59.053 335.629,59.017 335.583 C 58.980 335.537,58.884 335.137,58.802 334.693 C 58.720 334.249,58.501 333.702,58.314 333.477 C 58.128 333.252,57.911 332.790,57.834 332.451 C 57.716 331.937,56.377 327.808,55.742 326.000 C 55.472 325.232,55.384 324.908,55.179 323.925 C 55.075 323.426,54.838 322.618,54.653 322.130 C 54.467 321.642,54.237 320.700,54.141 320.038 C 54.045 319.375,53.767 318.308,53.523 317.667 C 53.153 316.692,52.878 315.496,52.490 313.167 C 52.460 312.983,52.400 312.758,52.356 312.667 C 52.313 312.575,52.226 312.200,52.163 311.833 C 51.740 309.388,51.584 308.438,51.530 307.994 C 51.496 307.716,51.363 307.318,51.235 307.111 C 51.107 306.903,51.012 306.381,51.024 305.950 C 51.036 305.519,50.961 304.717,50.857 304.167 C 50.753 303.617,50.588 302.342,50.492 301.333 C 50.395 300.325,50.244 298.975,50.157 298.333 C 49.759 295.398,49.657 294.193,49.426 289.667 C 49.052 282.367,49.406 271.137,50.150 266.667 C 50.257 266.025,50.406 264.566,50.481 263.425 C 50.556 262.284,50.700 261.215,50.802 261.051 C 50.904 260.886,51.064 260.019,51.159 259.125 C 51.253 258.231,51.417 257.125,51.524 256.667 C 51.630 256.208,51.780 255.308,51.856 254.667 C 52.033 253.174,52.225 252.167,52.333 252.167 C 52.380 252.167,52.458 251.867,52.507 251.500 C 52.669 250.274,52.952 249.014,53.129 248.727 C 53.225 248.571,53.384 248.007,53.482 247.472 C 54.066 244.280,54.695 241.868,55.058 241.430 C 55.254 241.194,55.330 241.000,55.225 241.000 C 55.121 241.000,55.320 240.175,55.667 239.167 C 56.014 238.158,56.212 237.333,56.108 237.333 C 56.004 237.333,56.105 237.108,56.333 236.833 C 56.562 236.558,56.656 236.333,56.544 236.333 C 56.361 236.333,56.893 234.689,57.677 232.833 C 57.831 232.467,58.063 231.792,58.191 231.333 C 58.319 230.875,58.560 230.412,58.728 230.303 C 58.896 230.195,59.058 229.783,59.088 229.387 C 59.117 228.991,59.285 228.667,59.460 228.667 C 59.635 228.667,59.684 228.573,59.569 228.458 C 59.454 228.343,59.583 227.818,59.855 227.291 C 60.128 226.764,60.268 226.333,60.167 226.333 C 60.066 226.333,60.215 225.885,60.498 225.337 C 60.782 224.789,61.037 224.226,61.066 224.087 C 61.095 223.947,61.317 223.635,61.560 223.393 C 61.802 223.151,62.000 222.649,62.000 222.278 C 62.000 221.580,62.854 219.848,63.583 219.066 C 63.813 218.820,64.001 218.442,64.001 218.226 C 64.003 217.856,65.155 215.417,65.843 214.330 C 66.015 214.057,66.171 213.758,66.189 213.667 C 66.308 213.054,68.502 208.987,69.517 207.500 C 69.892 206.950,70.387 206.125,70.616 205.667 C 71.608 203.682,72.057 203.000,72.371 203.000 C 72.555 203.000,72.613 202.850,72.500 202.667 C 72.387 202.483,72.453 202.333,72.647 202.333 C 72.841 202.333,73.000 202.144,73.000 201.913 C 73.000 201.682,73.366 201.098,73.814 200.616 C 74.261 200.133,74.560 199.671,74.478 199.589 C 74.396 199.507,74.630 199.168,74.998 198.835 C 75.366 198.502,75.667 198.028,75.667 197.782 C 75.667 197.535,75.804 197.333,75.973 197.333 C 76.141 197.333,76.622 196.771,77.042 196.083 C 77.462 195.396,77.924 194.783,78.069 194.722 C 78.214 194.661,78.333 194.467,78.333 194.291 C 78.333 193.941,78.849 193.253,79.750 192.402 C 80.071 192.100,80.333 191.728,80.333 191.577 C 80.333 191.427,80.708 190.928,81.167 190.470 C 81.625 190.011,82.002 189.531,82.004 189.402 C 82.006 189.272,82.569 188.547,83.254 187.789 C 83.939 187.031,85.250 185.536,86.167 184.467 C 87.083 183.398,113.147 157.177,144.085 126.199 L 200.336 69.874 200.252 34.854 L 200.167 -0.167 127.500 72.564 M266.333 80.709 C 265.692 80.851,264.662 81.052,264.044 81.155 C 263.427 81.258,262.752 81.448,262.544 81.578 C 262.337 81.708,261.891 81.857,261.554 81.909 C 261.217 81.962,259.867 82.632,258.554 83.399 C 257.241 84.166,256.167 84.734,256.167 84.662 C 256.167 84.460,254.730 85.682,253.153 87.227 C 252.371 87.993,251.642 88.530,251.532 88.421 C 251.423 88.312,251.333 88.465,251.333 88.761 C 251.333 89.058,251.130 89.420,250.880 89.567 C 250.347 89.881,247.668 93.694,247.667 94.140 C 247.667 94.309,247.462 94.684,247.212 94.974 C 246.659 95.614,245.333 99.520,245.333 100.509 C 245.333 100.901,245.221 101.335,245.083 101.472 C 244.692 101.863,244.473 108.038,244.796 109.553 C 244.881 109.949,245.056 110.999,245.185 111.887 C 245.314 112.774,245.628 113.911,245.883 114.413 C 246.138 114.915,246.344 115.403,246.340 115.497 C 246.336 115.590,246.345 115.704,246.359 115.750 C 246.373 115.796,246.431 116.072,246.488 116.364 C 246.546 116.657,246.984 117.516,247.463 118.274 C 247.942 119.033,248.333 119.787,248.333 119.951 C 248.333 120.292,251.274 123.882,253.102 125.774 C 253.779 126.474,254.333 126.956,254.333 126.844 C 254.333 126.732,254.671 126.960,255.083 127.351 C 255.968 128.188,259.802 130.208,262.167 131.082 C 263.726 131.659,264.273 131.790,266.833 132.200 C 268.766 132.509,272.517 132.531,274.167 132.242 C 275.083 132.082,276.058 131.941,276.333 131.930 C 276.608 131.918,277.021 131.761,277.250 131.580 C 277.479 131.400,277.667 131.347,277.667 131.464 C 277.667 131.580,278.179 131.461,278.806 131.200 C 279.433 130.938,280.033 130.811,280.139 130.917 C 280.246 131.024,280.333 130.927,280.333 130.703 C 280.333 130.478,280.473 130.380,280.644 130.486 C 280.814 130.591,281.048 130.525,281.163 130.339 C 281.278 130.152,281.664 130.000,282.020 130.000 C 282.376 130.000,282.667 129.867,282.667 129.703 C 282.667 129.540,283.304 129.105,284.083 128.737 C 284.862 128.369,285.864 127.677,286.308 127.200 C 286.753 126.723,287.258 126.333,287.431 126.333 C 287.605 126.333,288.398 125.621,289.195 124.750 C 291.427 122.310,291.667 122.019,291.667 121.747 C 291.667 121.607,292.033 121.098,292.480 120.616 C 292.928 120.133,293.203 119.647,293.091 119.536 C 292.980 119.424,293.064 119.333,293.278 119.333 C 293.492 119.333,293.638 119.221,293.604 119.083 C 293.569 118.946,293.853 118.158,294.234 117.333 C 294.876 115.945,295.164 115.207,295.304 114.588 C 295.335 114.453,295.572 113.741,295.832 113.005 C 296.091 112.269,296.217 111.667,296.111 111.667 C 296.005 111.667,296.061 111.479,296.235 111.250 C 296.523 110.872,296.666 109.655,296.756 106.833 C 296.842 104.093,296.119 99.977,295.086 97.333 C 294.979 97.058,294.865 96.758,294.834 96.667 C 294.803 96.575,294.578 96.050,294.333 95.500 C 294.089 94.950,293.873 94.425,293.853 94.333 C 293.833 94.242,293.320 93.492,292.712 92.667 C 292.104 91.842,291.394 90.759,291.133 90.260 C 290.873 89.761,290.361 89.193,289.997 88.998 C 289.632 88.803,289.333 88.415,289.333 88.135 C 289.333 87.856,289.197 87.712,289.030 87.815 C 288.864 87.918,288.376 87.588,287.947 87.082 C 286.018 84.809,279.690 81.418,276.944 81.185 C 276.822 81.175,276.620 81.065,276.495 80.940 C 276.370 80.815,276.056 80.794,275.796 80.894 C 275.537 80.993,275.139 80.929,274.912 80.752 C 274.424 80.369,268.009 80.337,266.333 80.709 " stroke="none" fill="#f04c2c" fill-rule="evenodd"></path><path id="path4" d="M127.500 72.564 C 87.533 112.565,53.933 146.286,52.833 147.498 C 51.733 148.710,50.227 150.332,49.486 151.101 C 48.746 151.870,47.644 153.223,47.038 154.106 C 46.433 154.989,45.727 155.792,45.470 155.891 C 45.214 155.989,45.082 156.197,45.178 156.352 C 45.274 156.506,45.048 156.796,44.676 156.995 C 44.304 157.194,44.000 157.540,44.000 157.765 C 44.000 157.989,43.700 158.360,43.333 158.589 C 42.967 158.818,42.667 159.193,42.667 159.423 C 42.667 159.652,42.361 160.031,41.987 160.264 C 41.613 160.497,41.379 160.804,41.466 160.945 C 41.554 161.087,41.147 161.727,40.563 162.369 C 39.978 163.011,39.298 163.920,39.051 164.389 C 38.804 164.859,38.242 165.631,37.801 166.107 C 37.361 166.582,37.000 167.127,37.000 167.319 C 37.000 167.510,36.850 167.667,36.667 167.667 C 36.483 167.667,36.333 167.879,36.333 168.139 C 36.333 168.399,36.221 168.661,36.083 168.722 C 35.946 168.783,35.383 169.508,34.833 170.333 C 34.283 171.158,33.641 172.036,33.406 172.285 C 33.171 172.533,32.684 173.312,32.325 174.016 C 31.966 174.720,31.071 176.154,30.336 177.203 C 29.601 178.252,29.000 179.287,29.000 179.504 C 29.000 179.720,28.704 180.165,28.341 180.493 C 27.979 180.821,27.752 181.201,27.837 181.339 C 27.921 181.476,27.718 181.943,27.386 182.377 C 27.053 182.812,26.676 183.392,26.550 183.667 C 26.423 183.942,25.807 185.067,25.180 186.167 C 24.553 187.267,23.801 188.686,23.508 189.321 C 23.214 189.956,22.751 190.723,22.477 191.025 C 22.203 191.328,21.923 191.868,21.854 192.225 C 21.785 192.583,21.106 194.066,20.344 195.521 C 19.582 196.976,18.963 198.167,18.970 198.167 C 18.976 198.167,18.893 198.504,18.785 198.917 C 18.677 199.329,18.474 199.667,18.334 199.667 C 18.194 199.667,17.911 200.333,17.706 201.147 C 17.501 201.961,17.184 202.720,17.000 202.833 C 16.817 202.947,16.667 203.330,16.667 203.686 C 16.667 204.042,16.542 204.333,16.389 204.333 C 16.236 204.333,16.111 204.556,16.111 204.827 C 16.111 205.099,15.800 205.961,15.419 206.744 C 15.039 207.526,14.386 209.179,13.969 210.417 C 13.551 211.654,13.072 212.667,12.903 212.667 C 12.734 212.667,12.680 212.887,12.783 213.156 C 12.886 213.425,12.832 213.731,12.661 213.837 C 12.491 213.942,12.170 214.659,11.949 215.431 C 11.459 217.139,11.485 217.054,11.253 217.667 C 11.149 217.942,10.951 218.467,10.812 218.833 C 10.674 219.200,10.587 219.619,10.618 219.764 C 10.650 219.908,10.513 220.331,10.315 220.702 C 10.116 221.073,9.899 221.657,9.833 222.000 C 9.550 223.471,8.540 226.863,8.286 227.195 C 8.134 227.394,7.944 228.069,7.863 228.695 C 7.782 229.321,7.537 230.283,7.318 230.833 C 7.099 231.383,6.876 232.166,6.824 232.572 C 6.771 232.979,6.471 234.329,6.158 235.572 C 5.845 236.816,5.542 238.058,5.486 238.333 C 5.430 238.608,5.361 238.833,5.333 238.833 C 5.264 238.833,5.026 239.948,4.834 241.167 C 4.747 241.717,4.589 242.542,4.481 243.000 C 4.374 243.458,4.241 244.133,4.186 244.500 C 4.130 244.867,4.043 245.242,3.990 245.333 C 3.938 245.425,3.865 245.875,3.827 246.333 C 3.789 246.792,3.674 247.617,3.572 248.167 C 3.470 248.717,3.282 249.992,3.155 251.000 C 3.028 252.008,2.828 252.983,2.712 253.167 C 2.595 253.350,2.479 254.025,2.453 254.667 C 2.427 255.308,2.301 256.508,2.174 257.333 C 2.047 258.158,1.886 259.433,1.817 260.167 C 1.747 260.900,1.611 262.250,1.513 263.167 C 0.359 273.980,0.356 288.278,1.503 301.000 C 1.885 305.232,2.062 306.955,2.207 307.833 C 2.297 308.383,2.446 309.283,2.537 309.833 C 2.629 310.383,2.761 311.358,2.832 312.000 C 2.903 312.642,3.033 313.542,3.122 314.000 C 3.210 314.458,3.372 315.433,3.481 316.167 C 3.590 316.900,3.757 317.747,3.851 318.049 C 4.017 318.577,4.253 319.917,4.488 321.667 C 4.550 322.125,4.635 322.500,4.676 322.500 C 4.718 322.500,4.797 322.800,4.852 323.167 C 4.974 323.972,5.245 325.186,5.473 325.943 C 5.638 326.491,5.923 327.857,6.145 329.167 C 6.502 331.264,6.731 332.177,6.979 332.486 C 7.131 332.677,7.413 333.508,7.604 334.333 C 7.796 335.158,8.191 336.733,8.482 337.833 C 8.773 338.933,9.075 340.096,9.153 340.418 C 9.232 340.739,9.388 341.151,9.500 341.333 C 9.612 341.515,9.760 341.927,9.827 342.249 C 9.894 342.570,10.179 343.471,10.460 344.250 C 10.741 345.029,10.884 345.667,10.778 345.667 C 10.672 345.667,10.752 345.868,10.956 346.114 C 11.160 346.360,11.229 346.660,11.108 346.781 C 10.988 346.901,11.073 347.000,11.297 347.000 C 11.522 347.000,11.603 347.167,11.477 347.371 C 11.351 347.574,11.388 347.837,11.558 347.954 C 11.805 348.123,12.945 351.031,13.471 352.833 C 13.525 353.017,13.806 353.700,14.095 354.352 C 14.385 355.004,14.727 355.979,14.857 356.518 C 14.986 357.058,15.240 357.688,15.420 357.917 C 15.601 358.146,15.632 358.333,15.489 358.333 C 15.347 358.333,15.468 358.596,15.758 358.917 C 16.048 359.237,16.286 359.575,16.286 359.667 C 16.286 359.758,16.472 360.283,16.699 360.833 C 16.925 361.383,17.137 361.908,17.169 362.000 C 17.201 362.092,17.504 362.767,17.843 363.500 C 18.182 364.233,18.481 364.908,18.508 365.000 C 18.697 365.653,19.391 367.254,19.664 367.667 C 20.514 368.949,22.314 372.667,22.088 372.672 C 21.948 372.675,22.009 372.788,22.223 372.925 C 22.438 373.061,22.663 373.393,22.723 373.662 C 22.784 373.931,23.022 374.354,23.253 374.602 C 23.484 374.851,23.595 375.179,23.501 375.332 C 23.406 375.485,23.443 375.660,23.581 375.722 C 23.842 375.837,24.617 377.181,25.763 379.500 C 26.125 380.233,26.526 380.908,26.654 381.000 C 26.782 381.092,27.099 381.654,27.358 382.250 C 27.617 382.846,27.952 383.333,28.101 383.333 C 28.250 383.333,28.294 383.461,28.198 383.616 C 28.102 383.772,28.313 384.210,28.667 384.591 C 29.022 384.971,29.789 386.194,30.373 387.308 C 30.957 388.422,31.562 389.333,31.718 389.333 C 31.873 389.333,32.000 389.558,32.000 389.833 C 32.000 390.108,32.150 390.333,32.333 390.333 C 32.517 390.333,32.667 390.548,32.667 390.810 C 32.667 391.071,32.863 391.484,33.102 391.726 C 33.341 391.968,33.824 392.654,34.174 393.250 C 34.524 393.846,34.937 394.333,35.092 394.333 C 35.246 394.333,35.292 394.463,35.194 394.622 C 35.096 394.781,35.328 395.193,35.709 395.538 C 36.090 395.883,36.608 396.564,36.860 397.051 C 37.112 397.538,37.514 398.139,37.755 398.385 C 37.995 398.632,38.556 399.433,39.002 400.167 C 39.867 401.591,40.040 401.819,41.333 403.260 C 41.792 403.771,42.467 404.618,42.833 405.142 C 43.200 405.667,44.100 406.800,44.833 407.660 C 47.425 410.699,47.667 411.008,47.667 411.281 C 47.667 411.432,48.079 411.943,48.583 412.415 C 49.978 413.721,52.000 415.936,52.000 416.159 C 52.000 416.267,53.013 417.346,54.250 418.556 C 55.487 419.766,56.291 420.639,56.037 420.496 C 55.529 420.211,59.036 423.718,61.367 425.826 C 62.174 426.555,62.796 427.267,62.750 427.409 C 62.704 427.551,62.817 427.667,63.000 427.667 C 63.183 427.667,63.909 428.229,64.612 428.917 C 65.315 429.604,66.847 430.992,68.017 432.000 C 69.186 433.008,70.617 434.314,71.196 434.903 C 71.776 435.491,72.327 435.895,72.421 435.802 C 72.514 435.708,72.892 436.014,73.260 436.482 C 73.628 436.950,74.059 437.333,74.216 437.333 C 74.374 437.333,75.141 437.933,75.919 438.667 C 76.698 439.400,77.472 440.000,77.640 440.000 C 77.807 440.000,77.994 440.121,78.056 440.268 C 78.163 440.528,82.643 443.940,84.333 445.050 C 84.792 445.351,85.488 445.904,85.881 446.278 C 86.274 446.653,86.663 446.892,86.746 446.810 C 86.828 446.728,87.285 447.021,87.761 447.462 C 88.236 447.903,88.706 448.183,88.805 448.084 C 88.904 447.985,89.079 448.151,89.194 448.452 C 89.310 448.754,89.614 449.000,89.869 449.000 C 90.124 449.000,90.333 449.150,90.333 449.333 C 90.333 449.517,90.547 449.667,90.808 449.667 C 91.069 449.667,91.970 450.192,92.811 450.833 C 93.651 451.475,94.488 452.000,94.670 452.000 C 94.851 452.000,95.000 452.134,95.000 452.297 C 95.000 452.461,95.340 452.680,95.757 452.784 C 96.173 452.889,96.810 453.251,97.173 453.589 C 97.536 453.927,98.321 454.420,98.917 454.683 C 99.513 454.947,100.000 455.276,100.000 455.415 C 100.000 455.553,100.168 455.667,100.373 455.667 C 100.578 455.667,101.666 456.227,102.790 456.913 C 103.914 457.598,104.946 458.123,105.083 458.079 C 105.221 458.036,105.333 458.159,105.333 458.353 C 105.333 458.547,105.471 458.621,105.638 458.518 C 105.806 458.414,105.993 458.455,106.055 458.608 C 106.116 458.761,107.166 459.356,108.389 459.930 C 109.611 460.503,110.708 461.131,110.828 461.325 C 110.948 461.519,111.186 461.591,111.356 461.486 C 111.527 461.380,111.667 461.462,111.667 461.667 C 111.667 461.872,111.790 461.963,111.941 461.870 C 112.092 461.776,113.067 462.213,114.108 462.840 C 115.148 463.467,116.002 463.872,116.005 463.740 C 116.008 463.608,116.127 463.684,116.270 463.908 C 116.412 464.133,116.822 464.365,117.181 464.423 C 117.540 464.482,118.583 464.911,119.500 465.376 C 120.417 465.841,121.242 466.237,121.333 466.256 C 121.888 466.370,123.045 466.843,124.514 467.556 C 125.438 468.005,126.413 468.408,126.680 468.452 C 126.948 468.496,127.504 468.718,127.917 468.944 C 128.329 469.171,128.667 469.273,128.667 469.172 C 128.667 469.070,129.267 469.293,130.000 469.667 C 130.733 470.041,131.333 470.252,131.333 470.135 C 131.333 470.019,131.671 470.142,132.083 470.409 C 132.496 470.676,133.283 471.019,133.833 471.170 C 134.383 471.322,134.946 471.477,135.083 471.514 C 135.221 471.552,135.408 471.621,135.500 471.667 C 135.592 471.712,135.817 471.787,136.000 471.833 C 136.183 471.879,136.408 471.954,136.500 472.000 C 136.592 472.046,136.779 472.111,136.917 472.144 C 137.054 472.177,137.654 472.320,138.250 472.462 C 138.846 472.604,139.333 472.867,139.333 473.046 C 139.333 473.226,139.452 473.300,139.596 473.210 C 139.740 473.121,141.128 473.483,142.679 474.015 C 144.231 474.546,145.829 474.986,146.230 474.991 C 146.632 474.996,147.041 475.130,147.140 475.289 C 147.238 475.449,148.066 475.678,148.979 475.799 C 149.892 475.920,150.725 476.158,150.830 476.328 C 150.935 476.498,151.226 476.559,151.477 476.463 C 151.728 476.367,152.033 476.451,152.156 476.649 C 152.279 476.848,152.519 476.925,152.690 476.819 C 152.860 476.714,153.185 476.742,153.411 476.881 C 153.877 477.169,154.254 477.256,156.250 477.537 C 157.029 477.647,157.667 477.880,157.667 478.055 C 157.667 478.230,157.784 478.300,157.927 478.212 C 158.149 478.075,159.245 478.267,163.500 479.193 C 163.867 479.272,164.617 479.405,165.167 479.488 C 165.717 479.570,166.617 479.730,167.167 479.842 C 168.079 480.029,168.985 480.171,171.333 480.497 C 171.792 480.561,172.204 480.643,172.250 480.681 C 172.334 480.750,172.742 480.801,175.833 481.123 C 176.750 481.218,178.025 481.376,178.667 481.473 C 179.308 481.570,181.183 481.731,182.833 481.829 C 184.483 481.928,186.583 482.097,187.500 482.205 C 190.026 482.502,194.198 482.635,200.833 482.632 C 210.085 482.626,213.850 482.431,222.667 481.497 C 223.858 481.371,225.283 481.230,225.833 481.184 C 226.383 481.138,227.058 481.008,227.333 480.895 C 227.608 480.782,228.733 480.610,229.833 480.515 C 231.975 480.328,232.688 480.222,234.000 479.897 C 234.748 479.712,235.737 479.545,238.333 479.167 C 238.792 479.100,239.917 478.882,240.833 478.683 C 242.879 478.239,243.963 478.013,244.833 477.848 C 245.200 477.779,245.500 477.693,245.500 477.656 C 245.500 477.620,245.886 477.544,246.357 477.487 C 247.690 477.325,251.320 476.361,253.213 475.666 C 254.155 475.320,255.014 475.125,255.122 475.233 C 255.229 475.340,255.535 475.248,255.800 475.027 C 256.066 474.807,256.632 474.581,257.058 474.526 C 258.267 474.369,259.799 473.935,260.175 473.642 C 260.363 473.496,260.888 473.315,261.342 473.239 C 261.795 473.164,262.392 473.006,262.667 472.888 C 263.713 472.440,267.200 471.278,267.937 471.132 C 268.360 471.048,269.258 470.684,269.932 470.323 C 270.606 469.962,271.397 469.667,271.690 469.667 C 271.983 469.667,272.327 469.562,272.454 469.435 C 272.582 469.307,272.918 469.169,273.202 469.127 C 273.486 469.085,274.269 468.783,274.943 468.455 C 275.616 468.127,276.242 467.839,276.333 467.816 C 276.483 467.777,277.506 467.349,280.000 466.280 C 280.458 466.083,281.094 465.790,281.412 465.628 C 281.730 465.466,282.200 465.333,282.455 465.333 C 282.710 465.333,283.104 465.110,283.330 464.837 C 283.557 464.564,283.875 464.423,284.038 464.523 C 284.200 464.624,284.333 464.547,284.333 464.353 C 284.333 464.159,284.446 464.028,284.583 464.062 C 284.721 464.095,285.733 463.698,286.833 463.178 C 287.933 462.658,289.208 462.068,289.667 461.867 C 290.125 461.666,290.575 461.418,290.667 461.317 C 290.995 460.954,294.667 458.998,294.667 459.187 C 294.667 459.292,295.102 459.069,295.635 458.689 C 296.167 458.310,296.767 458.000,296.968 458.000 C 297.169 458.000,297.333 457.862,297.333 457.693 C 297.333 457.523,297.858 457.212,298.500 457.000 C 299.142 456.788,299.667 456.504,299.667 456.369 C 299.667 456.085,302.043 454.850,302.417 454.940 C 302.554 454.973,302.667 454.850,302.667 454.667 C 302.667 454.483,302.892 454.333,303.167 454.333 C 303.442 454.333,303.667 454.200,303.667 454.038 C 303.667 453.876,304.220 453.480,304.896 453.159 C 305.572 452.838,306.417 452.304,306.774 451.971 C 307.131 451.639,307.956 451.114,308.608 450.805 C 309.259 450.496,309.951 450.111,310.146 449.950 C 311.829 448.560,313.563 447.339,313.859 447.337 C 314.056 447.335,314.569 446.958,315.000 446.500 C 315.431 446.042,315.966 445.667,316.189 445.667 C 316.413 445.667,316.685 445.432,316.795 445.146 C 316.905 444.859,317.131 444.708,317.296 444.810 C 317.461 444.913,317.683 444.772,317.788 444.498 C 317.893 444.224,318.193 444.000,318.454 444.000 C 318.715 444.000,319.015 443.775,319.121 443.500 C 319.226 443.225,319.526 443.000,319.787 443.000 C 320.048 443.000,320.344 442.786,320.444 442.525 C 320.544 442.264,321.160 441.797,321.813 441.487 C 322.466 441.177,323.000 440.804,323.000 440.657 C 323.000 440.511,324.010 439.590,325.244 438.612 C 327.564 436.773,328.067 436.353,329.477 435.083 C 329.935 434.671,330.405 434.333,330.521 434.333 C 330.761 434.333,331.706 433.423,340.333 424.885 C 343.725 421.528,347.250 417.923,348.167 416.873 C 349.083 415.822,350.471 414.313,351.250 413.518 C 352.029 412.724,352.667 411.918,352.667 411.728 C 352.667 411.537,353.062 411.071,353.545 410.691 C 354.028 410.311,354.321 410.000,354.196 410.000 C 354.072 410.000,354.314 409.633,354.735 409.185 C 355.156 408.737,356.025 407.666,356.667 406.804 C 357.308 405.943,358.058 404.989,358.333 404.684 C 358.608 404.379,359.354 403.392,359.990 402.491 C 360.626 401.590,361.376 400.597,361.657 400.284 C 362.731 399.085,362.953 398.731,362.758 398.536 C 362.647 398.424,362.698 398.333,362.873 398.333 C 363.047 398.333,363.473 397.846,363.819 397.250 C 364.165 396.654,364.650 396.045,364.898 395.896 C 365.145 395.747,365.274 395.507,365.184 395.361 C 365.094 395.216,365.480 394.588,366.041 393.965 C 366.602 393.343,367.364 392.196,367.734 391.417 C 368.104 390.637,368.517 390.000,368.653 390.000 C 368.788 390.000,369.165 389.409,369.491 388.686 C 369.817 387.964,370.290 387.293,370.542 387.197 C 370.794 387.100,371.000 386.750,371.000 386.420 C 371.000 386.089,371.424 385.297,371.942 384.659 C 372.823 383.575,373.155 382.972,373.315 382.167 C 373.351 381.983,373.595 381.713,373.857 381.567 C 374.119 381.420,374.333 381.042,374.333 380.727 C 374.333 380.412,374.708 379.603,375.167 378.928 C 375.625 378.254,376.000 377.544,376.000 377.351 C 376.000 377.158,376.159 377.000,376.353 377.000 C 376.547 377.000,376.621 376.862,376.517 376.694 C 376.412 376.525,376.521 376.187,376.758 375.944 C 377.353 375.331,380.333 369.378,380.333 368.802 C 380.333 368.544,380.492 368.333,380.686 368.333 C 380.880 368.333,380.954 368.195,380.850 368.027 C 380.746 367.858,380.860 367.521,381.104 367.277 C 381.348 367.033,381.571 366.719,381.600 366.580 C 381.629 366.440,381.875 365.897,382.147 365.372 C 382.418 364.847,382.546 364.324,382.431 364.209 C 382.316 364.094,382.372 364.000,382.556 364.000 C 382.739 364.000,382.895 363.813,382.903 363.583 C 382.910 363.354,383.460 362.021,384.125 360.622 C 384.790 359.222,385.333 357.868,385.333 357.613 C 385.333 357.357,385.535 356.852,385.780 356.491 C 386.026 356.129,386.739 354.333,387.364 352.500 C 387.989 350.667,388.575 349.092,388.667 349.000 C 388.758 348.908,388.884 348.533,388.947 348.167 C 389.009 347.800,389.356 346.675,389.717 345.667 C 390.078 344.658,390.428 343.608,390.495 343.333 C 390.562 343.058,390.869 342.158,391.177 341.333 C 391.486 340.508,391.792 339.533,391.858 339.167 C 392.014 338.292,392.498 336.546,393.127 334.583 C 393.406 333.712,393.562 333.000,393.472 333.000 C 393.383 333.000,393.473 332.695,393.672 332.323 C 394.019 331.674,394.115 331.267,394.530 328.667 C 394.632 328.025,394.801 327.275,394.904 327.000 C 395.136 326.384,395.255 325.833,395.480 324.333 C 395.576 323.692,395.760 322.792,395.889 322.333 C 396.017 321.875,396.162 321.275,396.210 321.000 C 396.399 319.918,396.724 318.125,396.876 317.333 C 397.270 315.269,397.354 314.743,397.514 313.333 C 397.684 311.829,397.910 310.500,397.994 310.500 C 398.019 310.500,398.104 309.900,398.183 309.167 C 398.262 308.433,398.396 307.233,398.482 306.500 C 398.637 305.174,398.868 302.862,399.133 300.000 C 400.296 287.419,399.852 266.843,398.208 257.167 C 398.115 256.617,397.956 255.567,397.855 254.833 C 397.754 254.100,397.587 252.900,397.484 252.167 C 397.381 251.433,397.241 250.341,397.172 249.739 C 397.027 248.462,396.786 247.292,395.990 244.005 C 395.791 243.183,395.565 241.983,395.488 241.338 C 395.343 240.132,395.090 238.833,395.000 238.833 C 394.972 238.833,394.898 238.608,394.835 238.333 C 393.951 234.454,393.628 233.071,393.494 232.583 C 393.406 232.263,393.274 231.737,393.202 231.415 C 392.893 230.046,392.285 227.796,392.099 227.333 C 391.988 227.058,391.882 226.683,391.862 226.500 C 391.842 226.317,391.504 225.336,391.111 224.321 C 390.718 223.306,390.324 222.019,390.236 221.461 C 390.148 220.904,389.833 219.976,389.535 219.400 C 389.237 218.825,389.019 218.236,389.050 218.093 C 389.082 217.950,388.933 217.411,388.720 216.895 C 388.508 216.379,388.333 215.812,388.333 215.634 C 388.333 215.457,388.086 214.754,387.784 214.073 C 387.482 213.391,387.196 212.683,387.149 212.500 C 387.101 212.317,386.675 211.303,386.201 210.248 C 385.728 209.193,385.349 208.293,385.360 208.248 C 385.391 208.122,384.754 206.494,383.990 204.749 C 383.609 203.879,383.174 202.867,383.024 202.500 C 382.874 202.133,382.395 201.094,381.959 200.190 C 381.523 199.286,381.161 198.461,381.154 198.357 C 381.125 197.919,378.682 192.770,377.981 191.667 C 377.806 191.392,377.401 190.642,377.081 190.000 C 376.762 189.358,376.407 188.758,376.294 188.667 C 376.181 188.575,375.788 187.900,375.422 187.167 C 374.136 184.590,373.164 182.832,372.930 182.655 C 372.799 182.557,372.470 181.945,372.199 181.295 C 371.927 180.645,371.473 179.921,371.190 179.686 C 370.906 179.450,370.756 179.125,370.857 178.962 C 370.957 178.800,370.872 178.667,370.667 178.667 C 370.462 178.667,370.387 178.516,370.501 178.331 C 370.616 178.146,370.474 177.905,370.188 177.795 C 369.901 177.685,369.667 177.438,369.667 177.246 C 369.667 177.054,369.284 176.395,368.816 175.781 C 368.349 175.168,368.049 174.667,368.150 174.667 C 368.251 174.667,368.033 174.367,367.667 174.000 C 367.300 173.633,366.997 173.146,366.994 172.917 C 366.991 172.688,366.617 172.147,366.162 171.716 C 365.708 171.285,365.419 170.798,365.521 170.633 C 365.623 170.468,365.559 170.333,365.380 170.333 C 365.201 170.333,364.718 169.771,364.307 169.083 C 363.895 168.396,363.292 167.533,362.966 167.167 C 362.640 166.800,362.402 166.409,362.437 166.298 C 362.472 166.187,362.050 165.563,361.500 164.912 C 360.950 164.260,360.275 163.400,360.000 162.999 C 359.725 162.599,359.238 161.962,358.917 161.585 C 358.596 161.207,358.333 160.802,358.333 160.685 C 358.333 160.568,357.846 159.939,357.250 159.287 C 355.795 157.696,354.974 156.667,355.159 156.667 C 355.243 156.667,354.829 156.168,354.239 155.559 C 353.649 154.950,352.792 153.959,352.333 153.355 C 351.875 152.752,350.975 151.683,350.333 150.980 C 349.692 150.277,348.492 148.947,347.667 148.024 C 346.842 147.101,345.025 145.159,343.629 143.709 L 341.091 141.073 323.089 158.929 L 305.088 176.786 307.458 179.143 C 308.762 180.439,309.831 181.575,309.834 181.667 C 309.837 181.758,310.363 182.398,311.003 183.089 C 311.643 183.779,312.799 185.054,313.572 185.922 C 314.346 186.790,315.581 188.175,316.318 189.000 C 317.054 189.825,317.659 190.688,317.662 190.917 C 317.665 191.146,317.796 191.333,317.955 191.333 C 318.113 191.333,318.676 191.971,319.205 192.750 C 319.734 193.529,320.279 194.217,320.417 194.278 C 320.554 194.339,320.667 194.533,320.667 194.709 C 320.667 194.885,321.042 195.434,321.500 195.928 C 321.958 196.422,322.333 196.947,322.333 197.093 C 322.333 197.429,323.746 199.461,324.083 199.611 C 324.221 199.672,324.333 199.935,324.333 200.194 C 324.333 200.454,324.483 200.667,324.667 200.667 C 324.850 200.667,325.000 200.892,325.000 201.167 C 325.000 201.442,325.175 201.667,325.389 201.667 C 325.603 201.667,325.685 201.760,325.571 201.873 C 325.458 201.987,325.545 202.281,325.766 202.528 C 326.757 203.638,327.010 204.000,326.795 204.000 C 326.668 204.000,326.836 204.301,327.169 204.669 C 327.832 205.402,328.148 205.932,329.549 208.667 C 330.066 209.675,330.716 210.767,330.994 211.094 C 331.272 211.421,331.450 211.779,331.388 211.890 C 331.327 212.001,331.414 212.184,331.582 212.296 C 331.929 212.528,335.077 218.927,334.930 219.101 C 334.877 219.163,335.096 219.477,335.417 219.798 C 335.928 220.309,336.075 220.772,335.972 221.546 C 335.956 221.663,336.073 221.851,336.231 221.963 C 336.480 222.139,337.783 224.825,337.861 225.323 C 337.877 225.420,338.089 225.950,338.333 226.500 C 338.578 227.050,338.795 227.575,338.817 227.667 C 338.839 227.758,339.032 228.148,339.246 228.532 C 339.460 228.916,339.704 229.610,339.788 230.075 C 339.872 230.539,340.173 231.369,340.457 231.917 C 340.741 232.466,340.892 232.997,340.793 233.096 C 340.694 233.195,340.805 233.627,341.040 234.055 C 341.275 234.483,341.508 235.075,341.558 235.371 C 341.608 235.667,341.828 236.342,342.046 236.871 C 342.265 237.400,342.475 237.946,342.514 238.083 C 342.552 238.221,342.620 238.446,342.664 238.583 C 342.709 238.721,342.731 238.936,342.714 239.061 C 342.696 239.186,342.897 239.804,343.161 240.435 C 343.425 241.066,343.546 241.676,343.431 241.791 C 343.316 241.906,343.422 242.000,343.667 242.000 C 343.911 242.000,344.016 242.095,343.901 242.210 C 343.785 242.326,343.818 242.664,343.974 242.960 C 344.130 243.257,344.341 244.106,344.443 244.848 C 344.545 245.589,344.853 246.864,345.128 247.681 C 345.403 248.498,345.700 249.617,345.787 250.167 C 345.874 250.717,345.976 251.204,346.014 251.250 C 346.151 251.415,346.638 253.666,346.826 255.000 C 346.890 255.458,347.037 256.508,347.152 257.333 C 347.267 258.158,347.444 259.208,347.545 259.667 C 347.647 260.125,347.792 261.025,347.868 261.667 C 347.944 262.308,348.086 263.358,348.183 264.000 C 348.281 264.642,348.439 266.067,348.534 267.167 C 348.630 268.267,348.772 269.767,348.849 270.500 C 348.927 271.233,349.066 273.408,349.158 275.333 C 349.250 277.258,349.389 279.958,349.467 281.333 C 349.593 283.560,349.252 290.957,348.815 295.500 C 348.726 296.417,348.592 297.992,348.516 299.000 C 348.389 300.684,347.939 304.607,347.826 305.000 C 347.549 305.972,347.326 307.086,347.159 308.333 C 346.807 310.951,346.722 311.500,346.667 311.500 C 346.637 311.500,346.563 311.875,346.503 312.333 C 346.387 313.213,346.087 314.500,345.998 314.500 C 345.970 314.500,345.900 314.875,345.843 315.333 C 345.787 315.792,345.649 316.504,345.537 316.917 C 345.114 318.473,344.936 319.201,344.693 320.359 C 344.556 321.015,344.352 321.700,344.239 321.882 C 344.127 322.064,343.960 322.578,343.868 323.023 C 343.523 324.694,343.374 325.198,342.879 326.361 C 342.600 327.017,342.321 327.917,342.260 328.361 C 342.200 328.804,342.049 329.327,341.926 329.523 C 341.802 329.720,341.626 330.293,341.535 330.799 C 341.443 331.304,341.068 332.343,340.701 333.109 C 340.334 333.874,339.967 334.879,339.886 335.342 C 339.804 335.805,339.474 336.780,339.151 337.509 C 338.828 338.237,338.587 338.946,338.615 339.083 C 338.644 339.221,338.517 339.333,338.333 339.333 C 338.150 339.333,338.000 339.624,338.000 339.980 C 338.000 340.336,337.848 340.722,337.661 340.837 C 337.475 340.952,337.409 341.186,337.514 341.356 C 337.620 341.527,337.547 341.667,337.353 341.667 C 337.159 341.667,337.032 341.779,337.071 341.917 C 337.110 342.054,336.954 342.504,336.726 342.917 C 336.497 343.329,336.413 343.667,336.540 343.667 C 336.666 343.667,336.539 343.929,336.258 344.250 C 335.976 344.571,335.636 345.208,335.501 345.667 C 335.276 346.434,334.324 348.466,333.626 349.667 C 333.466 349.942,333.007 350.879,332.605 351.750 C 332.204 352.621,331.744 353.333,331.585 353.333 C 331.425 353.333,331.379 353.471,331.483 353.640 C 331.588 353.808,331.484 354.146,331.253 354.390 C 331.022 354.634,330.612 355.283,330.342 355.833 C 330.072 356.383,329.285 357.706,328.592 358.774 C 327.900 359.841,327.333 360.830,327.333 360.972 C 327.333 361.114,326.959 361.665,326.500 362.198 C 326.042 362.731,325.667 363.326,325.667 363.520 C 325.667 363.715,325.398 364.165,325.070 364.520 C 324.743 364.876,323.907 366.104,323.213 367.250 C 322.519 368.396,321.813 369.333,321.643 369.333 C 321.472 369.333,321.333 369.496,321.333 369.694 C 321.333 369.892,320.771 370.753,320.083 371.607 C 319.396 372.461,318.718 373.311,318.577 373.497 C 318.436 373.682,318.052 374.161,317.723 374.562 C 317.394 374.963,316.834 375.687,316.479 376.172 C 316.124 376.656,315.383 377.552,314.833 378.164 C 314.283 378.775,313.233 379.984,312.500 380.850 C 310.620 383.071,299.821 394.000,299.506 394.000 C 299.363 394.000,298.750 394.525,298.145 395.167 C 297.540 395.808,296.938 396.333,296.808 396.333 C 296.678 396.333,296.106 396.778,295.536 397.321 C 293.027 399.712,290.000 402.166,290.000 401.810 C 290.000 401.661,289.813 401.763,289.583 402.037 C 288.960 402.781,286.098 405.000,285.762 405.000 C 285.437 405.000,284.464 405.706,282.912 407.068 C 282.348 407.563,281.777 407.902,281.644 407.820 C 281.512 407.738,281.314 407.904,281.204 408.190 C 281.094 408.475,280.854 408.616,280.669 408.501 C 280.484 408.387,280.333 408.453,280.333 408.647 C 280.333 408.841,280.108 409.000,279.833 409.000 C 279.558 409.000,279.333 409.159,279.333 409.353 C 279.333 409.547,279.199 409.623,279.035 409.522 C 278.871 409.420,278.642 409.583,278.527 409.883 C 278.412 410.183,278.230 410.341,278.123 410.234 C 278.016 410.128,277.610 410.337,277.221 410.700 C 276.832 411.062,276.173 411.445,275.757 411.549 C 275.340 411.653,275.000 411.882,275.000 412.056 C 275.000 412.230,274.850 412.280,274.667 412.167 C 274.483 412.053,274.333 412.120,274.333 412.314 C 274.333 412.508,274.108 412.667,273.833 412.667 C 273.558 412.667,273.333 412.842,273.333 413.056 C 273.333 413.269,273.238 413.349,273.121 413.232 C 273.004 413.115,272.493 413.315,271.986 413.677 C 271.479 414.038,270.968 414.333,270.851 414.333 C 270.734 414.333,270.457 414.484,270.236 414.669 C 269.562 415.230,265.961 417.000,265.494 417.000 C 265.253 417.000,265.006 417.113,264.944 417.250 C 264.769 417.644,262.787 418.667,262.199 418.667 C 261.906 418.667,261.667 418.800,261.667 418.963 C 261.667 419.126,260.992 419.459,260.167 419.703 C 259.342 419.946,258.667 420.272,258.667 420.426 C 258.667 420.580,258.527 420.620,258.356 420.514 C 258.186 420.409,257.952 420.475,257.837 420.661 C 257.722 420.848,257.336 421.000,256.980 421.000 C 256.624 421.000,256.333 421.175,256.333 421.389 C 256.333 421.603,256.239 421.683,256.123 421.567 C 256.007 421.452,255.595 421.532,255.206 421.745 C 254.818 421.959,254.203 422.183,253.840 422.243 C 253.478 422.303,253.035 422.498,252.857 422.676 C 252.679 422.854,252.337 423.000,252.096 423.000 C 251.856 423.000,251.024 423.287,250.246 423.637 C 249.469 423.987,248.008 424.524,247.000 424.830 C 245.992 425.135,244.942 425.473,244.667 425.580 C 244.392 425.688,244.092 425.802,244.000 425.833 C 243.908 425.865,243.608 425.977,243.333 426.082 C 243.058 426.187,242.158 426.441,241.333 426.647 C 240.508 426.853,239.608 427.086,239.333 427.165 C 238.529 427.396,234.894 428.331,234.167 428.494 C 233.800 428.577,232.900 428.791,232.167 428.970 C 229.227 429.688,228.811 429.782,228.250 429.848 C 227.929 429.886,227.629 429.948,227.583 429.985 C 227.537 430.023,227.125 430.103,226.667 430.162 C 225.705 430.287,224.330 430.523,222.667 430.850 C 221.331 431.112,220.507 431.226,218.167 431.474 C 217.250 431.571,215.975 431.733,215.333 431.835 C 210.859 432.544,198.157 432.900,191.500 432.502 C 182.816 431.983,179.281 431.674,178.836 431.396 C 178.651 431.281,178.125 431.169,177.667 431.147 C 176.611 431.098,173.280 430.582,171.333 430.167 C 170.875 430.069,170.125 429.919,169.667 429.833 C 167.475 429.425,166.677 429.259,164.667 428.797 C 163.475 428.523,162.275 428.212,162.000 428.106 C 161.725 427.999,161.064 427.856,160.531 427.787 C 159.997 427.717,159.393 427.521,159.187 427.350 C 158.981 427.179,158.442 426.961,157.990 426.864 C 155.205 426.270,150.781 424.861,149.341 424.110 C 148.879 423.868,148.196 423.670,147.824 423.669 C 147.452 423.668,146.815 423.433,146.408 423.148 C 146.000 422.862,145.667 422.730,145.667 422.853 C 145.667 422.976,145.297 422.834,144.845 422.538 C 144.393 422.242,143.718 422.000,143.345 422.000 C 142.972 422.000,142.667 421.850,142.667 421.667 C 142.667 421.483,142.397 421.333,142.067 421.333 C 141.737 421.333,141.287 421.153,141.067 420.933 C 140.847 420.713,140.664 420.676,140.662 420.850 C 140.659 421.024,140.534 420.974,140.385 420.738 C 140.235 420.502,139.675 420.231,139.140 420.135 C 138.605 420.039,137.532 419.590,136.756 419.137 C 135.980 418.683,135.267 418.319,135.171 418.326 C 134.958 418.343,130.881 416.217,129.500 415.369 C 128.950 415.032,128.387 414.819,128.250 414.897 C 128.112 414.975,128.000 414.872,128.000 414.667 C 128.000 414.462,127.870 414.374,127.711 414.472 C 127.552 414.571,127.157 414.358,126.833 414.000 C 126.509 413.642,126.114 413.429,125.955 413.528 C 125.797 413.626,125.667 413.559,125.667 413.379 C 125.667 413.199,125.166 412.887,124.554 412.685 C 123.943 412.483,123.118 412.015,122.721 411.646 C 122.324 411.276,122.000 411.061,122.000 411.167 C 122.000 411.273,121.677 411.059,121.283 410.691 C 120.888 410.324,120.438 410.102,120.283 410.198 C 120.127 410.294,120.000 410.214,120.000 410.020 C 120.000 409.826,119.775 409.667,119.500 409.667 C 119.225 409.667,119.000 409.515,119.000 409.329 C 119.000 409.143,118.325 408.663,117.500 408.263 C 116.675 407.862,116.000 407.414,116.000 407.267 C 116.000 407.120,115.797 407.000,115.549 407.000 C 115.300 407.000,114.700 406.632,114.215 406.183 C 113.730 405.733,113.329 405.471,113.323 405.599 C 113.318 405.728,113.160 405.571,112.973 405.250 C 112.786 404.929,112.445 404.667,112.215 404.667 C 111.985 404.667,111.243 404.159,110.565 403.538 C 109.888 402.918,109.333 402.474,109.333 402.552 C 109.333 402.731,108.490 402.051,107.514 401.083 C 107.097 400.671,106.620 400.333,106.452 400.333 C 106.284 400.333,105.931 400.033,105.667 399.667 C 105.402 399.300,105.008 399.000,104.789 399.000 C 104.571 399.000,104.014 398.550,103.551 398.000 C 103.088 397.450,102.619 397.000,102.509 397.000 C 102.399 397.000,101.639 396.311,100.821 395.469 C 100.003 394.628,99.333 394.049,99.333 394.183 C 99.333 394.510,88.983 384.032,86.667 381.360 C 85.658 380.196,84.275 378.627,83.592 377.872 C 82.910 377.118,82.347 376.394,82.342 376.265 C 82.337 376.136,81.996 375.663,81.583 375.214 C 80.684 374.234,80.387 373.857,79.318 372.333 C 78.868 371.692,78.350 371.056,78.167 370.922 C 77.983 370.787,77.939 370.675,78.067 370.672 C 78.196 370.669,77.919 370.254,77.451 369.750 C 76.982 369.246,76.369 368.383,76.087 367.833 C 75.805 367.283,75.222 366.478,74.792 366.043 C 74.362 365.608,74.092 365.121,74.192 364.960 C 74.291 364.799,74.246 364.667,74.091 364.667 C 73.937 364.667,73.365 363.842,72.822 362.834 C 72.278 361.827,71.721 361.002,71.583 361.001 C 71.446 361.001,71.333 360.775,71.333 360.500 C 71.333 360.225,71.174 360.000,70.980 360.000 C 70.786 360.000,70.720 359.850,70.833 359.667 C 70.947 359.483,70.908 359.333,70.748 359.333 C 70.466 359.333,68.853 356.741,68.840 356.267 C 68.836 356.138,68.646 355.846,68.417 355.617 C 68.188 355.388,68.000 355.016,68.000 354.790 C 68.000 354.565,67.773 354.154,67.495 353.876 C 66.972 353.353,64.604 348.516,64.680 348.128 C 64.704 348.007,64.595 347.816,64.438 347.704 C 64.080 347.448,63.197 345.585,63.275 345.250 C 63.307 345.113,63.158 345.000,62.944 345.000 C 62.731 345.000,62.650 344.906,62.764 344.791 C 62.879 344.676,62.723 344.114,62.417 343.541 C 62.112 342.968,61.842 342.425,61.818 342.333 C 61.794 342.242,61.440 341.417,61.032 340.500 C 59.915 337.989,59.349 336.609,59.154 335.917 C 59.115 335.779,59.053 335.629,59.017 335.583 C 58.980 335.537,58.884 335.137,58.802 334.693 C 58.720 334.249,58.501 333.702,58.314 333.477 C 58.128 333.252,57.911 332.790,57.834 332.451 C 57.716 331.937,56.377 327.808,55.742 326.000 C 55.472 325.232,55.384 324.908,55.179 323.925 C 55.075 323.426,54.838 322.618,54.653 322.130 C 54.467 321.642,54.237 320.700,54.141 320.038 C 54.045 319.375,53.767 318.308,53.523 317.667 C 53.153 316.692,52.878 315.496,52.490 313.167 C 52.460 312.983,52.400 312.758,52.356 312.667 C 52.313 312.575,52.226 312.200,52.163 311.833 C 51.740 309.388,51.584 308.438,51.530 307.994 C 51.496 307.716,51.363 307.318,51.235 307.111 C 51.107 306.903,51.012 306.381,51.024 305.950 C 51.036 305.519,50.961 304.717,50.857 304.167 C 50.753 303.617,50.588 302.342,50.492 301.333 C 50.395 300.325,50.244 298.975,50.157 298.333 C 49.759 295.398,49.657 294.193,49.426 289.667 C 49.052 282.367,49.406 271.137,50.150 266.667 C 50.257 266.025,50.406 264.566,50.481 263.425 C 50.556 262.284,50.700 261.215,50.802 261.051 C 50.904 260.886,51.064 260.019,51.159 259.125 C 51.253 258.231,51.417 257.125,51.524 256.667 C 51.630 256.208,51.780 255.308,51.856 254.667 C 52.033 253.174,52.225 252.167,52.333 252.167 C 52.380 252.167,52.458 251.867,52.507 251.500 C 52.669 250.274,52.952 249.014,53.129 248.727 C 53.225 248.571,53.384 248.007,53.482 247.472 C 54.066 244.280,54.695 241.868,55.058 241.430 C 55.254 241.194,55.330 241.000,55.225 241.000 C 55.121 241.000,55.320 240.175,55.667 239.167 C 56.014 238.158,56.212 237.333,56.108 237.333 C 56.004 237.333,56.105 237.108,56.333 236.833 C 56.562 236.558,56.656 236.333,56.544 236.333 C 56.361 236.333,56.893 234.689,57.677 232.833 C 57.831 232.467,58.063 231.792,58.191 231.333 C 58.319 230.875,58.560 230.412,58.728 230.303 C 58.896 230.195,59.058 229.783,59.088 229.387 C 59.117 228.991,59.285 228.667,59.460 228.667 C 59.635 228.667,59.684 228.573,59.569 228.458 C 59.454 228.343,59.583 227.818,59.855 227.291 C 60.128 226.764,60.268 226.333,60.167 226.333 C 60.066 226.333,60.215 225.885,60.498 225.337 C 60.782 224.789,61.037 224.226,61.066 224.087 C 61.095 223.947,61.317 223.635,61.560 223.393 C 61.802 223.151,62.000 222.649,62.000 222.278 C 62.000 221.580,62.854 219.848,63.583 219.066 C 63.813 218.820,64.001 218.442,64.001 218.226 C 64.003 217.856,65.155 215.417,65.843 214.330 C 66.015 214.057,66.171 213.758,66.189 213.667 C 66.308 213.054,68.502 208.987,69.517 207.500 C 69.892 206.950,70.387 206.125,70.616 205.667 C 71.608 203.682,72.057 203.000,72.371 203.000 C 72.555 203.000,72.613 202.850,72.500 202.667 C 72.387 202.483,72.453 202.333,72.647 202.333 C 72.841 202.333,73.000 202.144,73.000 201.913 C 73.000 201.682,73.366 201.098,73.814 200.616 C 74.261 200.133,74.560 199.671,74.478 199.589 C 74.396 199.507,74.630 199.168,74.998 198.835 C 75.366 198.502,75.667 198.028,75.667 197.782 C 75.667 197.535,75.804 197.333,75.973 197.333 C 76.141 197.333,76.622 196.771,77.042 196.083 C 77.462 195.396,77.924 194.783,78.069 194.722 C 78.214 194.661,78.333 194.467,78.333 194.291 C 78.333 193.941,78.849 193.253,79.750 192.402 C 80.071 192.100,80.333 191.728,80.333 191.577 C 80.333 191.427,80.708 190.928,81.167 190.470 C 81.625 190.011,82.002 189.531,82.004 189.402 C 82.006 189.272,82.569 188.547,83.254 187.789 C 83.939 187.031,85.250 185.536,86.167 184.467 C 87.083 183.398,113.147 157.177,144.085 126.199 L 200.336 69.874 200.252 34.854 L 200.167 -0.167 127.500 72.564 M266.333 80.709 C 265.692 80.851,264.662 81.052,264.044 81.155 C 263.427 81.258,262.752 81.448,262.544 81.578 C 262.337 81.708,261.891 81.857,261.554 81.909 C 261.217 81.962,259.867 82.632,258.554 83.399 C 257.241 84.166,256.167 84.734,256.167 84.662 C 256.167 84.460,254.730 85.682,253.153 87.227 C 252.371 87.993,251.642 88.530,251.532 88.421 C 251.423 88.312,251.333 88.465,251.333 88.761 C 251.333 89.058,251.130 89.420,250.880 89.567 C 250.347 89.881,247.668 93.694,247.667 94.140 C 247.667 94.309,247.462 94.684,247.212 94.974 C 246.659 95.614,245.333 99.520,245.333 100.509 C 245.333 100.901,245.221 101.335,245.083 101.472 C 244.692 101.863,244.473 108.038,244.796 109.553 C 244.881 109.949,245.056 110.999,245.185 111.887 C 245.314 112.774,245.628 113.911,245.883 114.413 C 246.138 114.915,246.344 115.403,246.340 115.497 C 246.336 115.590,246.345 115.704,246.359 115.750 C 246.373 115.796,246.431 116.072,246.488 116.364 C 246.546 116.657,246.984 117.516,247.463 118.274 C 247.942 119.033,248.333 119.787,248.333 119.951 C 248.333 120.292,251.274 123.882,253.102 125.774 C 253.779 126.474,254.333 126.956,254.333 126.844 C 254.333 126.732,254.671 126.960,255.083 127.351 C 255.968 128.188,259.802 130.208,262.167 131.082 C 263.726 131.659,264.273 131.790,266.833 132.200 C 268.766 132.509,272.517 132.531,274.167 132.242 C 275.083 132.082,276.058 131.941,276.333 131.930 C 276.608 131.918,277.021 131.761,277.250 131.580 C 277.479 131.400,277.667 131.347,277.667 131.464 C 277.667 131.580,278.179 131.461,278.806 131.200 C 279.433 130.938,280.033 130.811,280.139 130.917 C 280.246 131.024,280.333 130.927,280.333 130.703 C 280.333 130.478,280.473 130.380,280.644 130.486 C 280.814 130.591,281.048 130.525,281.163 130.339 C 281.278 130.152,281.664 130.000,282.020 130.000 C 282.376 130.000,282.667 129.867,282.667 129.703 C 282.667 129.540,283.304 129.105,284.083 128.737 C 284.862 128.369,285.864 127.677,286.308 127.200 C 286.753 126.723,287.258 126.333,287.431 126.333 C 287.605 126.333,288.398 125.621,289.195 124.750 C 291.427 122.310,291.667 122.019,291.667 121.747 C 291.667 121.607,292.033 121.098,292.480 120.616 C 292.928 120.133,293.203 119.647,293.091 119.536 C 292.980 119.424,293.064 119.333,293.278 119.333 C 293.492 119.333,293.638 119.221,293.604 119.083 C 293.569 118.946,293.853 118.158,294.234 117.333 C 294.876 115.945,295.164 115.207,295.304 114.588 C 295.335 114.453,295.572 113.741,295.832 113.005 C 296.091 112.269,296.217 111.667,296.111 111.667 C 296.005 111.667,296.061 111.479,296.235 111.250 C 296.523 110.872,296.666 109.655,296.756 106.833 C 296.842 104.093,296.119 99.977,295.086 97.333 C 294.979 97.058,294.865 96.758,294.834 96.667 C 294.803 96.575,294.578 96.050,294.333 95.500 C 294.089 94.950,293.873 94.425,293.853 94.333 C 293.833 94.242,293.320 93.492,292.712 92.667 C 292.104 91.842,291.394 90.759,291.133 90.260 C 290.873 89.761,290.361 89.193,289.997 88.998 C 289.632 88.803,289.333 88.415,289.333 88.135 C 289.333 87.856,289.197 87.712,289.030 87.815 C 288.864 87.918,288.376 87.588,287.947 87.082 C 286.018 84.809,279.690 81.418,276.944 81.185 C 276.822 81.175,276.620 81.065,276.495 80.940 C 276.370 80.815,276.056 80.794,275.796 80.894 C 275.537 80.993,275.139 80.929,274.912 80.752 C 274.424 80.369,268.009 80.337,266.333 80.709 " stroke="none" fill="#f04c2c" fill-rule="evenodd"></path></g></svg>