<svg id="svg" version="1.1" xmlns="http://www.w3.org/2000/svg" xmlns:xlink="http://www.w3.org/1999/xlink" width="400" height="488.6699507389162" viewBox="0, 0, 400,488.6699507389162"><g id="svgg"><path id="path0" d="M10.449 14.141 C 10.117 14.541,10.026 64.904,10.100 206.041 L 10.200 397.400 105.200 397.600 L 200.200 397.800 201.100 398.700 C 201.595 399.195,202.422 399.600,202.938 399.600 C 203.454 399.600,204.193 399.950,204.579 400.377 C 204.966 400.805,205.786 401.265,206.400 401.400 C 207.014 401.535,207.824 401.985,208.200 402.400 C 208.576 402.815,209.386 403.265,210.000 403.400 C 210.614 403.535,211.424 403.985,211.800 404.400 C 212.176 404.815,213.006 405.269,213.645 405.410 C 214.284 405.550,214.980 405.989,215.192 406.386 C 215.405 406.782,216.211 407.226,216.984 407.371 C 217.772 407.518,218.575 407.979,218.809 408.417 C 219.046 408.859,219.645 409.200,220.183 409.200 C 220.709 409.200,221.673 409.650,222.327 410.200 C 222.981 410.750,223.764 411.200,224.069 411.200 C 224.373 411.200,225.060 411.515,225.595 411.900 C 226.680 412.681,228.936 413.924,231.500 415.155 C 232.435 415.604,233.200 416.150,233.200 416.368 C 233.200 416.586,233.834 416.883,234.610 417.028 C 235.385 417.174,236.256 417.631,236.545 418.043 C 236.835 418.456,237.628 418.906,238.308 419.042 C 238.988 419.178,239.948 419.719,240.442 420.244 C 240.935 420.770,241.633 421.200,241.992 421.200 C 242.351 421.200,243.242 421.641,243.972 422.179 C 244.701 422.718,245.801 423.269,246.416 423.403 C 247.030 423.538,247.626 423.891,247.740 424.187 C 247.853 424.483,248.500 424.846,249.176 424.995 C 249.853 425.143,250.580 425.589,250.792 425.986 C 251.005 426.382,251.788 426.821,252.534 426.961 C 253.280 427.101,254.213 427.572,254.607 428.008 C 255.001 428.444,255.631 428.800,256.007 428.800 C 256.383 428.800,257.369 429.340,258.200 430.000 C 259.031 430.660,260.038 431.200,260.439 431.200 C 260.841 431.200,261.491 431.538,261.884 431.950 C 262.278 432.363,263.050 432.834,263.600 432.998 C 264.150 433.161,264.870 433.525,265.200 433.807 C 265.530 434.090,266.475 434.599,267.300 434.940 C 268.125 435.280,268.800 435.734,268.800 435.948 C 268.800 436.162,269.318 436.450,269.951 436.589 C 270.584 436.728,271.699 437.282,272.428 437.821 C 273.158 438.359,273.977 438.800,274.247 438.800 C 274.517 438.800,275.247 439.223,275.869 439.739 C 276.491 440.256,277.532 440.808,278.182 440.967 C 278.832 441.126,279.607 441.604,279.905 442.028 C 280.202 442.453,280.857 442.800,281.361 442.800 C 281.864 442.800,282.587 443.144,282.967 443.564 C 283.348 443.984,284.091 444.436,284.619 444.569 C 285.147 444.702,286.239 445.258,287.045 445.805 C 287.852 446.352,288.729 446.800,288.994 446.800 C 289.259 446.800,289.802 447.160,290.200 447.600 C 290.598 448.040,291.139 448.400,291.402 448.400 C 291.665 448.400,292.672 448.937,293.640 449.593 C 294.608 450.249,295.708 450.789,296.084 450.793 C 296.461 450.797,297.091 451.136,297.484 451.547 C 297.878 451.958,298.875 452.512,299.700 452.778 C 300.525 453.044,301.200 453.409,301.200 453.588 C 301.200 453.767,301.875 454.207,302.700 454.566 C 304.226 455.230,306.280 456.362,308.800 457.927 C 309.570 458.406,310.475 458.798,310.811 458.799 C 311.147 458.799,311.730 459.160,312.107 459.600 C 312.484 460.040,313.155 460.400,313.599 460.400 C 314.042 460.400,314.782 460.833,315.243 461.363 C 315.703 461.893,316.653 462.433,317.353 462.565 C 318.052 462.696,318.933 463.163,319.309 463.602 C 319.685 464.041,320.239 464.400,320.540 464.400 C 320.842 464.400,321.748 464.848,322.555 465.395 C 323.361 465.942,324.453 466.498,324.981 466.631 C 325.509 466.764,326.252 467.216,326.633 467.636 C 327.013 468.056,327.649 468.400,328.046 468.400 C 328.444 468.400,329.091 468.733,329.484 469.140 C 329.878 469.548,330.771 470.073,331.468 470.308 C 332.165 470.544,333.110 471.110,333.568 471.568 C 334.026 472.026,334.732 472.400,335.138 472.400 C 335.544 472.400,336.209 472.768,336.616 473.218 C 337.023 473.667,337.726 473.982,338.178 473.918 C 338.999 473.800,339.000 473.756,339.200 436.320 C 339.360 406.318,339.504 398.736,339.920 398.320 C 340.332 397.907,345.482 397.777,364.893 397.688 C 381.833 397.610,389.509 397.442,389.873 397.139 C 390.661 396.486,390.631 15.337,389.843 14.300 C 389.122 13.350,11.237 13.192,10.449 14.141 M358.526 43.665 C 359.007 43.921,359.619 44.416,359.887 44.765 C 360.268 45.262,360.377 80.307,360.387 205.630 L 360.400 365.861 359.461 366.742 L 358.523 367.624 334.488 367.606 L 310.453 367.589 309.827 368.483 C 309.274 369.273,309.199 372.393,309.194 394.989 C 309.191 409.075,309.056 420.797,308.894 421.038 C 308.216 422.050,306.476 422.032,305.364 421.002 C 304.770 420.451,303.963 420.000,303.572 420.000 C 303.181 420.000,302.327 419.550,301.673 419.000 C 301.019 418.450,300.209 418.000,299.873 418.000 C 299.537 418.000,298.753 417.575,298.131 417.055 C 297.509 416.535,296.550 415.970,296.000 415.800 C 295.450 415.629,294.571 415.155,294.046 414.745 C 293.521 414.335,292.767 414.000,292.369 414.000 C 291.971 414.000,291.410 413.664,291.123 413.254 C 290.835 412.843,290.015 412.379,289.300 412.222 C 288.586 412.065,287.776 411.618,287.500 411.230 C 287.225 410.841,286.312 410.297,285.472 410.021 C 284.632 409.745,283.848 409.270,283.731 408.964 C 283.614 408.659,282.776 408.209,281.869 407.965 C 280.962 407.720,279.980 407.178,279.687 406.760 C 279.394 406.342,278.743 406.000,278.239 406.000 C 277.736 406.000,277.007 405.650,276.621 405.223 C 276.234 404.795,275.397 404.331,274.761 404.191 C 274.125 404.052,273.469 403.716,273.302 403.445 C 273.136 403.175,272.370 402.709,271.600 402.412 C 270.830 402.114,269.840 401.560,269.400 401.181 C 268.960 400.802,268.150 400.361,267.600 400.200 C 267.050 400.039,266.240 399.589,265.800 399.200 C 265.360 398.811,264.550 398.361,264.000 398.200 C 263.450 398.039,262.640 397.588,262.200 397.197 C 261.760 396.806,260.816 396.363,260.102 396.212 C 259.389 396.061,258.669 395.701,258.502 395.412 C 258.336 395.123,257.570 394.589,256.800 394.225 C 256.030 393.862,254.500 393.042,253.400 392.403 C 252.300 391.764,250.677 390.897,249.794 390.475 C 248.911 390.054,247.944 389.415,247.645 389.055 C 247.347 388.695,246.707 388.400,246.223 388.400 C 245.740 388.400,244.953 387.950,244.475 387.400 C 243.997 386.850,243.225 386.400,242.760 386.400 C 242.296 386.400,241.381 385.950,240.727 385.400 C 240.073 384.850,239.254 384.400,238.907 384.400 C 238.560 384.400,237.686 383.950,236.964 383.400 C 236.243 382.850,235.486 382.400,235.281 382.400 C 235.076 382.400,234.479 382.066,233.954 381.658 C 233.429 381.250,232.341 380.701,231.535 380.439 C 230.730 380.176,229.970 379.700,229.848 379.381 C 229.725 379.061,229.273 378.800,228.843 378.800 C 228.413 378.800,227.553 378.375,226.931 377.855 C 226.309 377.335,225.350 376.774,224.800 376.609 C 224.250 376.443,223.440 375.994,223.000 375.609 C 222.560 375.225,221.607 374.712,220.881 374.470 C 220.156 374.227,219.097 373.662,218.527 373.214 C 217.958 372.766,217.271 372.400,217.000 372.400 C 216.729 372.400,216.064 372.051,215.522 371.625 C 214.980 371.198,214.054 370.728,213.463 370.580 C 212.873 370.432,212.257 370.086,212.095 369.812 C 211.933 369.538,211.139 369.098,210.332 368.836 C 209.525 368.574,208.648 368.098,208.383 367.780 C 207.966 367.277,196.869 367.200,124.737 367.200 C 48.854 367.200,41.486 367.143,40.586 366.554 L 39.600 365.908 39.600 205.940 C 39.600 30.417,39.411 44.541,41.772 43.586 C 43.144 43.031,357.483 43.110,358.526 43.665 M69.401 73.700 C 69.283 74.195,69.145 101.510,69.093 134.400 L 69.000 194.200 82.600 194.200 L 96.200 194.200 96.305 180.557 C 96.424 165.082,96.257 165.822,99.785 165.163 C 100.783 164.977,102.095 164.476,102.700 164.050 C 103.305 163.623,104.520 163.153,105.400 163.004 C 106.280 162.854,107.314 162.451,107.697 162.107 C 108.080 161.763,109.299 161.338,110.405 161.164 C 111.511 160.989,112.886 160.475,113.462 160.023 C 114.083 159.534,115.100 159.200,115.965 159.200 C 116.766 159.200,117.819 158.922,118.304 158.583 C 119.347 157.852,120.670 158.615,123.169 161.389 C 123.956 162.263,125.590 164.074,126.800 165.414 C 128.010 166.754,129.810 168.788,130.800 169.935 C 131.790 171.082,133.455 172.912,134.500 174.001 C 135.545 175.091,136.400 176.167,136.400 176.391 C 136.400 176.616,136.573 176.800,136.784 176.800 C 136.995 176.800,137.850 177.553,138.684 178.472 C 139.518 179.392,141.415 181.383,142.900 182.897 C 144.385 184.411,146.891 187.115,148.470 188.906 C 150.048 190.698,151.854 192.666,152.483 193.281 L 153.628 194.400 170.414 194.400 C 179.646 194.400,187.200 194.301,187.200 194.180 C 187.200 193.568,185.952 191.667,185.415 191.461 C 185.077 191.331,184.800 191.013,184.800 190.755 C 184.800 190.496,184.426 189.905,183.969 189.442 C 181.721 187.164,179.108 184.231,176.094 180.600 C 174.267 178.400,172.329 176.102,171.786 175.493 C 171.244 174.884,170.800 174.209,170.800 173.993 C 170.800 173.777,170.530 173.600,170.200 173.600 C 169.870 173.600,169.600 173.411,169.600 173.181 C 169.600 172.950,169.179 172.365,168.665 171.881 C 167.468 170.753,162.800 165.309,162.800 165.040 C 162.800 164.928,162.395 164.416,161.900 163.903 C 161.405 163.389,160.190 162.010,159.200 160.837 C 158.210 159.665,156.950 158.218,156.400 157.623 C 154.445 155.504,151.394 151.882,151.031 151.246 C 150.828 150.891,150.333 150.365,149.931 150.077 C 148.096 148.765,150.314 145.884,153.531 145.401 C 154.542 145.250,155.793 144.792,156.312 144.383 C 156.831 143.975,158.097 143.514,159.126 143.360 C 160.154 143.206,161.446 142.765,161.997 142.380 C 162.549 141.995,163.789 141.566,164.754 141.426 C 165.718 141.287,166.958 140.819,167.508 140.387 C 168.058 139.954,168.997 139.600,169.594 139.600 C 170.192 139.600,171.527 139.150,172.562 138.600 C 173.596 138.050,174.949 137.600,175.567 137.600 C 176.186 137.600,177.147 137.242,177.703 136.805 C 178.259 136.368,179.678 135.804,180.857 135.552 C 182.035 135.301,183.429 134.758,183.954 134.347 C 184.479 133.936,185.411 133.600,186.025 133.600 C 188.527 133.600,188.400 135.252,188.400 102.818 L 188.400 73.293 187.500 73.052 C 187.005 72.919,160.278 72.808,128.108 72.805 L 69.615 72.800 69.401 73.700 M209.443 73.431 C 209.121 74.271,209.128 191.538,209.450 193.150 L 209.700 194.400 223.600 194.400 L 237.500 194.400 237.750 193.150 C 237.888 192.463,238.000 184.202,238.000 174.793 C 238.000 159.562,238.069 157.659,238.633 157.443 C 239.727 157.023,301.456 157.165,302.574 157.590 L 303.600 157.980 303.600 174.940 C 303.600 184.268,303.713 192.465,303.851 193.155 L 304.102 194.411 317.351 194.305 L 330.600 194.200 330.600 133.600 L 330.600 73.000 270.143 72.899 C 215.273 72.807,209.664 72.856,209.443 73.431 M159.339 100.749 C 159.897 101.212,160.000 102.182,160.000 106.960 C 160.000 113.709,159.801 114.187,156.825 114.597 C 155.735 114.746,154.472 115.191,154.019 115.584 C 153.565 115.977,152.439 116.419,151.516 116.567 C 150.592 116.715,149.289 117.166,148.618 117.569 C 147.948 117.973,146.680 118.430,145.800 118.585 C 144.920 118.740,143.652 119.204,142.982 119.616 C 142.311 120.028,140.961 120.488,139.982 120.638 C 139.002 120.788,137.903 121.219,137.541 121.595 C 137.172 121.978,135.956 122.389,134.782 122.528 C 133.428 122.688,132.413 123.065,131.925 123.588 C 131.509 124.035,130.678 124.400,130.078 124.400 C 129.479 124.400,128.271 124.788,127.394 125.263 C 126.517 125.738,125.004 126.278,124.030 126.464 C 123.057 126.650,121.955 127.079,121.581 127.417 C 121.207 127.755,119.977 128.178,118.848 128.357 C 117.718 128.535,116.451 128.991,116.033 129.370 C 115.614 129.749,114.262 130.196,113.028 130.364 C 111.724 130.541,110.579 130.940,110.292 131.318 C 110.022 131.676,108.990 132.149,108.000 132.369 C 107.010 132.590,105.487 133.137,104.615 133.585 C 103.744 134.033,102.624 134.400,102.128 134.400 C 101.631 134.400,100.477 134.790,99.562 135.266 C 96.486 136.870,96.614 137.576,96.496 118.403 C 96.385 100.455,96.371 100.588,98.329 100.278 C 101.472 99.779,158.703 100.221,159.339 100.749 M301.575 100.393 C 303.612 100.977,303.587 100.797,303.594 114.886 C 303.600 127.418,303.567 127.989,302.826 128.386 C 301.990 128.834,239.786 129.000,238.633 128.557 C 237.614 128.166,237.679 101.027,238.700 100.432 C 239.640 99.885,299.672 99.847,301.575 100.393 M69.614 218.374 C 68.845 219.810,69.059 292.660,69.833 292.957 C 70.181 293.091,90.395 293.200,114.753 293.200 C 148.665 293.200,159.152 293.312,159.520 293.680 C 160.249 294.409,160.195 310.540,159.461 311.149 C 159.073 311.472,146.430 311.625,114.161 311.698 L 69.400 311.800 69.284 324.600 C 69.221 331.640,69.274 337.985,69.403 338.700 L 69.636 340.000 128.538 340.000 C 173.817 340.000,187.551 339.889,187.920 339.520 C 188.286 339.154,188.400 330.268,188.400 301.967 L 188.400 264.893 187.500 264.652 C 187.005 264.519,166.653 264.408,142.274 264.405 C 112.494 264.402,97.694 264.264,97.174 263.986 C 96.101 263.412,95.969 247.688,97.029 246.629 C 97.592 246.065,102.238 245.999,142.129 245.995 C 166.588 245.992,187.005 245.881,187.500 245.748 L 188.400 245.507 188.400 232.164 L 188.400 218.821 187.220 218.210 C 185.151 217.140,70.189 217.300,69.614 218.374 M209.450 218.850 C 209.100 220.602,209.192 337.636,209.544 338.531 C 209.887 339.400,236.437 339.599,237.473 338.740 C 237.881 338.401,238.014 334.535,238.096 320.654 L 238.200 303.000 270.356 302.898 C 293.780 302.823,302.660 302.918,303.056 303.247 C 303.499 303.614,303.601 306.836,303.605 320.549 C 303.608 329.817,303.720 337.807,303.854 338.305 L 304.096 339.211 317.348 339.105 L 330.600 339.000 330.710 279.200 C 330.770 246.310,330.721 218.995,330.602 218.500 L 330.385 217.600 270.042 217.600 L 209.700 217.600 209.450 218.850 M302.930 246.500 C 303.553 246.957,303.603 248.145,303.506 260.188 L 303.400 273.377 302.400 273.882 C 301.100 274.540,239.995 274.639,238.774 273.986 C 237.989 273.566,237.503 247.030,238.267 246.267 C 238.803 245.730,302.191 245.959,302.930 246.500 " stroke="none" fill="#5b14ec" fill-rule="evenodd"></path><path id="path1" d="M0.000 244.200 L 0.000 488.400 200.000 488.400 L 400.000 488.400 400.000 244.200 L 400.000 0.000 200.000 0.000 L 0.000 0.000 0.000 244.200 M391.486 12.514 C 392.169 13.198,392.204 21.524,392.301 205.359 L 392.402 397.489 391.572 398.544 L 390.742 399.600 366.214 399.600 C 344.216 399.600,341.661 399.665,341.443 400.233 C 341.309 400.581,341.200 417.461,341.200 437.744 C 341.200 476.685,341.169 477.375,339.464 476.088 C 339.209 475.895,338.161 475.428,337.135 475.049 C 336.110 474.671,335.170 474.100,335.048 473.780 C 334.925 473.461,334.397 473.200,333.875 473.200 C 333.352 473.200,332.607 472.850,332.221 472.423 C 331.834 471.995,331.014 471.535,330.400 471.400 C 329.786 471.265,328.966 470.805,328.579 470.377 C 328.193 469.950,327.659 469.600,327.394 469.600 C 327.129 469.600,326.302 469.188,325.556 468.685 C 324.810 468.182,323.578 467.515,322.817 467.203 C 322.057 466.890,321.112 466.312,320.717 465.917 C 320.323 465.523,319.668 465.200,319.262 465.200 C 318.856 465.200,318.213 464.856,317.833 464.436 C 317.452 464.016,316.659 463.552,316.071 463.405 C 315.482 463.258,314.730 462.900,314.400 462.610 C 313.799 462.082,312.173 461.194,308.800 459.552 C 307.810 459.070,306.820 458.453,306.600 458.182 C 306.380 457.910,305.541 457.480,304.735 457.225 C 303.930 456.970,303.170 456.500,303.048 456.181 C 302.925 455.861,302.403 455.600,301.888 455.600 C 301.373 455.600,300.567 455.243,300.099 454.806 C 299.630 454.369,298.516 453.720,297.623 453.363 C 296.730 453.005,296.000 452.567,296.000 452.388 C 296.000 452.209,295.381 451.858,294.625 451.608 C 293.869 451.359,292.834 450.829,292.325 450.432 C 291.816 450.035,290.950 449.573,290.400 449.405 C 289.850 449.238,289.078 448.763,288.684 448.350 C 288.291 447.938,287.623 447.600,287.200 447.600 C 286.777 447.600,286.109 447.264,285.716 446.853 C 285.322 446.442,284.312 445.884,283.472 445.613 C 282.632 445.341,281.852 444.879,281.739 444.584 C 281.626 444.290,281.000 443.932,280.349 443.789 C 279.697 443.646,278.696 443.095,278.124 442.564 C 277.551 442.034,276.783 441.600,276.417 441.600 C 276.051 441.600,275.360 441.236,274.883 440.792 C 274.406 440.347,273.465 439.873,272.793 439.739 C 272.121 439.604,271.404 439.182,271.200 438.800 C 270.996 438.418,270.296 437.999,269.645 437.869 C 268.994 437.739,268.132 437.290,267.731 436.872 C 267.329 436.455,266.500 435.993,265.890 435.846 C 265.279 435.700,264.424 435.224,263.990 434.790 C 263.555 434.355,262.955 434.000,262.656 434.000 C 262.357 434.000,261.475 433.568,260.697 433.040 C 259.919 432.512,258.859 431.951,258.341 431.794 C 257.824 431.637,257.040 431.198,256.600 430.819 C 256.160 430.440,255.215 429.899,254.500 429.616 C 253.785 429.334,253.200 428.973,253.200 428.815 C 253.200 428.656,252.470 428.308,251.579 428.041 C 250.687 427.774,249.866 427.315,249.753 427.022 C 249.641 426.729,248.750 426.184,247.774 425.811 C 246.798 425.439,246.000 424.976,246.000 424.783 C 246.000 424.590,245.283 424.217,244.406 423.955 C 243.530 423.692,242.512 423.145,242.144 422.739 C 241.777 422.332,241.184 422.000,240.827 422.000 C 240.470 422.000,239.740 421.685,239.205 421.300 C 238.120 420.519,235.864 419.276,233.300 418.045 C 232.365 417.596,231.600 417.071,231.600 416.878 C 231.600 416.685,230.870 416.308,229.979 416.041 C 229.087 415.774,228.260 415.300,228.140 414.988 C 228.021 414.677,227.306 414.306,226.552 414.165 C 225.797 414.023,224.960 413.597,224.690 413.218 C 224.421 412.839,223.660 412.396,223.000 412.233 C 222.340 412.071,221.519 411.685,221.176 411.376 C 220.383 410.662,217.446 408.984,215.500 408.134 C 214.675 407.774,214.000 407.333,214.000 407.155 C 214.000 406.978,213.283 406.617,212.406 406.355 C 211.530 406.092,210.512 405.545,210.144 405.139 C 209.777 404.732,209.158 404.400,208.769 404.400 C 208.380 404.400,207.527 403.950,206.873 403.400 C 206.219 402.850,205.409 402.400,205.073 402.400 C 204.737 402.400,203.953 401.984,203.331 401.476 C 200.951 399.531,204.611 399.600,104.254 399.600 C 10.133 399.600,9.595 399.595,8.800 398.800 C 8.360 398.360,7.999 397.685,7.999 397.300 C 7.794 283.585,8.095 12.968,8.427 12.568 C 9.155 11.691,5.493 11.706,200.686 11.754 C 382.600 11.798,390.802 11.831,391.486 12.514 M41.785 46.099 C 41.681 46.375,41.641 118.420,41.698 206.200 L 41.800 365.800 125.375 365.901 C 206.580 365.999,208.974 366.023,209.775 366.755 C 210.229 367.169,211.050 367.639,211.600 367.800 C 212.150 367.961,212.960 368.411,213.400 368.800 C 213.840 369.189,214.650 369.639,215.200 369.800 C 215.750 369.961,216.560 370.408,217.000 370.793 C 217.440 371.179,218.290 371.611,218.889 371.752 C 219.488 371.894,220.298 372.344,220.689 372.752 C 221.080 373.160,222.061 373.707,222.868 373.967 C 223.675 374.228,224.552 374.702,224.817 375.020 C 225.082 375.339,225.574 375.600,225.911 375.600 C 226.249 375.600,227.114 376.050,227.836 376.600 C 228.557 377.150,229.304 377.600,229.496 377.600 C 229.688 377.600,230.442 378.041,231.172 378.579 C 231.901 379.118,233.015 379.672,233.647 379.810 C 234.278 379.949,234.931 380.284,235.098 380.555 C 235.264 380.825,236.030 381.293,236.800 381.593 C 237.570 381.893,238.522 382.468,238.916 382.869 C 239.309 383.271,239.970 383.600,240.385 383.600 C 240.799 383.600,241.673 384.050,242.327 384.600 C 242.981 385.150,243.771 385.600,244.082 385.600 C 244.394 385.600,245.008 385.935,245.447 386.343 C 245.886 386.752,246.894 387.301,247.687 387.563 C 248.480 387.825,249.223 388.283,249.338 388.582 C 249.452 388.880,250.106 389.248,250.791 389.398 C 251.475 389.548,252.342 389.991,252.718 390.383 C 253.093 390.774,254.088 391.316,254.928 391.587 C 255.768 391.859,256.553 392.332,256.671 392.640 C 256.789 392.948,257.181 393.201,257.543 393.201 C 257.904 393.202,258.830 393.600,259.600 394.085 C 260.370 394.570,261.630 395.299,262.400 395.705 C 264.296 396.704,265.917 397.630,267.647 398.703 C 268.443 399.196,269.348 399.600,269.658 399.600 C 269.968 399.600,270.530 399.960,270.907 400.400 C 271.284 400.840,271.945 401.200,272.375 401.200 C 272.806 401.200,273.644 401.650,274.238 402.200 C 274.831 402.750,275.637 403.200,276.028 403.200 C 276.419 403.200,277.273 403.650,277.927 404.200 C 278.581 404.750,279.289 405.200,279.502 405.200 C 279.714 405.200,280.548 405.648,281.355 406.195 C 282.161 406.742,283.253 407.298,283.781 407.431 C 284.309 407.564,285.052 408.016,285.433 408.436 C 285.813 408.856,286.449 409.200,286.846 409.200 C 287.244 409.200,287.891 409.536,288.284 409.947 C 288.678 410.358,289.674 410.911,290.497 411.177 C 291.320 411.443,292.130 411.891,292.297 412.173 C 292.464 412.456,293.274 412.906,294.097 413.173 C 294.920 413.441,295.730 413.891,295.897 414.173 C 296.064 414.456,296.888 414.910,297.728 415.184 C 298.568 415.457,299.348 415.921,299.461 416.216 C 299.574 416.510,300.237 416.872,300.933 417.020 C 301.630 417.168,302.494 417.547,302.852 417.863 C 303.869 418.759,306.481 419.997,306.859 419.763 C 307.047 419.648,307.200 407.898,307.200 393.653 C 307.200 371.919,307.291 367.628,307.768 366.976 C 308.316 366.226,309.171 366.193,333.268 366.000 L 358.200 365.800 358.200 205.800 L 358.200 45.800 200.088 45.699 C 73.807 45.619,41.937 45.700,41.785 46.099 M188.971 71.429 C 189.532 71.989,189.600 75.387,189.600 102.818 L 189.600 133.579 188.420 134.190 C 187.771 134.525,186.983 134.800,186.669 134.800 C 186.355 134.800,185.882 135.060,185.618 135.378 C 185.354 135.696,184.117 136.165,182.869 136.420 C 181.621 136.675,180.316 137.134,179.970 137.441 C 179.623 137.747,178.491 138.157,177.455 138.350 C 176.419 138.544,175.258 138.986,174.875 139.332 C 174.492 139.678,173.374 140.090,172.390 140.247 C 171.405 140.404,169.808 140.952,168.840 141.466 C 167.873 141.980,166.703 142.401,166.240 142.401 C 165.778 142.402,164.828 142.752,164.129 143.178 C 163.430 143.604,162.170 144.075,161.329 144.225 C 160.488 144.375,159.260 144.820,158.600 145.215 C 157.940 145.610,156.680 146.055,155.800 146.204 C 154.920 146.353,153.712 146.818,153.116 147.237 C 152.520 147.657,151.766 148.000,151.440 148.000 C 150.668 148.000,150.111 148.904,150.751 149.117 C 151.023 149.208,151.460 149.543,151.722 149.863 C 151.985 150.182,152.675 150.960,153.255 151.590 C 153.836 152.220,154.826 153.422,155.455 154.260 C 157.358 156.793,158.148 157.721,159.300 158.773 C 159.905 159.326,160.400 159.910,160.400 160.071 C 160.400 160.232,160.805 160.800,161.300 161.334 C 164.529 164.814,167.460 168.177,168.053 169.082 C 168.435 169.663,169.029 170.296,169.373 170.489 C 169.718 170.682,170.000 171.080,170.000 171.374 C 170.000 171.668,170.450 172.203,171.000 172.563 C 171.550 172.924,172.000 173.399,172.000 173.620 C 172.000 173.840,172.802 174.871,173.782 175.911 C 177.436 179.783,179.057 181.650,180.800 183.993 C 181.350 184.732,182.295 185.796,182.900 186.357 C 183.505 186.919,184.000 187.511,184.000 187.673 C 184.000 187.929,185.384 189.464,188.911 193.122 L 189.800 194.045 188.856 194.822 C 187.952 195.566,187.152 195.600,170.382 195.600 L 152.854 195.600 150.227 193.012 C 148.782 191.588,147.600 190.345,147.600 190.248 C 147.600 190.152,146.600 189.021,145.377 187.736 C 144.154 186.451,142.309 184.437,141.277 183.260 C 139.268 180.969,136.255 177.732,133.377 174.774 C 132.399 173.770,131.600 172.747,131.600 172.501 C 131.600 172.255,131.240 171.940,130.800 171.800 C 130.360 171.660,130.000 171.392,130.000 171.203 C 130.000 171.015,128.605 169.429,126.900 167.678 C 125.195 165.928,122.846 163.462,121.680 162.198 C 119.394 159.720,117.114 159.268,115.277 160.930 C 114.898 161.274,113.740 161.745,112.704 161.977 C 111.669 162.209,110.232 162.758,109.511 163.198 C 108.790 163.637,107.639 163.998,106.954 163.999 C 106.269 163.999,105.279 164.336,104.754 164.747 C 104.229 165.158,102.868 165.694,101.729 165.937 C 100.473 166.205,99.252 166.785,98.629 167.408 L 97.600 168.436 97.600 181.604 C 97.600 194.213,97.567 194.789,96.826 195.186 C 95.410 195.944,68.767 195.732,67.656 194.954 L 66.734 194.308 66.887 133.654 C 67.041 72.242,67.053 71.799,68.556 71.192 C 70.290 70.491,188.266 70.723,188.971 71.429 M332.056 71.565 L 333.000 72.329 333.000 133.150 C 333.000 191.005,332.965 194.006,332.286 194.686 C 331.149 195.822,303.702 195.779,302.442 194.638 C 301.610 193.885,301.600 193.663,301.600 176.146 L 301.600 158.415 300.700 158.197 C 300.205 158.078,286.210 158.029,269.600 158.090 L 239.400 158.200 239.200 176.333 C 239.008 193.697,238.967 194.489,238.224 195.033 C 237.175 195.799,209.641 195.881,208.880 195.120 C 208.242 194.482,208.177 72.764,208.814 71.574 C 209.461 70.365,330.563 70.356,332.056 71.565 M98.500 102.670 L 97.600 103.298 97.600 118.206 C 97.600 131.432,97.671 133.142,98.233 133.357 C 99.466 133.830,101.029 133.588,102.803 132.648 C 103.791 132.125,105.355 131.571,106.277 131.417 C 107.199 131.263,108.158 130.891,108.408 130.591 C 108.657 130.290,109.883 129.835,111.131 129.580 C 112.379 129.325,113.673 128.876,114.006 128.581 C 114.340 128.286,115.460 127.855,116.496 127.623 C 117.531 127.391,118.968 126.842,119.689 126.402 C 120.410 125.963,121.561 125.602,122.246 125.601 C 122.931 125.601,123.942 125.246,124.492 124.813 C 125.042 124.381,126.282 123.905,127.246 123.757 C 128.211 123.609,129.736 123.063,130.635 122.544 C 131.534 122.025,132.704 121.599,133.235 121.597 C 133.766 121.596,134.740 121.237,135.400 120.800 C 136.060 120.363,137.635 119.801,138.900 119.551 C 140.165 119.301,141.200 118.957,141.200 118.787 C 141.200 118.406,143.439 117.600,144.498 117.600 C 144.926 117.600,145.758 117.257,146.346 116.838 C 146.935 116.419,148.262 115.950,149.295 115.795 C 150.329 115.640,151.369 115.278,151.607 114.992 C 151.845 114.705,152.976 114.255,154.120 113.991 C 155.264 113.727,156.784 113.126,157.497 112.656 L 158.795 111.800 158.797 107.314 C 158.800 103.287,158.721 102.786,158.026 102.414 C 156.611 101.656,99.602 101.901,98.500 102.670 M239.467 102.267 C 239.320 102.413,239.200 108.173,239.200 115.067 L 239.200 127.600 269.767 127.600 C 286.579 127.600,300.619 127.491,300.967 127.357 C 301.734 127.063,301.938 104.178,301.186 102.774 C 300.766 101.989,240.242 101.492,239.467 102.267 M189.120 216.880 C 190.059 217.819,189.780 246.276,188.826 246.786 C 188.306 247.064,173.438 247.200,143.473 247.200 L 98.893 247.200 98.652 248.100 C 98.426 248.945,98.284 263.089,98.500 263.296 C 98.555 263.348,119.030 263.483,144.000 263.596 L 189.400 263.800 189.503 302.000 C 189.600 337.558,189.560 340.235,188.927 340.700 C 187.693 341.608,69.140 341.411,68.055 340.500 C 66.888 339.520,66.620 312.409,67.765 311.263 C 68.374 310.655,72.160 310.591,113.622 310.495 L 158.817 310.390 158.708 302.295 L 158.600 294.200 113.800 294.105 C 80.270 294.034,68.774 293.891,68.100 293.538 L 67.200 293.065 67.200 255.355 L 67.200 217.645 68.089 217.023 C 69.267 216.198,188.297 216.057,189.120 216.880 M332.224 216.968 C 332.985 217.525,333.002 218.670,333.118 277.068 C 333.246 342.001,333.302 339.720,331.566 340.618 C 329.657 341.605,303.534 341.306,302.514 340.286 C 301.854 339.626,301.792 338.235,301.688 321.791 L 301.576 304.009 300.688 303.794 C 300.200 303.676,286.210 303.629,269.600 303.690 L 239.400 303.800 239.200 321.933 C 239.008 339.297,238.967 340.089,238.224 340.633 C 237.003 341.524,209.925 341.467,209.029 340.571 C 208.198 339.741,208.051 217.709,208.880 216.880 C 209.655 216.105,331.162 216.191,332.224 216.968 M239.200 260.202 L 239.200 273.205 270.300 273.102 L 301.400 273.000 301.512 261.000 C 301.574 254.400,301.525 248.595,301.404 248.100 L 301.185 247.200 270.192 247.200 L 239.200 247.200 239.200 260.202 " stroke="none" fill="#fbfbfc" fill-rule="evenodd"></path><path id="path2" d="M200.087 12.799 C 379.399 12.989,389.618 13.037,390.387 13.696 C 390.834 14.079,391.200 14.224,391.200 14.019 C 391.200 12.314,401.283 12.394,200.011 12.499 L 10.600 12.599 200.087 12.799 M8.998 205.800 C 8.998 310.520,9.044 353.300,9.100 300.867 C 9.156 248.434,9.156 162.754,9.100 110.467 C 9.044 58.180,8.998 101.080,8.998 205.800 M41.568 44.700 C 41.118 45.296,41.122 45.325,41.599 44.900 C 42.622 43.988,357.484 44.187,358.569 45.100 C 359.399 45.799,359.399 45.799,358.638 44.900 L 357.876 44.000 199.987 44.000 C 50.085 44.000,42.071 44.035,41.568 44.700 M359.398 205.800 C 359.398 293.800,359.444 329.740,359.500 285.667 C 359.556 241.594,359.556 169.594,359.500 125.667 C 359.444 81.740,359.398 117.800,359.398 205.800 M68.962 72.500 C 68.201 73.399,68.201 73.399,69.030 72.701 C 69.811 72.044,73.401 71.997,129.230 71.900 L 188.600 71.797 129.162 71.699 L 69.724 71.600 68.962 72.500 M270.357 71.900 C 327.052 71.997,330.546 72.043,331.079 72.701 C 331.588 73.331,331.601 73.311,331.208 72.500 L 330.772 71.600 270.486 71.699 L 210.200 71.797 270.357 71.900 M188.990 102.800 C 188.990 119.190,189.039 125.895,189.100 117.700 C 189.160 109.505,189.160 96.095,189.100 87.900 C 189.039 79.705,188.990 86.410,188.990 102.800 M331.795 133.000 C 331.795 165.780,331.842 179.131,331.900 162.669 C 331.958 146.206,331.958 119.386,331.900 103.069 C 331.842 86.751,331.795 100.220,331.795 133.000 M68.186 104.600 C 68.186 115.820,68.237 120.468,68.300 114.928 C 68.362 109.388,68.362 100.208,68.300 94.528 C 68.237 88.848,68.186 93.380,68.186 104.600 M156.800 100.955 C 156.800 101.040,157.330 101.187,157.979 101.282 C 158.627 101.377,159.067 101.308,158.955 101.128 C 158.757 100.807,156.800 100.650,156.800 100.955 M96.982 118.000 C 96.982 126.690,97.035 130.245,97.100 125.900 C 97.164 121.555,97.164 114.445,97.100 110.100 C 97.035 105.755,96.982 109.310,96.982 118.000 M302.832 126.480 C 302.814 126.854,302.485 127.344,302.100 127.568 C 301.715 127.792,301.603 127.981,301.851 127.988 C 302.511 128.006,303.309 126.909,303.069 126.313 C 302.937 125.983,302.852 126.042,302.832 126.480 M254.730 128.300 C 263.381 128.360,277.421 128.360,285.930 128.300 C 294.438 128.240,287.360 128.190,270.200 128.190 C 253.040 128.190,246.078 128.240,254.730 128.300 M97.554 134.912 C 97.725 135.084,98.300 135.052,98.832 134.842 C 99.741 134.483,99.722 134.464,98.521 134.530 C 97.818 134.568,97.383 134.740,97.554 134.912 M67.789 167.400 C 67.789 182.360,67.839 188.422,67.900 180.871 C 67.961 173.320,67.961 161.080,67.900 153.671 C 67.839 146.262,67.789 152.440,67.789 167.400 M156.400 145.000 C 155.850 145.314,155.580 145.572,155.800 145.572 C 156.020 145.572,156.650 145.314,157.200 145.000 C 157.750 144.686,158.020 144.428,157.800 144.428 C 157.580 144.428,156.950 144.686,156.400 145.000 M167.600 170.125 C 167.600 170.194,168.185 170.779,168.900 171.425 L 170.200 172.600 169.025 171.300 C 167.930 170.088,167.600 169.816,167.600 170.125 M96.976 181.600 C 96.976 187.870,97.032 190.435,97.099 187.300 C 97.167 184.165,97.167 179.035,97.099 175.900 C 97.032 172.765,96.976 175.330,96.976 181.600 M144.000 185.325 C 144.000 185.394,144.585 185.979,145.300 186.625 L 146.600 187.800 145.425 186.500 C 144.330 185.288,144.000 185.016,144.000 185.325 M99.131 217.100 C 115.484 217.158,142.124 217.158,158.331 217.100 C 174.539 217.042,161.160 216.995,128.600 216.995 C 96.040 216.995,82.779 217.042,99.131 217.100 M240.300 217.100 C 256.855 217.158,283.945 217.158,300.500 217.100 C 317.055 217.042,303.510 216.995,270.400 216.995 C 237.290 216.995,223.745 217.042,240.300 217.100 M188.979 231.800 C 188.979 239.060,189.033 242.086,189.099 238.525 C 189.165 234.964,189.166 229.024,189.099 225.325 C 189.033 221.626,188.979 224.540,188.979 231.800 M331.795 278.600 C 331.795 311.380,331.842 324.731,331.900 308.269 C 331.958 291.806,331.958 264.986,331.900 248.669 C 331.842 232.351,331.795 245.820,331.795 278.600 M188.992 302.000 C 188.992 322.570,189.040 330.985,189.100 320.700 C 189.159 310.415,189.159 293.585,189.100 283.300 C 189.040 273.015,188.992 281.430,188.992 302.000 M239.142 273.703 C 239.309 273.869,253.295 273.959,270.223 273.902 L 301.000 273.800 269.920 273.600 C 252.826 273.490,238.976 273.536,239.142 273.703 M159.246 309.513 C 159.219 310.058,158.838 310.571,158.300 310.788 C 157.691 311.032,157.610 311.157,158.051 311.175 C 158.932 311.209,159.708 310.201,159.479 309.319 C 159.335 308.762,159.282 308.806,159.246 309.513 M218.125 340.299 C 221.824 340.366,227.764 340.365,231.325 340.299 C 234.886 340.233,231.860 340.179,224.600 340.179 C 217.340 340.179,214.426 340.233,218.125 340.299 M311.724 340.299 C 314.983 340.367,320.203 340.366,323.324 340.299 C 326.446 340.231,323.780 340.176,317.400 340.177 C 311.020 340.177,308.466 340.232,311.724 340.299 M83.700 366.700 C 106.525 366.757,143.875 366.757,166.700 366.700 C 189.525 366.643,170.850 366.596,125.200 366.596 C 79.550 366.596,60.875 366.643,83.700 366.700 M307.906 395.000 C 307.848 409.190,307.935 420.800,308.100 420.800 C 308.265 420.800,308.400 409.190,308.400 395.000 C 308.400 380.810,308.313 369.200,308.206 369.200 C 308.099 369.200,307.964 380.810,307.906 395.000 M58.132 398.700 C 84.275 398.757,126.935 398.757,152.932 398.700 C 178.929 398.643,157.540 398.597,105.400 398.597 C 53.260 398.597,31.989 398.643,58.132 398.700 M355.072 398.700 C 361.271 398.762,371.531 398.762,377.872 398.700 C 384.212 398.638,379.140 398.587,366.600 398.587 C 354.060 398.587,348.872 398.638,355.072 398.700 " stroke="none" fill="#9c80f4" fill-rule="evenodd"></path><path id="path3" d="M9.729 11.878 C 9.250 11.971,8.664 12.282,8.427 12.568 C 8.095 12.968,7.794 283.585,7.999 397.300 C 7.999 397.685,8.360 398.360,8.800 398.800 C 9.595 399.595,10.133 399.600,104.254 399.600 C 204.611 399.600,200.951 399.531,203.331 401.476 C 203.953 401.984,204.737 402.400,205.073 402.400 C 205.409 402.400,206.219 402.850,206.873 403.400 C 207.527 403.950,208.380 404.400,208.769 404.400 C 209.158 404.400,209.777 404.732,210.144 405.139 C 210.512 405.545,211.530 406.092,212.406 406.355 C 213.283 406.617,214.000 406.978,214.000 407.155 C 214.000 407.333,214.675 407.774,215.500 408.134 C 217.446 408.984,220.383 410.662,221.176 411.376 C 221.519 411.685,222.340 412.071,223.000 412.233 C 223.660 412.396,224.421 412.839,224.690 413.218 C 224.960 413.597,225.797 414.023,226.552 414.165 C 227.306 414.306,228.021 414.677,228.140 414.988 C 228.260 415.300,229.087 415.774,229.979 416.041 C 230.870 416.308,231.600 416.685,231.600 416.878 C 231.600 417.071,232.365 417.596,233.300 418.045 C 235.864 419.276,238.120 420.519,239.205 421.300 C 239.740 421.685,240.470 422.000,240.827 422.000 C 241.184 422.000,241.777 422.332,242.144 422.739 C 242.512 423.145,243.530 423.692,244.406 423.955 C 245.283 424.217,246.000 424.590,246.000 424.783 C 246.000 424.976,246.798 425.439,247.774 425.811 C 248.750 426.184,249.641 426.729,249.753 427.022 C 249.866 427.315,250.687 427.774,251.579 428.041 C 252.470 428.308,253.200 428.656,253.200 428.815 C 253.200 428.973,253.785 429.334,254.500 429.616 C 255.215 429.899,256.160 430.440,256.600 430.819 C 257.040 431.198,257.824 431.637,258.341 431.794 C 258.859 431.951,259.919 432.512,260.697 433.040 C 261.475 433.568,262.357 434.000,262.656 434.000 C 262.955 434.000,263.555 434.355,263.990 434.790 C 264.424 435.224,265.279 435.700,265.890 435.846 C 266.500 435.993,267.329 436.455,267.731 436.872 C 268.132 437.290,268.994 437.739,269.645 437.869 C 270.296 437.999,270.996 438.418,271.200 438.800 C 271.404 439.182,272.121 439.604,272.793 439.739 C 273.465 439.873,274.406 440.347,274.883 440.792 C 275.360 441.236,276.051 441.600,276.417 441.600 C 276.783 441.600,277.551 442.034,278.124 442.564 C 278.696 443.095,279.697 443.646,280.349 443.789 C 281.000 443.932,281.626 444.290,281.739 444.584 C 281.852 444.879,282.632 445.341,283.472 445.613 C 284.312 445.884,285.322 446.442,285.716 446.853 C 286.109 447.264,286.777 447.600,287.200 447.600 C 287.623 447.600,288.291 447.938,288.684 448.350 C 289.078 448.763,289.850 449.238,290.400 449.405 C 290.950 449.573,291.816 450.035,292.325 450.432 C 292.834 450.829,293.869 451.359,294.625 451.608 C 295.381 451.858,296.000 452.209,296.000 452.388 C 296.000 452.567,296.730 453.005,297.623 453.363 C 298.516 453.720,299.630 454.369,300.099 454.806 C 300.567 455.243,301.373 455.600,301.888 455.600 C 302.403 455.600,302.925 455.861,303.048 456.181 C 303.170 456.500,303.930 456.970,304.735 457.225 C 305.541 457.480,306.380 457.910,306.600 458.182 C 306.820 458.453,307.810 459.070,308.800 459.552 C 312.173 461.194,313.799 462.082,314.400 462.610 C 314.730 462.900,315.482 463.258,316.071 463.405 C 316.659 463.552,317.452 464.016,317.833 464.436 C 318.213 464.856,318.856 465.200,319.262 465.200 C 319.668 465.200,320.323 465.523,320.717 465.917 C 321.112 466.312,322.057 466.890,322.817 467.203 C 323.578 467.515,324.810 468.182,325.556 468.685 C 326.302 469.188,327.129 469.600,327.394 469.600 C 327.659 469.600,328.193 469.950,328.579 470.377 C 328.966 470.805,329.786 471.265,330.400 471.400 C 331.014 471.535,331.834 471.995,332.221 472.423 C 332.607 472.850,333.352 473.200,333.875 473.200 C 334.397 473.200,334.925 473.461,335.048 473.780 C 335.170 474.100,336.110 474.671,337.135 475.049 C 338.161 475.428,339.209 475.895,339.464 476.088 C 341.169 477.375,341.200 476.685,341.200 437.744 C 341.200 417.461,341.309 400.581,341.443 400.233 C 341.661 399.665,344.216 399.600,366.214 399.600 L 390.742 399.600 391.572 398.544 L 392.402 397.489 392.301 205.359 C 392.204 21.524,392.169 13.198,391.486 12.514 C 390.815 11.843,13.123 11.214,9.729 11.878 M390.311 13.023 L 391.200 13.645 391.200 205.612 L 391.200 397.579 389.981 398.210 C 388.908 398.765,385.936 398.832,365.099 398.778 L 341.436 398.715 340.714 399.607 C 340.030 400.452,339.993 402.410,340.004 437.274 C 340.011 457.501,339.912 474.219,339.785 474.425 C 339.377 475.085,337.348 474.827,336.621 474.023 C 336.234 473.595,335.398 473.131,334.763 472.992 C 334.128 472.853,333.502 472.566,333.372 472.354 C 333.241 472.143,332.294 471.545,331.267 471.026 C 327.204 468.971,325.596 468.053,324.983 467.440 C 324.631 467.088,324.006 466.800,323.595 466.800 C 323.184 466.800,322.749 466.641,322.629 466.446 C 322.509 466.252,321.643 465.699,320.705 465.218 C 319.767 464.737,318.100 463.824,317.000 463.188 C 315.900 462.553,314.100 461.564,313.000 460.991 C 311.900 460.418,310.100 459.431,309.000 458.798 C 307.900 458.164,306.730 457.517,306.400 457.360 C 304.755 456.577,296.923 452.189,296.400 451.758 C 296.070 451.485,295.318 451.142,294.729 450.995 C 294.141 450.848,293.348 450.384,292.967 449.964 C 292.587 449.544,291.968 449.200,291.592 449.200 C 291.216 449.200,290.476 448.860,289.947 448.444 C 289.419 448.029,288.360 447.394,287.593 447.033 C 286.827 446.673,285.300 445.841,284.200 445.185 C 283.100 444.528,281.480 443.624,280.600 443.175 C 279.720 442.726,278.100 441.845,277.000 441.217 C 275.900 440.588,274.280 439.697,273.400 439.236 C 272.520 438.774,270.900 437.869,269.800 437.223 C 268.700 436.577,267.080 435.675,266.200 435.218 C 265.320 434.761,263.700 433.862,262.600 433.220 C 261.500 432.578,260.330 431.936,260.000 431.794 C 258.828 431.288,257.775 430.732,255.800 429.575 C 254.700 428.930,253.059 428.045,252.153 427.606 C 251.247 427.168,250.289 426.549,250.025 426.230 C 249.761 425.912,249.036 425.540,248.414 425.403 C 247.792 425.266,246.966 424.805,246.579 424.377 C 246.193 423.950,245.578 423.600,245.214 423.600 C 244.851 423.600,244.204 423.330,243.776 423.000 C 243.349 422.670,242.280 422.032,241.400 421.584 C 240.520 421.135,238.900 420.244,237.800 419.605 C 236.700 418.965,235.080 418.063,234.200 417.600 C 233.320 417.137,231.700 416.245,230.600 415.617 C 229.500 414.988,227.880 414.097,227.000 413.635 C 221.568 410.787,218.571 409.119,218.025 408.641 C 217.681 408.341,216.950 407.963,216.400 407.801 C 215.850 407.640,215.040 407.189,214.600 406.800 C 214.160 406.411,213.350 405.956,212.800 405.791 C 212.250 405.625,211.371 405.155,210.846 404.745 C 210.321 404.335,209.671 404.000,209.400 404.000 C 209.129 404.000,208.479 403.665,207.954 403.255 C 207.429 402.845,205.401 401.675,203.447 400.655 L 199.895 398.800 105.527 398.800 C 21.722 398.800,11.028 398.732,9.980 398.190 L 8.800 397.579 8.800 205.819 L 8.800 14.058 9.854 13.229 L 10.908 12.400 200.165 12.400 C 370.810 12.400,389.509 12.461,390.311 13.023 M41.423 45.289 C 40.596 46.469,40.454 365.094,41.280 365.920 C 41.650 366.290,60.713 366.400,124.647 366.400 L 207.534 366.400 210.267 367.875 C 211.770 368.686,213.900 369.855,215.000 370.472 C 216.100 371.089,217.720 371.953,218.600 372.392 C 220.248 373.214,221.066 373.688,222.808 374.828 C 223.362 375.191,224.262 375.624,224.808 375.792 C 225.739 376.077,227.348 376.990,230.627 379.095 C 231.393 379.587,232.453 380.098,232.981 380.231 C 233.509 380.364,234.252 380.816,234.633 381.236 C 235.013 381.656,235.621 382.000,235.984 382.000 C 236.347 382.000,237.255 382.450,238.000 383.000 C 238.745 383.550,239.578 384.000,239.849 384.000 C 240.121 384.000,240.593 384.250,240.898 384.555 C 241.203 384.861,242.161 385.469,243.027 385.908 C 243.892 386.347,245.590 387.259,246.800 387.935 C 248.010 388.611,249.720 389.535,250.600 389.988 C 251.480 390.442,253.100 391.334,254.200 391.971 C 257.537 393.904,258.918 394.663,260.800 395.598 C 261.790 396.089,262.870 396.720,263.200 396.999 C 263.530 397.277,264.250 397.637,264.800 397.799 C 265.350 397.960,266.160 398.411,266.600 398.800 C 267.040 399.189,267.824 399.637,268.341 399.794 C 268.859 399.951,269.919 400.512,270.697 401.040 C 271.475 401.568,272.321 402.000,272.576 402.000 C 272.831 402.000,273.263 402.223,273.536 402.496 C 273.998 402.958,278.906 405.734,282.600 407.623 C 283.480 408.073,285.100 408.963,286.200 409.600 C 287.300 410.237,288.920 411.137,289.800 411.600 C 290.680 412.063,292.300 412.963,293.400 413.600 C 294.500 414.237,296.145 415.113,297.056 415.546 C 297.967 415.979,298.824 416.515,298.961 416.736 C 299.097 416.957,299.728 417.253,300.363 417.392 C 300.998 417.531,301.824 417.985,302.200 418.400 C 302.576 418.815,303.386 419.265,304.000 419.400 C 304.614 419.535,305.428 419.989,305.809 420.410 C 306.335 420.991,306.677 421.080,307.239 420.779 C 307.944 420.402,307.983 419.184,308.089 394.159 C 308.197 368.730,308.224 367.918,308.976 367.368 C 309.626 366.892,313.653 366.800,333.703 366.800 C 349.447 366.800,357.918 366.658,358.426 366.386 C 359.609 365.753,359.651 46.132,358.469 45.062 C 357.790 44.448,346.207 44.400,199.891 44.400 L 42.045 44.400 41.423 45.289 M358.200 205.800 L 358.200 365.800 333.268 366.000 C 309.171 366.193,308.316 366.226,307.768 366.976 C 307.291 367.628,307.200 371.919,307.200 393.653 C 307.200 407.898,307.047 419.648,306.859 419.763 C 306.481 419.997,303.869 418.759,302.852 417.863 C 302.494 417.547,301.630 417.168,300.933 417.020 C 300.237 416.872,299.574 416.510,299.461 416.216 C 299.348 415.921,298.568 415.457,297.728 415.184 C 296.888 414.910,296.064 414.456,295.897 414.173 C 295.730 413.891,294.920 413.441,294.097 413.173 C 293.274 412.906,292.464 412.456,292.297 412.173 C 292.130 411.891,291.320 411.443,290.497 411.177 C 289.674 410.911,288.678 410.358,288.284 409.947 C 287.891 409.536,287.244 409.200,286.846 409.200 C 286.449 409.200,285.813 408.856,285.433 408.436 C 285.052 408.016,284.309 407.564,283.781 407.431 C 283.253 407.298,282.161 406.742,281.355 406.195 C 280.548 405.648,279.714 405.200,279.502 405.200 C 279.289 405.200,278.581 404.750,277.927 404.200 C 277.273 403.650,276.419 403.200,276.028 403.200 C 275.637 403.200,274.831 402.750,274.238 402.200 C 273.644 401.650,272.806 401.200,272.375 401.200 C 271.945 401.200,271.284 400.840,270.907 400.400 C 270.530 399.960,269.968 399.600,269.658 399.600 C 269.348 399.600,268.443 399.196,267.647 398.703 C 265.917 397.630,264.296 396.704,262.400 395.705 C 261.630 395.299,260.370 394.570,259.600 394.085 C 258.830 393.600,257.904 393.202,257.543 393.201 C 257.181 393.201,256.789 392.948,256.671 392.640 C 256.553 392.332,255.768 391.859,254.928 391.587 C 254.088 391.316,253.093 390.774,252.718 390.383 C 252.342 389.991,251.475 389.548,250.791 389.398 C 250.106 389.248,249.452 388.880,249.338 388.582 C 249.223 388.283,248.480 387.825,247.687 387.563 C 246.894 387.301,245.886 386.752,245.447 386.343 C 245.008 385.935,244.394 385.600,244.082 385.600 C 243.771 385.600,242.981 385.150,242.327 384.600 C 241.673 384.050,240.799 383.600,240.385 383.600 C 239.970 383.600,239.309 383.271,238.916 382.869 C 238.522 382.468,237.570 381.893,236.800 381.593 C 236.030 381.293,235.264 380.825,235.098 380.555 C 234.931 380.284,234.278 379.949,233.647 379.810 C 233.015 379.672,231.901 379.118,231.172 378.579 C 230.442 378.041,229.688 377.600,229.496 377.600 C 229.304 377.600,228.557 377.150,227.836 376.600 C 227.114 376.050,226.249 375.600,225.911 375.600 C 225.574 375.600,225.082 375.339,224.817 375.020 C 224.552 374.702,223.675 374.228,222.868 373.967 C 222.061 373.707,221.080 373.160,220.689 372.752 C 220.298 372.344,219.488 371.894,218.889 371.752 C 218.290 371.611,217.440 371.179,217.000 370.793 C 216.560 370.408,215.750 369.961,215.200 369.800 C 214.650 369.639,213.840 369.189,213.400 368.800 C 212.960 368.411,212.150 367.961,211.600 367.800 C 211.050 367.639,210.229 367.169,209.775 366.755 C 208.974 366.023,206.580 365.999,125.375 365.901 L 41.800 365.800 41.698 206.200 C 41.641 118.420,41.681 46.375,41.785 46.099 C 41.937 45.700,73.807 45.619,200.088 45.699 L 358.200 45.800 358.200 205.800 M68.556 71.192 C 67.053 71.799,67.041 72.242,66.887 133.654 L 66.734 194.308 67.656 194.954 C 68.767 195.732,95.410 195.944,96.826 195.186 C 97.567 194.789,97.600 194.213,97.600 181.604 L 97.600 168.436 98.629 167.408 C 99.252 166.785,100.473 166.205,101.729 165.937 C 102.868 165.694,104.229 165.158,104.754 164.747 C 105.279 164.336,106.269 163.999,106.954 163.999 C 107.639 163.998,108.790 163.637,109.511 163.198 C 110.232 162.758,111.669 162.209,112.704 161.977 C 113.740 161.745,114.898 161.274,115.277 160.930 C 117.114 159.268,119.394 159.720,121.680 162.198 C 122.846 163.462,125.195 165.928,126.900 167.678 C 128.605 169.429,130.000 171.015,130.000 171.203 C 130.000 171.392,130.360 171.660,130.800 171.800 C 131.240 171.940,131.600 172.255,131.600 172.501 C 131.600 172.747,132.399 173.770,133.377 174.774 C 136.255 177.732,139.268 180.969,141.277 183.260 C 142.309 184.437,144.154 186.451,145.377 187.736 C 146.600 189.021,147.600 190.152,147.600 190.248 C 147.600 190.345,148.782 191.588,150.227 193.012 L 152.854 195.600 170.382 195.600 C 187.152 195.600,187.952 195.566,188.856 194.822 L 189.800 194.045 188.911 193.122 C 185.384 189.464,184.000 187.929,184.000 187.673 C 184.000 187.511,183.505 186.919,182.900 186.357 C 182.295 185.796,181.350 184.732,180.800 183.993 C 179.057 181.650,177.436 179.783,173.782 175.911 C 172.802 174.871,172.000 173.840,172.000 173.620 C 172.000 173.399,171.550 172.924,171.000 172.563 C 170.450 172.203,170.000 171.668,170.000 171.374 C 170.000 171.080,169.718 170.682,169.373 170.489 C 169.029 170.296,168.435 169.663,168.053 169.082 C 167.460 168.177,164.529 164.814,161.300 161.334 C 160.805 160.800,160.400 160.232,160.400 160.071 C 160.400 159.910,159.905 159.326,159.300 158.773 C 158.148 157.721,157.358 156.793,155.455 154.260 C 154.826 153.422,153.836 152.220,153.255 151.590 C 152.675 150.960,151.985 150.182,151.722 149.863 C 151.460 149.543,151.023 149.208,150.751 149.117 C 150.111 148.904,150.668 148.000,151.440 148.000 C 151.766 148.000,152.520 147.657,153.116 147.237 C 153.712 146.818,154.920 146.353,155.800 146.204 C 156.680 146.055,157.940 145.610,158.600 145.215 C 159.260 144.820,160.488 144.375,161.329 144.225 C 162.170 144.075,163.430 143.604,164.129 143.178 C 164.828 142.752,165.778 142.402,166.240 142.401 C 166.703 142.401,167.873 141.980,168.840 141.466 C 169.808 140.952,171.405 140.404,172.390 140.247 C 173.374 140.090,174.492 139.678,174.875 139.332 C 175.258 138.986,176.419 138.544,177.455 138.350 C 178.491 138.157,179.623 137.747,179.970 137.441 C 180.316 137.134,181.621 136.675,182.869 136.420 C 184.117 136.165,185.354 135.696,185.618 135.378 C 185.882 135.060,186.355 134.800,186.669 134.800 C 186.983 134.800,187.771 134.525,188.420 134.190 L 189.600 133.579 189.600 102.818 C 189.600 75.387,189.532 71.989,188.971 71.429 C 188.266 70.723,70.290 70.491,68.556 71.192 M208.814 71.574 C 208.177 72.764,208.242 194.482,208.880 195.120 C 209.641 195.881,237.175 195.799,238.224 195.033 C 238.967 194.489,239.008 193.697,239.200 176.333 L 239.400 158.200 269.600 158.090 C 286.210 158.029,300.205 158.078,300.700 158.197 L 301.600 158.415 301.600 176.146 C 301.600 193.663,301.610 193.885,302.442 194.638 C 303.702 195.779,331.149 195.822,332.286 194.686 C 332.965 194.006,333.000 191.005,333.000 133.150 L 333.000 72.329 332.056 71.565 C 330.563 70.356,209.461 70.365,208.814 71.574 M188.736 72.619 C 189.223 73.688,189.433 130.889,188.957 132.666 C 188.823 133.164,188.278 133.644,187.675 133.796 C 187.098 133.940,185.703 134.496,184.574 135.029 C 183.446 135.563,182.270 136.002,181.961 136.004 C 181.653 136.006,180.437 136.456,179.260 137.004 C 178.083 137.552,176.823 138.002,176.460 138.004 C 176.097 138.006,174.900 138.450,173.800 138.991 C 172.700 139.532,171.371 139.981,170.847 139.987 C 170.323 139.994,169.333 140.341,168.647 140.757 C 167.961 141.173,166.770 141.641,166.000 141.796 C 165.230 141.951,163.880 142.406,163.000 142.806 C 162.120 143.207,160.590 143.802,159.600 144.130 C 150.024 147.296,148.831 148.022,150.515 149.660 C 151.047 150.177,153.434 152.940,155.821 155.800 C 158.208 158.660,160.529 161.383,160.980 161.851 C 161.912 162.818,162.415 163.405,167.392 169.326 C 169.367 171.677,171.122 173.600,171.292 173.600 C 171.461 173.600,171.600 173.861,171.600 174.180 C 171.600 174.499,171.846 174.904,172.146 175.080 C 172.447 175.256,174.745 177.830,177.253 180.800 C 179.761 183.770,182.314 186.731,182.927 187.381 C 185.976 190.611,188.503 194.057,188.110 194.450 C 187.839 194.721,181.721 194.846,170.190 194.817 L 152.682 194.772 151.318 193.286 C 150.567 192.469,149.393 191.170,148.707 190.400 C 145.705 187.025,137.994 178.681,133.000 173.400 C 131.346 171.650,125.160 164.872,124.279 163.842 C 120.072 158.928,118.681 158.393,115.000 160.276 C 114.340 160.613,112.810 161.222,111.600 161.630 C 105.270 163.759,103.493 164.430,102.696 164.988 C 102.215 165.325,101.242 165.600,100.533 165.600 C 99.768 165.600,98.813 165.971,98.184 166.512 L 97.123 167.425 97.062 180.698 C 97.009 191.948,96.909 194.049,96.400 194.485 C 95.733 195.057,68.342 194.878,67.764 194.298 C 67.007 193.539,68.217 73.265,68.991 72.410 C 69.721 71.603,69.979 71.600,128.998 71.600 L 188.272 71.600 188.736 72.619 M331.396 72.792 C 332.320 74.578,332.127 193.822,331.200 194.409 C 330.263 195.001,303.877 194.917,303.280 194.320 C 302.921 193.961,302.800 189.367,302.800 176.110 L 302.800 158.380 301.774 157.990 C 300.170 157.380,239.493 157.467,238.880 158.080 C 238.521 158.439,238.398 163.016,238.394 176.180 C 238.391 185.871,238.243 194.027,238.067 194.305 C 237.817 194.700,234.606 194.787,223.373 194.705 L 209.000 194.600 208.899 133.876 C 208.830 92.473,208.930 72.905,209.213 72.376 C 209.621 71.613,210.659 71.600,270.204 71.600 L 330.779 71.600 331.396 72.792 M99.000 101.083 C 97.170 101.547,97.200 101.258,97.200 118.225 C 97.200 127.095,97.337 134.437,97.504 134.541 C 97.954 134.819,103.389 133.473,104.057 132.918 C 104.374 132.656,105.484 132.250,106.524 132.017 C 107.565 131.784,109.085 131.235,109.902 130.797 C 110.719 130.358,111.715 130.000,112.114 130.000 C 112.513 130.000,113.387 129.717,114.055 129.371 C 115.193 128.783,117.887 127.787,122.600 126.213 C 123.700 125.845,125.370 125.197,126.311 124.772 C 127.252 124.348,128.385 124.000,128.829 124.000 C 129.273 124.000,130.482 123.550,131.515 123.000 C 132.548 122.450,133.755 121.994,134.197 121.987 C 134.639 121.981,135.900 121.532,137.000 120.991 C 138.100 120.450,139.297 120.006,139.660 120.004 C 140.023 120.002,141.283 119.552,142.460 119.004 C 143.637 118.456,144.873 118.006,145.206 118.004 C 145.539 118.002,146.460 117.653,147.252 117.228 C 148.044 116.804,149.391 116.332,150.246 116.180 C 151.101 116.027,152.340 115.580,153.000 115.185 C 153.660 114.790,154.917 114.334,155.793 114.172 C 156.723 113.999,157.863 113.399,158.534 112.727 L 159.684 111.578 159.542 106.809 C 159.446 103.596,159.230 101.870,158.880 101.520 C 158.359 100.999,100.983 100.580,99.000 101.083 M239.200 101.191 C 238.585 101.580,238.036 124.887,238.590 127.100 L 238.815 128.000 270.034 128.000 C 290.789 128.000,301.512 127.861,302.026 127.586 C 302.765 127.191,302.800 126.631,302.795 115.286 C 302.789 102.178,302.759 101.892,301.347 101.249 C 300.088 100.675,240.105 100.619,239.200 101.191 M158.026 102.414 C 158.721 102.786,158.800 103.287,158.797 107.314 L 158.795 111.800 157.497 112.656 C 156.784 113.126,155.264 113.727,154.120 113.991 C 152.976 114.255,151.845 114.705,151.607 114.992 C 151.369 115.278,150.329 115.640,149.295 115.795 C 148.262 115.950,146.935 116.419,146.346 116.838 C 145.758 117.257,144.926 117.600,144.498 117.600 C 143.439 117.600,141.200 118.406,141.200 118.787 C 141.200 118.957,140.165 119.301,138.900 119.551 C 137.635 119.801,136.060 120.363,135.400 120.800 C 134.740 121.237,133.766 121.596,133.235 121.597 C 132.704 121.599,131.534 122.025,130.635 122.544 C 129.736 123.063,128.211 123.609,127.246 123.757 C 126.282 123.905,125.042 124.381,124.492 124.813 C 123.942 125.246,122.931 125.601,122.246 125.601 C 121.561 125.602,120.410 125.963,119.689 126.402 C 118.968 126.842,117.531 127.391,116.496 127.623 C 115.460 127.855,114.340 128.286,114.006 128.581 C 113.673 128.876,112.379 129.325,111.131 129.580 C 109.883 129.835,108.657 130.290,108.408 130.591 C 108.158 130.891,107.199 131.263,106.277 131.417 C 105.355 131.571,103.791 132.125,102.803 132.648 C 101.029 133.588,99.466 133.830,98.233 133.357 C 97.671 133.142,97.600 131.432,97.600 118.206 L 97.600 103.298 98.500 102.670 C 99.602 101.901,156.611 101.656,158.026 102.414 M301.186 102.774 C 301.938 104.178,301.734 127.063,300.967 127.357 C 300.619 127.491,286.579 127.600,269.767 127.600 L 239.200 127.600 239.200 115.067 C 239.200 108.173,239.320 102.413,239.467 102.267 C 240.242 101.492,300.766 101.989,301.186 102.774 M68.089 217.023 L 67.200 217.645 67.200 255.355 L 67.200 293.065 68.100 293.538 C 68.774 293.891,80.270 294.034,113.800 294.105 L 158.600 294.200 158.708 302.295 L 158.817 310.390 113.622 310.495 C 72.160 310.591,68.374 310.655,67.765 311.263 C 66.620 312.409,66.888 339.520,68.055 340.500 C 69.140 341.411,187.693 341.608,188.927 340.700 C 189.560 340.235,189.600 337.558,189.503 302.000 L 189.400 263.800 144.000 263.596 C 119.030 263.483,98.555 263.348,98.500 263.296 C 98.284 263.089,98.426 248.945,98.652 248.100 L 98.893 247.200 143.473 247.200 C 173.438 247.200,188.306 247.064,188.826 246.786 C 189.780 246.276,190.059 217.819,189.120 216.880 C 188.297 216.057,69.267 216.198,68.089 217.023 M208.880 216.880 C 208.051 217.709,208.198 339.741,209.029 340.571 C 209.925 341.467,237.003 341.524,238.224 340.633 C 238.967 340.089,239.008 339.297,239.200 321.933 L 239.400 303.800 269.600 303.690 C 286.210 303.629,300.200 303.676,300.688 303.794 L 301.576 304.009 301.688 321.791 C 301.792 338.235,301.854 339.626,302.514 340.286 C 303.534 341.306,329.657 341.605,331.566 340.618 C 333.302 339.720,333.246 342.001,333.118 277.068 C 333.002 218.670,332.985 217.525,332.224 216.968 C 331.162 216.191,209.655 216.105,208.880 216.880 M188.667 217.333 C 189.222 217.888,189.322 245.171,188.771 245.835 C 188.372 246.315,181.609 246.400,143.627 246.400 C 105.697 246.400,98.836 246.486,98.176 246.967 C 97.453 247.496,97.400 248.076,97.400 255.448 L 97.400 263.362 98.400 263.641 C 98.950 263.795,119.389 263.938,143.820 263.960 C 177.791 263.991,188.353 264.113,188.720 264.480 C 189.228 264.988,189.449 337.631,188.948 339.501 L 188.706 340.403 128.653 340.301 L 68.600 340.200 68.400 326.200 C 68.290 318.500,68.344 312.020,68.520 311.800 C 68.728 311.540,84.482 311.330,113.600 311.200 C 149.547 311.039,158.463 310.898,158.880 310.481 C 159.606 309.756,159.879 295.018,159.182 294.179 C 158.768 293.680,152.526 293.600,114.031 293.600 C 79.820 293.600,69.248 293.488,68.880 293.120 C 67.991 292.231,68.207 217.753,69.100 217.230 C 69.958 216.727,188.162 216.829,188.667 217.333 M331.024 217.368 C 332.046 218.116,332.270 338.511,331.251 339.739 C 330.619 340.501,304.778 340.753,303.600 340.009 C 303.086 339.684,302.971 337.057,302.800 321.733 L 302.600 303.836 301.600 303.558 C 299.706 303.031,239.411 303.149,238.880 303.680 C 238.522 304.038,238.400 308.492,238.400 321.254 C 238.400 331.393,238.241 338.765,238.010 339.374 L 237.620 340.400 223.624 340.400 C 210.196 340.400,209.611 340.369,209.214 339.626 C 208.577 338.436,208.642 217.918,209.280 217.280 C 210.055 216.505,329.962 216.591,331.024 217.368 M238.880 246.880 C 238.060 247.700,238.206 273.040,239.033 273.357 C 240.186 273.800,301.190 273.634,302.026 273.186 C 303.249 272.531,303.225 248.425,302.000 247.200 C 301.020 246.220,239.851 245.909,238.880 246.880 M301.404 248.100 C 301.525 248.595,301.574 254.400,301.512 261.000 L 301.400 273.000 270.300 273.102 L 239.200 273.205 239.200 260.202 L 239.200 247.200 270.192 247.200 L 301.185 247.200 301.404 248.100 " stroke="none" fill="#ae97f4" fill-rule="evenodd"></path><path id="path4" d="M9.861 13.533 C 8.821 14.681,8.834 397.135,9.874 397.900 C 10.413 398.297,30.117 398.400,105.227 398.400 C 188.895 398.400,199.960 398.470,200.400 399.000 C 200.674 399.330,201.146 399.600,201.449 399.600 C 201.814 399.600,201.696 399.296,201.100 398.700 L 200.200 397.800 105.200 397.600 L 10.200 397.400 10.100 206.041 C 10.026 64.904,10.117 14.541,10.449 14.141 C 11.237 13.192,389.122 13.350,389.843 14.300 C 390.631 15.337,390.661 396.486,389.873 397.139 C 389.509 397.442,381.833 397.610,364.893 397.688 C 345.482 397.777,340.332 397.907,339.920 398.320 C 339.504 398.736,339.360 406.318,339.200 436.320 C 339.000 473.756,338.999 473.800,338.178 473.918 C 337.726 473.982,337.023 473.667,336.616 473.218 C 336.209 472.768,335.544 472.400,335.138 472.400 C 334.732 472.400,334.026 472.026,333.568 471.568 C 333.110 471.110,332.165 470.544,331.468 470.308 C 330.771 470.073,329.878 469.548,329.484 469.140 C 329.091 468.733,328.444 468.400,328.046 468.400 C 327.649 468.400,327.013 468.056,326.633 467.636 C 326.252 467.216,325.509 466.764,324.981 466.631 C 324.453 466.498,323.361 465.942,322.555 465.395 C 321.748 464.848,320.842 464.400,320.540 464.400 C 320.239 464.400,319.685 464.041,319.309 463.602 C 318.933 463.163,318.052 462.696,317.353 462.565 C 316.653 462.433,315.703 461.893,315.243 461.363 C 314.782 460.833,314.042 460.400,313.599 460.400 C 313.155 460.400,312.484 460.040,312.107 459.600 C 311.730 459.160,311.147 458.799,310.811 458.799 C 310.475 458.798,309.570 458.406,308.800 457.927 C 306.280 456.362,304.226 455.230,302.700 454.566 C 301.875 454.207,301.200 453.767,301.200 453.588 C 301.200 453.409,300.525 453.044,299.700 452.778 C 298.875 452.512,297.878 451.958,297.484 451.547 C 297.091 451.136,296.461 450.797,296.084 450.793 C 295.708 450.789,294.608 450.249,293.640 449.593 C 292.672 448.937,291.665 448.400,291.402 448.400 C 291.139 448.400,290.598 448.040,290.200 447.600 C 289.802 447.160,289.259 446.800,288.994 446.800 C 288.729 446.800,287.852 446.352,287.045 445.805 C 286.239 445.258,285.147 444.702,284.619 444.569 C 284.091 444.436,283.348 443.984,282.967 443.564 C 282.587 443.144,281.864 442.800,281.361 442.800 C 280.857 442.800,280.202 442.453,279.905 442.028 C 279.607 441.604,278.832 441.126,278.182 440.967 C 277.532 440.808,276.491 440.256,275.869 439.739 C 275.247 439.223,274.517 438.800,274.247 438.800 C 273.977 438.800,273.158 438.359,272.428 437.821 C 271.699 437.282,270.584 436.728,269.951 436.589 C 269.318 436.450,268.800 436.162,268.800 435.948 C 268.800 435.734,268.125 435.280,267.300 434.940 C 266.475 434.599,265.530 434.090,265.200 433.807 C 264.870 433.525,264.150 433.161,263.600 432.998 C 263.050 432.834,262.278 432.363,261.884 431.950 C 261.491 431.538,260.841 431.200,260.439 431.200 C 260.038 431.200,259.031 430.660,258.200 430.000 C 257.369 429.340,256.383 428.800,256.007 428.800 C 255.631 428.800,255.001 428.444,254.607 428.008 C 254.213 427.572,253.280 427.101,252.534 426.961 C 251.788 426.821,251.005 426.382,250.792 425.986 C 250.580 425.589,249.853 425.143,249.176 424.995 C 248.500 424.846,247.853 424.483,247.740 424.187 C 247.626 423.891,247.030 423.538,246.416 423.403 C 245.801 423.269,244.701 422.718,243.972 422.179 C 243.242 421.641,242.351 421.200,241.992 421.200 C 241.633 421.200,240.935 420.770,240.442 420.244 C 239.948 419.719,238.988 419.178,238.308 419.042 C 237.628 418.906,236.835 418.456,236.545 418.043 C 236.256 417.631,235.385 417.174,234.610 417.028 C 233.834 416.883,233.200 416.586,233.200 416.368 C 233.200 416.150,232.435 415.604,231.500 415.155 C 228.936 413.924,226.680 412.681,225.595 411.900 C 225.060 411.515,224.373 411.200,224.069 411.200 C 223.764 411.200,222.981 410.750,222.327 410.200 C 221.673 409.650,220.709 409.200,220.183 409.200 C 219.645 409.200,219.046 408.859,218.809 408.417 C 218.575 407.979,217.772 407.518,216.984 407.371 C 216.211 407.226,215.405 406.782,215.192 406.386 C 214.980 405.989,214.284 405.550,213.645 405.410 C 213.006 405.269,212.176 404.815,211.800 404.400 C 211.424 403.985,210.614 403.535,210.000 403.400 C 209.386 403.265,208.576 402.815,208.200 402.400 C 207.824 401.985,207.014 401.535,206.400 401.400 C 205.786 401.265,204.966 400.805,204.579 400.377 C 204.193 399.950,203.499 399.605,203.038 399.612 C 202.209 399.624,202.209 399.629,203.000 400.078 C 203.440 400.327,203.890 400.637,204.000 400.766 C 204.110 400.895,205.730 401.792,207.600 402.759 C 209.470 403.727,211.270 404.741,211.600 405.012 C 211.930 405.283,212.650 405.637,213.200 405.799 C 213.750 405.960,214.560 406.418,215.000 406.816 C 215.440 407.215,216.310 407.667,216.932 407.822 C 217.555 407.976,218.156 408.341,218.268 408.632 C 218.379 408.923,219.130 409.373,219.935 409.631 C 220.741 409.890,221.677 410.342,222.015 410.635 C 222.353 410.929,223.253 411.460,224.015 411.816 C 224.777 412.171,226.300 412.979,227.400 413.610 C 228.500 414.242,230.120 415.131,231.000 415.585 C 231.880 416.040,233.500 416.939,234.600 417.582 C 235.700 418.225,237.320 419.131,238.200 419.596 C 239.080 420.061,240.700 420.963,241.800 421.600 C 243.741 422.724,245.281 423.553,248.600 425.260 C 249.480 425.713,250.470 426.313,250.800 426.594 C 251.130 426.875,251.850 427.237,252.400 427.399 C 252.950 427.560,253.760 428.011,254.200 428.400 C 254.640 428.789,255.450 429.243,256.000 429.409 C 256.550 429.574,257.509 430.135,258.131 430.655 C 258.753 431.175,259.580 431.600,259.969 431.600 C 260.358 431.600,261.002 431.960,261.400 432.400 C 261.798 432.840,262.432 433.200,262.808 433.200 C 263.184 433.200,263.924 433.540,264.453 433.956 C 264.981 434.371,266.040 435.009,266.807 435.373 C 267.573 435.738,269.100 436.558,270.200 437.197 C 271.300 437.836,272.920 438.737,273.800 439.200 C 274.680 439.663,276.300 440.563,277.400 441.200 C 278.500 441.837,280.120 442.731,281.000 443.185 C 281.880 443.640,283.500 444.534,284.600 445.171 C 285.700 445.809,287.196 446.611,287.923 446.955 C 288.651 447.298,289.711 447.944,290.277 448.389 C 290.844 448.835,291.616 449.200,291.992 449.200 C 292.368 449.200,292.987 449.544,293.367 449.964 C 293.748 450.384,294.541 450.848,295.129 450.995 C 295.718 451.142,296.470 451.504,296.800 451.799 C 297.130 452.094,298.840 453.106,300.600 454.048 C 302.360 454.989,304.700 456.263,305.800 456.877 C 306.900 457.491,308.520 458.365,309.400 458.818 C 310.280 459.271,311.900 460.163,313.000 460.800 C 314.100 461.437,315.720 462.332,316.600 462.789 C 318.585 463.820,320.162 464.710,322.091 465.889 C 322.912 466.390,323.829 466.800,324.129 466.800 C 324.430 466.800,324.993 467.150,325.379 467.577 C 325.766 468.005,326.586 468.465,327.200 468.600 C 327.814 468.735,328.634 469.195,329.021 469.623 C 329.407 470.050,329.935 470.400,330.193 470.400 C 330.452 470.400,331.459 470.926,332.431 471.569 C 333.404 472.212,334.695 472.862,335.300 473.012 C 335.905 473.163,336.400 473.451,336.400 473.652 C 336.400 474.390,338.251 474.908,339.157 474.423 L 340.016 473.963 339.992 437.136 C 339.970 404.383,340.037 400.203,340.593 399.354 L 341.218 398.400 365.320 398.400 C 386.487 398.400,389.530 398.324,390.311 397.777 L 391.200 397.155 391.200 205.793 L 391.200 14.431 390.325 13.616 L 389.449 12.800 199.987 12.800 C 16.816 12.800,10.502 12.824,9.861 13.533 M41.772 43.586 C 39.411 44.541,39.600 30.417,39.600 205.940 L 39.600 365.908 40.586 366.554 C 41.486 367.143,48.854 367.200,124.737 367.200 C 196.869 367.200,207.966 367.277,208.383 367.780 C 208.648 368.098,209.525 368.574,210.332 368.836 C 211.139 369.098,211.933 369.538,212.095 369.812 C 212.257 370.086,212.873 370.432,213.463 370.580 C 214.054 370.728,214.980 371.198,215.522 371.625 C 216.064 372.051,216.729 372.400,217.000 372.400 C 217.271 372.400,217.958 372.766,218.527 373.214 C 219.097 373.662,220.156 374.227,220.881 374.470 C 221.607 374.712,222.560 375.225,223.000 375.609 C 223.440 375.994,224.250 376.443,224.800 376.609 C 225.350 376.774,226.309 377.335,226.931 377.855 C 227.553 378.375,228.413 378.800,228.843 378.800 C 229.273 378.800,229.725 379.061,229.848 379.381 C 229.970 379.700,230.730 380.176,231.535 380.439 C 232.341 380.701,233.429 381.250,233.954 381.658 C 234.479 382.066,235.076 382.400,235.281 382.400 C 235.486 382.400,236.243 382.850,236.964 383.400 C 237.686 383.950,238.560 384.400,238.907 384.400 C 239.254 384.400,240.073 384.850,240.727 385.400 C 241.381 385.950,242.296 386.400,242.760 386.400 C 243.225 386.400,243.997 386.850,244.475 387.400 C 244.953 387.950,245.697 388.400,246.128 388.400 C 247.002 388.400,244.999 386.885,242.674 385.788 C 241.253 385.116,239.732 384.269,237.509 382.911 C 236.688 382.410,235.771 382.000,235.471 382.000 C 235.170 382.000,234.613 381.656,234.233 381.236 C 233.852 380.816,233.109 380.364,232.581 380.231 C 232.053 380.098,230.961 379.542,230.155 378.995 C 229.348 378.448,228.466 378.000,228.193 378.000 C 227.921 378.000,227.490 377.750,227.236 377.444 C 226.982 377.138,225.251 376.103,223.389 375.144 C 221.528 374.185,219.149 372.914,218.102 372.321 C 217.056 371.727,215.480 370.864,214.600 370.403 C 213.720 369.942,211.830 368.944,210.400 368.185 L 207.800 366.806 125.326 366.803 C 72.715 366.801,42.481 366.659,41.826 366.410 L 40.800 366.020 40.800 205.899 C 40.800 61.624,40.862 45.690,41.423 44.889 L 42.045 44.000 199.994 44.000 L 357.942 44.000 358.771 45.054 L 359.600 46.108 359.600 205.792 C 359.600 359.983,359.575 365.499,358.869 366.138 C 358.205 366.739,355.908 366.800,334.145 366.800 C 314.058 366.800,310.027 366.892,309.376 367.368 C 308.623 367.918,308.597 368.730,308.492 394.326 L 308.383 420.717 307.339 420.979 C 306.597 421.166,306.051 421.018,305.448 420.467 C 304.982 420.041,304.150 419.561,303.600 419.400 C 303.050 419.239,302.240 418.782,301.800 418.384 C 301.360 417.985,300.518 417.540,299.929 417.394 C 299.341 417.248,298.548 416.784,298.167 416.364 C 297.787 415.944,297.178 415.600,296.814 415.600 C 296.451 415.600,295.804 415.330,295.376 415.000 C 294.949 414.670,293.880 414.039,293.000 413.598 C 292.120 413.157,290.500 412.269,289.400 411.623 C 288.300 410.977,286.677 410.103,285.794 409.679 C 284.911 409.256,283.944 408.615,283.645 408.255 C 283.347 407.895,282.788 407.600,282.405 407.600 C 282.022 407.600,281.250 407.240,280.691 406.800 C 279.408 405.791,279.057 405.782,279.676 406.772 C 279.941 407.197,280.912 407.735,281.834 407.967 C 282.756 408.199,283.608 408.643,283.727 408.954 C 283.846 409.265,284.632 409.745,285.472 410.021 C 286.312 410.297,287.225 410.841,287.500 411.230 C 287.776 411.618,288.586 412.065,289.300 412.222 C 290.015 412.379,290.835 412.843,291.123 413.254 C 291.410 413.664,291.971 414.000,292.369 414.000 C 292.767 414.000,293.521 414.335,294.046 414.745 C 294.571 415.155,295.450 415.629,296.000 415.800 C 296.550 415.970,297.509 416.535,298.131 417.055 C 298.753 417.575,299.537 418.000,299.873 418.000 C 300.209 418.000,301.019 418.450,301.673 419.000 C 302.327 419.550,303.181 420.000,303.572 420.000 C 303.963 420.000,304.770 420.451,305.364 421.002 C 306.476 422.032,308.216 422.050,308.894 421.038 C 309.056 420.797,309.191 409.075,309.194 394.989 C 309.199 372.393,309.274 369.273,309.827 368.483 L 310.453 367.589 334.488 367.606 L 358.523 367.624 359.461 366.742 L 360.400 365.861 360.387 205.630 C 360.377 80.307,360.268 45.262,359.887 44.765 C 359.619 44.416,359.007 43.921,358.526 43.665 C 357.483 43.110,43.144 43.031,41.772 43.586 M209.466 72.361 C 208.800 73.163,208.587 193.461,209.249 194.259 C 210.102 195.287,237.788 194.842,237.839 193.800 C 237.869 193.191,237.839 193.167,237.711 193.700 C 237.556 194.350,236.551 194.400,223.622 194.400 L 209.700 194.400 209.450 193.150 C 209.080 191.298,209.158 73.885,209.531 73.299 C 209.784 72.900,222.188 72.818,270.224 72.899 L 330.600 73.000 330.600 133.600 L 330.600 194.200 317.351 194.305 L 304.102 194.411 303.851 193.155 C 303.713 192.465,303.600 184.268,303.600 174.940 L 303.600 157.980 302.574 157.590 C 301.456 157.165,239.727 157.023,238.633 157.443 C 238.067 157.660,238.010 159.538,238.094 175.143 L 238.187 192.600 238.394 175.200 L 238.600 157.800 269.922 157.698 C 290.552 157.630,301.503 157.734,302.002 158.001 C 302.727 158.389,302.767 159.204,302.881 176.219 C 302.983 191.527,303.084 194.083,303.600 194.409 C 304.442 194.941,329.830 194.919,330.826 194.386 C 331.829 193.849,332.045 74.019,331.045 72.703 C 330.312 71.737,210.263 71.401,209.466 72.361 M69.092 72.700 C 68.525 73.328,68.431 79.594,68.169 133.837 L 67.878 194.275 68.839 194.532 C 70.062 194.859,95.320 194.882,96.167 194.557 C 96.727 194.343,96.800 192.773,96.800 181.016 L 96.800 167.717 97.781 166.658 C 98.381 166.011,99.196 165.595,99.881 165.587 C 100.496 165.581,101.900 165.132,103.000 164.591 C 104.100 164.050,105.270 163.604,105.600 163.600 C 105.930 163.596,107.100 163.150,108.200 162.609 C 109.300 162.068,110.510 161.619,110.888 161.613 C 111.267 161.606,112.527 161.169,113.688 160.642 C 114.850 160.115,116.160 159.596,116.600 159.488 C 117.074 159.372,116.811 159.274,115.954 159.246 C 115.044 159.217,114.120 159.505,113.462 160.023 C 112.886 160.475,111.511 160.989,110.405 161.164 C 109.299 161.338,108.080 161.763,107.697 162.107 C 107.314 162.451,106.280 162.854,105.400 163.004 C 104.520 163.153,103.305 163.623,102.700 164.050 C 102.095 164.476,100.783 164.977,99.785 165.163 C 96.257 165.822,96.424 165.082,96.305 180.557 L 96.200 194.200 82.600 194.200 L 69.000 194.200 69.093 134.400 C 69.145 101.510,69.283 74.195,69.401 73.700 L 69.615 72.800 128.108 72.805 C 160.278 72.808,187.005 72.919,187.500 73.052 L 188.400 73.293 188.400 102.818 C 188.400 135.252,188.527 133.600,186.025 133.600 C 185.411 133.600,184.479 133.936,183.954 134.347 C 183.429 134.758,182.035 135.301,180.857 135.552 C 179.678 135.804,178.259 136.368,177.703 136.805 C 177.147 137.242,176.186 137.600,175.567 137.600 C 174.949 137.600,173.596 138.050,172.562 138.600 C 171.527 139.150,170.192 139.600,169.594 139.600 C 168.997 139.600,168.058 139.954,167.508 140.387 C 166.958 140.819,165.718 141.287,164.754 141.426 C 163.789 141.566,162.549 141.995,161.997 142.380 C 161.446 142.765,160.154 143.206,159.126 143.360 C 158.097 143.514,156.831 143.975,156.312 144.383 C 155.793 144.792,154.542 145.250,153.531 145.401 C 150.314 145.884,148.096 148.765,149.931 150.077 C 150.333 150.365,150.828 150.891,151.031 151.246 C 151.394 151.882,154.445 155.504,156.400 157.623 C 156.950 158.218,158.210 159.665,159.200 160.837 C 160.190 162.010,161.405 163.389,161.900 163.903 C 162.395 164.416,162.800 164.928,162.800 165.040 C 162.800 165.309,167.468 170.753,168.665 171.881 C 169.179 172.365,169.600 172.950,169.600 173.181 C 169.600 173.411,169.870 173.600,170.200 173.600 C 170.530 173.600,170.800 173.777,170.800 173.993 C 170.800 174.209,171.244 174.884,171.786 175.493 C 172.329 176.102,174.267 178.400,176.094 180.600 C 178.995 184.095,181.008 186.364,183.900 189.400 C 184.319 189.840,184.777 190.515,184.918 190.900 C 185.059 191.285,185.356 191.600,185.577 191.600 C 185.934 191.600,187.200 193.613,187.200 194.180 C 187.200 194.301,179.646 194.400,170.414 194.400 L 153.628 194.400 152.483 193.281 C 151.854 192.666,150.048 190.698,148.470 188.906 C 146.891 187.115,144.385 184.411,142.900 182.897 C 141.415 181.383,139.518 179.392,138.684 178.472 C 137.850 177.553,136.995 176.800,136.784 176.800 C 136.573 176.800,136.400 176.616,136.400 176.391 C 136.400 176.167,135.545 175.091,134.500 174.001 C 133.455 172.912,131.790 171.082,130.800 169.935 C 129.810 168.788,128.010 166.754,126.800 165.414 C 125.590 164.074,123.956 162.263,123.169 161.389 C 120.631 158.572,119.348 157.844,118.293 158.624 L 117.400 159.284 118.549 159.088 C 119.986 158.843,120.832 159.653,131.400 171.395 C 132.940 173.106,135.100 175.444,136.200 176.589 C 139.064 179.573,142.491 183.269,146.400 187.590 C 148.270 189.657,150.566 192.125,151.502 193.074 L 153.205 194.800 169.902 194.795 C 179.086 194.792,187.003 194.681,187.495 194.549 L 188.390 194.309 187.530 193.055 C 187.058 192.365,186.375 191.530,186.014 191.200 C 185.652 190.870,184.386 189.430,183.200 188.000 C 182.014 186.570,180.750 185.130,180.390 184.800 C 180.031 184.470,179.031 183.302,178.169 182.205 C 177.306 181.107,176.308 179.937,175.950 179.605 C 175.593 179.272,174.355 177.830,173.200 176.400 C 172.044 174.970,170.769 173.485,170.366 173.100 C 169.963 172.715,167.353 169.655,164.565 166.300 C 161.777 162.945,159.204 159.930,158.847 159.600 C 158.490 159.270,156.244 156.684,153.855 153.853 L 149.512 148.706 150.476 147.743 C 151.395 146.823,154.154 145.658,159.400 143.973 C 160.720 143.549,162.250 142.948,162.800 142.638 C 163.350 142.327,164.520 141.945,165.400 141.788 C 166.280 141.631,167.540 141.184,168.200 140.794 C 168.860 140.404,170.164 139.960,171.098 139.807 C 172.032 139.655,172.896 139.368,173.018 139.170 C 173.141 138.972,174.267 138.515,175.520 138.155 C 176.774 137.794,178.468 137.161,179.284 136.749 C 180.100 136.337,181.078 136.000,181.458 136.000 C 181.837 136.000,182.879 135.646,183.774 135.213 C 184.668 134.781,186.120 134.177,187.000 133.873 L 188.600 133.320 188.710 103.560 C 188.771 87.192,188.722 73.395,188.603 72.900 L 188.385 72.000 129.054 72.000 C 73.057 72.000,69.689 72.039,69.092 72.700 M98.329 100.278 C 96.371 100.588,96.385 100.455,96.496 118.403 C 96.614 137.576,96.486 136.870,99.562 135.266 C 100.477 134.790,101.631 134.400,102.128 134.400 C 102.624 134.400,103.744 134.033,104.615 133.585 C 105.487 133.137,107.006 132.587,107.991 132.363 C 108.976 132.139,110.108 131.606,110.506 131.178 C 111.439 130.177,110.929 130.187,109.400 131.200 C 108.740 131.637,107.786 131.996,107.280 131.997 C 106.774 131.999,105.784 132.308,105.080 132.684 C 102.958 133.817,97.850 135.193,97.400 134.752 C 96.496 133.867,96.673 102.527,97.587 101.613 C 98.390 100.810,98.771 100.800,128.610 100.800 L 158.820 100.800 159.210 101.826 C 159.728 103.189,159.711 111.445,159.188 112.422 C 158.691 113.350,156.770 114.400,155.567 114.400 C 155.087 114.400,154.133 114.741,153.447 115.157 C 152.761 115.573,151.570 116.041,150.800 116.196 C 150.030 116.351,148.680 116.794,147.800 117.179 C 146.179 117.890,143.672 118.797,140.400 119.859 C 139.410 120.180,137.880 120.781,137.000 121.193 C 136.120 121.606,134.770 122.065,134.000 122.215 C 133.230 122.364,132.039 122.827,131.353 123.243 C 130.667 123.659,129.760 124.000,129.337 124.000 C 128.915 124.000,127.909 124.337,127.101 124.748 C 126.294 125.160,124.792 125.708,123.763 125.968 C 122.734 126.227,121.204 126.790,120.362 127.219 C 119.521 127.649,118.503 128.000,118.101 128.000 C 117.698 128.000,116.656 128.368,115.785 128.818 C 114.913 129.268,113.570 129.805,112.800 130.010 C 111.475 130.363,111.503 130.376,113.316 130.239 C 114.411 130.157,115.567 129.792,116.013 129.388 C 116.443 128.999,117.718 128.535,118.848 128.357 C 119.977 128.178,121.207 127.755,121.581 127.417 C 121.955 127.079,123.057 126.650,124.030 126.464 C 125.004 126.278,126.517 125.738,127.394 125.263 C 128.271 124.788,129.479 124.400,130.078 124.400 C 130.678 124.400,131.509 124.035,131.925 123.588 C 132.413 123.065,133.428 122.688,134.782 122.528 C 135.956 122.389,137.172 121.978,137.541 121.595 C 137.903 121.219,139.002 120.788,139.982 120.638 C 140.961 120.488,142.311 120.028,142.982 119.616 C 143.652 119.204,144.920 118.740,145.800 118.585 C 146.680 118.430,147.948 117.973,148.618 117.569 C 149.289 117.166,150.592 116.715,151.516 116.567 C 152.439 116.419,153.565 115.977,154.019 115.584 C 154.472 115.191,155.735 114.746,156.825 114.597 C 159.801 114.187,160.000 113.709,160.000 106.960 C 160.000 102.182,159.897 101.212,159.339 100.749 C 158.703 100.221,101.472 99.779,98.329 100.278 M238.700 100.432 C 237.679 101.027,237.614 128.166,238.633 128.557 C 239.786 129.000,301.990 128.834,302.826 128.386 C 303.567 127.989,303.600 127.418,303.594 114.886 C 303.587 100.797,303.612 100.977,301.575 100.393 C 299.672 99.847,239.640 99.885,238.700 100.432 M301.487 101.049 C 302.820 101.406,302.866 101.875,302.864 115.119 L 302.861 127.400 301.931 127.894 C 300.600 128.601,239.586 128.626,238.880 127.920 C 238.527 127.567,238.400 124.053,238.400 114.600 C 238.400 105.147,238.527 101.633,238.880 101.280 C 239.386 100.774,299.632 100.551,301.487 101.049 M209.466 217.561 C 208.919 218.220,208.572 336.807,209.111 338.887 L 209.429 340.115 223.608 340.031 C 231.406 339.984,237.880 339.854,237.993 339.740 C 238.107 339.627,238.252 331.451,238.316 321.571 L 238.431 303.607 239.316 303.391 C 240.589 303.080,302.281 303.348,302.599 303.666 C 302.746 303.812,302.844 311.462,302.818 320.666 C 302.771 337.301,302.954 339.974,304.139 340.017 C 313.816 340.365,330.652 339.944,331.092 339.342 C 331.866 338.283,331.836 218.294,331.062 217.652 C 330.170 216.911,210.080 216.822,209.466 217.561 M68.815 217.972 C 68.537 218.491,68.400 230.955,68.400 255.709 L 68.400 292.672 69.419 293.136 C 70.172 293.479,81.887 293.600,114.386 293.600 C 138.558 293.600,158.619 293.709,158.967 293.843 C 159.788 294.158,159.931 309.909,159.120 310.720 C 158.752 311.088,148.252 311.200,114.294 311.200 C 84.490 311.200,69.694 311.336,69.174 311.614 C 68.203 312.133,67.947 338.432,68.900 339.726 C 69.367 340.361,73.321 340.399,129.000 340.303 L 188.600 340.200 188.702 302.425 C 188.783 272.469,188.700 264.584,188.302 264.331 C 188.026 264.156,167.877 264.009,143.526 264.006 C 115.743 264.002,98.870 263.855,98.226 263.610 L 97.200 263.220 97.200 255.234 C 97.200 249.284,97.328 247.165,97.700 246.924 C 97.975 246.746,118.502 246.510,143.315 246.400 C 176.745 246.252,188.503 246.081,188.715 245.739 C 188.872 245.486,188.910 239.006,188.800 231.339 L 188.600 217.400 128.915 217.299 C 70.227 217.199,69.223 217.210,68.815 217.972 M187.220 218.210 L 188.400 218.821 188.400 232.164 L 188.400 245.507 187.500 245.748 C 187.005 245.881,166.588 245.992,142.129 245.995 C 102.238 245.999,97.592 246.065,97.029 246.629 C 95.969 247.688,96.101 263.412,97.174 263.986 C 97.694 264.264,112.494 264.402,142.274 264.405 C 166.653 264.408,187.005 264.519,187.500 264.652 L 188.400 264.893 188.400 301.967 C 188.400 330.268,188.286 339.154,187.920 339.520 C 187.551 339.889,173.817 340.000,128.538 340.000 L 69.636 340.000 69.403 338.700 C 69.274 337.985,69.221 331.640,69.284 324.600 L 69.400 311.800 114.161 311.698 C 146.430 311.625,159.073 311.472,159.461 311.149 C 160.195 310.540,160.249 294.409,159.520 293.680 C 159.152 293.312,148.665 293.200,114.753 293.200 C 90.395 293.200,70.181 293.091,69.833 292.957 C 69.059 292.660,68.845 219.810,69.614 218.374 C 70.189 217.300,185.151 217.140,187.220 218.210 M330.602 218.500 C 330.721 218.995,330.770 246.310,330.710 279.200 L 330.600 339.000 317.348 339.105 L 304.096 339.211 303.854 338.305 C 303.720 337.807,303.608 329.817,303.605 320.549 C 303.601 306.836,303.499 303.614,303.056 303.247 C 302.660 302.918,293.780 302.823,270.356 302.898 L 238.200 303.000 238.096 320.654 C 238.014 334.535,237.881 338.401,237.473 338.740 C 236.437 339.599,209.887 339.400,209.544 338.531 C 209.192 337.636,209.100 220.602,209.450 218.850 L 209.700 217.600 270.042 217.600 L 330.385 217.600 330.602 218.500 M238.267 246.267 C 237.503 247.030,237.989 273.566,238.774 273.986 C 239.995 274.639,301.100 274.540,302.400 273.882 L 303.400 273.377 303.506 260.188 C 303.603 248.145,303.553 246.957,302.930 246.500 C 302.191 245.959,238.803 245.730,238.267 246.267 M302.173 246.931 C 303.008 247.542,303.185 272.573,302.359 273.400 C 301.756 274.005,239.678 274.162,238.952 273.561 C 238.365 273.073,238.091 247.242,238.667 246.667 C 239.230 246.103,301.395 246.362,302.173 246.931 M247.645 389.055 C 247.944 389.415,248.911 390.054,249.794 390.475 C 250.677 390.897,252.300 391.764,253.400 392.403 C 254.500 393.042,256.030 393.862,256.800 394.225 C 257.570 394.589,258.336 395.123,258.502 395.412 C 258.669 395.701,259.389 396.061,260.102 396.212 C 260.816 396.363,261.760 396.806,262.200 397.197 C 262.640 397.588,263.450 398.039,264.000 398.200 C 264.550 398.361,265.360 398.811,265.800 399.200 C 266.240 399.589,267.050 400.039,267.600 400.200 C 268.150 400.361,268.960 400.802,269.400 401.181 C 269.840 401.560,270.830 402.114,271.600 402.412 C 272.370 402.709,273.133 403.169,273.295 403.432 C 273.457 403.695,274.087 404.034,274.695 404.185 C 275.303 404.336,276.189 404.822,276.664 405.266 C 277.140 405.709,277.830 406.011,278.199 405.936 C 278.814 405.811,275.933 404.013,271.668 401.858 C 270.861 401.451,269.930 400.880,269.600 400.590 C 269.270 400.300,268.518 399.942,267.929 399.795 C 267.341 399.648,266.548 399.184,266.167 398.764 C 265.787 398.344,265.179 398.000,264.816 398.000 C 264.453 398.000,263.545 397.550,262.800 397.000 C 262.055 396.450,261.234 396.000,260.976 396.000 C 260.719 396.000,260.079 395.664,259.554 395.254 C 259.029 394.844,257.250 393.816,255.600 392.969 C 253.950 392.122,252.171 391.108,251.646 390.715 C 251.121 390.322,250.384 390.000,250.008 390.000 C 249.632 390.000,248.998 389.640,248.600 389.200 C 247.736 388.245,246.863 388.112,247.645 389.055 " stroke="none" fill="#9473f4" fill-rule="evenodd"></path></g></svg>